0
SECTION
2
HEADER
9
$EXTMAX
10
    -900.000
20
      90.000
9
$EXTMIN
10
    5000.000
20
   -3000.000
0
ENDSEC
0
SECTION
2
ENTITIES
0
LINE
8
default
6
CONTINUOUS
10
        0.00
20
        0.00
11
        6.10
21
       -0.01
39
 0
62
 1
 0
LINE
8
default
6
CONTINUOUS
10
        0.00
20
        0.00
11
       -6.10
21
       -0.01
39
 0
62
 1
 0
LINE
8
default
6
CONTINUOUS
10
        6.10
20
       -0.01
11
       12.19
21
       -0.04
39
 0
62
 1
 0
LINE
8
default
6
CONTINUOUS
10
       -6.10
20
       -0.01
11
      -12.19
21
       -0.04
39
 0
62
 1
 0
LINE
8
default
6
CONTINUOUS
10
       12.19
20
       -0.04
11
       18.29
21
       -0.10
39
 0
62
 1
 0
LINE
8
default
6
CONTINUOUS
10
      -12.19
20
       -0.04
11
      -18.29
21
       -0.10
39
 0
62
 1
 0
LINE
8
default
6
CONTINUOUS
10
       18.29
20
       -0.10
11
       24.38
21
       -0.18
39
 0
62
 1
 0
LINE
8
default
6
CONTINUOUS
10
      -18.29
20
       -0.10
11
      -24.38
21
       -0.18
39
 0
62
 1
 0
LINE
8
default
6
CONTINUOUS
10
       24.38
20
       -0.18
11
       30.47
21
       -0.28
39
 0
62
 1
 0
LINE
8
default
6
CONTINUOUS
10
      -24.38
20
       -0.18
11
      -30.47
21
       -0.28
39
 0
62
 1
 0
LINE
8
default
6
CONTINUOUS
10
       30.47
20
       -0.28
11
       36.56
21
       -0.40
39
 0
62
 1
 0
LINE
8
default
6
CONTINUOUS
10
      -30.47
20
       -0.28
11
      -36.56
21
       -0.40
39
 0
62
 1
 0
LINE
8
default
6
CONTINUOUS
10
       36.56
20
       -0.40
11
       42.64
21
       -0.55
39
 0
62
 1
 0
LINE
8
default
6
CONTINUOUS
10
      -36.56
20
       -0.40
11
      -42.64
21
       -0.55
39
 0
62
 1
 0
LINE
8
default
6
CONTINUOUS
10
       42.64
20
       -0.55
11
       48.72
21
       -0.72
39
 0
62
 1
 0
LINE
8
default
6
CONTINUOUS
10
      -42.64
20
       -0.55
11
      -48.72
21
       -0.72
39
 0
62
 1
 0
LINE
8
default
6
CONTINUOUS
10
       48.72
20
       -0.72
11
       54.80
21
       -0.90
39
 0
62
 1
 0
LINE
8
default
6
CONTINUOUS
10
      -48.72
20
       -0.72
11
      -54.80
21
       -0.90
39
 0
62
 1
 0
LINE
8
default
6
CONTINUOUS
10
       54.80
20
       -0.90
11
       60.87
21
       -1.12
39
 0
62
 1
 0
LINE
8
default
6
CONTINUOUS
10
      -54.80
20
       -0.90
11
      -60.87
21
       -1.12
39
 0
62
 1
 0
LINE
8
default
6
CONTINUOUS
10
       60.87
20
       -1.12
11
       66.93
21
       -1.35
39
 0
62
 1
 0
LINE
8
default
6
CONTINUOUS
10
      -60.87
20
       -1.12
11
      -66.93
21
       -1.35
39
 0
62
 1
 0
LINE
8
default
6
CONTINUOUS
10
       66.93
20
       -1.35
11
       72.99
21
       -1.61
39
 0
62
 1
 0
LINE
8
default
6
CONTINUOUS
10
      -66.93
20
       -1.35
11
      -72.99
21
       -1.61
39
 0
62
 1
 0
LINE
8
default
6
CONTINUOUS
10
       72.99
20
       -1.61
11
       79.04
21
       -1.89
39
 0
62
 1
 0
LINE
8
default
6
CONTINUOUS
10
      -72.99
20
       -1.61
11
      -79.04
21
       -1.89
39
 0
62
 1
 0
LINE
8
default
6
CONTINUOUS
10
       79.04
20
       -1.89
11
       85.08
21
       -2.19
39
 0
62
 1
 0
LINE
8
default
6
CONTINUOUS
10
      -79.04
20
       -1.89
11
      -85.08
21
       -2.19
39
 0
62
 1
 0
LINE
8
default
6
CONTINUOUS
10
       85.08
20
       -2.19
11
       91.11
21
       -2.51
39
 0
62
 1
 0
LINE
8
default
6
CONTINUOUS
10
      -85.08
20
       -2.19
11
      -91.11
21
       -2.51
39
 0
62
 1
 0
LINE
8
default
6
CONTINUOUS
10
       91.11
20
       -2.51
11
       97.13
21
       -2.86
39
 0
62
 1
 0
LINE
8
default
6
CONTINUOUS
10
      -91.11
20
       -2.51
11
      -97.13
21
       -2.86
39
 0
62
 1
 0
LINE
8
default
6
CONTINUOUS
10
       97.13
20
       -2.86
11
      103.15
21
       -3.22
39
 0
62
 1
 0
LINE
8
default
6
CONTINUOUS
10
      -97.13
20
       -2.86
11
     -103.15
21
       -3.22
39
 0
62
 1
 0
LINE
8
default
6
CONTINUOUS
10
      103.15
20
       -3.22
11
      109.15
21
       -3.61
39
 0
62
 1
 0
LINE
8
default
6
CONTINUOUS
10
     -103.15
20
       -3.22
11
     -109.15
21
       -3.61
39
 0
62
 1
 0
LINE
8
default
6
CONTINUOUS
10
      109.15
20
       -3.61
11
      115.14
21
       -4.02
39
 0
62
 1
 0
LINE
8
default
6
CONTINUOUS
10
     -109.15
20
       -3.61
11
     -115.14
21
       -4.02
39
 0
62
 1
 0
LINE
8
default
6
CONTINUOUS
10
      115.14
20
       -4.02
11
      121.12
21
       -4.46
39
 0
62
 1
 0
LINE
8
default
6
CONTINUOUS
10
     -115.14
20
       -4.02
11
     -121.12
21
       -4.46
39
 0
62
 1
 0
LINE
8
default
6
CONTINUOUS
10
      121.12
20
       -4.46
11
      127.09
21
       -4.91
39
 0
62
 1
 0
LINE
8
default
6
CONTINUOUS
10
     -121.12
20
       -4.46
11
     -127.09
21
       -4.91
39
 0
62
 1
 0
LINE
8
default
6
CONTINUOUS
10
      127.09
20
       -4.91
11
      133.05
21
       -5.39
39
 0
62
 1
 0
LINE
8
default
6
CONTINUOUS
10
     -127.09
20
       -4.91
11
     -133.05
21
       -5.39
39
 0
62
 1
 0
LINE
8
default
6
CONTINUOUS
10
      133.05
20
       -5.39
11
      138.99
21
       -5.89
39
 0
62
 1
 0
LINE
8
default
6
CONTINUOUS
10
     -133.05
20
       -5.39
11
     -138.99
21
       -5.89
39
 0
62
 1
 0
LINE
8
default
6
CONTINUOUS
10
      138.99
20
       -5.89
11
      144.92
21
       -6.41
39
 0
62
 1
 0
LINE
8
default
6
CONTINUOUS
10
     -138.99
20
       -5.89
11
     -144.92
21
       -6.41
39
 0
62
 1
 0
LINE
8
default
6
CONTINUOUS
10
      144.92
20
       -6.41
11
      150.84
21
       -6.95
39
 0
62
 1
 0
LINE
8
default
6
CONTINUOUS
10
     -144.92
20
       -6.41
11
     -150.84
21
       -6.95
39
 0
62
 1
 0
LINE
8
default
6
CONTINUOUS
10
      150.84
20
       -6.95
11
      156.74
21
       -7.51
39
 0
62
 1
 0
LINE
8
default
6
CONTINUOUS
10
     -150.84
20
       -6.95
11
     -156.74
21
       -7.51
39
 0
62
 1
 0
LINE
8
default
6
CONTINUOUS
10
      156.74
20
       -7.51
11
      162.62
21
       -8.10
39
 0
62
 1
 0
LINE
8
default
6
CONTINUOUS
10
     -156.74
20
       -7.51
11
     -162.62
21
       -8.10
39
 0
62
 1
 0
LINE
8
default
6
CONTINUOUS
10
      162.62
20
       -8.10
11
      168.49
21
       -8.71
39
 0
62
 1
 0
LINE
8
default
6
CONTINUOUS
10
     -162.62
20
       -8.10
11
     -168.49
21
       -8.71
39
 0
62
 1
 0
LINE
8
default
6
CONTINUOUS
10
      168.49
20
       -8.71
11
      174.34
21
       -9.34
39
 0
62
 1
 0
LINE
8
default
6
CONTINUOUS
10
     -168.49
20
       -8.71
11
     -174.34
21
       -9.34
39
 0
62
 1
 0
LINE
8
default
6
CONTINUOUS
10
      174.34
20
       -9.34
11
      180.17
21
       -9.99
39
 0
62
 1
 0
LINE
8
default
6
CONTINUOUS
10
     -174.34
20
       -9.34
11
     -180.17
21
       -9.99
39
 0
62
 1
 0
LINE
8
default
6
CONTINUOUS
10
      180.17
20
       -9.99
11
      185.99
21
      -10.66
39
 0
62
 1
 0
LINE
8
default
6
CONTINUOUS
10
     -180.17
20
       -9.99
11
     -185.99
21
      -10.66
39
 0
62
 1
 0
LINE
8
default
6
CONTINUOUS
10
      185.99
20
      -10.66
11
      191.78
21
      -11.35
39
 0
62
 1
 0
LINE
8
default
6
CONTINUOUS
10
     -185.99
20
      -10.66
11
     -191.78
21
      -11.35
39
 0
62
 1
 0
LINE
8
default
6
CONTINUOUS
10
      191.78
20
      -11.35
11
      197.56
21
      -12.06
39
 0
62
 1
 0
LINE
8
default
6
CONTINUOUS
10
     -191.78
20
      -11.35
11
     -197.56
21
      -12.06
39
 0
62
 1
 0
LINE
8
default
6
CONTINUOUS
10
      197.56
20
      -12.06
11
      203.32
21
      -12.80
39
 0
62
 1
 0
LINE
8
default
6
CONTINUOUS
10
     -197.56
20
      -12.06
11
     -203.32
21
      -12.80
39
 0
62
 1
 0
LINE
8
default
6
CONTINUOUS
10
      203.32
20
      -12.80
11
      209.06
21
      -13.56
39
 0
62
 1
 0
LINE
8
default
6
CONTINUOUS
10
     -203.32
20
      -12.80
11
     -209.06
21
      -13.56
39
 0
62
 1
 0
LINE
8
default
6
CONTINUOUS
10
      209.06
20
      -13.56
11
      214.77
21
      -14.33
39
 0
62
 1
 0
LINE
8
default
6
CONTINUOUS
10
     -209.06
20
      -13.56
11
     -214.77
21
      -14.33
39
 0
62
 1
 0
LINE
8
default
6
CONTINUOUS
10
      214.77
20
      -14.33
11
      220.47
21
      -15.13
39
 0
62
 1
 0
LINE
8
default
6
CONTINUOUS
10
     -214.77
20
      -14.33
11
     -220.47
21
      -15.13
39
 0
62
 1
 0
LINE
8
default
6
CONTINUOUS
10
      220.47
20
      -15.13
11
      226.14
21
      -15.95
39
 0
62
 1
 0
LINE
8
default
6
CONTINUOUS
10
     -220.47
20
      -15.13
11
     -226.14
21
      -15.95
39
 0
62
 1
 0
LINE
8
default
6
CONTINUOUS
10
      226.14
20
      -15.95
11
      231.79
21
      -16.79
39
 0
62
 1
 0
LINE
8
default
6
CONTINUOUS
10
     -226.14
20
      -15.95
11
     -231.79
21
      -16.79
39
 0
62
 1
 0
LINE
8
default
6
CONTINUOUS
10
      231.79
20
      -16.79
11
      237.42
21
      -17.65
39
 0
62
 1
 0
LINE
8
default
6
CONTINUOUS
10
     -231.79
20
      -16.79
11
     -237.42
21
      -17.65
39
 0
62
 1
 0
LINE
8
default
6
CONTINUOUS
10
      237.42
20
      -17.65
11
      243.02
21
      -18.53
39
 0
62
 1
 0
LINE
8
default
6
CONTINUOUS
10
     -237.42
20
      -17.65
11
     -243.02
21
      -18.53
39
 0
62
 1
 0
LINE
8
default
6
CONTINUOUS
10
      243.02
20
      -18.53
11
      248.60
21
      -19.43
39
 0
62
 1
 0
LINE
8
default
6
CONTINUOUS
10
     -243.02
20
      -18.53
11
     -248.60
21
      -19.43
39
 0
62
 1
 0
LINE
8
default
6
CONTINUOUS
10
      248.60
20
      -19.43
11
      254.16
21
      -20.35
39
 0
62
 1
 0
LINE
8
default
6
CONTINUOUS
10
     -248.60
20
      -19.43
11
     -254.16
21
      -20.35
39
 0
62
 1
 0
LINE
8
default
6
CONTINUOUS
10
      254.16
20
      -20.35
11
      259.69
21
      -21.30
39
 0
62
 1
 0
LINE
8
default
6
CONTINUOUS
10
     -254.16
20
      -20.35
11
     -259.69
21
      -21.30
39
 0
62
 1
 0
LINE
8
default
6
CONTINUOUS
10
      259.69
20
      -21.30
11
      265.19
21
      -22.26
39
 0
62
 1
 0
LINE
8
default
6
CONTINUOUS
10
     -259.69
20
      -21.30
11
     -265.19
21
      -22.26
39
 0
62
 1
 0
LINE
8
default
6
CONTINUOUS
10
      265.19
20
      -22.26
11
      270.67
21
      -23.24
39
 0
62
 1
 0
LINE
8
default
6
CONTINUOUS
10
     -265.19
20
      -22.26
11
     -270.67
21
      -23.24
39
 0
62
 1
 0
LINE
8
default
6
CONTINUOUS
10
      270.67
20
      -23.24
11
      276.12
21
      -24.24
39
 0
62
 1
 0
LINE
8
default
6
CONTINUOUS
10
     -270.67
20
      -23.24
11
     -276.12
21
      -24.24
39
 0
62
 1
 0
LINE
8
default
6
CONTINUOUS
10
      276.12
20
      -24.24
11
      281.54
21
      -25.27
39
 0
62
 1
 0
LINE
8
default
6
CONTINUOUS
10
     -276.12
20
      -24.24
11
     -281.54
21
      -25.27
39
 0
62
 1
 0
LINE
8
default
6
CONTINUOUS
10
      281.54
20
      -25.27
11
      286.93
21
      -26.31
39
 0
62
 1
 0
LINE
8
default
6
CONTINUOUS
10
     -281.54
20
      -25.27
11
     -286.93
21
      -26.31
39
 0
62
 1
 0
LINE
8
default
6
CONTINUOUS
10
      286.93
20
      -26.31
11
      292.30
21
      -27.37
39
 0
62
 1
 0
LINE
8
default
6
CONTINUOUS
10
     -286.93
20
      -26.31
11
     -292.30
21
      -27.37
39
 0
62
 1
 0
LINE
8
default
6
CONTINUOUS
10
      292.30
20
      -27.37
11
      297.63
21
      -28.48
39
 0
62
 1
 0
LINE
8
default
6
CONTINUOUS
10
     -292.30
20
      -27.37
11
     -297.63
21
      -28.48
39
 0
62
 1
 0
LINE
8
default
6
CONTINUOUS
10
      297.63
20
      -28.48
11
      302.94
21
      -29.64
39
 0
62
 1
 0
LINE
8
default
6
CONTINUOUS
10
     -297.63
20
      -28.48
11
     -302.94
21
      -29.64
39
 0
62
 1
 0
LINE
8
default
6
CONTINUOUS
10
      302.94
20
      -29.64
11
      308.21
21
      -30.86
39
 0
62
 1
 0
LINE
8
default
6
CONTINUOUS
10
     -302.94
20
      -29.64
11
     -308.21
21
      -30.86
39
 0
62
 1
 0
LINE
8
default
6
CONTINUOUS
10
      308.21
20
      -30.86
11
      313.46
21
      -32.13
39
 0
62
 1
 0
LINE
8
default
6
CONTINUOUS
10
     -308.21
20
      -30.86
11
     -313.46
21
      -32.13
39
 0
62
 1
 0
LINE
8
default
6
CONTINUOUS
10
      313.46
20
      -32.13
11
      318.67
21
      -33.45
39
 0
62
 1
 0
LINE
8
default
6
CONTINUOUS
10
     -313.46
20
      -32.13
11
     -318.67
21
      -33.45
39
 0
62
 1
 0
LINE
8
default
6
CONTINUOUS
10
      318.67
20
      -33.45
11
      323.85
21
      -34.83
39
 0
62
 1
 0
LINE
8
default
6
CONTINUOUS
10
     -318.67
20
      -33.45
11
     -323.85
21
      -34.83
39
 0
62
 1
 0
LINE
8
default
6
CONTINUOUS
10
      323.85
20
      -34.83
11
      329.00
21
      -36.27
39
 0
62
 1
 0
LINE
8
default
6
CONTINUOUS
10
     -323.85
20
      -34.83
11
     -329.00
21
      -36.27
39
 0
62
 1
 0
LINE
8
default
6
CONTINUOUS
10
      329.00
20
      -36.27
11
      334.12
21
      -37.75
39
 0
62
 1
 0
LINE
8
default
6
CONTINUOUS
10
     -329.00
20
      -36.27
11
     -334.12
21
      -37.75
39
 0
62
 1
 0
LINE
8
default
6
CONTINUOUS
10
      334.12
20
      -37.75
11
      339.20
21
      -39.28
39
 0
62
 1
 0
LINE
8
default
6
CONTINUOUS
10
     -334.12
20
      -37.75
11
     -339.20
21
      -39.28
39
 0
62
 1
 0
LINE
8
default
6
CONTINUOUS
10
      339.20
20
      -39.28
11
      344.25
21
      -40.87
39
 0
62
 1
 0
LINE
8
default
6
CONTINUOUS
10
     -339.20
20
      -39.28
11
     -344.25
21
      -40.87
39
 0
62
 1
 0
LINE
8
default
6
CONTINUOUS
10
      344.25
20
      -40.87
11
      349.27
21
      -42.50
39
 0
62
 1
 0
LINE
8
default
6
CONTINUOUS
10
     -344.25
20
      -40.87
11
     -349.27
21
      -42.50
39
 0
62
 1
 0
LINE
8
default
6
CONTINUOUS
10
      349.27
20
      -42.50
11
      354.25
21
      -44.18
39
 0
62
 1
 0
LINE
8
default
6
CONTINUOUS
10
     -349.27
20
      -42.50
11
     -354.25
21
      -44.18
39
 0
62
 1
 0
LINE
8
default
6
CONTINUOUS
10
      354.25
20
      -44.18
11
      359.19
21
      -45.91
39
 0
62
 1
 0
LINE
8
default
6
CONTINUOUS
10
     -354.25
20
      -44.18
11
     -359.19
21
      -45.91
39
 0
62
 1
 0
LINE
8
default
6
CONTINUOUS
10
      359.19
20
      -45.91
11
      364.10
21
      -47.69
39
 0
62
 1
 0
LINE
8
default
6
CONTINUOUS
10
     -359.19
20
      -45.91
11
     -364.10
21
      -47.69
39
 0
62
 1
 0
LINE
8
default
6
CONTINUOUS
10
      364.10
20
      -47.69
11
      368.97
21
      -49.51
39
 0
62
 1
 0
LINE
8
default
6
CONTINUOUS
10
     -364.10
20
      -47.69
11
     -368.97
21
      -49.51
39
 0
62
 1
 0
LINE
8
default
6
CONTINUOUS
10
      368.97
20
      -49.51
11
      373.80
21
      -51.38
39
 0
62
 1
 0
LINE
8
default
6
CONTINUOUS
10
     -368.97
20
      -49.51
11
     -373.80
21
      -51.38
39
 0
62
 1
 0
LINE
8
default
6
CONTINUOUS
10
      373.80
20
      -51.38
11
      378.60
21
      -53.29
39
 0
62
 1
 0
LINE
8
default
6
CONTINUOUS
10
     -373.80
20
      -51.38
11
     -378.60
21
      -53.29
39
 0
62
 1
 0
LINE
8
default
6
CONTINUOUS
10
      378.60
20
      -53.29
11
      383.36
21
      -55.24
39
 0
62
 1
 0
LINE
8
default
6
CONTINUOUS
10
     -378.60
20
      -53.29
11
     -383.36
21
      -55.24
39
 0
62
 1
 0
LINE
8
default
6
CONTINUOUS
10
      383.36
20
      -55.24
11
      388.08
21
      -57.24
39
 0
62
 1
 0
LINE
8
default
6
CONTINUOUS
10
     -383.36
20
      -55.24
11
     -388.08
21
      -57.24
39
 0
62
 1
 0
LINE
8
default
6
CONTINUOUS
10
      388.08
20
      -57.24
11
      392.77
21
      -59.27
39
 0
62
 1
 0
LINE
8
default
6
CONTINUOUS
10
     -388.08
20
      -57.24
11
     -392.77
21
      -59.27
39
 0
62
 1
 0
LINE
8
default
6
CONTINUOUS
10
      392.77
20
      -59.27
11
      397.41
21
      -61.35
39
 0
62
 1
 0
LINE
8
default
6
CONTINUOUS
10
     -392.77
20
      -59.27
11
     -397.41
21
      -61.35
39
 0
62
 1
 0
LINE
8
default
6
CONTINUOUS
10
      397.41
20
      -61.35
11
      402.01
21
      -63.47
39
 0
62
 1
 0
LINE
8
default
6
CONTINUOUS
10
     -397.41
20
      -61.35
11
     -402.01
21
      -63.47
39
 0
62
 1
 0
LINE
8
default
6
CONTINUOUS
10
      402.01
20
      -63.47
11
      406.58
21
      -65.62
39
 0
62
 1
 0
LINE
8
default
6
CONTINUOUS
10
     -402.01
20
      -63.47
11
     -406.58
21
      -65.62
39
 0
62
 1
 0
LINE
8
default
6
CONTINUOUS
10
      406.58
20
      -65.62
11
      411.10
21
      -67.81
39
 0
62
 1
 0
LINE
8
default
6
CONTINUOUS
10
     -406.58
20
      -65.62
11
     -411.10
21
      -67.81
39
 0
62
 1
 0
LINE
8
default
6
CONTINUOUS
10
      411.10
20
      -67.81
11
      415.58
21
      -70.04
39
 0
62
 1
 0
LINE
8
default
6
CONTINUOUS
10
     -411.10
20
      -67.81
11
     -415.58
21
      -70.04
39
 0
62
 1
 0
LINE
8
default
6
CONTINUOUS
10
      415.58
20
      -70.04
11
      420.02
21
      -72.31
39
 0
62
 1
 0
LINE
8
default
6
CONTINUOUS
10
     -415.58
20
      -70.04
11
     -420.02
21
      -72.31
39
 0
62
 1
 0
LINE
8
default
6
CONTINUOUS
10
      420.02
20
      -72.31
11
      424.42
21
      -74.61
39
 0
62
 1
 0
LINE
8
default
6
CONTINUOUS
10
     -420.02
20
      -72.31
11
     -424.42
21
      -74.61
39
 0
62
 1
 0
LINE
8
default
6
CONTINUOUS
10
      424.42
20
      -74.61
11
      428.78
21
      -76.94
39
 0
62
 1
 0
LINE
8
default
6
CONTINUOUS
10
     -424.42
20
      -74.61
11
     -428.78
21
      -76.94
39
 0
62
 1
 0
LINE
8
default
6
CONTINUOUS
10
      428.78
20
      -76.94
11
      433.09
21
      -79.30
39
 0
62
 1
 0
LINE
8
default
6
CONTINUOUS
10
     -428.78
20
      -76.94
11
     -433.09
21
      -79.30
39
 0
62
 1
 0
LINE
8
default
6
CONTINUOUS
10
      433.09
20
      -79.30
11
      437.36
21
      -81.70
39
 0
62
 1
 0
LINE
8
default
6
CONTINUOUS
10
     -433.09
20
      -79.30
11
     -437.36
21
      -81.70
39
 0
62
 1
 0
LINE
8
default
6
CONTINUOUS
10
      437.36
20
      -81.70
11
      441.58
21
      -84.13
39
 0
62
 1
 0
LINE
8
default
6
CONTINUOUS
10
     -437.36
20
      -81.70
11
     -441.58
21
      -84.13
39
 0
62
 1
 0
LINE
8
default
6
CONTINUOUS
10
      441.58
20
      -84.13
11
      445.76
21
      -86.59
39
 0
62
 1
 0
LINE
8
default
6
CONTINUOUS
10
     -441.58
20
      -84.13
11
     -445.76
21
      -86.59
39
 0
62
 1
 0
LINE
8
default
6
CONTINUOUS
10
      445.76
20
      -86.59
11
      449.90
21
      -89.08
39
 0
62
 1
 0
LINE
8
default
6
CONTINUOUS
10
     -445.76
20
      -86.59
11
     -449.90
21
      -89.08
39
 0
62
 1
 0
LINE
8
default
6
CONTINUOUS
10
      449.90
20
      -89.08
11
      453.99
21
      -91.59
39
 0
62
 1
 0
LINE
8
default
6
CONTINUOUS
10
     -449.90
20
      -89.08
11
     -453.99
21
      -91.59
39
 0
62
 1
 0
LINE
8
default
6
CONTINUOUS
10
      453.99
20
      -91.59
11
      458.04
21
      -94.13
39
 0
62
 1
 0
LINE
8
default
6
CONTINUOUS
10
     -453.99
20
      -91.59
11
     -458.04
21
      -94.13
39
 0
62
 1
 0
LINE
8
default
6
CONTINUOUS
10
      458.04
20
      -94.13
11
      462.04
21
      -96.70
39
 0
62
 1
 0
LINE
8
default
6
CONTINUOUS
10
     -458.04
20
      -94.13
11
     -462.04
21
      -96.70
39
 0
62
 1
 0
LINE
8
default
6
CONTINUOUS
10
      462.04
20
      -96.70
11
      466.00
21
      -99.29
39
 0
62
 1
 0
LINE
8
default
6
CONTINUOUS
10
     -462.04
20
      -96.70
11
     -466.00
21
      -99.29
39
 0
62
 1
 0
LINE
8
default
6
CONTINUOUS
10
      466.00
20
      -99.29
11
      469.90
21
     -101.91
39
 0
62
 1
 0
LINE
8
default
6
CONTINUOUS
10
     -466.00
20
      -99.29
11
     -469.90
21
     -101.91
39
 0
62
 1
 0
LINE
8
default
6
CONTINUOUS
10
      469.90
20
     -101.91
11
      473.76
21
     -104.55
39
 0
62
 1
 0
LINE
8
default
6
CONTINUOUS
10
     -469.90
20
     -101.91
11
     -473.76
21
     -104.55
39
 0
62
 1
 0
LINE
8
default
6
CONTINUOUS
10
      473.76
20
     -104.55
11
      477.58
21
     -107.21
39
 0
62
 1
 0
LINE
8
default
6
CONTINUOUS
10
     -473.76
20
     -104.55
11
     -477.58
21
     -107.21
39
 0
62
 1
 0
LINE
8
default
6
CONTINUOUS
10
      477.58
20
     -107.21
11
      481.34
21
     -109.89
39
 0
62
 1
 0
LINE
8
default
6
CONTINUOUS
10
     -477.58
20
     -107.21
11
     -481.34
21
     -109.89
39
 0
62
 1
 0
LINE
8
default
6
CONTINUOUS
10
      481.34
20
     -109.89
11
      485.06
21
     -112.60
39
 0
62
 1
 0
LINE
8
default
6
CONTINUOUS
10
     -481.34
20
     -109.89
11
     -485.06
21
     -112.60
39
 0
62
 1
 0
LINE
8
default
6
CONTINUOUS
10
      485.06
20
     -112.60
11
      488.73
21
     -115.32
39
 0
62
 1
 0
LINE
8
default
6
CONTINUOUS
10
     -485.06
20
     -112.60
11
     -488.73
21
     -115.32
39
 0
62
 1
 0
LINE
8
default
6
CONTINUOUS
10
      488.73
20
     -115.32
11
      492.35
21
     -118.06
39
 0
62
 1
 0
LINE
8
default
6
CONTINUOUS
10
     -488.73
20
     -115.32
11
     -492.35
21
     -118.06
39
 0
62
 1
 0
LINE
8
default
6
CONTINUOUS
10
      492.35
20
     -118.06
11
      495.92
21
     -120.82
39
 0
62
 1
 0
LINE
8
default
6
CONTINUOUS
10
     -492.35
20
     -118.06
11
     -495.92
21
     -120.82
39
 0
62
 1
 0
LINE
8
default
6
CONTINUOUS
10
      495.92
20
     -120.82
11
      499.44
21
     -123.59
39
 0
62
 1
 0
LINE
8
default
6
CONTINUOUS
10
     -495.92
20
     -120.82
11
     -499.44
21
     -123.59
39
 0
62
 1
 0
LINE
8
default
6
CONTINUOUS
10
      499.44
20
     -123.59
11
      502.92
21
     -126.38
39
 0
62
 1
 0
LINE
8
default
6
CONTINUOUS
10
     -499.44
20
     -123.59
11
     -502.92
21
     -126.38
39
 0
62
 1
 0
LINE
8
default
6
CONTINUOUS
10
      502.92
20
     -126.38
11
      506.34
21
     -129.18
39
 0
62
 1
 0
LINE
8
default
6
CONTINUOUS
10
     -502.92
20
     -126.38
11
     -506.34
21
     -129.18
39
 0
62
 1
 0
LINE
8
default
6
CONTINUOUS
10
      506.34
20
     -129.18
11
      509.71
21
     -132.00
39
 0
62
 1
 0
LINE
8
default
6
CONTINUOUS
10
     -506.34
20
     -129.18
11
     -509.71
21
     -132.00
39
 0
62
 1
 0
LINE
8
default
6
CONTINUOUS
10
      509.71
20
     -132.00
11
      513.03
21
     -134.82
39
 0
62
 1
 0
LINE
8
default
6
CONTINUOUS
10
     -509.71
20
     -132.00
11
     -513.03
21
     -134.82
39
 0
62
 1
 0
LINE
8
default
6
CONTINUOUS
10
      513.03
20
     -134.82
11
      516.30
21
     -137.66
39
 0
62
 1
 0
LINE
8
default
6
CONTINUOUS
10
     -513.03
20
     -134.82
11
     -516.30
21
     -137.66
39
 0
62
 1
 0
LINE
8
default
6
CONTINUOUS
10
      516.30
20
     -137.66
11
      519.51
21
     -140.51
39
 0
62
 1
 0
LINE
8
default
6
CONTINUOUS
10
     -516.30
20
     -137.66
11
     -519.51
21
     -140.51
39
 0
62
 1
 0
LINE
8
default
6
CONTINUOUS
10
      519.51
20
     -140.51
11
      522.68
21
     -143.37
39
 0
62
 1
 0
LINE
8
default
6
CONTINUOUS
10
     -519.51
20
     -140.51
11
     -522.68
21
     -143.37
39
 0
62
 1
 0
LINE
8
default
6
CONTINUOUS
10
      522.68
20
     -143.37
11
      525.79
21
     -146.24
39
 0
62
 1
 0
LINE
8
default
6
CONTINUOUS
10
     -522.68
20
     -143.37
11
     -525.79
21
     -146.24
39
 0
62
 1
 0
LINE
8
default
6
CONTINUOUS
10
      525.79
20
     -146.24
11
      528.85
21
     -149.12
39
 0
62
 1
 0
LINE
8
default
6
CONTINUOUS
10
     -525.79
20
     -146.24
11
     -528.85
21
     -149.12
39
 0
62
 1
 0
LINE
8
default
6
CONTINUOUS
10
      528.85
20
     -149.12
11
      531.86
21
     -152.00
39
 0
62
 1
 0
LINE
8
default
6
CONTINUOUS
10
     -528.85
20
     -149.12
11
     -531.86
21
     -152.00
39
 0
62
 1
 0
LINE
8
default
6
CONTINUOUS
10
      531.86
20
     -152.00
11
      534.81
21
     -154.89
39
 0
62
 1
 0
LINE
8
default
6
CONTINUOUS
10
     -531.86
20
     -152.00
11
     -534.81
21
     -154.89
39
 0
62
 1
 0
LINE
8
default
6
CONTINUOUS
10
      534.81
20
     -154.89
11
      537.71
21
     -157.79
39
 0
62
 1
 0
LINE
8
default
6
CONTINUOUS
10
     -534.81
20
     -154.89
11
     -537.71
21
     -157.79
39
 0
62
 1
 0
LINE
8
default
6
CONTINUOUS
10
      537.71
20
     -157.79
11
      539.00
21
     -159.09
39
 0
62
 1
 0
LINE
8
default
6
CONTINUOUS
10
     -537.71
20
     -157.79
11
     -539.00
21
     -159.09
39
 0
62
 1
 0
LINE
8
default
6
CONTINUOUS
10
        0.00
20
     -309.33
11
        6.37
21
     -309.32
39
 0
62
 1
 0
LINE
8
default
6
CONTINUOUS
10
        0.00
20
     -309.33
11
       -6.37
21
     -309.32
39
 0
62
 1
 0
LINE
8
default
6
CONTINUOUS
10
        6.37
20
     -309.32
11
       12.74
21
     -309.30
39
 0
62
 1
 0
LINE
8
default
6
CONTINUOUS
10
       -6.37
20
     -309.32
11
      -12.74
21
     -309.30
39
 0
62
 1
 0
LINE
8
default
6
CONTINUOUS
10
       12.74
20
     -309.30
11
       19.10
21
     -309.27
39
 0
62
 1
 0
LINE
8
default
6
CONTINUOUS
10
      -12.74
20
     -309.30
11
      -19.10
21
     -309.27
39
 0
62
 1
 0
LINE
8
default
6
CONTINUOUS
10
       19.10
20
     -309.27
11
       25.47
21
     -309.23
39
 0
62
 1
 0
LINE
8
default
6
CONTINUOUS
10
      -19.10
20
     -309.27
11
      -25.47
21
     -309.23
39
 0
62
 1
 0
LINE
8
default
6
CONTINUOUS
10
       25.47
20
     -309.23
11
       31.83
21
     -309.17
39
 0
62
 1
 0
LINE
8
default
6
CONTINUOUS
10
      -25.47
20
     -309.23
11
      -31.83
21
     -309.17
39
 0
62
 1
 0
LINE
8
default
6
CONTINUOUS
10
       31.83
20
     -309.17
11
       38.19
21
     -309.10
39
 0
62
 1
 0
LINE
8
default
6
CONTINUOUS
10
      -31.83
20
     -309.17
11
      -38.19
21
     -309.10
39
 0
62
 1
 0
LINE
8
default
6
CONTINUOUS
10
       38.19
20
     -309.10
11
       44.55
21
     -309.02
39
 0
62
 1
 0
LINE
8
default
6
CONTINUOUS
10
      -38.19
20
     -309.10
11
      -44.55
21
     -309.02
39
 0
62
 1
 0
LINE
8
default
6
CONTINUOUS
10
       44.55
20
     -309.02
11
       50.90
21
     -308.92
39
 0
62
 1
 0
LINE
8
default
6
CONTINUOUS
10
      -44.55
20
     -309.02
11
      -50.90
21
     -308.92
39
 0
62
 1
 0
LINE
8
default
6
CONTINUOUS
10
       50.90
20
     -308.92
11
       57.25
21
     -308.81
39
 0
62
 1
 0
LINE
8
default
6
CONTINUOUS
10
      -50.90
20
     -308.92
11
      -57.25
21
     -308.81
39
 0
62
 1
 0
LINE
8
default
6
CONTINUOUS
10
       57.25
20
     -308.81
11
       63.59
21
     -308.69
39
 0
62
 1
 0
LINE
8
default
6
CONTINUOUS
10
      -57.25
20
     -308.81
11
      -63.59
21
     -308.69
39
 0
62
 1
 0
LINE
8
default
6
CONTINUOUS
10
       63.59
20
     -308.69
11
       69.92
21
     -308.56
39
 0
62
 1
 0
LINE
8
default
6
CONTINUOUS
10
      -63.59
20
     -308.69
11
      -69.92
21
     -308.56
39
 0
62
 1
 0
LINE
8
default
6
CONTINUOUS
10
       69.92
20
     -308.56
11
       76.25
21
     -308.41
39
 0
62
 1
 0
LINE
8
default
6
CONTINUOUS
10
      -69.92
20
     -308.56
11
      -76.25
21
     -308.41
39
 0
62
 1
 0
LINE
8
default
6
CONTINUOUS
10
       76.25
20
     -308.41
11
       82.57
21
     -308.25
39
 0
62
 1
 0
LINE
8
default
6
CONTINUOUS
10
      -76.25
20
     -308.41
11
      -82.57
21
     -308.25
39
 0
62
 1
 0
LINE
8
default
6
CONTINUOUS
10
       82.57
20
     -308.25
11
       88.88
21
     -308.08
39
 0
62
 1
 0
LINE
8
default
6
CONTINUOUS
10
      -82.57
20
     -308.25
11
      -88.88
21
     -308.08
39
 0
62
 1
 0
LINE
8
default
6
CONTINUOUS
10
       88.88
20
     -308.08
11
       95.18
21
     -307.89
39
 0
62
 1
 0
LINE
8
default
6
CONTINUOUS
10
      -88.88
20
     -308.08
11
      -95.18
21
     -307.89
39
 0
62
 1
 0
LINE
8
default
6
CONTINUOUS
10
       95.18
20
     -307.89
11
      101.47
21
     -307.70
39
 0
62
 1
 0
LINE
8
default
6
CONTINUOUS
10
      -95.18
20
     -307.89
11
     -101.47
21
     -307.70
39
 0
62
 1
 0
LINE
8
default
6
CONTINUOUS
10
      101.47
20
     -307.70
11
      107.76
21
     -307.49
39
 0
62
 1
 0
LINE
8
default
6
CONTINUOUS
10
     -101.47
20
     -307.70
11
     -107.76
21
     -307.49
39
 0
62
 1
 0
LINE
8
default
6
CONTINUOUS
10
      107.76
20
     -307.49
11
      114.03
21
     -307.26
39
 0
62
 1
 0
LINE
8
default
6
CONTINUOUS
10
     -107.76
20
     -307.49
11
     -114.03
21
     -307.26
39
 0
62
 1
 0
LINE
8
default
6
CONTINUOUS
10
      114.03
20
     -307.26
11
      120.29
21
     -307.03
39
 0
62
 1
 0
LINE
8
default
6
CONTINUOUS
10
     -114.03
20
     -307.26
11
     -120.29
21
     -307.03
39
 0
62
 1
 0
LINE
8
default
6
CONTINUOUS
10
      120.29
20
     -307.03
11
      126.54
21
     -306.78
39
 0
62
 1
 0
LINE
8
default
6
CONTINUOUS
10
     -120.29
20
     -307.03
11
     -126.54
21
     -306.78
39
 0
62
 1
 0
LINE
8
default
6
CONTINUOUS
10
      126.54
20
     -306.78
11
      132.77
21
     -306.52
39
 0
62
 1
 0
LINE
8
default
6
CONTINUOUS
10
     -126.54
20
     -306.78
11
     -132.77
21
     -306.52
39
 0
62
 1
 0
LINE
8
default
6
CONTINUOUS
10
      132.77
20
     -306.52
11
      139.00
21
     -306.25
39
 0
62
 1
 0
LINE
8
default
6
CONTINUOUS
10
     -132.77
20
     -306.52
11
     -139.00
21
     -306.25
39
 0
62
 1
 0
LINE
8
default
6
CONTINUOUS
10
      139.00
20
     -306.25
11
      145.20
21
     -305.96
39
 0
62
 1
 0
LINE
8
default
6
CONTINUOUS
10
     -139.00
20
     -306.25
11
     -145.20
21
     -305.96
39
 0
62
 1
 0
LINE
8
default
6
CONTINUOUS
10
      145.20
20
     -305.96
11
      151.40
21
     -305.66
39
 0
62
 1
 0
LINE
8
default
6
CONTINUOUS
10
     -145.20
20
     -305.96
11
     -151.40
21
     -305.66
39
 0
62
 1
 0
LINE
8
default
6
CONTINUOUS
10
      151.40
20
     -305.66
11
      157.58
21
     -305.35
39
 0
62
 1
 0
LINE
8
default
6
CONTINUOUS
10
     -151.40
20
     -305.66
11
     -157.58
21
     -305.35
39
 0
62
 1
 0
LINE
8
default
6
CONTINUOUS
10
      157.58
20
     -305.35
11
      163.74
21
     -305.03
39
 0
62
 1
 0
LINE
8
default
6
CONTINUOUS
10
     -157.58
20
     -305.35
11
     -163.74
21
     -305.03
39
 0
62
 1
 0
LINE
8
default
6
CONTINUOUS
10
      163.74
20
     -305.03
11
      169.89
21
     -304.69
39
 0
62
 1
 0
LINE
8
default
6
CONTINUOUS
10
     -163.74
20
     -305.03
11
     -169.89
21
     -304.69
39
 0
62
 1
 0
LINE
8
default
6
CONTINUOUS
10
      169.89
20
     -304.69
11
      176.02
21
     -304.35
39
 0
62
 1
 0
LINE
8
default
6
CONTINUOUS
10
     -169.89
20
     -304.69
11
     -176.02
21
     -304.35
39
 0
62
 1
 0
LINE
8
default
6
CONTINUOUS
10
      176.02
20
     -304.35
11
      182.13
21
     -303.99
39
 0
62
 1
 0
LINE
8
default
6
CONTINUOUS
10
     -176.02
20
     -304.35
11
     -182.13
21
     -303.99
39
 0
62
 1
 0
LINE
8
default
6
CONTINUOUS
10
      182.13
20
     -303.99
11
      188.22
21
     -303.61
39
 0
62
 1
 0
LINE
8
default
6
CONTINUOUS
10
     -182.13
20
     -303.99
11
     -188.22
21
     -303.61
39
 0
62
 1
 0
LINE
8
default
6
CONTINUOUS
10
      188.22
20
     -303.61
11
      194.30
21
     -303.23
39
 0
62
 1
 0
LINE
8
default
6
CONTINUOUS
10
     -188.22
20
     -303.61
11
     -194.30
21
     -303.23
39
 0
62
 1
 0
LINE
8
default
6
CONTINUOUS
10
      194.30
20
     -303.23
11
      200.36
21
     -302.83
39
 0
62
 1
 0
LINE
8
default
6
CONTINUOUS
10
     -194.30
20
     -303.23
11
     -200.36
21
     -302.83
39
 0
62
 1
 0
LINE
8
default
6
CONTINUOUS
10
      200.36
20
     -302.83
11
      206.39
21
     -302.43
39
 0
62
 1
 0
LINE
8
default
6
CONTINUOUS
10
     -200.36
20
     -302.83
11
     -206.39
21
     -302.43
39
 0
62
 1
 0
LINE
8
default
6
CONTINUOUS
10
      206.39
20
     -302.43
11
      212.41
21
     -302.00
39
 0
62
 1
 0
LINE
8
default
6
CONTINUOUS
10
     -206.39
20
     -302.43
11
     -212.41
21
     -302.00
39
 0
62
 1
 0
LINE
8
default
6
CONTINUOUS
10
      212.41
20
     -302.00
11
      218.40
21
     -301.57
39
 0
62
 1
 0
LINE
8
default
6
CONTINUOUS
10
     -212.41
20
     -302.00
11
     -218.40
21
     -301.57
39
 0
62
 1
 0
LINE
8
default
6
CONTINUOUS
10
      218.40
20
     -301.57
11
      224.37
21
     -301.13
39
 0
62
 1
 0
LINE
8
default
6
CONTINUOUS
10
     -218.40
20
     -301.57
11
     -224.37
21
     -301.13
39
 0
62
 1
 0
LINE
8
default
6
CONTINUOUS
10
      224.37
20
     -301.13
11
      230.32
21
     -300.67
39
 0
62
 1
 0
LINE
8
default
6
CONTINUOUS
10
     -224.37
20
     -301.13
11
     -230.32
21
     -300.67
39
 0
62
 1
 0
LINE
8
default
6
CONTINUOUS
10
      230.32
20
     -300.67
11
      236.25
21
     -300.20
39
 0
62
 1
 0
LINE
8
default
6
CONTINUOUS
10
     -230.32
20
     -300.67
11
     -236.25
21
     -300.20
39
 0
62
 1
 0
LINE
8
default
6
CONTINUOUS
10
      236.25
20
     -300.20
11
      242.15
21
     -299.72
39
 0
62
 1
 0
LINE
8
default
6
CONTINUOUS
10
     -236.25
20
     -300.20
11
     -242.15
21
     -299.72
39
 0
62
 1
 0
LINE
8
default
6
CONTINUOUS
10
      242.15
20
     -299.72
11
      248.03
21
     -299.23
39
 0
62
 1
 0
LINE
8
default
6
CONTINUOUS
10
     -242.15
20
     -299.72
11
     -248.03
21
     -299.23
39
 0
62
 1
 0
LINE
8
default
6
CONTINUOUS
10
      248.03
20
     -299.23
11
      253.88
21
     -298.72
39
 0
62
 1
 0
LINE
8
default
6
CONTINUOUS
10
     -248.03
20
     -299.23
11
     -253.88
21
     -298.72
39
 0
62
 1
 0
LINE
8
default
6
CONTINUOUS
10
      253.88
20
     -298.72
11
      259.71
21
     -298.21
39
 0
62
 1
 0
LINE
8
default
6
CONTINUOUS
10
     -253.88
20
     -298.72
11
     -259.71
21
     -298.21
39
 0
62
 1
 0
LINE
8
default
6
CONTINUOUS
10
      259.71
20
     -298.21
11
      265.52
21
     -297.68
39
 0
62
 1
 0
LINE
8
default
6
CONTINUOUS
10
     -259.71
20
     -298.21
11
     -265.52
21
     -297.68
39
 0
62
 1
 0
LINE
8
default
6
CONTINUOUS
10
      265.52
20
     -297.68
11
      271.29
21
     -297.14
39
 0
62
 1
 0
LINE
8
default
6
CONTINUOUS
10
     -265.52
20
     -297.68
11
     -271.29
21
     -297.14
39
 0
62
 1
 0
LINE
8
default
6
CONTINUOUS
10
      271.29
20
     -297.14
11
      277.04
21
     -296.59
39
 0
62
 1
 0
LINE
8
default
6
CONTINUOUS
10
     -271.29
20
     -297.14
11
     -277.04
21
     -296.59
39
 0
62
 1
 0
LINE
8
default
6
CONTINUOUS
10
      277.04
20
     -296.59
11
      282.76
21
     -296.03
39
 0
62
 1
 0
LINE
8
default
6
CONTINUOUS
10
     -277.04
20
     -296.59
11
     -282.76
21
     -296.03
39
 0
62
 1
 0
LINE
8
default
6
CONTINUOUS
10
      282.76
20
     -296.03
11
      288.45
21
     -295.45
39
 0
62
 1
 0
LINE
8
default
6
CONTINUOUS
10
     -282.76
20
     -296.03
11
     -288.45
21
     -295.45
39
 0
62
 1
 0
LINE
8
default
6
CONTINUOUS
10
      288.45
20
     -295.45
11
      294.12
21
     -294.87
39
 0
62
 1
 0
LINE
8
default
6
CONTINUOUS
10
     -288.45
20
     -295.45
11
     -294.12
21
     -294.87
39
 0
62
 1
 0
LINE
8
default
6
CONTINUOUS
10
      294.12
20
     -294.87
11
      299.75
21
     -294.27
39
 0
62
 1
 0
LINE
8
default
6
CONTINUOUS
10
     -294.12
20
     -294.87
11
     -299.75
21
     -294.27
39
 0
62
 1
 0
LINE
8
default
6
CONTINUOUS
10
      299.75
20
     -294.27
11
      305.36
21
     -293.66
39
 0
62
 1
 0
LINE
8
default
6
CONTINUOUS
10
     -299.75
20
     -294.27
11
     -305.36
21
     -293.66
39
 0
62
 1
 0
LINE
8
default
6
CONTINUOUS
10
      305.36
20
     -293.66
11
      310.93
21
     -293.05
39
 0
62
 1
 0
LINE
8
default
6
CONTINUOUS
10
     -305.36
20
     -293.66
11
     -310.93
21
     -293.05
39
 0
62
 1
 0
LINE
8
default
6
CONTINUOUS
10
      310.93
20
     -293.05
11
      316.48
21
     -292.41
39
 0
62
 1
 0
LINE
8
default
6
CONTINUOUS
10
     -310.93
20
     -293.05
11
     -316.48
21
     -292.41
39
 0
62
 1
 0
LINE
8
default
6
CONTINUOUS
10
      316.48
20
     -292.41
11
      321.99
21
     -291.77
39
 0
62
 1
 0
LINE
8
default
6
CONTINUOUS
10
     -316.48
20
     -292.41
11
     -321.99
21
     -291.77
39
 0
62
 1
 0
LINE
8
default
6
CONTINUOUS
10
      321.99
20
     -291.77
11
      327.47
21
     -291.12
39
 0
62
 1
 0
LINE
8
default
6
CONTINUOUS
10
     -321.99
20
     -291.77
11
     -327.47
21
     -291.12
39
 0
62
 1
 0
LINE
8
default
6
CONTINUOUS
10
      327.47
20
     -291.12
11
      332.91
21
     -290.46
39
 0
62
 1
 0
LINE
8
default
6
CONTINUOUS
10
     -327.47
20
     -291.12
11
     -332.91
21
     -290.46
39
 0
62
 1
 0
LINE
8
default
6
CONTINUOUS
10
      332.91
20
     -290.46
11
      338.33
21
     -289.78
39
 0
62
 1
 0
LINE
8
default
6
CONTINUOUS
10
     -332.91
20
     -290.46
11
     -338.33
21
     -289.78
39
 0
62
 1
 0
LINE
8
default
6
CONTINUOUS
10
      338.33
20
     -289.78
11
      343.71
21
     -289.10
39
 0
62
 1
 0
LINE
8
default
6
CONTINUOUS
10
     -338.33
20
     -289.78
11
     -343.71
21
     -289.10
39
 0
62
 1
 0
LINE
8
default
6
CONTINUOUS
10
      343.71
20
     -289.10
11
      349.05
21
     -288.40
39
 0
62
 1
 0
LINE
8
default
6
CONTINUOUS
10
     -343.71
20
     -289.10
11
     -349.05
21
     -288.40
39
 0
62
 1
 0
LINE
8
default
6
CONTINUOUS
10
      349.05
20
     -288.40
11
      354.36
21
     -287.70
39
 0
62
 1
 0
LINE
8
default
6
CONTINUOUS
10
     -349.05
20
     -288.40
11
     -354.36
21
     -287.70
39
 0
62
 1
 0
LINE
8
default
6
CONTINUOUS
10
      354.36
20
     -287.70
11
      359.63
21
     -286.97
39
 0
62
 1
 0
LINE
8
default
6
CONTINUOUS
10
     -354.36
20
     -287.70
11
     -359.63
21
     -286.97
39
 0
62
 1
 0
LINE
8
default
6
CONTINUOUS
10
      359.63
20
     -286.97
11
      364.87
21
     -286.23
39
 0
62
 1
 0
LINE
8
default
6
CONTINUOUS
10
     -359.63
20
     -286.97
11
     -364.87
21
     -286.23
39
 0
62
 1
 0
LINE
8
default
6
CONTINUOUS
10
      364.87
20
     -286.23
11
      370.08
21
     -285.48
39
 0
62
 1
 0
LINE
8
default
6
CONTINUOUS
10
     -364.87
20
     -286.23
11
     -370.08
21
     -285.48
39
 0
62
 1
 0
LINE
8
default
6
CONTINUOUS
10
      370.08
20
     -285.48
11
      375.24
21
     -284.71
39
 0
62
 1
 0
LINE
8
default
6
CONTINUOUS
10
     -370.08
20
     -285.48
11
     -375.24
21
     -284.71
39
 0
62
 1
 0
LINE
8
default
6
CONTINUOUS
10
      375.24
20
     -284.71
11
      380.37
21
     -283.92
39
 0
62
 1
 0
LINE
8
default
6
CONTINUOUS
10
     -375.24
20
     -284.71
11
     -380.37
21
     -283.92
39
 0
62
 1
 0
LINE
8
default
6
CONTINUOUS
10
      380.37
20
     -283.92
11
      385.46
21
     -283.12
39
 0
62
 1
 0
LINE
8
default
6
CONTINUOUS
10
     -380.37
20
     -283.92
11
     -385.46
21
     -283.12
39
 0
62
 1
 0
LINE
8
default
6
CONTINUOUS
10
      385.46
20
     -283.12
11
      390.51
21
     -282.30
39
 0
62
 1
 0
LINE
8
default
6
CONTINUOUS
10
     -385.46
20
     -283.12
11
     -390.51
21
     -282.30
39
 0
62
 1
 0
LINE
8
default
6
CONTINUOUS
10
      390.51
20
     -282.30
11
      395.52
21
     -281.46
39
 0
62
 1
 0
LINE
8
default
6
CONTINUOUS
10
     -390.51
20
     -282.30
11
     -395.52
21
     -281.46
39
 0
62
 1
 0
LINE
8
default
6
CONTINUOUS
10
      395.52
20
     -281.46
11
      400.49
21
     -280.61
39
 0
62
 1
 0
LINE
8
default
6
CONTINUOUS
10
     -395.52
20
     -281.46
11
     -400.49
21
     -280.61
39
 0
62
 1
 0
LINE
8
default
6
CONTINUOUS
10
      400.49
20
     -280.61
11
      405.43
21
     -279.75
39
 0
62
 1
 0
LINE
8
default
6
CONTINUOUS
10
     -400.49
20
     -280.61
11
     -405.43
21
     -279.75
39
 0
62
 1
 0
LINE
8
default
6
CONTINUOUS
10
      405.43
20
     -279.75
11
      410.32
21
     -278.87
39
 0
62
 1
 0
LINE
8
default
6
CONTINUOUS
10
     -405.43
20
     -279.75
11
     -410.32
21
     -278.87
39
 0
62
 1
 0
LINE
8
default
6
CONTINUOUS
10
      410.32
20
     -278.87
11
      415.17
21
     -277.98
39
 0
62
 1
 0
LINE
8
default
6
CONTINUOUS
10
     -410.32
20
     -278.87
11
     -415.17
21
     -277.98
39
 0
62
 1
 0
LINE
8
default
6
CONTINUOUS
10
      415.17
20
     -277.98
11
      419.98
21
     -277.07
39
 0
62
 1
 0
LINE
8
default
6
CONTINUOUS
10
     -415.17
20
     -277.98
11
     -419.98
21
     -277.07
39
 0
62
 1
 0
LINE
8
default
6
CONTINUOUS
10
      419.98
20
     -277.07
11
      424.75
21
     -276.15
39
 0
62
 1
 0
LINE
8
default
6
CONTINUOUS
10
     -419.98
20
     -277.07
11
     -424.75
21
     -276.15
39
 0
62
 1
 0
LINE
8
default
6
CONTINUOUS
10
      424.75
20
     -276.15
11
      429.47
21
     -275.21
39
 0
62
 1
 0
LINE
8
default
6
CONTINUOUS
10
     -424.75
20
     -276.15
11
     -429.47
21
     -275.21
39
 0
62
 1
 0
LINE
8
default
6
CONTINUOUS
10
      429.47
20
     -275.21
11
      434.15
21
     -274.26
39
 0
62
 1
 0
LINE
8
default
6
CONTINUOUS
10
     -429.47
20
     -275.21
11
     -434.15
21
     -274.26
39
 0
62
 1
 0
LINE
8
default
6
CONTINUOUS
10
      434.15
20
     -274.26
11
      438.79
21
     -273.30
39
 0
62
 1
 0
LINE
8
default
6
CONTINUOUS
10
     -434.15
20
     -274.26
11
     -438.79
21
     -273.30
39
 0
62
 1
 0
LINE
8
default
6
CONTINUOUS
10
      438.79
20
     -273.30
11
      443.39
21
     -272.32
39
 0
62
 1
 0
LINE
8
default
6
CONTINUOUS
10
     -438.79
20
     -273.30
11
     -443.39
21
     -272.32
39
 0
62
 1
 0
LINE
8
default
6
CONTINUOUS
10
      443.39
20
     -272.32
11
      447.94
21
     -271.33
39
 0
62
 1
 0
LINE
8
default
6
CONTINUOUS
10
     -443.39
20
     -272.32
11
     -447.94
21
     -271.33
39
 0
62
 1
 0
LINE
8
default
6
CONTINUOUS
10
      447.94
20
     -271.33
11
      452.44
21
     -270.33
39
 0
62
 1
 0
LINE
8
default
6
CONTINUOUS
10
     -447.94
20
     -271.33
11
     -452.44
21
     -270.33
39
 0
62
 1
 0
LINE
8
default
6
CONTINUOUS
10
      452.44
20
     -270.33
11
      456.90
21
     -269.32
39
 0
62
 1
 0
LINE
8
default
6
CONTINUOUS
10
     -452.44
20
     -270.33
11
     -456.90
21
     -269.32
39
 0
62
 1
 0
LINE
8
default
6
CONTINUOUS
10
      456.90
20
     -269.32
11
      461.32
21
     -268.29
39
 0
62
 1
 0
LINE
8
default
6
CONTINUOUS
10
     -456.90
20
     -269.32
11
     -461.32
21
     -268.29
39
 0
62
 1
 0
LINE
8
default
6
CONTINUOUS
10
      461.32
20
     -268.29
11
      465.68
21
     -267.25
39
 0
62
 1
 0
LINE
8
default
6
CONTINUOUS
10
     -461.32
20
     -268.29
11
     -465.68
21
     -267.25
39
 0
62
 1
 0
LINE
8
default
6
CONTINUOUS
10
      465.68
20
     -267.25
11
      470.01
21
     -266.20
39
 0
62
 1
 0
LINE
8
default
6
CONTINUOUS
10
     -465.68
20
     -267.25
11
     -470.01
21
     -266.20
39
 0
62
 1
 0
LINE
8
default
6
CONTINUOUS
10
      470.01
20
     -266.20
11
      474.28
21
     -265.14
39
 0
62
 1
 0
LINE
8
default
6
CONTINUOUS
10
     -470.01
20
     -266.20
11
     -474.28
21
     -265.14
39
 0
62
 1
 0
LINE
8
default
6
CONTINUOUS
10
      474.28
20
     -265.14
11
      478.51
21
     -264.07
39
 0
62
 1
 0
LINE
8
default
6
CONTINUOUS
10
     -474.28
20
     -265.14
11
     -478.51
21
     -264.07
39
 0
62
 1
 0
LINE
8
default
6
CONTINUOUS
10
      478.51
20
     -264.07
11
      482.69
21
     -262.99
39
 0
62
 1
 0
LINE
8
default
6
CONTINUOUS
10
     -478.51
20
     -264.07
11
     -482.69
21
     -262.99
39
 0
62
 1
 0
LINE
8
default
6
CONTINUOUS
10
      482.69
20
     -262.99
11
      486.82
21
     -261.89
39
 0
62
 1
 0
LINE
8
default
6
CONTINUOUS
10
     -482.69
20
     -262.99
11
     -486.82
21
     -261.89
39
 0
62
 1
 0
LINE
8
default
6
CONTINUOUS
10
      486.82
20
     -261.89
11
      490.90
21
     -260.79
39
 0
62
 1
 0
LINE
8
default
6
CONTINUOUS
10
     -486.82
20
     -261.89
11
     -490.90
21
     -260.79
39
 0
62
 1
 0
LINE
8
default
6
CONTINUOUS
10
      490.90
20
     -260.79
11
      494.94
21
     -259.67
39
 0
62
 1
 0
LINE
8
default
6
CONTINUOUS
10
     -490.90
20
     -260.79
11
     -494.94
21
     -259.67
39
 0
62
 1
 0
LINE
8
default
6
CONTINUOUS
10
      494.94
20
     -259.67
11
      498.92
21
     -258.55
39
 0
62
 1
 0
LINE
8
default
6
CONTINUOUS
10
     -494.94
20
     -259.67
11
     -498.92
21
     -258.55
39
 0
62
 1
 0
LINE
8
default
6
CONTINUOUS
10
      498.92
20
     -258.55
11
      502.85
21
     -257.41
39
 0
62
 1
 0
LINE
8
default
6
CONTINUOUS
10
     -498.92
20
     -258.55
11
     -502.85
21
     -257.41
39
 0
62
 1
 0
LINE
8
default
6
CONTINUOUS
10
      502.85
20
     -257.41
11
      506.74
21
     -256.27
39
 0
62
 1
 0
LINE
8
default
6
CONTINUOUS
10
     -502.85
20
     -257.41
11
     -506.74
21
     -256.27
39
 0
62
 1
 0
LINE
8
default
6
CONTINUOUS
10
      506.74
20
     -256.27
11
      510.57
21
     -255.11
39
 0
62
 1
 0
LINE
8
default
6
CONTINUOUS
10
     -506.74
20
     -256.27
11
     -510.57
21
     -255.11
39
 0
62
 1
 0
LINE
8
default
6
CONTINUOUS
10
      510.57
20
     -255.11
11
      514.35
21
     -253.95
39
 0
62
 1
 0
LINE
8
default
6
CONTINUOUS
10
     -510.57
20
     -255.11
11
     -514.35
21
     -253.95
39
 0
62
 1
 0
LINE
8
default
6
CONTINUOUS
10
      514.35
20
     -253.95
11
      518.08
21
     -252.78
39
 0
62
 1
 0
LINE
8
default
6
CONTINUOUS
10
     -514.35
20
     -253.95
11
     -518.08
21
     -252.78
39
 0
62
 1
 0
LINE
8
default
6
CONTINUOUS
10
      518.08
20
     -252.78
11
      521.76
21
     -251.60
39
 0
62
 1
 0
LINE
8
default
6
CONTINUOUS
10
     -518.08
20
     -252.78
11
     -521.76
21
     -251.60
39
 0
62
 1
 0
LINE
8
default
6
CONTINUOUS
10
      521.76
20
     -251.60
11
      525.39
21
     -250.41
39
 0
62
 1
 0
LINE
8
default
6
CONTINUOUS
10
     -521.76
20
     -251.60
11
     -525.39
21
     -250.41
39
 0
62
 1
 0
LINE
8
default
6
CONTINUOUS
10
      525.39
20
     -250.41
11
      528.96
21
     -249.21
39
 0
62
 1
 0
LINE
8
default
6
CONTINUOUS
10
     -525.39
20
     -250.41
11
     -528.96
21
     -249.21
39
 0
62
 1
 0
LINE
8
default
6
CONTINUOUS
10
      528.96
20
     -249.21
11
      532.49
21
     -248.01
39
 0
62
 1
 0
LINE
8
default
6
CONTINUOUS
10
     -528.96
20
     -249.21
11
     -532.49
21
     -248.01
39
 0
62
 1
 0
LINE
8
default
6
CONTINUOUS
10
      532.49
20
     -248.01
11
      535.95
21
     -246.79
39
 0
62
 1
 0
LINE
8
default
6
CONTINUOUS
10
     -532.49
20
     -248.01
11
     -535.95
21
     -246.79
39
 0
62
 1
 0
LINE
8
default
6
CONTINUOUS
10
      535.95
20
     -246.79
11
      539.00
21
     -245.71
39
 0
62
 1
 0
LINE
8
default
6
CONTINUOUS
10
     -535.95
20
     -246.79
11
     -539.00
21
     -245.71
39
 0
62
 1
 0
LINE
8
default
6
CONTINUOUS
10
      539.00
20
     -159.09
11
      539.00
21
     -245.71
39
 0
62
 1
 0
LINE
8
default
6
CONTINUOUS
10
     -539.00
20
     -159.09
11
     -539.00
21
     -245.71
39
 0
62
 1
 0
LINE
8
default
6
CONTINUOUS
10
        0.00
20
      640.55
11
        2.33
21
      640.55
39
 0
62
 3
 0
LINE
8
default
6
CONTINUOUS
10
        0.00
20
      640.55
11
       -2.33
21
      640.55
39
 0
62
 1
 0
LINE
8
default
6
CONTINUOUS
10
        2.33
20
      640.55
11
        4.66
21
      640.54
39
 0
62
 3
 0
LINE
8
default
6
CONTINUOUS
10
       -2.33
20
      640.55
11
       -4.66
21
      640.54
39
 0
62
 1
 0
LINE
8
default
6
CONTINUOUS
10
        4.66
20
      640.54
11
        7.00
21
      640.52
39
 0
62
 3
 0
LINE
8
default
6
CONTINUOUS
10
       -4.66
20
      640.54
11
       -7.00
21
      640.52
39
 0
62
 1
 0
LINE
8
default
6
CONTINUOUS
10
        7.00
20
      640.52
11
        9.33
21
      640.49
39
 0
62
 3
 0
LINE
8
default
6
CONTINUOUS
10
       -7.00
20
      640.52
11
       -9.33
21
      640.49
39
 0
62
 1
 0
LINE
8
default
6
CONTINUOUS
10
        9.33
20
      640.49
11
       11.66
21
      640.45
39
 0
62
 3
 0
LINE
8
default
6
CONTINUOUS
10
       -9.33
20
      640.49
11
      -11.66
21
      640.45
39
 0
62
 1
 0
LINE
8
default
6
CONTINUOUS
10
       11.66
20
      640.45
11
       13.99
21
      640.40
39
 0
62
 3
 0
LINE
8
default
6
CONTINUOUS
10
      -11.66
20
      640.45
11
      -13.99
21
      640.40
39
 0
62
 1
 0
LINE
8
default
6
CONTINUOUS
10
       13.99
20
      640.40
11
       16.32
21
      640.35
39
 0
62
 3
 0
LINE
8
default
6
CONTINUOUS
10
      -13.99
20
      640.40
11
      -16.32
21
      640.35
39
 0
62
 1
 0
LINE
8
default
6
CONTINUOUS
10
       16.32
20
      640.35
11
       18.66
21
      640.28
39
 0
62
 3
 0
LINE
8
default
6
CONTINUOUS
10
      -16.32
20
      640.35
11
      -18.66
21
      640.28
39
 0
62
 1
 0
LINE
8
default
6
CONTINUOUS
10
       18.66
20
      640.28
11
       20.99
21
      640.21
39
 0
62
 3
 0
LINE
8
default
6
CONTINUOUS
10
      -18.66
20
      640.28
11
      -20.99
21
      640.21
39
 0
62
 1
 0
LINE
8
default
6
CONTINUOUS
10
       20.99
20
      640.21
11
       23.32
21
      640.13
39
 0
62
 3
 0
LINE
8
default
6
CONTINUOUS
10
      -20.99
20
      640.21
11
      -23.32
21
      640.13
39
 0
62
 1
 0
LINE
8
default
6
CONTINUOUS
10
       23.32
20
      640.13
11
       25.65
21
      640.05
39
 0
62
 3
 0
LINE
8
default
6
CONTINUOUS
10
      -23.32
20
      640.13
11
      -25.65
21
      640.05
39
 0
62
 1
 0
LINE
8
default
6
CONTINUOUS
10
       25.65
20
      640.05
11
       27.98
21
      639.95
39
 0
62
 3
 0
LINE
8
default
6
CONTINUOUS
10
      -25.65
20
      640.05
11
      -27.98
21
      639.95
39
 0
62
 1
 0
LINE
8
default
6
CONTINUOUS
10
       27.98
20
      639.95
11
       30.31
21
      639.85
39
 0
62
 3
 0
LINE
8
default
6
CONTINUOUS
10
      -27.98
20
      639.95
11
      -30.31
21
      639.85
39
 0
62
 1
 0
LINE
8
default
6
CONTINUOUS
10
       30.31
20
      639.85
11
       32.64
21
      639.73
39
 0
62
 3
 0
LINE
8
default
6
CONTINUOUS
10
      -30.31
20
      639.85
11
      -32.64
21
      639.73
39
 0
62
 1
 0
LINE
8
default
6
CONTINUOUS
10
       32.64
20
      639.73
11
       34.97
21
      639.61
39
 0
62
 3
 0
LINE
8
default
6
CONTINUOUS
10
      -32.64
20
      639.73
11
      -34.97
21
      639.61
39
 0
62
 1
 0
LINE
8
default
6
CONTINUOUS
10
       34.97
20
      639.61
11
       37.30
21
      639.48
39
 0
62
 3
 0
LINE
8
default
6
CONTINUOUS
10
      -34.97
20
      639.61
11
      -37.30
21
      639.48
39
 0
62
 1
 0
LINE
8
default
6
CONTINUOUS
10
       37.30
20
      639.48
11
       39.62
21
      639.34
39
 0
62
 3
 0
LINE
8
default
6
CONTINUOUS
10
      -37.30
20
      639.48
11
      -39.62
21
      639.34
39
 0
62
 1
 0
LINE
8
default
6
CONTINUOUS
10
       39.62
20
      639.34
11
       41.95
21
      639.20
39
 0
62
 3
 0
LINE
8
default
6
CONTINUOUS
10
      -39.62
20
      639.34
11
      -41.95
21
      639.20
39
 0
62
 1
 0
LINE
8
default
6
CONTINUOUS
10
       41.95
20
      639.20
11
       44.28
21
      639.04
39
 0
62
 3
 0
LINE
8
default
6
CONTINUOUS
10
      -41.95
20
      639.20
11
      -44.28
21
      639.04
39
 0
62
 1
 0
LINE
8
default
6
CONTINUOUS
10
       44.28
20
      639.04
11
       46.60
21
      638.88
39
 0
62
 3
 0
LINE
8
default
6
CONTINUOUS
10
      -44.28
20
      639.04
11
      -46.60
21
      638.88
39
 0
62
 1
 0
LINE
8
default
6
CONTINUOUS
10
       46.60
20
      638.88
11
       48.93
21
      638.71
39
 0
62
 3
 0
LINE
8
default
6
CONTINUOUS
10
      -46.60
20
      638.88
11
      -48.93
21
      638.71
39
 0
62
 1
 0
LINE
8
default
6
CONTINUOUS
10
       48.93
20
      638.71
11
       51.26
21
      638.53
39
 0
62
 3
 0
LINE
8
default
6
CONTINUOUS
10
      -48.93
20
      638.71
11
      -51.26
21
      638.53
39
 0
62
 1
 0
LINE
8
default
6
CONTINUOUS
10
       51.26
20
      638.53
11
       53.58
21
      638.34
39
 0
62
 3
 0
LINE
8
default
6
CONTINUOUS
10
      -51.26
20
      638.53
11
      -53.58
21
      638.34
39
 0
62
 1
 0
LINE
8
default
6
CONTINUOUS
10
       53.58
20
      638.34
11
       55.90
21
      638.14
39
 0
62
 3
 0
LINE
8
default
6
CONTINUOUS
10
      -53.58
20
      638.34
11
      -55.90
21
      638.14
39
 0
62
 1
 0
LINE
8
default
6
CONTINUOUS
10
       55.90
20
      638.14
11
       58.23
21
      637.94
39
 0
62
 3
 0
LINE
8
default
6
CONTINUOUS
10
      -55.90
20
      638.14
11
      -58.23
21
      637.94
39
 0
62
 1
 0
LINE
8
default
6
CONTINUOUS
10
       58.23
20
      637.94
11
       60.55
21
      637.73
39
 0
62
 3
 0
LINE
8
default
6
CONTINUOUS
10
      -58.23
20
      637.94
11
      -60.55
21
      637.73
39
 0
62
 1
 0
LINE
8
default
6
CONTINUOUS
10
       60.55
20
      637.73
11
       62.87
21
      637.51
39
 0
62
 3
 0
LINE
8
default
6
CONTINUOUS
10
      -60.55
20
      637.73
11
      -62.87
21
      637.51
39
 0
62
 1
 0
LINE
8
default
6
CONTINUOUS
10
       62.87
20
      637.51
11
       65.19
21
      637.28
39
 0
62
 3
 0
LINE
8
default
6
CONTINUOUS
10
      -62.87
20
      637.51
11
      -65.19
21
      637.28
39
 0
62
 1
 0
LINE
8
default
6
CONTINUOUS
10
       65.19
20
      637.28
11
       67.51
21
      637.04
39
 0
62
 3
 0
LINE
8
default
6
CONTINUOUS
10
      -65.19
20
      637.28
11
      -67.51
21
      637.04
39
 0
62
 1
 0
LINE
8
default
6
CONTINUOUS
10
       67.51
20
      637.04
11
       69.83
21
      636.79
39
 0
62
 3
 0
LINE
8
default
6
CONTINUOUS
10
      -67.51
20
      637.04
11
      -69.83
21
      636.79
39
 0
62
 1
 0
LINE
8
default
6
CONTINUOUS
10
       69.83
20
      636.79
11
       72.15
21
      636.54
39
 0
62
 3
 0
LINE
8
default
6
CONTINUOUS
10
      -69.83
20
      636.79
11
      -72.15
21
      636.54
39
 0
62
 1
 0
LINE
8
default
6
CONTINUOUS
10
       72.15
20
      636.54
11
       74.47
21
      636.27
39
 0
62
 3
 0
LINE
8
default
6
CONTINUOUS
10
      -72.15
20
      636.54
11
      -74.47
21
      636.27
39
 0
62
 1
 0
LINE
8
default
6
CONTINUOUS
10
       74.47
20
      636.27
11
       76.78
21
      636.00
39
 0
62
 3
 0
LINE
8
default
6
CONTINUOUS
10
      -74.47
20
      636.27
11
      -76.78
21
      636.00
39
 0
62
 1
 0
LINE
8
default
6
CONTINUOUS
10
       76.78
20
      636.00
11
       79.10
21
      635.72
39
 0
62
 3
 0
LINE
8
default
6
CONTINUOUS
10
      -76.78
20
      636.00
11
      -79.10
21
      635.72
39
 0
62
 1
 0
LINE
8
default
6
CONTINUOUS
10
       79.10
20
      635.72
11
       81.41
21
      635.43
39
 0
62
 3
 0
LINE
8
default
6
CONTINUOUS
10
      -79.10
20
      635.72
11
      -81.41
21
      635.43
39
 0
62
 1
 0
LINE
8
default
6
CONTINUOUS
10
       81.41
20
      635.43
11
       83.73
21
      635.14
39
 0
62
 3
 0
LINE
8
default
6
CONTINUOUS
10
      -81.41
20
      635.43
11
      -83.73
21
      635.14
39
 0
62
 1
 0
LINE
8
default
6
CONTINUOUS
10
       83.73
20
      635.14
11
       86.04
21
      634.83
39
 0
62
 3
 0
LINE
8
default
6
CONTINUOUS
10
      -83.73
20
      635.14
11
      -86.04
21
      634.83
39
 0
62
 1
 0
LINE
8
default
6
CONTINUOUS
10
       86.04
20
      634.83
11
       88.35
21
      634.52
39
 0
62
 3
 0
LINE
8
default
6
CONTINUOUS
10
      -86.04
20
      634.83
11
      -88.35
21
      634.52
39
 0
62
 1
 0
LINE
8
default
6
CONTINUOUS
10
       88.35
20
      634.52
11
       90.66
21
      634.20
39
 0
62
 3
 0
LINE
8
default
6
CONTINUOUS
10
      -88.35
20
      634.52
11
      -90.66
21
      634.20
39
 0
62
 1
 0
LINE
8
default
6
CONTINUOUS
10
       90.66
20
      634.20
11
       92.97
21
      633.87
39
 0
62
 3
 0
LINE
8
default
6
CONTINUOUS
10
      -90.66
20
      634.20
11
      -92.97
21
      633.87
39
 0
62
 1
 0
LINE
8
default
6
CONTINUOUS
10
       92.97
20
      633.87
11
       95.28
21
      633.53
39
 0
62
 3
 0
LINE
8
default
6
CONTINUOUS
10
      -92.97
20
      633.87
11
      -95.28
21
      633.53
39
 0
62
 1
 0
LINE
8
default
6
CONTINUOUS
10
       95.28
20
      633.53
11
       97.58
21
      633.19
39
 0
62
 3
 0
LINE
8
default
6
CONTINUOUS
10
      -95.28
20
      633.53
11
      -97.58
21
      633.19
39
 0
62
 1
 0
LINE
8
default
6
CONTINUOUS
10
       97.58
20
      633.19
11
       99.89
21
      632.83
39
 0
62
 3
 0
LINE
8
default
6
CONTINUOUS
10
      -97.58
20
      633.19
11
      -99.89
21
      632.83
39
 0
62
 1
 0
LINE
8
default
6
CONTINUOUS
10
       99.89
20
      632.83
11
      102.19
21
      632.47
39
 0
62
 3
 0
LINE
8
default
6
CONTINUOUS
10
      -99.89
20
      632.83
11
     -102.19
21
      632.47
39
 0
62
 1
 0
LINE
8
default
6
CONTINUOUS
10
      102.19
20
      632.47
11
      104.49
21
      632.10
39
 0
62
 3
 0
LINE
8
default
6
CONTINUOUS
10
     -102.19
20
      632.47
11
     -104.49
21
      632.10
39
 0
62
 1
 0
LINE
8
default
6
CONTINUOUS
10
      104.49
20
      632.10
11
      106.80
21
      631.72
39
 0
62
 3
 0
LINE
8
default
6
CONTINUOUS
10
     -104.49
20
      632.10
11
     -106.80
21
      631.72
39
 0
62
 1
 0
LINE
8
default
6
CONTINUOUS
10
      106.80
20
      631.72
11
      109.10
21
      631.33
39
 0
62
 3
 0
LINE
8
default
6
CONTINUOUS
10
     -106.80
20
      631.72
11
     -109.10
21
      631.33
39
 0
62
 1
 0
LINE
8
default
6
CONTINUOUS
10
      109.10
20
      631.33
11
      111.39
21
      630.94
39
 0
62
 3
 0
LINE
8
default
6
CONTINUOUS
10
     -109.10
20
      631.33
11
     -111.39
21
      630.94
39
 0
62
 1
 0
LINE
8
default
6
CONTINUOUS
10
      111.39
20
      630.94
11
      113.69
21
      630.53
39
 0
62
 3
 0
LINE
8
default
6
CONTINUOUS
10
     -111.39
20
      630.94
11
     -113.69
21
      630.53
39
 0
62
 1
 0
LINE
8
default
6
CONTINUOUS
10
      113.69
20
      630.53
11
      115.99
21
      630.12
39
 0
62
 3
 0
LINE
8
default
6
CONTINUOUS
10
     -113.69
20
      630.53
11
     -115.99
21
      630.12
39
 0
62
 1
 0
LINE
8
default
6
CONTINUOUS
10
      115.99
20
      630.12
11
      118.28
21
      629.70
39
 0
62
 3
 0
LINE
8
default
6
CONTINUOUS
10
     -115.99
20
      630.12
11
     -118.28
21
      629.70
39
 0
62
 1
 0
LINE
8
default
6
CONTINUOUS
10
      118.28
20
      629.70
11
      120.57
21
      629.27
39
 0
62
 3
 0
LINE
8
default
6
CONTINUOUS
10
     -118.28
20
      629.70
11
     -120.57
21
      629.27
39
 0
62
 1
 0
LINE
8
default
6
CONTINUOUS
10
      120.57
20
      629.27
11
      122.86
21
      628.84
39
 0
62
 3
 0
LINE
8
default
6
CONTINUOUS
10
     -120.57
20
      629.27
11
     -122.86
21
      628.84
39
 0
62
 1
 0
LINE
8
default
6
CONTINUOUS
10
      122.86
20
      628.84
11
      125.15
21
      628.39
39
 0
62
 3
 0
LINE
8
default
6
CONTINUOUS
10
     -122.86
20
      628.84
11
     -125.15
21
      628.39
39
 0
62
 1
 0
LINE
8
default
6
CONTINUOUS
10
      125.15
20
      628.39
11
      127.44
21
      627.94
39
 0
62
 3
 0
LINE
8
default
6
CONTINUOUS
10
     -125.15
20
      628.39
11
     -127.44
21
      627.94
39
 0
62
 1
 0
LINE
8
default
6
CONTINUOUS
10
      127.44
20
      627.94
11
      129.73
21
      627.48
39
 0
62
 3
 0
LINE
8
default
6
CONTINUOUS
10
     -127.44
20
      627.94
11
     -129.73
21
      627.48
39
 0
62
 1
 0
LINE
8
default
6
CONTINUOUS
10
      129.73
20
      627.48
11
      132.01
21
      627.01
39
 0
62
 3
 0
LINE
8
default
6
CONTINUOUS
10
     -129.73
20
      627.48
11
     -132.01
21
      627.01
39
 0
62
 1
 0
LINE
8
default
6
CONTINUOUS
10
      132.01
20
      627.01
11
      134.29
21
      626.53
39
 0
62
 3
 0
LINE
8
default
6
CONTINUOUS
10
     -132.01
20
      627.01
11
     -134.29
21
      626.53
39
 0
62
 1
 0
LINE
8
default
6
CONTINUOUS
10
      134.29
20
      626.53
11
      136.58
21
      626.04
39
 0
62
 3
 0
LINE
8
default
6
CONTINUOUS
10
     -134.29
20
      626.53
11
     -136.58
21
      626.04
39
 0
62
 1
 0
LINE
8
default
6
CONTINUOUS
10
      136.58
20
      626.04
11
      138.86
21
      625.55
39
 0
62
 3
 0
LINE
8
default
6
CONTINUOUS
10
     -136.58
20
      626.04
11
     -138.86
21
      625.55
39
 0
62
 1
 0
LINE
8
default
6
CONTINUOUS
10
      138.86
20
      625.55
11
      141.13
21
      625.05
39
 0
62
 3
 0
LINE
8
default
6
CONTINUOUS
10
     -138.86
20
      625.55
11
     -141.13
21
      625.05
39
 0
62
 1
 0
LINE
8
default
6
CONTINUOUS
10
      141.13
20
      625.05
11
      143.41
21
      624.54
39
 0
62
 3
 0
LINE
8
default
6
CONTINUOUS
10
     -141.13
20
      625.05
11
     -143.41
21
      624.54
39
 0
62
 1
 0
LINE
8
default
6
CONTINUOUS
10
      143.41
20
      624.54
11
      145.68
21
      624.02
39
 0
62
 3
 0
LINE
8
default
6
CONTINUOUS
10
     -143.41
20
      624.54
11
     -145.68
21
      624.02
39
 0
62
 1
 0
LINE
8
default
6
CONTINUOUS
10
      145.68
20
      624.02
11
      147.95
21
      623.49
39
 0
62
 3
 0
LINE
8
default
6
CONTINUOUS
10
     -145.68
20
      624.02
11
     -147.95
21
      623.49
39
 0
62
 1
 0
LINE
8
default
6
CONTINUOUS
10
      147.95
20
      623.49
11
      150.22
21
      622.96
39
 0
62
 3
 0
LINE
8
default
6
CONTINUOUS
10
     -147.95
20
      623.49
11
     -150.22
21
      622.96
39
 0
62
 1
 0
LINE
8
default
6
CONTINUOUS
10
      150.22
20
      622.96
11
      152.49
21
      622.41
39
 0
62
 3
 0
LINE
8
default
6
CONTINUOUS
10
     -150.22
20
      622.96
11
     -152.49
21
      622.41
39
 0
62
 1
 0
LINE
8
default
6
CONTINUOUS
10
      152.49
20
      622.41
11
      154.76
21
      621.86
39
 0
62
 3
 0
LINE
8
default
6
CONTINUOUS
10
     -152.49
20
      622.41
11
     -154.76
21
      621.86
39
 0
62
 1
 0
LINE
8
default
6
CONTINUOUS
10
      154.76
20
      621.86
11
      157.02
21
      621.30
39
 0
62
 3
 0
LINE
8
default
6
CONTINUOUS
10
     -154.76
20
      621.86
11
     -157.02
21
      621.30
39
 0
62
 1
 0
LINE
8
default
6
CONTINUOUS
10
      157.02
20
      621.30
11
      159.29
21
      620.74
39
 0
62
 3
 0
LINE
8
default
6
CONTINUOUS
10
     -157.02
20
      621.30
11
     -159.29
21
      620.74
39
 0
62
 1
 0
LINE
8
default
6
CONTINUOUS
10
      159.29
20
      620.74
11
      161.55
21
      620.16
39
 0
62
 3
 0
LINE
8
default
6
CONTINUOUS
10
     -159.29
20
      620.74
11
     -161.55
21
      620.16
39
 0
62
 1
 0
LINE
8
default
6
CONTINUOUS
10
      161.55
20
      620.16
11
      163.80
21
      619.58
39
 0
62
 3
 0
LINE
8
default
6
CONTINUOUS
10
     -161.55
20
      620.16
11
     -163.80
21
      619.58
39
 0
62
 1
 0
LINE
8
default
6
CONTINUOUS
10
      163.80
20
      619.58
11
      166.06
21
      618.99
39
 0
62
 3
 0
LINE
8
default
6
CONTINUOUS
10
     -163.80
20
      619.58
11
     -166.06
21
      618.99
39
 0
62
 1
 0
LINE
8
default
6
CONTINUOUS
10
      166.06
20
      618.99
11
      168.31
21
      618.39
39
 0
62
 3
 0
LINE
8
default
6
CONTINUOUS
10
     -166.06
20
      618.99
11
     -168.31
21
      618.39
39
 0
62
 1
 0
LINE
8
default
6
CONTINUOUS
10
      168.31
20
      618.39
11
      170.56
21
      617.78
39
 0
62
 3
 0
LINE
8
default
6
CONTINUOUS
10
     -168.31
20
      618.39
11
     -170.56
21
      617.78
39
 0
62
 1
 0
LINE
8
default
6
CONTINUOUS
10
      170.56
20
      617.78
11
      172.81
21
      617.16
39
 0
62
 3
 0
LINE
8
default
6
CONTINUOUS
10
     -170.56
20
      617.78
11
     -172.81
21
      617.16
39
 0
62
 1
 0
LINE
8
default
6
CONTINUOUS
10
      172.81
20
      617.16
11
      175.06
21
      616.54
39
 0
62
 3
 0
LINE
8
default
6
CONTINUOUS
10
     -172.81
20
      617.16
11
     -175.06
21
      616.54
39
 0
62
 1
 0
LINE
8
default
6
CONTINUOUS
10
      175.06
20
      616.54
11
      177.31
21
      615.91
39
 0
62
 3
 0
LINE
8
default
6
CONTINUOUS
10
     -175.06
20
      616.54
11
     -177.31
21
      615.91
39
 0
62
 1
 0
LINE
8
default
6
CONTINUOUS
10
      177.31
20
      615.91
11
      179.55
21
      615.27
39
 0
62
 3
 0
LINE
8
default
6
CONTINUOUS
10
     -177.31
20
      615.91
11
     -179.55
21
      615.27
39
 0
62
 1
 0
LINE
8
default
6
CONTINUOUS
10
      179.55
20
      615.27
11
      181.79
21
      614.62
39
 0
62
 3
 0
LINE
8
default
6
CONTINUOUS
10
     -179.55
20
      615.27
11
     -181.79
21
      614.62
39
 0
62
 1
 0
LINE
8
default
6
CONTINUOUS
10
      181.79
20
      614.62
11
      184.03
21
      613.96
39
 0
62
 3
 0
LINE
8
default
6
CONTINUOUS
10
     -181.79
20
      614.62
11
     -184.03
21
      613.96
39
 0
62
 1
 0
LINE
8
default
6
CONTINUOUS
10
      184.03
20
      613.96
11
      186.26
21
      613.30
39
 0
62
 3
 0
LINE
8
default
6
CONTINUOUS
10
     -184.03
20
      613.96
11
     -186.26
21
      613.30
39
 0
62
 1
 0
LINE
8
default
6
CONTINUOUS
10
      186.26
20
      613.30
11
      188.50
21
      612.62
39
 0
62
 3
 0
LINE
8
default
6
CONTINUOUS
10
     -186.26
20
      613.30
11
     -188.50
21
      612.62
39
 0
62
 1
 0
LINE
8
default
6
CONTINUOUS
10
      188.50
20
      612.62
11
      190.73
21
      611.94
39
 0
62
 3
 0
LINE
8
default
6
CONTINUOUS
10
     -188.50
20
      612.62
11
     -190.73
21
      611.94
39
 0
62
 1
 0
LINE
8
default
6
CONTINUOUS
10
      190.73
20
      611.94
11
      192.96
21
      611.26
39
 0
62
 3
 0
LINE
8
default
6
CONTINUOUS
10
     -190.73
20
      611.94
11
     -192.96
21
      611.26
39
 0
62
 1
 0
LINE
8
default
6
CONTINUOUS
10
      192.96
20
      611.26
11
      195.18
21
      610.56
39
 0
62
 3
 0
LINE
8
default
6
CONTINUOUS
10
     -192.96
20
      611.26
11
     -195.18
21
      610.56
39
 0
62
 1
 0
LINE
8
default
6
CONTINUOUS
10
      195.18
20
      610.56
11
      197.40
21
      609.86
39
 0
62
 3
 0
LINE
8
default
6
CONTINUOUS
10
     -195.18
20
      610.56
11
     -197.40
21
      609.86
39
 0
62
 1
 0
LINE
8
default
6
CONTINUOUS
10
      197.40
20
      609.86
11
      199.63
21
      609.14
39
 0
62
 3
 0
LINE
8
default
6
CONTINUOUS
10
     -197.40
20
      609.86
11
     -199.63
21
      609.14
39
 0
62
 1
 0
LINE
8
default
6
CONTINUOUS
10
      199.63
20
      609.14
11
      201.84
21
      608.42
39
 0
62
 3
 0
LINE
8
default
6
CONTINUOUS
10
     -199.63
20
      609.14
11
     -201.84
21
      608.42
39
 0
62
 1
 0
LINE
8
default
6
CONTINUOUS
10
      201.84
20
      608.42
11
      204.06
21
      607.70
39
 0
62
 3
 0
LINE
8
default
6
CONTINUOUS
10
     -201.84
20
      608.42
11
     -204.06
21
      607.70
39
 0
62
 1
 0
LINE
8
default
6
CONTINUOUS
10
      204.06
20
      607.70
11
      206.27
21
      606.96
39
 0
62
 3
 0
LINE
8
default
6
CONTINUOUS
10
     -204.06
20
      607.70
11
     -206.27
21
      606.96
39
 0
62
 1
 0
LINE
8
default
6
CONTINUOUS
10
      206.27
20
      606.96
11
      208.48
21
      606.22
39
 0
62
 3
 0
LINE
8
default
6
CONTINUOUS
10
     -206.27
20
      606.96
11
     -208.48
21
      606.22
39
 0
62
 1
 0
LINE
8
default
6
CONTINUOUS
10
      208.48
20
      606.22
11
      210.69
21
      605.46
39
 0
62
 3
 0
LINE
8
default
6
CONTINUOUS
10
     -208.48
20
      606.22
11
     -210.69
21
      605.46
39
 0
62
 1
 0
LINE
8
default
6
CONTINUOUS
10
      210.69
20
      605.46
11
      212.89
21
      604.70
39
 0
62
 3
 0
LINE
8
default
6
CONTINUOUS
10
     -210.69
20
      605.46
11
     -212.89
21
      604.70
39
 0
62
 1
 0
LINE
8
default
6
CONTINUOUS
10
      212.89
20
      604.70
11
      215.10
21
      603.94
39
 0
62
 3
 0
LINE
8
default
6
CONTINUOUS
10
     -212.89
20
      604.70
11
     -215.10
21
      603.94
39
 0
62
 1
 0
LINE
8
default
6
CONTINUOUS
10
      215.10
20
      603.94
11
      217.30
21
      603.16
39
 0
62
 3
 0
LINE
8
default
6
CONTINUOUS
10
     -215.10
20
      603.94
11
     -217.30
21
      603.16
39
 0
62
 1
 0
LINE
8
default
6
CONTINUOUS
10
      217.30
20
      603.16
11
      219.49
21
      602.38
39
 0
62
 3
 0
LINE
8
default
6
CONTINUOUS
10
     -217.30
20
      603.16
11
     -219.49
21
      602.38
39
 0
62
 1
 0
LINE
8
default
6
CONTINUOUS
10
      219.49
20
      602.38
11
      221.69
21
      601.59
39
 0
62
 3
 0
LINE
8
default
6
CONTINUOUS
10
     -219.49
20
      602.38
11
     -221.69
21
      601.59
39
 0
62
 1
 0
LINE
8
default
6
CONTINUOUS
10
      221.69
20
      601.59
11
      223.88
21
      600.79
39
 0
62
 3
 0
LINE
8
default
6
CONTINUOUS
10
     -221.69
20
      601.59
11
     -223.88
21
      600.79
39
 0
62
 1
 0
LINE
8
default
6
CONTINUOUS
10
      223.88
20
      600.79
11
      226.07
21
      599.98
39
 0
62
 3
 0
LINE
8
default
6
CONTINUOUS
10
     -223.88
20
      600.79
11
     -226.07
21
      599.98
39
 0
62
 1
 0
LINE
8
default
6
CONTINUOUS
10
      226.07
20
      599.98
11
      227.79
21
      599.34
39
 0
62
 3
 0
LINE
8
default
6
CONTINUOUS
10
     -226.07
20
      599.98
11
     -227.79
21
      599.34
39
 0
62
 1
 0
LINE
8
default
6
CONTINUOUS
10
      227.79
20
      599.34
11
      229.51
21
      598.69
39
 0
62
 3
 0
LINE
8
default
6
CONTINUOUS
10
     -227.79
20
      599.34
11
     -229.51
21
      598.69
39
 0
62
 1
 0
LINE
8
default
6
CONTINUOUS
10
      229.51
20
      598.69
11
      231.22
21
      598.03
39
 0
62
 3
 0
LINE
8
default
6
CONTINUOUS
10
     -229.51
20
      598.69
11
     -231.22
21
      598.03
39
 0
62
 1
 0
LINE
8
default
6
CONTINUOUS
10
      231.22
20
      598.03
11
      232.94
21
      597.37
39
 0
62
 3
 0
LINE
8
default
6
CONTINUOUS
10
     -231.22
20
      598.03
11
     -232.94
21
      597.37
39
 0
62
 1
 0
LINE
8
default
6
CONTINUOUS
10
      232.94
20
      597.37
11
      234.65
21
      596.70
39
 0
62
 3
 0
LINE
8
default
6
CONTINUOUS
10
     -232.94
20
      597.37
11
     -234.65
21
      596.70
39
 0
62
 1
 0
LINE
8
default
6
CONTINUOUS
10
      234.65
20
      596.70
11
      236.35
21
      596.03
39
 0
62
 3
 0
LINE
8
default
6
CONTINUOUS
10
     -234.65
20
      596.70
11
     -236.35
21
      596.03
39
 0
62
 1
 0
LINE
8
default
6
CONTINUOUS
10
      236.35
20
      596.03
11
      238.06
21
      595.35
39
 0
62
 3
 0
LINE
8
default
6
CONTINUOUS
10
     -236.35
20
      596.03
11
     -238.06
21
      595.35
39
 0
62
 1
 0
LINE
8
default
6
CONTINUOUS
10
      238.06
20
      595.35
11
      239.76
21
      594.66
39
 0
62
 3
 0
LINE
8
default
6
CONTINUOUS
10
     -238.06
20
      595.35
11
     -239.76
21
      594.66
39
 0
62
 1
 0
LINE
8
default
6
CONTINUOUS
10
      239.76
20
      594.66
11
      241.47
21
      593.97
39
 0
62
 3
 0
LINE
8
default
6
CONTINUOUS
10
     -239.76
20
      594.66
11
     -241.47
21
      593.97
39
 0
62
 1
 0
LINE
8
default
6
CONTINUOUS
10
      241.47
20
      593.97
11
      243.16
21
      593.27
39
 0
62
 3
 0
LINE
8
default
6
CONTINUOUS
10
     -241.47
20
      593.97
11
     -243.16
21
      593.27
39
 0
62
 1
 0
LINE
8
default
6
CONTINUOUS
10
      243.16
20
      593.27
11
      244.86
21
      592.56
39
 0
62
 3
 0
LINE
8
default
6
CONTINUOUS
10
     -243.16
20
      593.27
11
     -244.86
21
      592.56
39
 0
62
 1
 0
LINE
8
default
6
CONTINUOUS
10
      244.86
20
      592.56
11
      246.55
21
      591.85
39
 0
62
 3
 0
LINE
8
default
6
CONTINUOUS
10
     -244.86
20
      592.56
11
     -246.55
21
      591.85
39
 0
62
 1
 0
LINE
8
default
6
CONTINUOUS
10
      246.55
20
      591.85
11
      248.24
21
      591.13
39
 0
62
 3
 0
LINE
8
default
6
CONTINUOUS
10
     -246.55
20
      591.85
11
     -248.24
21
      591.13
39
 0
62
 1
 0
LINE
8
default
6
CONTINUOUS
10
      248.24
20
      591.13
11
      249.93
21
      590.40
39
 0
62
 3
 0
LINE
8
default
6
CONTINUOUS
10
     -248.24
20
      591.13
11
     -249.93
21
      590.40
39
 0
62
 1
 0
LINE
8
default
6
CONTINUOUS
10
      249.93
20
      590.40
11
      251.61
21
      589.67
39
 0
62
 3
 0
LINE
8
default
6
CONTINUOUS
10
     -249.93
20
      590.40
11
     -251.61
21
      589.67
39
 0
62
 1
 0
LINE
8
default
6
CONTINUOUS
10
      251.61
20
      589.67
11
      253.30
21
      588.93
39
 0
62
 3
 0
LINE
8
default
6
CONTINUOUS
10
     -251.61
20
      589.67
11
     -253.30
21
      588.93
39
 0
62
 1
 0
LINE
8
default
6
CONTINUOUS
10
      253.30
20
      588.93
11
      254.97
21
      588.19
39
 0
62
 3
 0
LINE
8
default
6
CONTINUOUS
10
     -253.30
20
      588.93
11
     -254.97
21
      588.19
39
 0
62
 1
 0
LINE
8
default
6
CONTINUOUS
10
      254.97
20
      588.19
11
      256.65
21
      587.44
39
 0
62
 3
 0
LINE
8
default
6
CONTINUOUS
10
     -254.97
20
      588.19
11
     -256.65
21
      587.44
39
 0
62
 1
 0
LINE
8
default
6
CONTINUOUS
10
      256.65
20
      587.44
11
      258.32
21
      586.68
39
 0
62
 3
 0
LINE
8
default
6
CONTINUOUS
10
     -256.65
20
      587.44
11
     -258.32
21
      586.68
39
 0
62
 1
 0
LINE
8
default
6
CONTINUOUS
10
      258.32
20
      586.68
11
      260.00
21
      585.92
39
 0
62
 3
 0
LINE
8
default
6
CONTINUOUS
10
     -258.32
20
      586.68
11
     -260.00
21
      585.92
39
 0
62
 1
 0
LINE
8
default
6
CONTINUOUS
10
      260.00
20
      585.92
11
      261.66
21
      585.15
39
 0
62
 3
 0
LINE
8
default
6
CONTINUOUS
10
     -260.00
20
      585.92
11
     -261.66
21
      585.15
39
 0
62
 1
 0
LINE
8
default
6
CONTINUOUS
10
      261.66
20
      585.15
11
      263.33
21
      584.37
39
 0
62
 3
 0
LINE
8
default
6
CONTINUOUS
10
     -261.66
20
      585.15
11
     -263.33
21
      584.37
39
 0
62
 1
 0
LINE
8
default
6
CONTINUOUS
10
      263.33
20
      584.37
11
      264.99
21
      583.59
39
 0
62
 3
 0
LINE
8
default
6
CONTINUOUS
10
     -263.33
20
      584.37
11
     -264.99
21
      583.59
39
 0
62
 1
 0
LINE
8
default
6
CONTINUOUS
10
      264.99
20
      583.59
11
      266.65
21
      582.80
39
 0
62
 3
 0
LINE
8
default
6
CONTINUOUS
10
     -264.99
20
      583.59
11
     -266.65
21
      582.80
39
 0
62
 1
 0
LINE
8
default
6
CONTINUOUS
10
      266.65
20
      582.80
11
      268.30
21
      582.01
39
 0
62
 3
 0
LINE
8
default
6
CONTINUOUS
10
     -266.65
20
      582.80
11
     -268.30
21
      582.01
39
 0
62
 1
 0
LINE
8
default
6
CONTINUOUS
10
      268.30
20
      582.01
11
      269.96
21
      581.21
39
 0
62
 3
 0
LINE
8
default
6
CONTINUOUS
10
     -268.30
20
      582.01
11
     -269.96
21
      581.21
39
 0
62
 1
 0
LINE
8
default
6
CONTINUOUS
10
      269.96
20
      581.21
11
      271.61
21
      580.40
39
 0
62
 3
 0
LINE
8
default
6
CONTINUOUS
10
     -269.96
20
      581.21
11
     -271.61
21
      580.40
39
 0
62
 1
 0
LINE
8
default
6
CONTINUOUS
10
      271.61
20
      580.40
11
      273.25
21
      579.59
39
 0
62
 3
 0
LINE
8
default
6
CONTINUOUS
10
     -271.61
20
      580.40
11
     -273.25
21
      579.59
39
 0
62
 1
 0
LINE
8
default
6
CONTINUOUS
10
      273.25
20
      579.59
11
      274.90
21
      578.77
39
 0
62
 3
 0
LINE
8
default
6
CONTINUOUS
10
     -273.25
20
      579.59
11
     -274.90
21
      578.77
39
 0
62
 1
 0
LINE
8
default
6
CONTINUOUS
10
      274.90
20
      578.77
11
      276.54
21
      577.94
39
 0
62
 3
 0
LINE
8
default
6
CONTINUOUS
10
     -274.90
20
      578.77
11
     -276.54
21
      577.94
39
 0
62
 1
 0
LINE
8
default
6
CONTINUOUS
10
      276.54
20
      577.94
11
      278.18
21
      577.11
39
 0
62
 3
 0
LINE
8
default
6
CONTINUOUS
10
     -276.54
20
      577.94
11
     -278.18
21
      577.11
39
 0
62
 1
 0
LINE
8
default
6
CONTINUOUS
10
      278.18
20
      577.11
11
      279.81
21
      576.27
39
 0
62
 3
 0
LINE
8
default
6
CONTINUOUS
10
     -278.18
20
      577.11
11
     -279.81
21
      576.27
39
 0
62
 1
 0
LINE
8
default
6
CONTINUOUS
10
      279.81
20
      576.27
11
      281.44
21
      575.43
39
 0
62
 3
 0
LINE
8
default
6
CONTINUOUS
10
     -279.81
20
      576.27
11
     -281.44
21
      575.43
39
 0
62
 1
 0
LINE
8
default
6
CONTINUOUS
10
      281.44
20
      575.43
11
      283.07
21
      574.58
39
 0
62
 3
 0
LINE
8
default
6
CONTINUOUS
10
     -281.44
20
      575.43
11
     -283.07
21
      574.58
39
 0
62
 1
 0
LINE
8
default
6
CONTINUOUS
10
      283.07
20
      574.58
11
      284.69
21
      573.72
39
 0
62
 3
 0
LINE
8
default
6
CONTINUOUS
10
     -283.07
20
      574.58
11
     -284.69
21
      573.72
39
 0
62
 1
 0
LINE
8
default
6
CONTINUOUS
10
      284.69
20
      573.72
11
      286.32
21
      572.86
39
 0
62
 3
 0
LINE
8
default
6
CONTINUOUS
10
     -284.69
20
      573.72
11
     -286.32
21
      572.86
39
 0
62
 1
 0
LINE
8
default
6
CONTINUOUS
10
      286.32
20
      572.86
11
      287.93
21
      571.99
39
 0
62
 3
 0
LINE
8
default
6
CONTINUOUS
10
     -286.32
20
      572.86
11
     -287.93
21
      571.99
39
 0
62
 1
 0
LINE
8
default
6
CONTINUOUS
10
      287.93
20
      571.99
11
      289.55
21
      571.11
39
 0
62
 3
 0
LINE
8
default
6
CONTINUOUS
10
     -287.93
20
      571.99
11
     -289.55
21
      571.11
39
 0
62
 1
 0
LINE
8
default
6
CONTINUOUS
10
      289.55
20
      571.11
11
      291.16
21
      570.23
39
 0
62
 3
 0
LINE
8
default
6
CONTINUOUS
10
     -289.55
20
      571.11
11
     -291.16
21
      570.23
39
 0
62
 1
 0
LINE
8
default
6
CONTINUOUS
10
      291.16
20
      570.23
11
      292.77
21
      569.35
39
 0
62
 3
 0
LINE
8
default
6
CONTINUOUS
10
     -291.16
20
      570.23
11
     -292.77
21
      569.35
39
 0
62
 1
 0
LINE
8
default
6
CONTINUOUS
10
      292.77
20
      569.35
11
      294.37
21
      568.45
39
 0
62
 3
 0
LINE
8
default
6
CONTINUOUS
10
     -292.77
20
      569.35
11
     -294.37
21
      568.45
39
 0
62
 1
 0
LINE
8
default
6
CONTINUOUS
10
      294.37
20
      568.45
11
      295.98
21
      567.55
39
 0
62
 3
 0
LINE
8
default
6
CONTINUOUS
10
     -294.37
20
      568.45
11
     -295.98
21
      567.55
39
 0
62
 1
 0
LINE
8
default
6
CONTINUOUS
10
      295.98
20
      567.55
11
      297.57
21
      566.65
39
 0
62
 3
 0
LINE
8
default
6
CONTINUOUS
10
     -295.98
20
      567.55
11
     -297.57
21
      566.65
39
 0
62
 1
 0
LINE
8
default
6
CONTINUOUS
10
      297.57
20
      566.65
11
      299.17
21
      565.74
39
 0
62
 3
 0
LINE
8
default
6
CONTINUOUS
10
     -297.57
20
      566.65
11
     -299.17
21
      565.74
39
 0
62
 1
 0
LINE
8
default
6
CONTINUOUS
10
      299.17
20
      565.74
11
      300.76
21
      564.82
39
 0
62
 3
 0
LINE
8
default
6
CONTINUOUS
10
     -299.17
20
      565.74
11
     -300.76
21
      564.82
39
 0
62
 1
 0
LINE
8
default
6
CONTINUOUS
10
      300.76
20
      564.82
11
      302.35
21
      563.90
39
 0
62
 3
 0
LINE
8
default
6
CONTINUOUS
10
     -300.76
20
      564.82
11
     -302.35
21
      563.90
39
 0
62
 1
 0
LINE
8
default
6
CONTINUOUS
10
      302.35
20
      563.90
11
      303.93
21
      562.97
39
 0
62
 3
 0
LINE
8
default
6
CONTINUOUS
10
     -302.35
20
      563.90
11
     -303.93
21
      562.97
39
 0
62
 1
 0
LINE
8
default
6
CONTINUOUS
10
      303.93
20
      562.97
11
      305.51
21
      562.03
39
 0
62
 3
 0
LINE
8
default
6
CONTINUOUS
10
     -303.93
20
      562.97
11
     -305.51
21
      562.03
39
 0
62
 1
 0
LINE
8
default
6
CONTINUOUS
10
      305.51
20
      562.03
11
      307.09
21
      561.09
39
 0
62
 3
 0
LINE
8
default
6
CONTINUOUS
10
     -305.51
20
      562.03
11
     -307.09
21
      561.09
39
 0
62
 1
 0
LINE
8
default
6
CONTINUOUS
10
      307.09
20
      561.09
11
      308.67
21
      560.15
39
 0
62
 3
 0
LINE
8
default
6
CONTINUOUS
10
     -307.09
20
      561.09
11
     -308.67
21
      560.15
39
 0
62
 1
 0
LINE
8
default
6
CONTINUOUS
10
      308.67
20
      560.15
11
      310.24
21
      559.19
39
 0
62
 3
 0
LINE
8
default
6
CONTINUOUS
10
     -308.67
20
      560.15
11
     -310.24
21
      559.19
39
 0
62
 1
 0
LINE
8
default
6
CONTINUOUS
10
      310.24
20
      559.19
11
      311.80
21
      558.23
39
 0
62
 3
 0
LINE
8
default
6
CONTINUOUS
10
     -310.24
20
      559.19
11
     -311.80
21
      558.23
39
 0
62
 1
 0
LINE
8
default
6
CONTINUOUS
10
      311.80
20
      558.23
11
      313.37
21
      557.27
39
 0
62
 3
 0
LINE
8
default
6
CONTINUOUS
10
     -311.80
20
      558.23
11
     -313.37
21
      557.27
39
 0
62
 1
 0
LINE
8
default
6
CONTINUOUS
10
      313.37
20
      557.27
11
      314.93
21
      556.30
39
 0
62
 3
 0
LINE
8
default
6
CONTINUOUS
10
     -313.37
20
      557.27
11
     -314.93
21
      556.30
39
 0
62
 1
 0
LINE
8
default
6
CONTINUOUS
10
      314.93
20
      556.30
11
      316.48
21
      555.32
39
 0
62
 3
 0
LINE
8
default
6
CONTINUOUS
10
     -314.93
20
      556.30
11
     -316.48
21
      555.32
39
 0
62
 1
 0
LINE
8
default
6
CONTINUOUS
10
      316.48
20
      555.32
11
      318.03
21
      554.34
39
 0
62
 3
 0
LINE
8
default
6
CONTINUOUS
10
     -316.48
20
      555.32
11
     -318.03
21
      554.34
39
 0
62
 1
 0
LINE
8
default
6
CONTINUOUS
10
      318.03
20
      554.34
11
      319.58
21
      553.35
39
 0
62
 3
 0
LINE
8
default
6
CONTINUOUS
10
     -318.03
20
      554.34
11
     -319.58
21
      553.35
39
 0
62
 1
 0
LINE
8
default
6
CONTINUOUS
10
      319.58
20
      553.35
11
      321.13
21
      552.36
39
 0
62
 3
 0
LINE
8
default
6
CONTINUOUS
10
     -319.58
20
      553.35
11
     -321.13
21
      552.36
39
 0
62
 1
 0
LINE
8
default
6
CONTINUOUS
10
      321.13
20
      552.36
11
      322.67
21
      551.36
39
 0
62
 3
 0
LINE
8
default
6
CONTINUOUS
10
     -321.13
20
      552.36
11
     -322.67
21
      551.36
39
 0
62
 1
 0
LINE
8
default
6
CONTINUOUS
10
      322.67
20
      551.36
11
      324.20
21
      550.35
39
 0
62
 3
 0
LINE
8
default
6
CONTINUOUS
10
     -322.67
20
      551.36
11
     -324.20
21
      550.35
39
 0
62
 1
 0
LINE
8
default
6
CONTINUOUS
10
      324.20
20
      550.35
11
      325.74
21
      549.34
39
 0
62
 3
 0
LINE
8
default
6
CONTINUOUS
10
     -324.20
20
      550.35
11
     -325.74
21
      549.34
39
 0
62
 1
 0
LINE
8
default
6
CONTINUOUS
10
      325.74
20
      549.34
11
      327.27
21
      548.32
39
 0
62
 3
 0
LINE
8
default
6
CONTINUOUS
10
     -325.74
20
      549.34
11
     -327.27
21
      548.32
39
 0
62
 1
 0
LINE
8
default
6
CONTINUOUS
10
      327.27
20
      548.32
11
      328.79
21
      547.30
39
 0
62
 3
 0
LINE
8
default
6
CONTINUOUS
10
     -327.27
20
      548.32
11
     -328.79
21
      547.30
39
 0
62
 1
 0
LINE
8
default
6
CONTINUOUS
10
      328.79
20
      547.30
11
      330.31
21
      546.27
39
 0
62
 3
 0
LINE
8
default
6
CONTINUOUS
10
     -328.79
20
      547.30
11
     -330.31
21
      546.27
39
 0
62
 1
 0
LINE
8
default
6
CONTINUOUS
10
      330.31
20
      546.27
11
      331.83
21
      545.24
39
 0
62
 3
 0
LINE
8
default
6
CONTINUOUS
10
     -330.31
20
      546.27
11
     -331.83
21
      545.24
39
 0
62
 1
 0
LINE
8
default
6
CONTINUOUS
10
      331.83
20
      545.24
11
      333.35
21
      544.20
39
 0
62
 3
 0
LINE
8
default
6
CONTINUOUS
10
     -331.83
20
      545.24
11
     -333.35
21
      544.20
39
 0
62
 1
 0
LINE
8
default
6
CONTINUOUS
10
      333.35
20
      544.20
11
      334.86
21
      543.15
39
 0
62
 3
 0
LINE
8
default
6
CONTINUOUS
10
     -333.35
20
      544.20
11
     -334.86
21
      543.15
39
 0
62
 1
 0
LINE
8
default
6
CONTINUOUS
10
      334.86
20
      543.15
11
      336.36
21
      542.10
39
 0
62
 3
 0
LINE
8
default
6
CONTINUOUS
10
     -334.86
20
      543.15
11
     -336.36
21
      542.10
39
 0
62
 1
 0
LINE
8
default
6
CONTINUOUS
10
      336.36
20
      542.10
11
      337.86
21
      541.04
39
 0
62
 3
 0
LINE
8
default
6
CONTINUOUS
10
     -336.36
20
      542.10
11
     -337.86
21
      541.04
39
 0
62
 1
 0
LINE
8
default
6
CONTINUOUS
10
      337.86
20
      541.04
11
      339.36
21
      539.98
39
 0
62
 3
 0
LINE
8
default
6
CONTINUOUS
10
     -337.86
20
      541.04
11
     -339.36
21
      539.98
39
 0
62
 1
 0
LINE
8
default
6
CONTINUOUS
10
      339.36
20
      539.98
11
      340.86
21
      538.91
39
 0
62
 3
 0
LINE
8
default
6
CONTINUOUS
10
     -339.36
20
      539.98
11
     -340.86
21
      538.91
39
 0
62
 1
 0
LINE
8
default
6
CONTINUOUS
10
      340.86
20
      538.91
11
      342.35
21
      537.84
39
 0
62
 3
 0
LINE
8
default
6
CONTINUOUS
10
     -340.86
20
      538.91
11
     -342.35
21
      537.84
39
 0
62
 1
 0
LINE
8
default
6
CONTINUOUS
10
      342.35
20
      537.84
11
      343.83
21
      536.76
39
 0
62
 3
 0
LINE
8
default
6
CONTINUOUS
10
     -342.35
20
      537.84
11
     -343.83
21
      536.76
39
 0
62
 1
 0
LINE
8
default
6
CONTINUOUS
10
      343.83
20
      536.76
11
      345.31
21
      535.67
39
 0
62
 3
 0
LINE
8
default
6
CONTINUOUS
10
     -343.83
20
      536.76
11
     -345.31
21
      535.67
39
 0
62
 1
 0
LINE
8
default
6
CONTINUOUS
10
      345.31
20
      535.67
11
      346.79
21
      534.58
39
 0
62
 3
 0
LINE
8
default
6
CONTINUOUS
10
     -345.31
20
      535.67
11
     -346.79
21
      534.58
39
 0
62
 1
 0
LINE
8
default
6
CONTINUOUS
10
      346.79
20
      534.58
11
      348.27
21
      533.49
39
 0
62
 3
 0
LINE
8
default
6
CONTINUOUS
10
     -346.79
20
      534.58
11
     -348.27
21
      533.49
39
 0
62
 1
 0
LINE
8
default
6
CONTINUOUS
10
      348.27
20
      533.49
11
      349.74
21
      532.39
39
 0
62
 3
 0
LINE
8
default
6
CONTINUOUS
10
     -348.27
20
      533.49
11
     -349.74
21
      532.39
39
 0
62
 1
 0
LINE
8
default
6
CONTINUOUS
10
      349.74
20
      532.39
11
      351.20
21
      531.28
39
 0
62
 3
 0
LINE
8
default
6
CONTINUOUS
10
     -349.74
20
      532.39
11
     -351.20
21
      531.28
39
 0
62
 1
 0
LINE
8
default
6
CONTINUOUS
10
      351.20
20
      531.28
11
      352.66
21
      530.17
39
 0
62
 3
 0
LINE
8
default
6
CONTINUOUS
10
     -351.20
20
      531.28
11
     -352.66
21
      530.17
39
 0
62
 1
 0
LINE
8
default
6
CONTINUOUS
10
      352.66
20
      530.17
11
      354.12
21
      529.05
39
 0
62
 3
 0
LINE
8
default
6
CONTINUOUS
10
     -352.66
20
      530.17
11
     -354.12
21
      529.05
39
 0
62
 1
 0
LINE
8
default
6
CONTINUOUS
10
      354.12
20
      529.05
11
      355.57
21
      527.92
39
 0
62
 3
 0
LINE
8
default
6
CONTINUOUS
10
     -354.12
20
      529.05
11
     -355.57
21
      527.92
39
 0
62
 1
 0
LINE
8
default
6
CONTINUOUS
10
      355.57
20
      527.92
11
      357.02
21
      526.79
39
 0
62
 3
 0
LINE
8
default
6
CONTINUOUS
10
     -355.57
20
      527.92
11
     -357.02
21
      526.79
39
 0
62
 1
 0
LINE
8
default
6
CONTINUOUS
10
      357.02
20
      526.79
11
      358.47
21
      525.66
39
 0
62
 3
 0
LINE
8
default
6
CONTINUOUS
10
     -357.02
20
      526.79
11
     -358.47
21
      525.66
39
 0
62
 1
 0
LINE
8
default
6
CONTINUOUS
10
      358.47
20
      525.66
11
      359.91
21
      524.52
39
 0
62
 3
 0
LINE
8
default
6
CONTINUOUS
10
     -358.47
20
      525.66
11
     -359.91
21
      524.52
39
 0
62
 1
 0
LINE
8
default
6
CONTINUOUS
10
      359.91
20
      524.52
11
      361.34
21
      523.37
39
 0
62
 3
 0
LINE
8
default
6
CONTINUOUS
10
     -359.91
20
      524.52
11
     -361.34
21
      523.37
39
 0
62
 1
 0
LINE
8
default
6
CONTINUOUS
10
      361.34
20
      523.37
11
      362.77
21
      522.22
39
 0
62
 3
 0
LINE
8
default
6
CONTINUOUS
10
     -361.34
20
      523.37
11
     -362.77
21
      522.22
39
 0
62
 1
 0
LINE
8
default
6
CONTINUOUS
10
      362.77
20
      522.22
11
      364.20
21
      521.07
39
 0
62
 3
 0
LINE
8
default
6
CONTINUOUS
10
     -362.77
20
      522.22
11
     -364.20
21
      521.07
39
 0
62
 1
 0
LINE
8
default
6
CONTINUOUS
10
      364.20
20
      521.07
11
      365.62
21
      519.90
39
 0
62
 3
 0
LINE
8
default
6
CONTINUOUS
10
     -364.20
20
      521.07
11
     -365.62
21
      519.90
39
 0
62
 1
 0
LINE
8
default
6
CONTINUOUS
10
      365.62
20
      519.90
11
      367.04
21
      518.74
39
 0
62
 3
 0
LINE
8
default
6
CONTINUOUS
10
     -365.62
20
      519.90
11
     -367.04
21
      518.74
39
 0
62
 1
 0
LINE
8
default
6
CONTINUOUS
10
      367.04
20
      518.74
11
      368.45
21
      517.56
39
 0
62
 3
 0
LINE
8
default
6
CONTINUOUS
10
     -367.04
20
      518.74
11
     -368.45
21
      517.56
39
 0
62
 1
 0
LINE
8
default
6
CONTINUOUS
10
      368.45
20
      517.56
11
      369.86
21
      516.39
39
 0
62
 3
 0
LINE
8
default
6
CONTINUOUS
10
     -368.45
20
      517.56
11
     -369.86
21
      516.39
39
 0
62
 1
 0
LINE
8
default
6
CONTINUOUS
10
      369.86
20
      516.39
11
      371.27
21
      515.20
39
 0
62
 3
 0
LINE
8
default
6
CONTINUOUS
10
     -369.86
20
      516.39
11
     -371.27
21
      515.20
39
 0
62
 1
 0
LINE
8
default
6
CONTINUOUS
10
      371.27
20
      515.20
11
      372.67
21
      514.02
39
 0
62
 3
 0
LINE
8
default
6
CONTINUOUS
10
     -371.27
20
      515.20
11
     -372.67
21
      514.02
39
 0
62
 1
 0
LINE
8
default
6
CONTINUOUS
10
      372.67
20
      514.02
11
      374.07
21
      512.82
39
 0
62
 3
 0
LINE
8
default
6
CONTINUOUS
10
     -372.67
20
      514.02
11
     -374.07
21
      512.82
39
 0
62
 1
 0
LINE
8
default
6
CONTINUOUS
10
      374.07
20
      512.82
11
      375.46
21
      511.62
39
 0
62
 3
 0
LINE
8
default
6
CONTINUOUS
10
     -374.07
20
      512.82
11
     -375.46
21
      511.62
39
 0
62
 1
 0
LINE
8
default
6
CONTINUOUS
10
      375.46
20
      511.62
11
      376.84
21
      510.42
39
 0
62
 3
 0
LINE
8
default
6
CONTINUOUS
10
     -375.46
20
      511.62
11
     -376.84
21
      510.42
39
 0
62
 1
 0
LINE
8
default
6
CONTINUOUS
10
      376.84
20
      510.42
11
      378.23
21
      509.21
39
 0
62
 3
 0
LINE
8
default
6
CONTINUOUS
10
     -376.84
20
      510.42
11
     -378.23
21
      509.21
39
 0
62
 1
 0
LINE
8
default
6
CONTINUOUS
10
      378.23
20
      509.21
11
      379.60
21
      507.99
39
 0
62
 3
 0
LINE
8
default
6
CONTINUOUS
10
     -378.23
20
      509.21
11
     -379.60
21
      507.99
39
 0
62
 1
 0
LINE
8
default
6
CONTINUOUS
10
      379.60
20
      507.99
11
      380.98
21
      506.78
39
 0
62
 3
 0
LINE
8
default
6
CONTINUOUS
10
     -379.60
20
      507.99
11
     -380.98
21
      506.78
39
 0
62
 1
 0
LINE
8
default
6
CONTINUOUS
10
      380.98
20
      506.78
11
      381.56
21
      506.26
39
 0
62
 3
 0
LINE
8
default
6
CONTINUOUS
10
     -380.98
20
      506.78
11
     -381.56
21
      506.26
39
 0
62
 1
 0
LINE
8
default
6
CONTINUOUS
10
      381.56
20
      506.26
11
      382.13
21
      505.74
39
 0
62
 3
 0
LINE
8
default
6
CONTINUOUS
10
     -381.56
20
      506.26
11
     -382.13
21
      505.74
39
 0
62
 1
 0
LINE
8
default
6
CONTINUOUS
10
      382.13
20
      505.74
11
      382.71
21
      505.22
39
 0
62
 3
 0
LINE
8
default
6
CONTINUOUS
10
     -382.13
20
      505.74
11
     -382.71
21
      505.22
39
 0
62
 1
 0
LINE
8
default
6
CONTINUOUS
10
      382.71
20
      505.22
11
      383.28
21
      504.69
39
 0
62
 3
 0
LINE
8
default
6
CONTINUOUS
10
     -382.71
20
      505.22
11
     -383.28
21
      504.69
39
 0
62
 1
 0
LINE
8
default
6
CONTINUOUS
10
      383.28
20
      504.69
11
      383.86
21
      504.17
39
 0
62
 3
 0
LINE
8
default
6
CONTINUOUS
10
     -383.28
20
      504.69
11
     -383.86
21
      504.17
39
 0
62
 1
 0
LINE
8
default
6
CONTINUOUS
10
      383.86
20
      504.17
11
      384.43
21
      503.64
39
 0
62
 3
 0
LINE
8
default
6
CONTINUOUS
10
     -383.86
20
      504.17
11
     -384.43
21
      503.64
39
 0
62
 1
 0
LINE
8
default
6
CONTINUOUS
10
      384.43
20
      503.64
11
      385.00
21
      503.11
39
 0
62
 3
 0
LINE
8
default
6
CONTINUOUS
10
     -384.43
20
      503.64
11
     -385.00
21
      503.11
39
 0
62
 1
 0
LINE
8
default
6
CONTINUOUS
10
      385.00
20
      503.11
11
      385.56
21
      502.58
39
 0
62
 3
 0
LINE
8
default
6
CONTINUOUS
10
     -385.00
20
      503.11
11
     -385.56
21
      502.58
39
 0
62
 1
 0
LINE
8
default
6
CONTINUOUS
10
      385.56
20
      502.58
11
      386.13
21
      502.04
39
 0
62
 3
 0
LINE
8
default
6
CONTINUOUS
10
     -385.56
20
      502.58
11
     -386.13
21
      502.04
39
 0
62
 1
 0
LINE
8
default
6
CONTINUOUS
10
      386.13
20
      502.04
11
      386.69
21
      501.51
39
 0
62
 3
 0
LINE
8
default
6
CONTINUOUS
10
     -386.13
20
      502.04
11
     -386.69
21
      501.51
39
 0
62
 1
 0
LINE
8
default
6
CONTINUOUS
10
      386.69
20
      501.51
11
      387.25
21
      500.97
39
 0
62
 3
 0
LINE
8
default
6
CONTINUOUS
10
     -386.69
20
      501.51
11
     -387.25
21
      500.97
39
 0
62
 1
 0
LINE
8
default
6
CONTINUOUS
10
      387.25
20
      500.97
11
      387.81
21
      500.43
39
 0
62
 3
 0
LINE
8
default
6
CONTINUOUS
10
     -387.25
20
      500.97
11
     -387.81
21
      500.43
39
 0
62
 1
 0
LINE
8
default
6
CONTINUOUS
10
      387.81
20
      500.43
11
      388.37
21
      499.89
39
 0
62
 3
 0
LINE
8
default
6
CONTINUOUS
10
     -387.81
20
      500.43
11
     -388.37
21
      499.89
39
 0
62
 1
 0
LINE
8
default
6
CONTINUOUS
10
      388.37
20
      499.89
11
      388.93
21
      499.35
39
 0
62
 3
 0
LINE
8
default
6
CONTINUOUS
10
     -388.37
20
      499.89
11
     -388.93
21
      499.35
39
 0
62
 1
 0
LINE
8
default
6
CONTINUOUS
10
      388.93
20
      499.35
11
      389.48
21
      498.80
39
 0
62
 3
 0
LINE
8
default
6
CONTINUOUS
10
     -388.93
20
      499.35
11
     -389.48
21
      498.80
39
 0
62
 1
 0
LINE
8
default
6
CONTINUOUS
10
      389.48
20
      498.80
11
      390.03
21
      498.26
39
 0
62
 3
 0
LINE
8
default
6
CONTINUOUS
10
     -389.48
20
      498.80
11
     -390.03
21
      498.26
39
 0
62
 1
 0
LINE
8
default
6
CONTINUOUS
10
      390.03
20
      498.26
11
      390.58
21
      497.71
39
 0
62
 3
 0
LINE
8
default
6
CONTINUOUS
10
     -390.03
20
      498.26
11
     -390.58
21
      497.71
39
 0
62
 1
 0
LINE
8
default
6
CONTINUOUS
10
      390.58
20
      497.71
11
      391.13
21
      497.16
39
 0
62
 3
 0
LINE
8
default
6
CONTINUOUS
10
     -390.58
20
      497.71
11
     -391.13
21
      497.16
39
 0
62
 1
 0
LINE
8
default
6
CONTINUOUS
10
      391.13
20
      497.16
11
      391.68
21
      496.61
39
 0
62
 3
 0
LINE
8
default
6
CONTINUOUS
10
     -391.13
20
      497.16
11
     -391.68
21
      496.61
39
 0
62
 1
 0
LINE
8
default
6
CONTINUOUS
10
      391.68
20
      496.61
11
      392.23
21
      496.05
39
 0
62
 3
 0
LINE
8
default
6
CONTINUOUS
10
     -391.68
20
      496.61
11
     -392.23
21
      496.05
39
 0
62
 1
 0
LINE
8
default
6
CONTINUOUS
10
      392.23
20
      496.05
11
      392.77
21
      495.50
39
 0
62
 3
 0
LINE
8
default
6
CONTINUOUS
10
     -392.23
20
      496.05
11
     -392.77
21
      495.50
39
 0
62
 1
 0
LINE
8
default
6
CONTINUOUS
10
      392.77
20
      495.50
11
      393.31
21
      494.94
39
 0
62
 3
 0
LINE
8
default
6
CONTINUOUS
10
     -392.77
20
      495.50
11
     -393.31
21
      494.94
39
 0
62
 1
 0
LINE
8
default
6
CONTINUOUS
10
      393.31
20
      494.94
11
      393.85
21
      494.38
39
 0
62
 3
 0
LINE
8
default
6
CONTINUOUS
10
     -393.31
20
      494.94
11
     -393.85
21
      494.38
39
 0
62
 1
 0
LINE
8
default
6
CONTINUOUS
10
      393.85
20
      494.38
11
      394.39
21
      493.82
39
 0
62
 3
 0
LINE
8
default
6
CONTINUOUS
10
     -393.85
20
      494.38
11
     -394.39
21
      493.82
39
 0
62
 1
 0
LINE
8
default
6
CONTINUOUS
10
      394.39
20
      493.82
11
      394.92
21
      493.26
39
 0
62
 3
 0
LINE
8
default
6
CONTINUOUS
10
     -394.39
20
      493.82
11
     -394.92
21
      493.26
39
 0
62
 1
 0
LINE
8
default
6
CONTINUOUS
10
      394.92
20
      493.26
11
      395.46
21
      492.69
39
 0
62
 3
 0
LINE
8
default
6
CONTINUOUS
10
     -394.92
20
      493.26
11
     -395.46
21
      492.69
39
 0
62
 1
 0
LINE
8
default
6
CONTINUOUS
10
      395.46
20
      492.69
11
      395.99
21
      492.13
39
 0
62
 3
 0
LINE
8
default
6
CONTINUOUS
10
     -395.46
20
      492.69
11
     -395.99
21
      492.13
39
 0
62
 1
 0
LINE
8
default
6
CONTINUOUS
10
      395.99
20
      492.13
11
      396.52
21
      491.56
39
 0
62
 3
 0
LINE
8
default
6
CONTINUOUS
10
     -395.99
20
      492.13
11
     -396.52
21
      491.56
39
 0
62
 1
 0
LINE
8
default
6
CONTINUOUS
10
      396.52
20
      491.56
11
      397.05
21
      490.99
39
 0
62
 3
 0
LINE
8
default
6
CONTINUOUS
10
     -396.52
20
      491.56
11
     -397.05
21
      490.99
39
 0
62
 1
 0
LINE
8
default
6
CONTINUOUS
10
      397.05
20
      490.99
11
      397.57
21
      490.42
39
 0
62
 3
 0
LINE
8
default
6
CONTINUOUS
10
     -397.05
20
      490.99
11
     -397.57
21
      490.42
39
 0
62
 1
 0
LINE
8
default
6
CONTINUOUS
10
      397.57
20
      490.42
11
      398.10
21
      489.84
39
 0
62
 3
 0
LINE
8
default
6
CONTINUOUS
10
     -397.57
20
      490.42
11
     -398.10
21
      489.84
39
 0
62
 1
 0
LINE
8
default
6
CONTINUOUS
10
      398.10
20
      489.84
11
      398.62
21
      489.27
39
 0
62
 3
 0
LINE
8
default
6
CONTINUOUS
10
     -398.10
20
      489.84
11
     -398.62
21
      489.27
39
 0
62
 1
 0
LINE
8
default
6
CONTINUOUS
10
      398.62
20
      489.27
11
      399.14
21
      488.69
39
 0
62
 3
 0
LINE
8
default
6
CONTINUOUS
10
     -398.62
20
      489.27
11
     -399.14
21
      488.69
39
 0
62
 1
 0
LINE
8
default
6
CONTINUOUS
10
      399.14
20
      488.69
11
      399.66
21
      488.11
39
 0
62
 3
 0
LINE
8
default
6
CONTINUOUS
10
     -399.14
20
      488.69
11
     -399.66
21
      488.11
39
 0
62
 1
 0
LINE
8
default
6
CONTINUOUS
10
      399.66
20
      488.11
11
      400.18
21
      487.53
39
 0
62
 3
 0
LINE
8
default
6
CONTINUOUS
10
     -399.66
20
      488.11
11
     -400.18
21
      487.53
39
 0
62
 1
 0
LINE
8
default
6
CONTINUOUS
10
      400.18
20
      487.53
11
      400.69
21
      486.95
39
 0
62
 3
 0
LINE
8
default
6
CONTINUOUS
10
     -400.18
20
      487.53
11
     -400.69
21
      486.95
39
 0
62
 1
 0
LINE
8
default
6
CONTINUOUS
10
      400.69
20
      486.95
11
      401.21
21
      486.37
39
 0
62
 3
 0
LINE
8
default
6
CONTINUOUS
10
     -400.69
20
      486.95
11
     -401.21
21
      486.37
39
 0
62
 1
 0
LINE
8
default
6
CONTINUOUS
10
      401.21
20
      486.37
11
      401.72
21
      485.78
39
 0
62
 3
 0
LINE
8
default
6
CONTINUOUS
10
     -401.21
20
      486.37
11
     -401.72
21
      485.78
39
 0
62
 1
 0
LINE
8
default
6
CONTINUOUS
10
      401.72
20
      485.78
11
      402.23
21
      485.20
39
 0
62
 3
 0
LINE
8
default
6
CONTINUOUS
10
     -401.72
20
      485.78
11
     -402.23
21
      485.20
39
 0
62
 1
 0
LINE
8
default
6
CONTINUOUS
10
      402.23
20
      485.20
11
      402.73
21
      484.61
39
 0
62
 3
 0
LINE
8
default
6
CONTINUOUS
10
     -402.23
20
      485.20
11
     -402.73
21
      484.61
39
 0
62
 1
 0
LINE
8
default
6
CONTINUOUS
10
      402.73
20
      484.61
11
      403.24
21
      484.02
39
 0
62
 3
 0
LINE
8
default
6
CONTINUOUS
10
     -402.73
20
      484.61
11
     -403.24
21
      484.02
39
 0
62
 1
 0
LINE
8
default
6
CONTINUOUS
10
      403.24
20
      484.02
11
      403.74
21
      483.42
39
 0
62
 3
 0
LINE
8
default
6
CONTINUOUS
10
     -403.24
20
      484.02
11
     -403.74
21
      483.42
39
 0
62
 1
 0
LINE
8
default
6
CONTINUOUS
10
      403.74
20
      483.42
11
      404.24
21
      482.83
39
 0
62
 3
 0
LINE
8
default
6
CONTINUOUS
10
     -403.74
20
      483.42
11
     -404.24
21
      482.83
39
 0
62
 1
 0
LINE
8
default
6
CONTINUOUS
10
      404.24
20
      482.83
11
      404.74
21
      482.23
39
 0
62
 3
 0
LINE
8
default
6
CONTINUOUS
10
     -404.24
20
      482.83
11
     -404.74
21
      482.23
39
 0
62
 1
 0
LINE
8
default
6
CONTINUOUS
10
      404.74
20
      482.23
11
      405.24
21
      481.64
39
 0
62
 3
 0
LINE
8
default
6
CONTINUOUS
10
     -404.74
20
      482.23
11
     -405.24
21
      481.64
39
 0
62
 1
 0
LINE
8
default
6
CONTINUOUS
10
      405.24
20
      481.64
11
      405.73
21
      481.04
39
 0
62
 3
 0
LINE
8
default
6
CONTINUOUS
10
     -405.24
20
      481.64
11
     -405.73
21
      481.04
39
 0
62
 1
 0
LINE
8
default
6
CONTINUOUS
10
      405.73
20
      481.04
11
      406.23
21
      480.44
39
 0
62
 3
 0
LINE
8
default
6
CONTINUOUS
10
     -405.73
20
      481.04
11
     -406.23
21
      480.44
39
 0
62
 1
 0
LINE
8
default
6
CONTINUOUS
10
      406.23
20
      480.44
11
      406.72
21
      479.84
39
 0
62
 3
 0
LINE
8
default
6
CONTINUOUS
10
     -406.23
20
      480.44
11
     -406.72
21
      479.84
39
 0
62
 1
 0
LINE
8
default
6
CONTINUOUS
10
      406.72
20
      479.84
11
      407.21
21
      479.23
39
 0
62
 3
 0
LINE
8
default
6
CONTINUOUS
10
     -406.72
20
      479.84
11
     -407.21
21
      479.23
39
 0
62
 1
 0
LINE
8
default
6
CONTINUOUS
10
      407.21
20
      479.23
11
      407.69
21
      478.63
39
 0
62
 3
 0
LINE
8
default
6
CONTINUOUS
10
     -407.21
20
      479.23
11
     -407.69
21
      478.63
39
 0
62
 1
 0
LINE
8
default
6
CONTINUOUS
10
      407.69
20
      478.63
11
      408.18
21
      478.02
39
 0
62
 3
 0
LINE
8
default
6
CONTINUOUS
10
     -407.69
20
      478.63
11
     -408.18
21
      478.02
39
 0
62
 1
 0
LINE
8
default
6
CONTINUOUS
10
      408.18
20
      478.02
11
      408.66
21
      477.41
39
 0
62
 3
 0
LINE
8
default
6
CONTINUOUS
10
     -408.18
20
      478.02
11
     -408.66
21
      477.41
39
 0
62
 1
 0
LINE
8
default
6
CONTINUOUS
10
      408.66
20
      477.41
11
      409.14
21
      476.80
39
 0
62
 3
 0
LINE
8
default
6
CONTINUOUS
10
     -408.66
20
      477.41
11
     -409.14
21
      476.80
39
 0
62
 1
 0
LINE
8
default
6
CONTINUOUS
10
      409.14
20
      476.80
11
      409.62
21
      476.19
39
 0
62
 3
 0
LINE
8
default
6
CONTINUOUS
10
     -409.14
20
      476.80
11
     -409.62
21
      476.19
39
 0
62
 1
 0
LINE
8
default
6
CONTINUOUS
10
      409.62
20
      476.19
11
      410.10
21
      475.57
39
 0
62
 3
 0
LINE
8
default
6
CONTINUOUS
10
     -409.62
20
      476.19
11
     -410.10
21
      475.57
39
 0
62
 1
 0
LINE
8
default
6
CONTINUOUS
10
      410.10
20
      475.57
11
      410.57
21
      474.96
39
 0
62
 3
 0
LINE
8
default
6
CONTINUOUS
10
     -410.10
20
      475.57
11
     -410.57
21
      474.96
39
 0
62
 1
 0
LINE
8
default
6
CONTINUOUS
10
      410.57
20
      474.96
11
      411.05
21
      474.34
39
 0
62
 3
 0
LINE
8
default
6
CONTINUOUS
10
     -410.57
20
      474.96
11
     -411.05
21
      474.34
39
 0
62
 1
 0
LINE
8
default
6
CONTINUOUS
10
      411.05
20
      474.34
11
      411.52
21
      473.72
39
 0
62
 3
 0
LINE
8
default
6
CONTINUOUS
10
     -411.05
20
      474.34
11
     -411.52
21
      473.72
39
 0
62
 1
 0
LINE
8
default
6
CONTINUOUS
10
      411.52
20
      473.72
11
      411.99
21
      473.10
39
 0
62
 3
 0
LINE
8
default
6
CONTINUOUS
10
     -411.52
20
      473.72
11
     -411.99
21
      473.10
39
 0
62
 1
 0
LINE
8
default
6
CONTINUOUS
10
      411.99
20
      473.10
11
      412.45
21
      472.48
39
 0
62
 3
 0
LINE
8
default
6
CONTINUOUS
10
     -411.99
20
      473.10
11
     -412.45
21
      472.48
39
 0
62
 1
 0
LINE
8
default
6
CONTINUOUS
10
      412.45
20
      472.48
11
      412.92
21
      471.86
39
 0
62
 3
 0
LINE
8
default
6
CONTINUOUS
10
     -412.45
20
      472.48
11
     -412.92
21
      471.86
39
 0
62
 1
 0
LINE
8
default
6
CONTINUOUS
10
      412.92
20
      471.86
11
      413.38
21
      471.24
39
 0
62
 3
 0
LINE
8
default
6
CONTINUOUS
10
     -412.92
20
      471.86
11
     -413.38
21
      471.24
39
 0
62
 1
 0
LINE
8
default
6
CONTINUOUS
10
      413.38
20
      471.24
11
      413.84
21
      470.61
39
 0
62
 3
 0
LINE
8
default
6
CONTINUOUS
10
     -413.38
20
      471.24
11
     -413.84
21
      470.61
39
 0
62
 1
 0
LINE
8
default
6
CONTINUOUS
10
      413.84
20
      470.61
11
      414.30
21
      469.98
39
 0
62
 3
 0
LINE
8
default
6
CONTINUOUS
10
     -413.84
20
      470.61
11
     -414.30
21
      469.98
39
 0
62
 1
 0
LINE
8
default
6
CONTINUOUS
10
      414.30
20
      469.98
11
      414.76
21
      469.35
39
 0
62
 3
 0
LINE
8
default
6
CONTINUOUS
10
     -414.30
20
      469.98
11
     -414.76
21
      469.35
39
 0
62
 1
 0
LINE
8
default
6
CONTINUOUS
10
      414.76
20
      469.35
11
      415.21
21
      468.72
39
 0
62
 3
 0
LINE
8
default
6
CONTINUOUS
10
     -414.76
20
      469.35
11
     -415.21
21
      468.72
39
 0
62
 1
 0
LINE
8
default
6
CONTINUOUS
10
      415.21
20
      468.72
11
      415.66
21
      468.09
39
 0
62
 3
 0
LINE
8
default
6
CONTINUOUS
10
     -415.21
20
      468.72
11
     -415.66
21
      468.09
39
 0
62
 1
 0
LINE
8
default
6
CONTINUOUS
10
      415.66
20
      468.09
11
      416.11
21
      467.46
39
 0
62
 3
 0
LINE
8
default
6
CONTINUOUS
10
     -415.66
20
      468.09
11
     -416.11
21
      467.46
39
 0
62
 1
 0
LINE
8
default
6
CONTINUOUS
10
      416.11
20
      467.46
11
      416.56
21
      466.82
39
 0
62
 3
 0
LINE
8
default
6
CONTINUOUS
10
     -416.11
20
      467.46
11
     -416.56
21
      466.82
39
 0
62
 1
 0
LINE
8
default
6
CONTINUOUS
10
      416.56
20
      466.82
11
      417.01
21
      466.19
39
 0
62
 3
 0
LINE
8
default
6
CONTINUOUS
10
     -416.56
20
      466.82
11
     -417.01
21
      466.19
39
 0
62
 1
 0
LINE
8
default
6
CONTINUOUS
10
      417.01
20
      466.19
11
      417.45
21
      465.55
39
 0
62
 3
 0
LINE
8
default
6
CONTINUOUS
10
     -417.01
20
      466.19
11
     -417.45
21
      465.55
39
 0
62
 1
 0
LINE
8
default
6
CONTINUOUS
10
      417.45
20
      465.55
11
      417.89
21
      464.91
39
 0
62
 3
 0
LINE
8
default
6
CONTINUOUS
10
     -417.45
20
      465.55
11
     -417.89
21
      464.91
39
 0
62
 1
 0
LINE
8
default
6
CONTINUOUS
10
      417.89
20
      464.91
11
      418.33
21
      464.27
39
 0
62
 3
 0
LINE
8
default
6
CONTINUOUS
10
     -417.89
20
      464.91
11
     -418.33
21
      464.27
39
 0
62
 1
 0
LINE
8
default
6
CONTINUOUS
10
      418.33
20
      464.27
11
      418.77
21
      463.62
39
 0
62
 3
 0
LINE
8
default
6
CONTINUOUS
10
     -418.33
20
      464.27
11
     -418.77
21
      463.62
39
 0
62
 1
 0
LINE
8
default
6
CONTINUOUS
10
      418.77
20
      463.62
11
      419.20
21
      462.98
39
 0
62
 3
 0
LINE
8
default
6
CONTINUOUS
10
     -418.77
20
      463.62
11
     -419.20
21
      462.98
39
 0
62
 1
 0
LINE
8
default
6
CONTINUOUS
10
      419.20
20
      462.98
11
      419.63
21
      462.34
39
 0
62
 3
 0
LINE
8
default
6
CONTINUOUS
10
     -419.20
20
      462.98
11
     -419.63
21
      462.34
39
 0
62
 1
 0
LINE
8
default
6
CONTINUOUS
10
      419.63
20
      462.34
11
      420.07
21
      461.69
39
 0
62
 3
 0
LINE
8
default
6
CONTINUOUS
10
     -419.63
20
      462.34
11
     -420.07
21
      461.69
39
 0
62
 1
 0
LINE
8
default
6
CONTINUOUS
10
      420.07
20
      461.69
11
      420.49
21
      461.04
39
 0
62
 3
 0
LINE
8
default
6
CONTINUOUS
10
     -420.07
20
      461.69
11
     -420.49
21
      461.04
39
 0
62
 1
 0
LINE
8
default
6
CONTINUOUS
10
      420.49
20
      461.04
11
      420.92
21
      460.39
39
 0
62
 3
 0
LINE
8
default
6
CONTINUOUS
10
     -420.49
20
      461.04
11
     -420.92
21
      460.39
39
 0
62
 1
 0
LINE
8
default
6
CONTINUOUS
10
      420.92
20
      460.39
11
      421.34
21
      459.74
39
 0
62
 3
 0
LINE
8
default
6
CONTINUOUS
10
     -420.92
20
      460.39
11
     -421.34
21
      459.74
39
 0
62
 1
 0
LINE
8
default
6
CONTINUOUS
10
      421.34
20
      459.74
11
      421.77
21
      459.09
39
 0
62
 3
 0
LINE
8
default
6
CONTINUOUS
10
     -421.34
20
      459.74
11
     -421.77
21
      459.09
39
 0
62
 1
 0
LINE
8
default
6
CONTINUOUS
10
      421.77
20
      459.09
11
      422.19
21
      458.43
39
 0
62
 3
 0
LINE
8
default
6
CONTINUOUS
10
     -421.77
20
      459.09
11
     -422.19
21
      458.43
39
 0
62
 1
 0
LINE
8
default
6
CONTINUOUS
10
      422.19
20
      458.43
11
      422.60
21
      457.78
39
 0
62
 3
 0
LINE
8
default
6
CONTINUOUS
10
     -422.19
20
      458.43
11
     -422.60
21
      457.78
39
 0
62
 1
 0
LINE
8
default
6
CONTINUOUS
10
      422.60
20
      457.78
11
      423.02
21
      457.12
39
 0
62
 3
 0
LINE
8
default
6
CONTINUOUS
10
     -422.60
20
      457.78
11
     -423.02
21
      457.12
39
 0
62
 1
 0
LINE
8
default
6
CONTINUOUS
10
      423.02
20
      457.12
11
      423.43
21
      456.46
39
 0
62
 3
 0
LINE
8
default
6
CONTINUOUS
10
     -423.02
20
      457.12
11
     -423.43
21
      456.46
39
 0
62
 1
 0
LINE
8
default
6
CONTINUOUS
10
      423.43
20
      456.46
11
      423.84
21
      455.80
39
 0
62
 3
 0
LINE
8
default
6
CONTINUOUS
10
     -423.43
20
      456.46
11
     -423.84
21
      455.80
39
 0
62
 1
 0
LINE
8
default
6
CONTINUOUS
10
      423.84
20
      455.80
11
      424.25
21
      455.14
39
 0
62
 3
 0
LINE
8
default
6
CONTINUOUS
10
     -423.84
20
      455.80
11
     -424.25
21
      455.14
39
 0
62
 1
 0
LINE
8
default
6
CONTINUOUS
10
      424.25
20
      455.14
11
      424.66
21
      454.48
39
 0
62
 3
 0
LINE
8
default
6
CONTINUOUS
10
     -424.25
20
      455.14
11
     -424.66
21
      454.48
39
 0
62
 1
 0
LINE
8
default
6
CONTINUOUS
10
      424.66
20
      454.48
11
      425.06
21
      453.82
39
 0
62
 3
 0
LINE
8
default
6
CONTINUOUS
10
     -424.66
20
      454.48
11
     -425.06
21
      453.82
39
 0
62
 1
 0
LINE
8
default
6
CONTINUOUS
10
      425.06
20
      453.82
11
      425.47
21
      453.15
39
 0
62
 3
 0
LINE
8
default
6
CONTINUOUS
10
     -425.06
20
      453.82
11
     -425.47
21
      453.15
39
 0
62
 1
 0
LINE
8
default
6
CONTINUOUS
10
      425.47
20
      453.15
11
      425.87
21
      452.49
39
 0
62
 3
 0
LINE
8
default
6
CONTINUOUS
10
     -425.47
20
      453.15
11
     -425.87
21
      452.49
39
 0
62
 1
 0
LINE
8
default
6
CONTINUOUS
10
      425.87
20
      452.49
11
      426.26
21
      451.82
39
 0
62
 3
 0
LINE
8
default
6
CONTINUOUS
10
     -425.87
20
      452.49
11
     -426.26
21
      451.82
39
 0
62
 1
 0
LINE
8
default
6
CONTINUOUS
10
      426.26
20
      451.82
11
      426.66
21
      451.15
39
 0
62
 3
 0
LINE
8
default
6
CONTINUOUS
10
     -426.26
20
      451.82
11
     -426.66
21
      451.15
39
 0
62
 1
 0
LINE
8
default
6
CONTINUOUS
10
      426.66
20
      451.15
11
      427.05
21
      450.48
39
 0
62
 3
 0
LINE
8
default
6
CONTINUOUS
10
     -426.66
20
      451.15
11
     -427.05
21
      450.48
39
 0
62
 1
 0
LINE
8
default
6
CONTINUOUS
10
      427.05
20
      450.48
11
      427.44
21
      449.81
39
 0
62
 3
 0
LINE
8
default
6
CONTINUOUS
10
     -427.05
20
      450.48
11
     -427.44
21
      449.81
39
 0
62
 1
 0
LINE
8
default
6
CONTINUOUS
10
      427.44
20
      449.81
11
      427.83
21
      449.14
39
 0
62
 3
 0
LINE
8
default
6
CONTINUOUS
10
     -427.44
20
      449.81
11
     -427.83
21
      449.14
39
 0
62
 1
 0
LINE
8
default
6
CONTINUOUS
10
      427.83
20
      449.14
11
      428.22
21
      448.46
39
 0
62
 3
 0
LINE
8
default
6
CONTINUOUS
10
     -427.83
20
      449.14
11
     -428.22
21
      448.46
39
 0
62
 1
 0
LINE
8
default
6
CONTINUOUS
10
      428.22
20
      448.46
11
      428.60
21
      447.79
39
 0
62
 3
 0
LINE
8
default
6
CONTINUOUS
10
     -428.22
20
      448.46
11
     -428.60
21
      447.79
39
 0
62
 1
 0
LINE
8
default
6
CONTINUOUS
10
      428.60
20
      447.79
11
      428.99
21
      447.11
39
 0
62
 3
 0
LINE
8
default
6
CONTINUOUS
10
     -428.60
20
      447.79
11
     -428.99
21
      447.11
39
 0
62
 1
 0
LINE
8
default
6
CONTINUOUS
10
      428.99
20
      447.11
11
      429.23
21
      446.67
39
 0
62
 3
 0
LINE
8
default
6
CONTINUOUS
10
     -428.99
20
      447.11
11
     -429.23
21
      446.67
39
 0
62
 1
 0
LINE
8
default
6
CONTINUOUS
10
      429.23
20
      446.67
11
      429.47
21
      446.23
39
 0
62
 3
 0
LINE
8
default
6
CONTINUOUS
10
     -429.23
20
      446.67
11
     -429.47
21
      446.23
39
 0
62
 1
 0
LINE
8
default
6
CONTINUOUS
10
      429.47
20
      446.23
11
      429.72
21
      445.79
39
 0
62
 3
 0
LINE
8
default
6
CONTINUOUS
10
     -429.47
20
      446.23
11
     -429.72
21
      445.79
39
 0
62
 1
 0
LINE
8
default
6
CONTINUOUS
10
      429.72
20
      445.79
11
      429.96
21
      445.34
39
 0
62
 3
 0
LINE
8
default
6
CONTINUOUS
10
     -429.72
20
      445.79
11
     -429.96
21
      445.34
39
 0
62
 1
 0
LINE
8
default
6
CONTINUOUS
10
      429.96
20
      445.34
11
      430.19
21
      444.90
39
 0
62
 3
 0
LINE
8
default
6
CONTINUOUS
10
     -429.96
20
      445.34
11
     -430.19
21
      444.90
39
 0
62
 1
 0
LINE
8
default
6
CONTINUOUS
10
      430.19
20
      444.90
11
      430.43
21
      444.45
39
 0
62
 3
 0
LINE
8
default
6
CONTINUOUS
10
     -430.19
20
      444.90
11
     -430.43
21
      444.45
39
 0
62
 1
 0
LINE
8
default
6
CONTINUOUS
10
      430.43
20
      444.45
11
      430.66
21
      444.01
39
 0
62
 3
 0
LINE
8
default
6
CONTINUOUS
10
     -430.43
20
      444.45
11
     -430.66
21
      444.01
39
 0
62
 1
 0
LINE
8
default
6
CONTINUOUS
10
      430.66
20
      444.01
11
      430.89
21
      443.56
39
 0
62
 3
 0
LINE
8
default
6
CONTINUOUS
10
     -430.66
20
      444.01
11
     -430.89
21
      443.56
39
 0
62
 1
 0
LINE
8
default
6
CONTINUOUS
10
      430.89
20
      443.56
11
      431.12
21
      443.11
39
 0
62
 3
 0
LINE
8
default
6
CONTINUOUS
10
     -430.89
20
      443.56
11
     -431.12
21
      443.11
39
 0
62
 1
 0
LINE
8
default
6
CONTINUOUS
10
      431.12
20
      443.11
11
      431.34
21
      442.66
39
 0
62
 3
 0
LINE
8
default
6
CONTINUOUS
10
     -431.12
20
      443.11
11
     -431.34
21
      442.66
39
 0
62
 1
 0
LINE
8
default
6
CONTINUOUS
10
      431.34
20
      442.66
11
      431.57
21
      442.21
39
 0
62
 3
 0
LINE
8
default
6
CONTINUOUS
10
     -431.34
20
      442.66
11
     -431.57
21
      442.21
39
 0
62
 1
 0
LINE
8
default
6
CONTINUOUS
10
      431.57
20
      442.21
11
      431.79
21
      441.76
39
 0
62
 3
 0
LINE
8
default
6
CONTINUOUS
10
     -431.57
20
      442.21
11
     -431.79
21
      441.76
39
 0
62
 1
 0
LINE
8
default
6
CONTINUOUS
10
      431.79
20
      441.76
11
      432.01
21
      441.30
39
 0
62
 3
 0
LINE
8
default
6
CONTINUOUS
10
     -431.79
20
      441.76
11
     -432.01
21
      441.30
39
 0
62
 1
 0
LINE
8
default
6
CONTINUOUS
10
      432.01
20
      441.30
11
      432.22
21
      440.85
39
 0
62
 3
 0
LINE
8
default
6
CONTINUOUS
10
     -432.01
20
      441.30
11
     -432.22
21
      440.85
39
 0
62
 1
 0
LINE
8
default
6
CONTINUOUS
10
      432.22
20
      440.85
11
      432.44
21
      440.39
39
 0
62
 3
 0
LINE
8
default
6
CONTINUOUS
10
     -432.22
20
      440.85
11
     -432.44
21
      440.39
39
 0
62
 1
 0
LINE
8
default
6
CONTINUOUS
10
      432.44
20
      440.39
11
      432.65
21
      439.94
39
 0
62
 3
 0
LINE
8
default
6
CONTINUOUS
10
     -432.44
20
      440.39
11
     -432.65
21
      439.94
39
 0
62
 1
 0
LINE
8
default
6
CONTINUOUS
10
      432.65
20
      439.94
11
      432.86
21
      439.48
39
 0
62
 3
 0
LINE
8
default
6
CONTINUOUS
10
     -432.65
20
      439.94
11
     -432.86
21
      439.48
39
 0
62
 1
 0
LINE
8
default
6
CONTINUOUS
10
      432.86
20
      439.48
11
      433.07
21
      439.02
39
 0
62
 3
 0
LINE
8
default
6
CONTINUOUS
10
     -432.86
20
      439.48
11
     -433.07
21
      439.02
39
 0
62
 1
 0
LINE
8
default
6
CONTINUOUS
10
      433.07
20
      439.02
11
      433.27
21
      438.56
39
 0
62
 3
 0
LINE
8
default
6
CONTINUOUS
10
     -433.07
20
      439.02
11
     -433.27
21
      438.56
39
 0
62
 1
 0
LINE
8
default
6
CONTINUOUS
10
      433.27
20
      438.56
11
      433.48
21
      438.10
39
 0
62
 3
 0
LINE
8
default
6
CONTINUOUS
10
     -433.27
20
      438.56
11
     -433.48
21
      438.10
39
 0
62
 1
 0
LINE
8
default
6
CONTINUOUS
10
      433.48
20
      438.10
11
      433.68
21
      437.64
39
 0
62
 3
 0
LINE
8
default
6
CONTINUOUS
10
     -433.48
20
      438.10
11
     -433.68
21
      437.64
39
 0
62
 1
 0
LINE
8
default
6
CONTINUOUS
10
      433.68
20
      437.64
11
      433.87
21
      437.18
39
 0
62
 3
 0
LINE
8
default
6
CONTINUOUS
10
     -433.68
20
      437.64
11
     -433.87
21
      437.18
39
 0
62
 1
 0
LINE
8
default
6
CONTINUOUS
10
      433.87
20
      437.18
11
      434.07
21
      436.71
39
 0
62
 3
 0
LINE
8
default
6
CONTINUOUS
10
     -433.87
20
      437.18
11
     -434.07
21
      436.71
39
 0
62
 1
 0
LINE
8
default
6
CONTINUOUS
10
      434.07
20
      436.71
11
      434.26
21
      436.25
39
 0
62
 3
 0
LINE
8
default
6
CONTINUOUS
10
     -434.07
20
      436.71
11
     -434.26
21
      436.25
39
 0
62
 1
 0
LINE
8
default
6
CONTINUOUS
10
      434.26
20
      436.25
11
      434.46
21
      435.78
39
 0
62
 3
 0
LINE
8
default
6
CONTINUOUS
10
     -434.26
20
      436.25
11
     -434.46
21
      435.78
39
 0
62
 1
 0
LINE
8
default
6
CONTINUOUS
10
      434.46
20
      435.78
11
      434.64
21
      435.32
39
 0
62
 3
 0
LINE
8
default
6
CONTINUOUS
10
     -434.46
20
      435.78
11
     -434.64
21
      435.32
39
 0
62
 1
 0
LINE
8
default
6
CONTINUOUS
10
      434.64
20
      435.32
11
      434.83
21
      434.85
39
 0
62
 3
 0
LINE
8
default
6
CONTINUOUS
10
     -434.64
20
      435.32
11
     -434.83
21
      434.85
39
 0
62
 1
 0
LINE
8
default
6
CONTINUOUS
10
      434.83
20
      434.85
11
      435.02
21
      434.38
39
 0
62
 3
 0
LINE
8
default
6
CONTINUOUS
10
     -434.83
20
      434.85
11
     -435.02
21
      434.38
39
 0
62
 1
 0
LINE
8
default
6
CONTINUOUS
10
      435.02
20
      434.38
11
      435.20
21
      433.91
39
 0
62
 3
 0
LINE
8
default
6
CONTINUOUS
10
     -435.02
20
      434.38
11
     -435.20
21
      433.91
39
 0
62
 1
 0
LINE
8
default
6
CONTINUOUS
10
      435.20
20
      433.91
11
      435.38
21
      433.44
39
 0
62
 3
 0
LINE
8
default
6
CONTINUOUS
10
     -435.20
20
      433.91
11
     -435.38
21
      433.44
39
 0
62
 1
 0
LINE
8
default
6
CONTINUOUS
10
      435.38
20
      433.44
11
      435.55
21
      432.97
39
 0
62
 3
 0
LINE
8
default
6
CONTINUOUS
10
     -435.38
20
      433.44
11
     -435.55
21
      432.97
39
 0
62
 1
 0
LINE
8
default
6
CONTINUOUS
10
      435.55
20
      432.97
11
      435.73
21
      432.50
39
 0
62
 3
 0
LINE
8
default
6
CONTINUOUS
10
     -435.55
20
      432.97
11
     -435.73
21
      432.50
39
 0
62
 1
 0
LINE
8
default
6
CONTINUOUS
10
      435.73
20
      432.50
11
      435.90
21
      432.02
39
 0
62
 3
 0
LINE
8
default
6
CONTINUOUS
10
     -435.73
20
      432.50
11
     -435.90
21
      432.02
39
 0
62
 1
 0
LINE
8
default
6
CONTINUOUS
10
      435.90
20
      432.02
11
      436.07
21
      431.55
39
 0
62
 3
 0
LINE
8
default
6
CONTINUOUS
10
     -435.90
20
      432.02
11
     -436.07
21
      431.55
39
 0
62
 1
 0
LINE
8
default
6
CONTINUOUS
10
      436.07
20
      431.55
11
      436.24
21
      431.08
39
 0
62
 3
 0
LINE
8
default
6
CONTINUOUS
10
     -436.07
20
      431.55
11
     -436.24
21
      431.08
39
 0
62
 1
 0
LINE
8
default
6
CONTINUOUS
10
      436.24
20
      431.08
11
      436.41
21
      430.60
39
 0
62
 3
 0
LINE
8
default
6
CONTINUOUS
10
     -436.24
20
      431.08
11
     -436.41
21
      430.60
39
 0
62
 1
 0
LINE
8
default
6
CONTINUOUS
10
      436.41
20
      430.60
11
      436.57
21
      430.12
39
 0
62
 3
 0
LINE
8
default
6
CONTINUOUS
10
     -436.41
20
      430.60
11
     -436.57
21
      430.12
39
 0
62
 1
 0
LINE
8
default
6
CONTINUOUS
10
      436.57
20
      430.12
11
      436.73
21
      429.65
39
 0
62
 3
 0
LINE
8
default
6
CONTINUOUS
10
     -436.57
20
      430.12
11
     -436.73
21
      429.65
39
 0
62
 1
 0
LINE
8
default
6
CONTINUOUS
10
      436.73
20
      429.65
11
      436.89
21
      429.17
39
 0
62
 3
 0
LINE
8
default
6
CONTINUOUS
10
     -436.73
20
      429.65
11
     -436.89
21
      429.17
39
 0
62
 1
 0
LINE
8
default
6
CONTINUOUS
10
      436.89
20
      429.17
11
      437.04
21
      428.69
39
 0
62
 3
 0
LINE
8
default
6
CONTINUOUS
10
     -436.89
20
      429.17
11
     -437.04
21
      428.69
39
 0
62
 1
 0
LINE
8
default
6
CONTINUOUS
10
      437.04
20
      428.69
11
      437.20
21
      428.21
39
 0
62
 3
 0
LINE
8
default
6
CONTINUOUS
10
     -437.04
20
      428.69
11
     -437.20
21
      428.21
39
 0
62
 1
 0
LINE
8
default
6
CONTINUOUS
10
      437.20
20
      428.21
11
      437.35
21
      427.73
39
 0
62
 3
 0
LINE
8
default
6
CONTINUOUS
10
     -437.20
20
      428.21
11
     -437.35
21
      427.73
39
 0
62
 1
 0
LINE
8
default
6
CONTINUOUS
10
      437.35
20
      427.73
11
      437.50
21
      427.25
39
 0
62
 3
 0
LINE
8
default
6
CONTINUOUS
10
     -437.35
20
      427.73
11
     -437.50
21
      427.25
39
 0
62
 1
 0
LINE
8
default
6
CONTINUOUS
10
      437.50
20
      427.25
11
      437.64
21
      426.77
39
 0
62
 3
 0
LINE
8
default
6
CONTINUOUS
10
     -437.50
20
      427.25
11
     -437.64
21
      426.77
39
 0
62
 1
 0
LINE
8
default
6
CONTINUOUS
10
      437.64
20
      426.77
11
      437.79
21
      426.29
39
 0
62
 3
 0
LINE
8
default
6
CONTINUOUS
10
     -437.64
20
      426.77
11
     -437.79
21
      426.29
39
 0
62
 1
 0
LINE
8
default
6
CONTINUOUS
10
      437.79
20
      426.29
11
      437.93
21
      425.80
39
 0
62
 3
 0
LINE
8
default
6
CONTINUOUS
10
     -437.79
20
      426.29
11
     -437.93
21
      425.80
39
 0
62
 1
 0
LINE
8
default
6
CONTINUOUS
10
      437.93
20
      425.80
11
      438.07
21
      425.32
39
 0
62
 3
 0
LINE
8
default
6
CONTINUOUS
10
     -437.93
20
      425.80
11
     -438.07
21
      425.32
39
 0
62
 1
 0
LINE
8
default
6
CONTINUOUS
10
      438.07
20
      425.32
11
      438.21
21
      424.83
39
 0
62
 3
 0
LINE
8
default
6
CONTINUOUS
10
     -438.07
20
      425.32
11
     -438.21
21
      424.83
39
 0
62
 1
 0
LINE
8
default
6
CONTINUOUS
10
      438.21
20
      424.83
11
      438.34
21
      424.35
39
 0
62
 3
 0
LINE
8
default
6
CONTINUOUS
10
     -438.21
20
      424.83
11
     -438.34
21
      424.35
39
 0
62
 1
 0
LINE
8
default
6
CONTINUOUS
10
      438.34
20
      424.35
11
      438.47
21
      423.86
39
 0
62
 3
 0
LINE
8
default
6
CONTINUOUS
10
     -438.34
20
      424.35
11
     -438.47
21
      423.86
39
 0
62
 1
 0
LINE
8
default
6
CONTINUOUS
10
      438.47
20
      423.86
11
      438.60
21
      423.38
39
 0
62
 3
 0
LINE
8
default
6
CONTINUOUS
10
     -438.47
20
      423.86
11
     -438.60
21
      423.38
39
 0
62
 1
 0
LINE
8
default
6
CONTINUOUS
10
      438.60
20
      423.38
11
      438.73
21
      422.89
39
 0
62
 3
 0
LINE
8
default
6
CONTINUOUS
10
     -438.60
20
      423.38
11
     -438.73
21
      422.89
39
 0
62
 1
 0
LINE
8
default
6
CONTINUOUS
10
      438.73
20
      422.89
11
      438.85
21
      422.40
39
 0
62
 3
 0
LINE
8
default
6
CONTINUOUS
10
     -438.73
20
      422.89
11
     -438.85
21
      422.40
39
 0
62
 1
 0
LINE
8
default
6
CONTINUOUS
10
      438.85
20
      422.40
11
      438.97
21
      421.91
39
 0
62
 3
 0
LINE
8
default
6
CONTINUOUS
10
     -438.85
20
      422.40
11
     -438.97
21
      421.91
39
 0
62
 1
 0
LINE
8
default
6
CONTINUOUS
10
      438.97
20
      421.91
11
      439.09
21
      421.42
39
 0
62
 3
 0
LINE
8
default
6
CONTINUOUS
10
     -438.97
20
      421.91
11
     -439.09
21
      421.42
39
 0
62
 1
 0
LINE
8
default
6
CONTINUOUS
10
      439.09
20
      421.42
11
      439.21
21
      420.93
39
 0
62
 3
 0
LINE
8
default
6
CONTINUOUS
10
     -439.09
20
      421.42
11
     -439.21
21
      420.93
39
 0
62
 1
 0
LINE
8
default
6
CONTINUOUS
10
      439.21
20
      420.93
11
      439.33
21
      420.44
39
 0
62
 3
 0
LINE
8
default
6
CONTINUOUS
10
     -439.21
20
      420.93
11
     -439.33
21
      420.44
39
 0
62
 1
 0
LINE
8
default
6
CONTINUOUS
10
      439.33
20
      420.44
11
      439.44
21
      419.95
39
 0
62
 3
 0
LINE
8
default
6
CONTINUOUS
10
     -439.33
20
      420.44
11
     -439.44
21
      419.95
39
 0
62
 1
 0
LINE
8
default
6
CONTINUOUS
10
      439.44
20
      419.95
11
      439.55
21
      419.46
39
 0
62
 3
 0
LINE
8
default
6
CONTINUOUS
10
     -439.44
20
      419.95
11
     -439.55
21
      419.46
39
 0
62
 1
 0
LINE
8
default
6
CONTINUOUS
10
      439.55
20
      419.46
11
      439.66
21
      418.97
39
 0
62
 3
 0
LINE
8
default
6
CONTINUOUS
10
     -439.55
20
      419.46
11
     -439.66
21
      418.97
39
 0
62
 1
 0
LINE
8
default
6
CONTINUOUS
10
      439.66
20
      418.97
11
      439.76
21
      418.48
39
 0
62
 3
 0
LINE
8
default
6
CONTINUOUS
10
     -439.66
20
      418.97
11
     -439.76
21
      418.48
39
 0
62
 1
 0
LINE
8
default
6
CONTINUOUS
10
      439.76
20
      418.48
11
      439.86
21
      417.99
39
 0
62
 3
 0
LINE
8
default
6
CONTINUOUS
10
     -439.76
20
      418.48
11
     -439.86
21
      417.99
39
 0
62
 1
 0
LINE
8
default
6
CONTINUOUS
10
      439.86
20
      417.99
11
      439.96
21
      417.49
39
 0
62
 3
 0
LINE
8
default
6
CONTINUOUS
10
     -439.86
20
      417.99
11
     -439.96
21
      417.49
39
 0
62
 1
 0
LINE
8
default
6
CONTINUOUS
10
      439.96
20
      417.49
11
      440.06
21
      417.00
39
 0
62
 3
 0
LINE
8
default
6
CONTINUOUS
10
     -439.96
20
      417.49
11
     -440.06
21
      417.00
39
 0
62
 1
 0
LINE
8
default
6
CONTINUOUS
10
      440.06
20
      417.00
11
      440.16
21
      416.50
39
 0
62
 3
 0
LINE
8
default
6
CONTINUOUS
10
     -440.06
20
      417.00
11
     -440.16
21
      416.50
39
 0
62
 1
 0
LINE
8
default
6
CONTINUOUS
10
      440.16
20
      416.50
11
      440.25
21
      416.01
39
 0
62
 3
 0
LINE
8
default
6
CONTINUOUS
10
     -440.16
20
      416.50
11
     -440.25
21
      416.01
39
 0
62
 1
 0
LINE
8
default
6
CONTINUOUS
10
      440.25
20
      416.01
11
      440.34
21
      415.51
39
 0
62
 3
 0
LINE
8
default
6
CONTINUOUS
10
     -440.25
20
      416.01
11
     -440.34
21
      415.51
39
 0
62
 1
 0
LINE
8
default
6
CONTINUOUS
10
      440.34
20
      415.51
11
      440.43
21
      415.02
39
 0
62
 3
 0
LINE
8
default
6
CONTINUOUS
10
     -440.34
20
      415.51
11
     -440.43
21
      415.02
39
 0
62
 1
 0
LINE
8
default
6
CONTINUOUS
10
      440.43
20
      415.02
11
      440.51
21
      414.52
39
 0
62
 3
 0
LINE
8
default
6
CONTINUOUS
10
     -440.43
20
      415.02
11
     -440.51
21
      414.52
39
 0
62
 1
 0
LINE
8
default
6
CONTINUOUS
10
      440.51
20
      414.52
11
      440.59
21
      414.02
39
 0
62
 3
 0
LINE
8
default
6
CONTINUOUS
10
     -440.51
20
      414.52
11
     -440.59
21
      414.02
39
 0
62
 1
 0
LINE
8
default
6
CONTINUOUS
10
      440.59
20
      414.02
11
      440.67
21
      413.53
39
 0
62
 3
 0
LINE
8
default
6
CONTINUOUS
10
     -440.59
20
      414.02
11
     -440.67
21
      413.53
39
 0
62
 1
 0
LINE
8
default
6
CONTINUOUS
10
      440.67
20
      413.53
11
      440.75
21
      413.03
39
 0
62
 3
 0
LINE
8
default
6
CONTINUOUS
10
     -440.67
20
      413.53
11
     -440.75
21
      413.03
39
 0
62
 1
 0
LINE
8
default
6
CONTINUOUS
10
      440.75
20
      413.03
11
      440.83
21
      412.53
39
 0
62
 3
 0
LINE
8
default
6
CONTINUOUS
10
     -440.75
20
      413.03
11
     -440.83
21
      412.53
39
 0
62
 1
 0
LINE
8
default
6
CONTINUOUS
10
      440.83
20
      412.53
11
      440.90
21
      412.03
39
 0
62
 3
 0
LINE
8
default
6
CONTINUOUS
10
     -440.83
20
      412.53
11
     -440.90
21
      412.03
39
 0
62
 1
 0
LINE
8
default
6
CONTINUOUS
10
      440.90
20
      412.03
11
      440.97
21
      411.54
39
 0
62
 3
 0
LINE
8
default
6
CONTINUOUS
10
     -440.90
20
      412.03
11
     -440.97
21
      411.54
39
 0
62
 1
 0
LINE
8
default
6
CONTINUOUS
10
      440.97
20
      411.54
11
      441.04
21
      411.04
39
 0
62
 3
 0
LINE
8
default
6
CONTINUOUS
10
     -440.97
20
      411.54
11
     -441.04
21
      411.04
39
 0
62
 1
 0
LINE
8
default
6
CONTINUOUS
10
      441.04
20
      411.04
11
      441.10
21
      410.54
39
 0
62
 3
 0
LINE
8
default
6
CONTINUOUS
10
     -441.04
20
      411.04
11
     -441.10
21
      410.54
39
 0
62
 1
 0
LINE
8
default
6
CONTINUOUS
10
      441.10
20
      410.54
11
      441.17
21
      410.04
39
 0
62
 3
 0
LINE
8
default
6
CONTINUOUS
10
     -441.10
20
      410.54
11
     -441.17
21
      410.04
39
 0
62
 1
 0
LINE
8
default
6
CONTINUOUS
10
      441.17
20
      410.04
11
      441.23
21
      409.54
39
 0
62
 3
 0
LINE
8
default
6
CONTINUOUS
10
     -441.17
20
      410.04
11
     -441.23
21
      409.54
39
 0
62
 1
 0
LINE
8
default
6
CONTINUOUS
10
      441.23
20
      409.54
11
      441.29
21
      409.04
39
 0
62
 3
 0
LINE
8
default
6
CONTINUOUS
10
     -441.23
20
      409.54
11
     -441.29
21
      409.04
39
 0
62
 1
 0
LINE
8
default
6
CONTINUOUS
10
      441.29
20
      409.04
11
      441.34
21
      408.54
39
 0
62
 3
 0
LINE
8
default
6
CONTINUOUS
10
     -441.29
20
      409.04
11
     -441.34
21
      408.54
39
 0
62
 1
 0
LINE
8
default
6
CONTINUOUS
10
      441.34
20
      408.54
11
      441.39
21
      408.04
39
 0
62
 3
 0
LINE
8
default
6
CONTINUOUS
10
     -441.34
20
      408.54
11
     -441.39
21
      408.04
39
 0
62
 1
 0
LINE
8
default
6
CONTINUOUS
10
      441.39
20
      408.04
11
      441.44
21
      407.54
39
 0
62
 3
 0
LINE
8
default
6
CONTINUOUS
10
     -441.39
20
      408.04
11
     -441.44
21
      407.54
39
 0
62
 1
 0
LINE
8
default
6
CONTINUOUS
10
      441.44
20
      407.54
11
      441.49
21
      407.04
39
 0
62
 3
 0
LINE
8
default
6
CONTINUOUS
10
     -441.44
20
      407.54
11
     -441.49
21
      407.04
39
 0
62
 1
 0
LINE
8
default
6
CONTINUOUS
10
      441.49
20
      407.04
11
      441.54
21
      406.53
39
 0
62
 3
 0
LINE
8
default
6
CONTINUOUS
10
     -441.49
20
      407.04
11
     -441.54
21
      406.53
39
 0
62
 1
 0
LINE
8
default
6
CONTINUOUS
10
      441.54
20
      406.53
11
      441.58
21
      406.03
39
 0
62
 3
 0
LINE
8
default
6
CONTINUOUS
10
     -441.54
20
      406.53
11
     -441.58
21
      406.03
39
 0
62
 1
 0
LINE
8
default
6
CONTINUOUS
10
      441.58
20
      406.03
11
      441.62
21
      405.53
39
 0
62
 3
 0
LINE
8
default
6
CONTINUOUS
10
     -441.58
20
      406.03
11
     -441.62
21
      405.53
39
 0
62
 1
 0
LINE
8
default
6
CONTINUOUS
10
      441.62
20
      405.53
11
      441.66
21
      405.03
39
 0
62
 3
 0
LINE
8
default
6
CONTINUOUS
10
     -441.62
20
      405.53
11
     -441.66
21
      405.03
39
 0
62
 1
 0
LINE
8
default
6
CONTINUOUS
10
      441.66
20
      405.03
11
      441.69
21
      404.53
39
 0
62
 3
 0
LINE
8
default
6
CONTINUOUS
10
     -441.66
20
      405.03
11
     -441.69
21
      404.53
39
 0
62
 1
 0
LINE
8
default
6
CONTINUOUS
10
      441.69
20
      404.53
11
      441.73
21
      404.02
39
 0
62
 3
 0
LINE
8
default
6
CONTINUOUS
10
     -441.69
20
      404.53
11
     -441.73
21
      404.02
39
 0
62
 1
 0
LINE
8
default
6
CONTINUOUS
10
      441.73
20
      404.02
11
      441.76
21
      403.52
39
 0
62
 3
 0
LINE
8
default
6
CONTINUOUS
10
     -441.73
20
      404.02
11
     -441.76
21
      403.52
39
 0
62
 1
 0
LINE
8
default
6
CONTINUOUS
10
      441.76
20
      403.52
11
      441.78
21
      403.02
39
 0
62
 3
 0
LINE
8
default
6
CONTINUOUS
10
     -441.76
20
      403.52
11
     -441.78
21
      403.02
39
 0
62
 1
 0
LINE
8
default
6
CONTINUOUS
10
      441.78
20
      403.02
11
      441.81
21
      402.52
39
 0
62
 3
 0
LINE
8
default
6
CONTINUOUS
10
     -441.78
20
      403.02
11
     -441.81
21
      402.52
39
 0
62
 1
 0
LINE
8
default
6
CONTINUOUS
10
      441.81
20
      402.52
11
      441.83
21
      402.01
39
 0
62
 3
 0
LINE
8
default
6
CONTINUOUS
10
     -441.81
20
      402.52
11
     -441.83
21
      402.01
39
 0
62
 1
 0
LINE
8
default
6
CONTINUOUS
10
      441.83
20
      402.01
11
      441.85
21
      401.51
39
 0
62
 3
 0
LINE
8
default
6
CONTINUOUS
10
     -441.83
20
      402.01
11
     -441.85
21
      401.51
39
 0
62
 1
 0
LINE
8
default
6
CONTINUOUS
10
      441.85
20
      401.51
11
      441.87
21
      401.01
39
 0
62
 3
 0
LINE
8
default
6
CONTINUOUS
10
     -441.85
20
      401.51
11
     -441.87
21
      401.01
39
 0
62
 1
 0
LINE
8
default
6
CONTINUOUS
10
      441.87
20
      401.01
11
      441.88
21
      400.50
39
 0
62
 3
 0
LINE
8
default
6
CONTINUOUS
10
     -441.87
20
      401.01
11
     -441.88
21
      400.50
39
 0
62
 1
 0
LINE
8
default
6
CONTINUOUS
10
      441.88
20
      400.50
11
      441.90
21
      400.00
39
 0
62
 3
 0
LINE
8
default
6
CONTINUOUS
10
     -441.88
20
      400.50
11
     -441.90
21
      400.00
39
 0
62
 1
 0
LINE
8
default
6
CONTINUOUS
10
       24.37
20
       -0.18
11
       24.37
21
     -309.24
39
 0
62
 3
 0
LINE
8
default
6
CONTINUOUS
10
      -24.37
20
       -0.18
11
      -24.37
21
     -309.24
39
 0
62
 1
 0
LINE
8
default
6
CONTINUOUS
10
       72.86
20
       -1.60
11
       72.86
21
     -308.49
39
 0
62
 3
 0
LINE
8
default
6
CONTINUOUS
10
      -72.86
20
       -1.60
11
      -72.86
21
     -308.49
39
 0
62
 1
 0
LINE
8
default
6
CONTINUOUS
10
      120.88
20
       -4.44
11
      120.88
21
     -307.00
39
 0
62
 3
 0
LINE
8
default
6
CONTINUOUS
10
     -120.88
20
       -4.44
11
     -120.88
21
     -307.00
39
 0
62
 1
 0
LINE
8
default
6
CONTINUOUS
10
      168.18
20
       -8.68
11
      168.18
21
     -304.79
39
 0
62
 3
 0
LINE
8
default
6
CONTINUOUS
10
     -168.18
20
       -8.68
11
     -168.18
21
     -304.79
39
 0
62
 1
 0
LINE
8
default
6
CONTINUOUS
10
      214.54
20
      -14.30
11
      214.54
21
     -301.85
39
 0
62
 3
 0
LINE
8
default
6
CONTINUOUS
10
     -214.54
20
      -14.30
11
     -214.54
21
     -301.85
39
 0
62
 1
 0
LINE
8
default
6
CONTINUOUS
10
      259.73
20
      -21.30
11
      259.73
21
     -298.21
39
 0
62
 3
 0
LINE
8
default
6
CONTINUOUS
10
     -259.73
20
      -21.30
11
     -259.73
21
     -298.21
39
 0
62
 1
 0
LINE
8
default
6
CONTINUOUS
10
      303.50
20
      -29.77
11
      303.50
21
     -293.87
39
 0
62
 3
 0
LINE
8
default
6
CONTINUOUS
10
     -303.50
20
      -29.77
11
     -303.50
21
     -293.87
39
 0
62
 1
 0
LINE
8
default
6
CONTINUOUS
10
      345.46
20
      -41.26
11
      345.46
21
     -288.87
39
 0
62
 3
 0
LINE
8
default
6
CONTINUOUS
10
     -345.46
20
      -41.26
11
     -345.46
21
     -288.87
39
 0
62
 1
 0
LINE
8
default
6
CONTINUOUS
10
      385.16
20
      -56.00
11
      385.16
21
     -283.16
39
 0
62
 3
 0
LINE
8
default
6
CONTINUOUS
10
     -385.16
20
      -56.00
11
     -385.16
21
     -283.16
39
 0
62
 1
 0
LINE
8
default
6
CONTINUOUS
10
      422.21
20
      -73.45
11
      422.21
21
     -276.64
39
 0
62
 3
 0
LINE
8
default
6
CONTINUOUS
10
     -422.21
20
      -73.45
11
     -422.21
21
     -276.64
39
 0
62
 1
 0
LINE
8
default
6
CONTINUOUS
10
      456.31
20
      -93.04
11
      456.31
21
     -269.45
39
 0
62
 3
 0
LINE
8
default
6
CONTINUOUS
10
     -456.31
20
      -93.04
11
     -456.31
21
     -269.45
39
 0
62
 1
 0
LINE
8
default
6
CONTINUOUS
10
      487.22
20
     -114.20
11
      487.22
21
     -261.78
39
 0
62
 3
 0
LINE
8
default
6
CONTINUOUS
10
     -487.22
20
     -114.20
11
     -487.22
21
     -261.78
39
 0
62
 1
 0
LINE
8
default
6
CONTINUOUS
10
      514.81
20
     -136.38
11
      514.81
21
     -253.80
39
 0
62
 3
 0
LINE
8
default
6
CONTINUOUS
10
     -514.81
20
     -136.38
11
     -514.81
21
     -253.80
39
 0
62
 1
 0
LINE
8
default
6
CONTINUOUS
10
      539.00
20
     -159.09
11
      539.00
21
     -245.71
39
 0
62
 3
 0
LINE
8
default
6
CONTINUOUS
10
     -539.00
20
     -159.09
11
     -539.00
21
     -245.71
39
 0
62
 1
 0
LINE
8
default
6
CONTINUOUS
10
       24.36
20
      640.10
11
       24.36
21
      690.10
39
 0
62
 1
 0
LINE
8
default
6
CONTINUOUS
10
       24.36
20
      640.10
11
       26.24
21
      690.06
39
 0
62
 2
 0
LINE
8
default
6
CONTINUOUS
10
       72.71
20
      636.47
11
       72.71
21
      686.47
39
 0
62
 1
 0
LINE
8
default
6
CONTINUOUS
10
       72.71
20
      636.47
11
       78.35
21
      686.15
39
 0
62
 2
 0
LINE
8
default
6
CONTINUOUS
10
      120.18
20
      629.35
11
      120.18
21
      679.35
39
 0
62
 1
 0
LINE
8
default
6
CONTINUOUS
10
      120.18
20
      629.35
11
      129.37
21
      678.49
39
 0
62
 2
 0
LINE
8
default
6
CONTINUOUS
10
      166.31
20
      618.92
11
      166.31
21
      668.92
39
 0
62
 1
 0
LINE
8
default
6
CONTINUOUS
10
      166.31
20
      618.92
11
      179.17
21
      667.24
39
 0
62
 2
 0
LINE
8
default
6
CONTINUOUS
10
      210.67
20
      605.47
11
      210.67
21
      655.47
39
 0
62
 1
 0
LINE
8
default
6
CONTINUOUS
10
      210.67
20
      605.47
11
      226.79
21
      652.80
39
 0
62
 2
 0
LINE
8
default
6
CONTINUOUS
10
      252.79
20
      589.16
11
      252.79
21
      639.16
39
 0
62
 1
 0
LINE
8
default
6
CONTINUOUS
10
      252.79
20
      589.16
11
      272.89
21
      634.94
39
 0
62
 2
 0
LINE
8
default
6
CONTINUOUS
10
      292.02
20
      569.76
11
      292.02
21
      619.76
39
 0
62
 1
 0
LINE
8
default
6
CONTINUOUS
10
      292.02
20
      569.76
11
      316.16
21
      613.54
39
 0
62
 2
 0
LINE
8
default
6
CONTINUOUS
10
      327.84
20
      547.94
11
      327.84
21
      597.94
39
 0
62
 1
 0
LINE
8
default
6
CONTINUOUS
10
      327.84
20
      547.94
11
      355.68
21
      589.47
39
 0
62
 2
 0
LINE
8
default
6
CONTINUOUS
10
      359.89
20
      524.53
11
      359.89
21
      574.53
39
 0
62
 1
 0
LINE
8
default
6
CONTINUOUS
10
      359.89
20
      524.53
11
      390.93
21
      563.73
39
 0
62
 2
 0
LINE
8
default
6
CONTINUOUS
10
      387.92
20
      500.33
11
      387.92
21
      550.33
39
 0
62
 1
 0
LINE
8
default
6
CONTINUOUS
10
      387.92
20
      500.33
11
      422.72
21
      536.23
39
 0
62
 2
 0
LINE
8
default
6
CONTINUOUS
10
      410.61
20
      474.91
11
      410.61
21
      524.91
39
 0
62
 1
 0
LINE
8
default
6
CONTINUOUS
10
      410.61
20
      474.91
11
      450.29
21
      505.34
39
 0
62
 2
 0
LINE
8
default
6
CONTINUOUS
10
      427.78
20
      449.23
11
      427.78
21
      499.23
39
 0
62
 1
 0
LINE
8
default
6
CONTINUOUS
10
      427.78
20
      449.23
11
      471.07
21
      474.25
39
 0
62
 2
 0
LINE
8
default
6
CONTINUOUS
10
      438.47
20
      423.88
11
      438.47
21
      473.88
39
 0
62
 1
 0
LINE
8
default
6
CONTINUOUS
10
      438.47
20
      423.88
11
      486.72
21
      436.98
39
 0
62
 2
 0
LINE
8
default
6
CONTINUOUS
10
      441.90
20
      400.00
11
      441.90
21
      450.00
39
 0
62
 1
 0
LINE
8
default
6
CONTINUOUS
10
      441.90
20
      400.00
11
      491.88
21
      401.25
39
 0
62
 2
 0
ENDSEC
0
EOF
