0
SECTION
2
HEADER
9
$EXTMAX
10
    -900.000
20
      90.000
9
$EXTMIN
10
    5000.000
20
   -3000.000
0
ENDSEC
0
SECTION
2
ENTITIES
0
LINE
8
default
6
CONTINUOUS
10
         .00
20
         .00
11
        6.10
21
        -.01
39
 0
62
 1
 0
LINE
8
default
6
CONTINUOUS
10
         .00
20
         .00
11
       -6.10
21
        -.01
39
 0
62
 1
 0
LINE
8
default
6
CONTINUOUS
10
        6.10
20
        -.01
11
       12.19
21
        -.04
39
 0
62
 1
 0
LINE
8
default
6
CONTINUOUS
10
       -6.10
20
        -.01
11
      -12.19
21
        -.04
39
 0
62
 1
 0
LINE
8
default
6
CONTINUOUS
10
       12.19
20
        -.04
11
       18.29
21
        -.10
39
 0
62
 1
 0
LINE
8
default
6
CONTINUOUS
10
      -12.19
20
        -.04
11
      -18.29
21
        -.10
39
 0
62
 1
 0
LINE
8
default
6
CONTINUOUS
10
       18.29
20
        -.10
11
       24.38
21
        -.18
39
 0
62
 1
 0
LINE
8
default
6
CONTINUOUS
10
      -18.29
20
        -.10
11
      -24.38
21
        -.18
39
 0
62
 1
 0
LINE
8
default
6
CONTINUOUS
10
       24.38
20
        -.18
11
       30.47
21
        -.28
39
 0
62
 1
 0
LINE
8
default
6
CONTINUOUS
10
      -24.38
20
        -.18
11
      -30.47
21
        -.28
39
 0
62
 1
 0
LINE
8
default
6
CONTINUOUS
10
       30.47
20
        -.28
11
       36.56
21
        -.40
39
 0
62
 1
 0
LINE
8
default
6
CONTINUOUS
10
      -30.47
20
        -.28
11
      -36.56
21
        -.40
39
 0
62
 1
 0
LINE
8
default
6
CONTINUOUS
10
       36.56
20
        -.40
11
       42.64
21
        -.55
39
 0
62
 1
 0
LINE
8
default
6
CONTINUOUS
10
      -36.56
20
        -.40
11
      -42.64
21
        -.55
39
 0
62
 1
 0
LINE
8
default
6
CONTINUOUS
10
       42.64
20
        -.55
11
       48.72
21
        -.72
39
 0
62
 1
 0
LINE
8
default
6
CONTINUOUS
10
      -42.64
20
        -.55
11
      -48.72
21
        -.72
39
 0
62
 1
 0
LINE
8
default
6
CONTINUOUS
10
       48.72
20
        -.72
11
       54.80
21
        -.90
39
 0
62
 1
 0
LINE
8
default
6
CONTINUOUS
10
      -48.72
20
        -.72
11
      -54.80
21
        -.90
39
 0
62
 1
 0
LINE
8
default
6
CONTINUOUS
10
       54.80
20
        -.90
11
       60.87
21
       -1.12
39
 0
62
 1
 0
LINE
8
default
6
CONTINUOUS
10
      -54.80
20
        -.90
11
      -60.87
21
       -1.12
39
 0
62
 1
 0
LINE
8
default
6
CONTINUOUS
10
       60.87
20
       -1.12
11
       66.93
21
       -1.35
39
 0
62
 1
 0
LINE
8
default
6
CONTINUOUS
10
      -60.87
20
       -1.12
11
      -66.93
21
       -1.35
39
 0
62
 1
 0
LINE
8
default
6
CONTINUOUS
10
       66.93
20
       -1.35
11
       72.99
21
       -1.61
39
 0
62
 1
 0
LINE
8
default
6
CONTINUOUS
10
      -66.93
20
       -1.35
11
      -72.99
21
       -1.61
39
 0
62
 1
 0
LINE
8
default
6
CONTINUOUS
10
       72.99
20
       -1.61
11
       79.04
21
       -1.89
39
 0
62
 1
 0
LINE
8
default
6
CONTINUOUS
10
      -72.99
20
       -1.61
11
      -79.04
21
       -1.89
39
 0
62
 1
 0
LINE
8
default
6
CONTINUOUS
10
       79.04
20
       -1.89
11
       85.08
21
       -2.19
39
 0
62
 1
 0
LINE
8
default
6
CONTINUOUS
10
      -79.04
20
       -1.89
11
      -85.08
21
       -2.19
39
 0
62
 1
 0
LINE
8
default
6
CONTINUOUS
10
       85.08
20
       -2.19
11
       91.11
21
       -2.51
39
 0
62
 1
 0
LINE
8
default
6
CONTINUOUS
10
      -85.08
20
       -2.19
11
      -91.11
21
       -2.51
39
 0
62
 1
 0
LINE
8
default
6
CONTINUOUS
10
       91.11
20
       -2.51
11
       97.13
21
       -2.86
39
 0
62
 1
 0
LINE
8
default
6
CONTINUOUS
10
      -91.11
20
       -2.51
11
      -97.13
21
       -2.86
39
 0
62
 1
 0
LINE
8
default
6
CONTINUOUS
10
       97.13
20
       -2.86
11
      103.15
21
       -3.22
39
 0
62
 1
 0
LINE
8
default
6
CONTINUOUS
10
      -97.13
20
       -2.86
11
     -103.15
21
       -3.22
39
 0
62
 1
 0
LINE
8
default
6
CONTINUOUS
10
      103.15
20
       -3.22
11
      109.15
21
       -3.61
39
 0
62
 1
 0
LINE
8
default
6
CONTINUOUS
10
     -103.15
20
       -3.22
11
     -109.15
21
       -3.61
39
 0
62
 1
 0
LINE
8
default
6
CONTINUOUS
10
      109.15
20
       -3.61
11
      115.14
21
       -4.02
39
 0
62
 1
 0
LINE
8
default
6
CONTINUOUS
10
     -109.15
20
       -3.61
11
     -115.14
21
       -4.02
39
 0
62
 1
 0
LINE
8
default
6
CONTINUOUS
10
      115.14
20
       -4.02
11
      121.12
21
       -4.46
39
 0
62
 1
 0
LINE
8
default
6
CONTINUOUS
10
     -115.14
20
       -4.02
11
     -121.12
21
       -4.46
39
 0
62
 1
 0
LINE
8
default
6
CONTINUOUS
10
      121.12
20
       -4.46
11
      127.09
21
       -4.91
39
 0
62
 1
 0
LINE
8
default
6
CONTINUOUS
10
     -121.12
20
       -4.46
11
     -127.09
21
       -4.91
39
 0
62
 1
 0
LINE
8
default
6
CONTINUOUS
10
      127.09
20
       -4.91
11
      133.05
21
       -5.39
39
 0
62
 1
 0
LINE
8
default
6
CONTINUOUS
10
     -127.09
20
       -4.91
11
     -133.05
21
       -5.39
39
 0
62
 1
 0
LINE
8
default
6
CONTINUOUS
10
      133.05
20
       -5.39
11
      138.99
21
       -5.89
39
 0
62
 1
 0
LINE
8
default
6
CONTINUOUS
10
     -133.05
20
       -5.39
11
     -138.99
21
       -5.89
39
 0
62
 1
 0
LINE
8
default
6
CONTINUOUS
10
      138.99
20
       -5.89
11
      144.92
21
       -6.41
39
 0
62
 1
 0
LINE
8
default
6
CONTINUOUS
10
     -138.99
20
       -5.89
11
     -144.92
21
       -6.41
39
 0
62
 1
 0
LINE
8
default
6
CONTINUOUS
10
      144.92
20
       -6.41
11
      150.84
21
       -6.95
39
 0
62
 1
 0
LINE
8
default
6
CONTINUOUS
10
     -144.92
20
       -6.41
11
     -150.84
21
       -6.95
39
 0
62
 1
 0
LINE
8
default
6
CONTINUOUS
10
      150.84
20
       -6.95
11
      156.74
21
       -7.51
39
 0
62
 1
 0
LINE
8
default
6
CONTINUOUS
10
     -150.84
20
       -6.95
11
     -156.74
21
       -7.51
39
 0
62
 1
 0
LINE
8
default
6
CONTINUOUS
10
      156.74
20
       -7.51
11
      162.62
21
       -8.10
39
 0
62
 1
 0
LINE
8
default
6
CONTINUOUS
10
     -156.74
20
       -7.51
11
     -162.62
21
       -8.10
39
 0
62
 1
 0
LINE
8
default
6
CONTINUOUS
10
      162.62
20
       -8.10
11
      168.49
21
       -8.71
39
 0
62
 1
 0
LINE
8
default
6
CONTINUOUS
10
     -162.62
20
       -8.10
11
     -168.49
21
       -8.71
39
 0
62
 1
 0
LINE
8
default
6
CONTINUOUS
10
      168.49
20
       -8.71
11
      174.34
21
       -9.34
39
 0
62
 1
 0
LINE
8
default
6
CONTINUOUS
10
     -168.49
20
       -8.71
11
     -174.34
21
       -9.34
39
 0
62
 1
 0
LINE
8
default
6
CONTINUOUS
10
      174.34
20
       -9.34
11
      180.17
21
       -9.99
39
 0
62
 1
 0
LINE
8
default
6
CONTINUOUS
10
     -174.34
20
       -9.34
11
     -180.17
21
       -9.99
39
 0
62
 1
 0
LINE
8
default
6
CONTINUOUS
10
      180.17
20
       -9.99
11
      185.99
21
      -10.66
39
 0
62
 1
 0
LINE
8
default
6
CONTINUOUS
10
     -180.17
20
       -9.99
11
     -185.99
21
      -10.66
39
 0
62
 1
 0
LINE
8
default
6
CONTINUOUS
10
      185.99
20
      -10.66
11
      191.78
21
      -11.35
39
 0
62
 1
 0
LINE
8
default
6
CONTINUOUS
10
     -185.99
20
      -10.66
11
     -191.78
21
      -11.35
39
 0
62
 1
 0
LINE
8
default
6
CONTINUOUS
10
      191.78
20
      -11.35
11
      197.56
21
      -12.06
39
 0
62
 1
 0
LINE
8
default
6
CONTINUOUS
10
     -191.78
20
      -11.35
11
     -197.56
21
      -12.06
39
 0
62
 1
 0
LINE
8
default
6
CONTINUOUS
10
      197.56
20
      -12.06
11
      203.32
21
      -12.80
39
 0
62
 1
 0
LINE
8
default
6
CONTINUOUS
10
     -197.56
20
      -12.06
11
     -203.32
21
      -12.80
39
 0
62
 1
 0
LINE
8
default
6
CONTINUOUS
10
      203.32
20
      -12.80
11
      209.06
21
      -13.56
39
 0
62
 1
 0
LINE
8
default
6
CONTINUOUS
10
     -203.32
20
      -12.80
11
     -209.06
21
      -13.56
39
 0
62
 1
 0
LINE
8
default
6
CONTINUOUS
10
      209.06
20
      -13.56
11
      214.77
21
      -14.33
39
 0
62
 1
 0
LINE
8
default
6
CONTINUOUS
10
     -209.06
20
      -13.56
11
     -214.77
21
      -14.33
39
 0
62
 1
 0
LINE
8
default
6
CONTINUOUS
10
      214.77
20
      -14.33
11
      220.47
21
      -15.13
39
 0
62
 1
 0
LINE
8
default
6
CONTINUOUS
10
     -214.77
20
      -14.33
11
     -220.47
21
      -15.13
39
 0
62
 1
 0
LINE
8
default
6
CONTINUOUS
10
      220.47
20
      -15.13
11
      226.14
21
      -15.95
39
 0
62
 1
 0
LINE
8
default
6
CONTINUOUS
10
     -220.47
20
      -15.13
11
     -226.14
21
      -15.95
39
 0
62
 1
 0
LINE
8
default
6
CONTINUOUS
10
      226.14
20
      -15.95
11
      231.79
21
      -16.79
39
 0
62
 1
 0
LINE
8
default
6
CONTINUOUS
10
     -226.14
20
      -15.95
11
     -231.79
21
      -16.79
39
 0
62
 1
 0
LINE
8
default
6
CONTINUOUS
10
      231.79
20
      -16.79
11
      237.42
21
      -17.65
39
 0
62
 1
 0
LINE
8
default
6
CONTINUOUS
10
     -231.79
20
      -16.79
11
     -237.42
21
      -17.65
39
 0
62
 1
 0
LINE
8
default
6
CONTINUOUS
10
      237.42
20
      -17.65
11
      243.02
21
      -18.53
39
 0
62
 1
 0
LINE
8
default
6
CONTINUOUS
10
     -237.42
20
      -17.65
11
     -243.02
21
      -18.53
39
 0
62
 1
 0
LINE
8
default
6
CONTINUOUS
10
      243.02
20
      -18.53
11
      248.60
21
      -19.43
39
 0
62
 1
 0
LINE
8
default
6
CONTINUOUS
10
     -243.02
20
      -18.53
11
     -248.60
21
      -19.43
39
 0
62
 1
 0
LINE
8
default
6
CONTINUOUS
10
      248.60
20
      -19.43
11
      254.16
21
      -20.35
39
 0
62
 1
 0
LINE
8
default
6
CONTINUOUS
10
     -248.60
20
      -19.43
11
     -254.16
21
      -20.35
39
 0
62
 1
 0
LINE
8
default
6
CONTINUOUS
10
      254.16
20
      -20.35
11
      259.69
21
      -21.30
39
 0
62
 1
 0
LINE
8
default
6
CONTINUOUS
10
     -254.16
20
      -20.35
11
     -259.69
21
      -21.30
39
 0
62
 1
 0
LINE
8
default
6
CONTINUOUS
10
      259.69
20
      -21.30
11
      265.19
21
      -22.26
39
 0
62
 1
 0
LINE
8
default
6
CONTINUOUS
10
     -259.69
20
      -21.30
11
     -265.19
21
      -22.26
39
 0
62
 1
 0
LINE
8
default
6
CONTINUOUS
10
      265.19
20
      -22.26
11
      270.67
21
      -23.24
39
 0
62
 1
 0
LINE
8
default
6
CONTINUOUS
10
     -265.19
20
      -22.26
11
     -270.67
21
      -23.24
39
 0
62
 1
 0
LINE
8
default
6
CONTINUOUS
10
      270.67
20
      -23.24
11
      276.12
21
      -24.24
39
 0
62
 1
 0
LINE
8
default
6
CONTINUOUS
10
     -270.67
20
      -23.24
11
     -276.12
21
      -24.24
39
 0
62
 1
 0
LINE
8
default
6
CONTINUOUS
10
      276.12
20
      -24.24
11
      281.54
21
      -25.27
39
 0
62
 1
 0
LINE
8
default
6
CONTINUOUS
10
     -276.12
20
      -24.24
11
     -281.54
21
      -25.27
39
 0
62
 1
 0
LINE
8
default
6
CONTINUOUS
10
      281.54
20
      -25.27
11
      286.93
21
      -26.31
39
 0
62
 1
 0
LINE
8
default
6
CONTINUOUS
10
     -281.54
20
      -25.27
11
     -286.93
21
      -26.31
39
 0
62
 1
 0
LINE
8
default
6
CONTINUOUS
10
      286.93
20
      -26.31
11
      292.30
21
      -27.37
39
 0
62
 1
 0
LINE
8
default
6
CONTINUOUS
10
     -286.93
20
      -26.31
11
     -292.30
21
      -27.37
39
 0
62
 1
 0
LINE
8
default
6
CONTINUOUS
10
      292.30
20
      -27.37
11
      297.63
21
      -28.48
39
 0
62
 1
 0
LINE
8
default
6
CONTINUOUS
10
     -292.30
20
      -27.37
11
     -297.63
21
      -28.48
39
 0
62
 1
 0
LINE
8
default
6
CONTINUOUS
10
      297.63
20
      -28.48
11
      302.94
21
      -29.64
39
 0
62
 1
 0
LINE
8
default
6
CONTINUOUS
10
     -297.63
20
      -28.48
11
     -302.94
21
      -29.64
39
 0
62
 1
 0
LINE
8
default
6
CONTINUOUS
10
      302.94
20
      -29.64
11
      308.21
21
      -30.86
39
 0
62
 1
 0
LINE
8
default
6
CONTINUOUS
10
     -302.94
20
      -29.64
11
     -308.21
21
      -30.86
39
 0
62
 1
 0
LINE
8
default
6
CONTINUOUS
10
      308.21
20
      -30.86
11
      313.46
21
      -32.13
39
 0
62
 1
 0
LINE
8
default
6
CONTINUOUS
10
     -308.21
20
      -30.86
11
     -313.46
21
      -32.13
39
 0
62
 1
 0
LINE
8
default
6
CONTINUOUS
10
      313.46
20
      -32.13
11
      318.67
21
      -33.45
39
 0
62
 1
 0
LINE
8
default
6
CONTINUOUS
10
     -313.46
20
      -32.13
11
     -318.67
21
      -33.45
39
 0
62
 1
 0
LINE
8
default
6
CONTINUOUS
10
      318.67
20
      -33.45
11
      323.85
21
      -34.83
39
 0
62
 1
 0
LINE
8
default
6
CONTINUOUS
10
     -318.67
20
      -33.45
11
     -323.85
21
      -34.83
39
 0
62
 1
 0
LINE
8
default
6
CONTINUOUS
10
      323.85
20
      -34.83
11
      329.00
21
      -36.27
39
 0
62
 1
 0
LINE
8
default
6
CONTINUOUS
10
     -323.85
20
      -34.83
11
     -329.00
21
      -36.27
39
 0
62
 1
 0
LINE
8
default
6
CONTINUOUS
10
      329.00
20
      -36.27
11
      334.12
21
      -37.75
39
 0
62
 1
 0
LINE
8
default
6
CONTINUOUS
10
     -329.00
20
      -36.27
11
     -334.12
21
      -37.75
39
 0
62
 1
 0
LINE
8
default
6
CONTINUOUS
10
      334.12
20
      -37.75
11
      339.20
21
      -39.28
39
 0
62
 1
 0
LINE
8
default
6
CONTINUOUS
10
     -334.12
20
      -37.75
11
     -339.20
21
      -39.28
39
 0
62
 1
 0
LINE
8
default
6
CONTINUOUS
10
      339.20
20
      -39.28
11
      344.25
21
      -40.87
39
 0
62
 1
 0
LINE
8
default
6
CONTINUOUS
10
     -339.20
20
      -39.28
11
     -344.25
21
      -40.87
39
 0
62
 1
 0
LINE
8
default
6
CONTINUOUS
10
      344.25
20
      -40.87
11
      349.27
21
      -42.50
39
 0
62
 1
 0
LINE
8
default
6
CONTINUOUS
10
     -344.25
20
      -40.87
11
     -349.27
21
      -42.50
39
 0
62
 1
 0
LINE
8
default
6
CONTINUOUS
10
      349.27
20
      -42.50
11
      354.25
21
      -44.18
39
 0
62
 1
 0
LINE
8
default
6
CONTINUOUS
10
     -349.27
20
      -42.50
11
     -354.25
21
      -44.18
39
 0
62
 1
 0
LINE
8
default
6
CONTINUOUS
10
      354.25
20
      -44.18
11
      359.19
21
      -45.91
39
 0
62
 1
 0
LINE
8
default
6
CONTINUOUS
10
     -354.25
20
      -44.18
11
     -359.19
21
      -45.91
39
 0
62
 1
 0
LINE
8
default
6
CONTINUOUS
10
      359.19
20
      -45.91
11
      364.10
21
      -47.69
39
 0
62
 1
 0
LINE
8
default
6
CONTINUOUS
10
     -359.19
20
      -45.91
11
     -364.10
21
      -47.69
39
 0
62
 1
 0
LINE
8
default
6
CONTINUOUS
10
      364.10
20
      -47.69
11
      368.97
21
      -49.51
39
 0
62
 1
 0
LINE
8
default
6
CONTINUOUS
10
     -364.10
20
      -47.69
11
     -368.97
21
      -49.51
39
 0
62
 1
 0
LINE
8
default
6
CONTINUOUS
10
      368.97
20
      -49.51
11
      373.80
21
      -51.38
39
 0
62
 1
 0
LINE
8
default
6
CONTINUOUS
10
     -368.97
20
      -49.51
11
     -373.80
21
      -51.38
39
 0
62
 1
 0
LINE
8
default
6
CONTINUOUS
10
      373.80
20
      -51.38
11
      378.60
21
      -53.29
39
 0
62
 1
 0
LINE
8
default
6
CONTINUOUS
10
     -373.80
20
      -51.38
11
     -378.60
21
      -53.29
39
 0
62
 1
 0
LINE
8
default
6
CONTINUOUS
10
      378.60
20
      -53.29
11
      383.36
21
      -55.24
39
 0
62
 1
 0
LINE
8
default
6
CONTINUOUS
10
     -378.60
20
      -53.29
11
     -383.36
21
      -55.24
39
 0
62
 1
 0
LINE
8
default
6
CONTINUOUS
10
      383.36
20
      -55.24
11
      388.08
21
      -57.24
39
 0
62
 1
 0
LINE
8
default
6
CONTINUOUS
10
     -383.36
20
      -55.24
11
     -388.08
21
      -57.24
39
 0
62
 1
 0
LINE
8
default
6
CONTINUOUS
10
      388.08
20
      -57.24
11
      392.77
21
      -59.27
39
 0
62
 1
 0
LINE
8
default
6
CONTINUOUS
10
     -388.08
20
      -57.24
11
     -392.77
21
      -59.27
39
 0
62
 1
 0
LINE
8
default
6
CONTINUOUS
10
      392.77
20
      -59.27
11
      397.41
21
      -61.35
39
 0
62
 1
 0
LINE
8
default
6
CONTINUOUS
10
     -392.77
20
      -59.27
11
     -397.41
21
      -61.35
39
 0
62
 1
 0
LINE
8
default
6
CONTINUOUS
10
      397.41
20
      -61.35
11
      402.01
21
      -63.47
39
 0
62
 1
 0
LINE
8
default
6
CONTINUOUS
10
     -397.41
20
      -61.35
11
     -402.01
21
      -63.47
39
 0
62
 1
 0
LINE
8
default
6
CONTINUOUS
10
      402.01
20
      -63.47
11
      406.58
21
      -65.62
39
 0
62
 1
 0
LINE
8
default
6
CONTINUOUS
10
     -402.01
20
      -63.47
11
     -406.58
21
      -65.62
39
 0
62
 1
 0
LINE
8
default
6
CONTINUOUS
10
      406.58
20
      -65.62
11
      411.10
21
      -67.81
39
 0
62
 1
 0
LINE
8
default
6
CONTINUOUS
10
     -406.58
20
      -65.62
11
     -411.10
21
      -67.81
39
 0
62
 1
 0
LINE
8
default
6
CONTINUOUS
10
      411.10
20
      -67.81
11
      415.58
21
      -70.04
39
 0
62
 1
 0
LINE
8
default
6
CONTINUOUS
10
     -411.10
20
      -67.81
11
     -415.58
21
      -70.04
39
 0
62
 1
 0
LINE
8
default
6
CONTINUOUS
10
      415.58
20
      -70.04
11
      420.02
21
      -72.31
39
 0
62
 1
 0
LINE
8
default
6
CONTINUOUS
10
     -415.58
20
      -70.04
11
     -420.02
21
      -72.31
39
 0
62
 1
 0
LINE
8
default
6
CONTINUOUS
10
      420.02
20
      -72.31
11
      424.42
21
      -74.61
39
 0
62
 1
 0
LINE
8
default
6
CONTINUOUS
10
     -420.02
20
      -72.31
11
     -424.42
21
      -74.61
39
 0
62
 1
 0
LINE
8
default
6
CONTINUOUS
10
      424.42
20
      -74.61
11
      428.78
21
      -76.94
39
 0
62
 1
 0
LINE
8
default
6
CONTINUOUS
10
     -424.42
20
      -74.61
11
     -428.78
21
      -76.94
39
 0
62
 1
 0
LINE
8
default
6
CONTINUOUS
10
      428.78
20
      -76.94
11
      433.09
21
      -79.30
39
 0
62
 1
 0
LINE
8
default
6
CONTINUOUS
10
     -428.78
20
      -76.94
11
     -433.09
21
      -79.30
39
 0
62
 1
 0
LINE
8
default
6
CONTINUOUS
10
      433.09
20
      -79.30
11
      437.36
21
      -81.70
39
 0
62
 1
 0
LINE
8
default
6
CONTINUOUS
10
     -433.09
20
      -79.30
11
     -437.36
21
      -81.70
39
 0
62
 1
 0
LINE
8
default
6
CONTINUOUS
10
      437.36
20
      -81.70
11
      441.58
21
      -84.13
39
 0
62
 1
 0
LINE
8
default
6
CONTINUOUS
10
     -437.36
20
      -81.70
11
     -441.58
21
      -84.13
39
 0
62
 1
 0
LINE
8
default
6
CONTINUOUS
10
      441.58
20
      -84.13
11
      445.76
21
      -86.59
39
 0
62
 1
 0
LINE
8
default
6
CONTINUOUS
10
     -441.58
20
      -84.13
11
     -445.76
21
      -86.59
39
 0
62
 1
 0
LINE
8
default
6
CONTINUOUS
10
      445.76
20
      -86.59
11
      449.90
21
      -89.08
39
 0
62
 1
 0
LINE
8
default
6
CONTINUOUS
10
     -445.76
20
      -86.59
11
     -449.90
21
      -89.08
39
 0
62
 1
 0
LINE
8
default
6
CONTINUOUS
10
      449.90
20
      -89.08
11
      453.99
21
      -91.59
39
 0
62
 1
 0
LINE
8
default
6
CONTINUOUS
10
     -449.90
20
      -89.08
11
     -453.99
21
      -91.59
39
 0
62
 1
 0
LINE
8
default
6
CONTINUOUS
10
      453.99
20
      -91.59
11
      458.04
21
      -94.13
39
 0
62
 1
 0
LINE
8
default
6
CONTINUOUS
10
     -453.99
20
      -91.59
11
     -458.04
21
      -94.13
39
 0
62
 1
 0
LINE
8
default
6
CONTINUOUS
10
      458.04
20
      -94.13
11
      462.04
21
      -96.70
39
 0
62
 1
 0
LINE
8
default
6
CONTINUOUS
10
     -458.04
20
      -94.13
11
     -462.04
21
      -96.70
39
 0
62
 1
 0
LINE
8
default
6
CONTINUOUS
10
      462.04
20
      -96.70
11
      466.00
21
      -99.29
39
 0
62
 1
 0
LINE
8
default
6
CONTINUOUS
10
     -462.04
20
      -96.70
11
     -466.00
21
      -99.29
39
 0
62
 1
 0
LINE
8
default
6
CONTINUOUS
10
      466.00
20
      -99.29
11
      469.90
21
     -101.91
39
 0
62
 1
 0
LINE
8
default
6
CONTINUOUS
10
     -466.00
20
      -99.29
11
     -469.90
21
     -101.91
39
 0
62
 1
 0
LINE
8
default
6
CONTINUOUS
10
      469.90
20
     -101.91
11
      473.76
21
     -104.55
39
 0
62
 1
 0
LINE
8
default
6
CONTINUOUS
10
     -469.90
20
     -101.91
11
     -473.76
21
     -104.55
39
 0
62
 1
 0
LINE
8
default
6
CONTINUOUS
10
      473.76
20
     -104.55
11
      477.58
21
     -107.21
39
 0
62
 1
 0
LINE
8
default
6
CONTINUOUS
10
     -473.76
20
     -104.55
11
     -477.58
21
     -107.21
39
 0
62
 1
 0
LINE
8
default
6
CONTINUOUS
10
      477.58
20
     -107.21
11
      481.34
21
     -109.89
39
 0
62
 1
 0
LINE
8
default
6
CONTINUOUS
10
     -477.58
20
     -107.21
11
     -481.34
21
     -109.89
39
 0
62
 1
 0
LINE
8
default
6
CONTINUOUS
10
      481.34
20
     -109.89
11
      485.06
21
     -112.60
39
 0
62
 1
 0
LINE
8
default
6
CONTINUOUS
10
     -481.34
20
     -109.89
11
     -485.06
21
     -112.60
39
 0
62
 1
 0
LINE
8
default
6
CONTINUOUS
10
      485.06
20
     -112.60
11
      488.73
21
     -115.32
39
 0
62
 1
 0
LINE
8
default
6
CONTINUOUS
10
     -485.06
20
     -112.60
11
     -488.73
21
     -115.32
39
 0
62
 1
 0
LINE
8
default
6
CONTINUOUS
10
      488.73
20
     -115.32
11
      492.35
21
     -118.06
39
 0
62
 1
 0
LINE
8
default
6
CONTINUOUS
10
     -488.73
20
     -115.32
11
     -492.35
21
     -118.06
39
 0
62
 1
 0
LINE
8
default
6
CONTINUOUS
10
      492.35
20
     -118.06
11
      495.92
21
     -120.82
39
 0
62
 1
 0
LINE
8
default
6
CONTINUOUS
10
     -492.35
20
     -118.06
11
     -495.92
21
     -120.82
39
 0
62
 1
 0
LINE
8
default
6
CONTINUOUS
10
      495.92
20
     -120.82
11
      499.44
21
     -123.59
39
 0
62
 1
 0
LINE
8
default
6
CONTINUOUS
10
     -495.92
20
     -120.82
11
     -499.44
21
     -123.59
39
 0
62
 1
 0
LINE
8
default
6
CONTINUOUS
10
      499.44
20
     -123.59
11
      502.92
21
     -126.38
39
 0
62
 1
 0
LINE
8
default
6
CONTINUOUS
10
     -499.44
20
     -123.59
11
     -502.92
21
     -126.38
39
 0
62
 1
 0
LINE
8
default
6
CONTINUOUS
10
      502.92
20
     -126.38
11
      506.34
21
     -129.18
39
 0
62
 1
 0
LINE
8
default
6
CONTINUOUS
10
     -502.92
20
     -126.38
11
     -506.34
21
     -129.18
39
 0
62
 1
 0
LINE
8
default
6
CONTINUOUS
10
      506.34
20
     -129.18
11
      509.71
21
     -132.00
39
 0
62
 1
 0
LINE
8
default
6
CONTINUOUS
10
     -506.34
20
     -129.18
11
     -509.71
21
     -132.00
39
 0
62
 1
 0
LINE
8
default
6
CONTINUOUS
10
      509.71
20
     -132.00
11
      513.03
21
     -134.82
39
 0
62
 1
 0
LINE
8
default
6
CONTINUOUS
10
     -509.71
20
     -132.00
11
     -513.03
21
     -134.82
39
 0
62
 1
 0
LINE
8
default
6
CONTINUOUS
10
      513.03
20
     -134.82
11
      516.30
21
     -137.66
39
 0
62
 1
 0
LINE
8
default
6
CONTINUOUS
10
     -513.03
20
     -134.82
11
     -516.30
21
     -137.66
39
 0
62
 1
 0
LINE
8
default
6
CONTINUOUS
10
      516.30
20
     -137.66
11
      519.51
21
     -140.51
39
 0
62
 1
 0
LINE
8
default
6
CONTINUOUS
10
     -516.30
20
     -137.66
11
     -519.51
21
     -140.51
39
 0
62
 1
 0
LINE
8
default
6
CONTINUOUS
10
      519.51
20
     -140.51
11
      522.68
21
     -143.37
39
 0
62
 1
 0
LINE
8
default
6
CONTINUOUS
10
     -519.51
20
     -140.51
11
     -522.68
21
     -143.37
39
 0
62
 1
 0
LINE
8
default
6
CONTINUOUS
10
      522.68
20
     -143.37
11
      525.79
21
     -146.24
39
 0
62
 1
 0
LINE
8
default
6
CONTINUOUS
10
     -522.68
20
     -143.37
11
     -525.79
21
     -146.24
39
 0
62
 1
 0
LINE
8
default
6
CONTINUOUS
10
      525.79
20
     -146.24
11
      528.85
21
     -149.12
39
 0
62
 1
 0
LINE
8
default
6
CONTINUOUS
10
     -525.79
20
     -146.24
11
     -528.85
21
     -149.12
39
 0
62
 1
 0
LINE
8
default
6
CONTINUOUS
10
      528.85
20
     -149.12
11
      531.86
21
     -152.00
39
 0
62
 1
 0
LINE
8
default
6
CONTINUOUS
10
     -528.85
20
     -149.12
11
     -531.86
21
     -152.00
39
 0
62
 1
 0
LINE
8
default
6
CONTINUOUS
10
      531.86
20
     -152.00
11
      534.81
21
     -154.89
39
 0
62
 1
 0
LINE
8
default
6
CONTINUOUS
10
     -531.86
20
     -152.00
11
     -534.81
21
     -154.89
39
 0
62
 1
 0
LINE
8
default
6
CONTINUOUS
10
      534.81
20
     -154.89
11
      537.71
21
     -157.78
39
 0
62
 1
 0
LINE
8
default
6
CONTINUOUS
10
     -534.81
20
     -154.89
11
     -537.71
21
     -157.78
39
 0
62
 1
 0
LINE
8
default
6
CONTINUOUS
10
      537.71
20
     -157.78
11
      539.00
21
     -159.09
39
 0
62
 1
 0
LINE
8
default
6
CONTINUOUS
10
     -537.71
20
     -157.78
11
     -539.00
21
     -159.09
39
 0
62
 1
 0
LINE
8
default
6
CONTINUOUS
10
         .00
20
     -309.33
11
        6.37
21
     -309.32
39
 0
62
 1
 0
LINE
8
default
6
CONTINUOUS
10
         .00
20
     -309.33
11
       -6.37
21
     -309.32
39
 0
62
 1
 0
LINE
8
default
6
CONTINUOUS
10
        6.37
20
     -309.32
11
       12.74
21
     -309.30
39
 0
62
 1
 0
LINE
8
default
6
CONTINUOUS
10
       -6.37
20
     -309.32
11
      -12.74
21
     -309.30
39
 0
62
 1
 0
LINE
8
default
6
CONTINUOUS
10
       12.74
20
     -309.30
11
       19.10
21
     -309.27
39
 0
62
 1
 0
LINE
8
default
6
CONTINUOUS
10
      -12.74
20
     -309.30
11
      -19.10
21
     -309.27
39
 0
62
 1
 0
LINE
8
default
6
CONTINUOUS
10
       19.10
20
     -309.27
11
       25.47
21
     -309.23
39
 0
62
 1
 0
LINE
8
default
6
CONTINUOUS
10
      -19.10
20
     -309.27
11
      -25.47
21
     -309.23
39
 0
62
 1
 0
LINE
8
default
6
CONTINUOUS
10
       25.47
20
     -309.23
11
       31.83
21
     -309.17
39
 0
62
 1
 0
LINE
8
default
6
CONTINUOUS
10
      -25.47
20
     -309.23
11
      -31.83
21
     -309.17
39
 0
62
 1
 0
LINE
8
default
6
CONTINUOUS
10
       31.83
20
     -309.17
11
       38.19
21
     -309.10
39
 0
62
 1
 0
LINE
8
default
6
CONTINUOUS
10
      -31.83
20
     -309.17
11
      -38.19
21
     -309.10
39
 0
62
 1
 0
LINE
8
default
6
CONTINUOUS
10
       38.19
20
     -309.10
11
       44.55
21
     -309.02
39
 0
62
 1
 0
LINE
8
default
6
CONTINUOUS
10
      -38.19
20
     -309.10
11
      -44.55
21
     -309.02
39
 0
62
 1
 0
LINE
8
default
6
CONTINUOUS
10
       44.55
20
     -309.02
11
       50.90
21
     -308.92
39
 0
62
 1
 0
LINE
8
default
6
CONTINUOUS
10
      -44.55
20
     -309.02
11
      -50.90
21
     -308.92
39
 0
62
 1
 0
LINE
8
default
6
CONTINUOUS
10
       50.90
20
     -308.92
11
       57.25
21
     -308.81
39
 0
62
 1
 0
LINE
8
default
6
CONTINUOUS
10
      -50.90
20
     -308.92
11
      -57.25
21
     -308.81
39
 0
62
 1
 0
LINE
8
default
6
CONTINUOUS
10
       57.25
20
     -308.81
11
       63.59
21
     -308.69
39
 0
62
 1
 0
LINE
8
default
6
CONTINUOUS
10
      -57.25
20
     -308.81
11
      -63.59
21
     -308.69
39
 0
62
 1
 0
LINE
8
default
6
CONTINUOUS
10
       63.59
20
     -308.69
11
       69.92
21
     -308.56
39
 0
62
 1
 0
LINE
8
default
6
CONTINUOUS
10
      -63.59
20
     -308.69
11
      -69.92
21
     -308.56
39
 0
62
 1
 0
LINE
8
default
6
CONTINUOUS
10
       69.92
20
     -308.56
11
       76.25
21
     -308.41
39
 0
62
 1
 0
LINE
8
default
6
CONTINUOUS
10
      -69.92
20
     -308.56
11
      -76.25
21
     -308.41
39
 0
62
 1
 0
LINE
8
default
6
CONTINUOUS
10
       76.25
20
     -308.41
11
       82.57
21
     -308.25
39
 0
62
 1
 0
LINE
8
default
6
CONTINUOUS
10
      -76.25
20
     -308.41
11
      -82.57
21
     -308.25
39
 0
62
 1
 0
LINE
8
default
6
CONTINUOUS
10
       82.57
20
     -308.25
11
       88.88
21
     -308.08
39
 0
62
 1
 0
LINE
8
default
6
CONTINUOUS
10
      -82.57
20
     -308.25
11
      -88.88
21
     -308.08
39
 0
62
 1
 0
LINE
8
default
6
CONTINUOUS
10
       88.88
20
     -308.08
11
       95.18
21
     -307.89
39
 0
62
 1
 0
LINE
8
default
6
CONTINUOUS
10
      -88.88
20
     -308.08
11
      -95.18
21
     -307.89
39
 0
62
 1
 0
LINE
8
default
6
CONTINUOUS
10
       95.18
20
     -307.89
11
      101.47
21
     -307.70
39
 0
62
 1
 0
LINE
8
default
6
CONTINUOUS
10
      -95.18
20
     -307.89
11
     -101.47
21
     -307.70
39
 0
62
 1
 0
LINE
8
default
6
CONTINUOUS
10
      101.47
20
     -307.70
11
      107.76
21
     -307.49
39
 0
62
 1
 0
LINE
8
default
6
CONTINUOUS
10
     -101.47
20
     -307.70
11
     -107.76
21
     -307.49
39
 0
62
 1
 0
LINE
8
default
6
CONTINUOUS
10
      107.76
20
     -307.49
11
      114.03
21
     -307.26
39
 0
62
 1
 0
LINE
8
default
6
CONTINUOUS
10
     -107.76
20
     -307.49
11
     -114.03
21
     -307.26
39
 0
62
 1
 0
LINE
8
default
6
CONTINUOUS
10
      114.03
20
     -307.26
11
      120.29
21
     -307.03
39
 0
62
 1
 0
LINE
8
default
6
CONTINUOUS
10
     -114.03
20
     -307.26
11
     -120.29
21
     -307.03
39
 0
62
 1
 0
LINE
8
default
6
CONTINUOUS
10
      120.29
20
     -307.03
11
      126.54
21
     -306.78
39
 0
62
 1
 0
LINE
8
default
6
CONTINUOUS
10
     -120.29
20
     -307.03
11
     -126.54
21
     -306.78
39
 0
62
 1
 0
LINE
8
default
6
CONTINUOUS
10
      126.54
20
     -306.78
11
      132.77
21
     -306.52
39
 0
62
 1
 0
LINE
8
default
6
CONTINUOUS
10
     -126.54
20
     -306.78
11
     -132.77
21
     -306.52
39
 0
62
 1
 0
LINE
8
default
6
CONTINUOUS
10
      132.77
20
     -306.52
11
      139.00
21
     -306.25
39
 0
62
 1
 0
LINE
8
default
6
CONTINUOUS
10
     -132.77
20
     -306.52
11
     -139.00
21
     -306.25
39
 0
62
 1
 0
LINE
8
default
6
CONTINUOUS
10
      139.00
20
     -306.25
11
      145.20
21
     -305.96
39
 0
62
 1
 0
LINE
8
default
6
CONTINUOUS
10
     -139.00
20
     -306.25
11
     -145.20
21
     -305.96
39
 0
62
 1
 0
LINE
8
default
6
CONTINUOUS
10
      145.20
20
     -305.96
11
      151.40
21
     -305.66
39
 0
62
 1
 0
LINE
8
default
6
CONTINUOUS
10
     -145.20
20
     -305.96
11
     -151.40
21
     -305.66
39
 0
62
 1
 0
LINE
8
default
6
CONTINUOUS
10
      151.40
20
     -305.66
11
      157.58
21
     -305.35
39
 0
62
 1
 0
LINE
8
default
6
CONTINUOUS
10
     -151.40
20
     -305.66
11
     -157.58
21
     -305.35
39
 0
62
 1
 0
LINE
8
default
6
CONTINUOUS
10
      157.58
20
     -305.35
11
      163.74
21
     -305.03
39
 0
62
 1
 0
LINE
8
default
6
CONTINUOUS
10
     -157.58
20
     -305.35
11
     -163.74
21
     -305.03
39
 0
62
 1
 0
LINE
8
default
6
CONTINUOUS
10
      163.74
20
     -305.03
11
      169.89
21
     -304.69
39
 0
62
 1
 0
LINE
8
default
6
CONTINUOUS
10
     -163.74
20
     -305.03
11
     -169.89
21
     -304.69
39
 0
62
 1
 0
LINE
8
default
6
CONTINUOUS
10
      169.89
20
     -304.69
11
      176.02
21
     -304.35
39
 0
62
 1
 0
LINE
8
default
6
CONTINUOUS
10
     -169.89
20
     -304.69
11
     -176.02
21
     -304.35
39
 0
62
 1
 0
LINE
8
default
6
CONTINUOUS
10
      176.02
20
     -304.35
11
      182.13
21
     -303.99
39
 0
62
 1
 0
LINE
8
default
6
CONTINUOUS
10
     -176.02
20
     -304.35
11
     -182.13
21
     -303.99
39
 0
62
 1
 0
LINE
8
default
6
CONTINUOUS
10
      182.13
20
     -303.99
11
      188.22
21
     -303.61
39
 0
62
 1
 0
LINE
8
default
6
CONTINUOUS
10
     -182.13
20
     -303.99
11
     -188.22
21
     -303.61
39
 0
62
 1
 0
LINE
8
default
6
CONTINUOUS
10
      188.22
20
     -303.61
11
      194.30
21
     -303.23
39
 0
62
 1
 0
LINE
8
default
6
CONTINUOUS
10
     -188.22
20
     -303.61
11
     -194.30
21
     -303.23
39
 0
62
 1
 0
LINE
8
default
6
CONTINUOUS
10
      194.30
20
     -303.23
11
      200.36
21
     -302.83
39
 0
62
 1
 0
LINE
8
default
6
CONTINUOUS
10
     -194.30
20
     -303.23
11
     -200.36
21
     -302.83
39
 0
62
 1
 0
LINE
8
default
6
CONTINUOUS
10
      200.36
20
     -302.83
11
      206.39
21
     -302.43
39
 0
62
 1
 0
LINE
8
default
6
CONTINUOUS
10
     -200.36
20
     -302.83
11
     -206.39
21
     -302.43
39
 0
62
 1
 0
LINE
8
default
6
CONTINUOUS
10
      206.39
20
     -302.43
11
      212.41
21
     -302.00
39
 0
62
 1
 0
LINE
8
default
6
CONTINUOUS
10
     -206.39
20
     -302.43
11
     -212.41
21
     -302.00
39
 0
62
 1
 0
LINE
8
default
6
CONTINUOUS
10
      212.41
20
     -302.00
11
      218.40
21
     -301.57
39
 0
62
 1
 0
LINE
8
default
6
CONTINUOUS
10
     -212.41
20
     -302.00
11
     -218.40
21
     -301.57
39
 0
62
 1
 0
LINE
8
default
6
CONTINUOUS
10
      218.40
20
     -301.57
11
      224.37
21
     -301.13
39
 0
62
 1
 0
LINE
8
default
6
CONTINUOUS
10
     -218.40
20
     -301.57
11
     -224.37
21
     -301.13
39
 0
62
 1
 0
LINE
8
default
6
CONTINUOUS
10
      224.37
20
     -301.13
11
      230.32
21
     -300.67
39
 0
62
 1
 0
LINE
8
default
6
CONTINUOUS
10
     -224.37
20
     -301.13
11
     -230.32
21
     -300.67
39
 0
62
 1
 0
LINE
8
default
6
CONTINUOUS
10
      230.32
20
     -300.67
11
      236.25
21
     -300.20
39
 0
62
 1
 0
LINE
8
default
6
CONTINUOUS
10
     -230.32
20
     -300.67
11
     -236.25
21
     -300.20
39
 0
62
 1
 0
LINE
8
default
6
CONTINUOUS
10
      236.25
20
     -300.20
11
      242.15
21
     -299.72
39
 0
62
 1
 0
LINE
8
default
6
CONTINUOUS
10
     -236.25
20
     -300.20
11
     -242.15
21
     -299.72
39
 0
62
 1
 0
LINE
8
default
6
CONTINUOUS
10
      242.15
20
     -299.72
11
      248.03
21
     -299.23
39
 0
62
 1
 0
LINE
8
default
6
CONTINUOUS
10
     -242.15
20
     -299.72
11
     -248.03
21
     -299.23
39
 0
62
 1
 0
LINE
8
default
6
CONTINUOUS
10
      248.03
20
     -299.23
11
      253.88
21
     -298.72
39
 0
62
 1
 0
LINE
8
default
6
CONTINUOUS
10
     -248.03
20
     -299.23
11
     -253.88
21
     -298.72
39
 0
62
 1
 0
LINE
8
default
6
CONTINUOUS
10
      253.88
20
     -298.72
11
      259.71
21
     -298.21
39
 0
62
 1
 0
LINE
8
default
6
CONTINUOUS
10
     -253.88
20
     -298.72
11
     -259.71
21
     -298.21
39
 0
62
 1
 0
LINE
8
default
6
CONTINUOUS
10
      259.71
20
     -298.21
11
      265.52
21
     -297.68
39
 0
62
 1
 0
LINE
8
default
6
CONTINUOUS
10
     -259.71
20
     -298.21
11
     -265.52
21
     -297.68
39
 0
62
 1
 0
LINE
8
default
6
CONTINUOUS
10
      265.52
20
     -297.68
11
      271.29
21
     -297.14
39
 0
62
 1
 0
LINE
8
default
6
CONTINUOUS
10
     -265.52
20
     -297.68
11
     -271.29
21
     -297.14
39
 0
62
 1
 0
LINE
8
default
6
CONTINUOUS
10
      271.29
20
     -297.14
11
      277.04
21
     -296.59
39
 0
62
 1
 0
LINE
8
default
6
CONTINUOUS
10
     -271.29
20
     -297.14
11
     -277.04
21
     -296.59
39
 0
62
 1
 0
LINE
8
default
6
CONTINUOUS
10
      277.04
20
     -296.59
11
      282.76
21
     -296.03
39
 0
62
 1
 0
LINE
8
default
6
CONTINUOUS
10
     -277.04
20
     -296.59
11
     -282.76
21
     -296.03
39
 0
62
 1
 0
LINE
8
default
6
CONTINUOUS
10
      282.76
20
     -296.03
11
      288.45
21
     -295.45
39
 0
62
 1
 0
LINE
8
default
6
CONTINUOUS
10
     -282.76
20
     -296.03
11
     -288.45
21
     -295.45
39
 0
62
 1
 0
LINE
8
default
6
CONTINUOUS
10
      288.45
20
     -295.45
11
      294.12
21
     -294.87
39
 0
62
 1
 0
LINE
8
default
6
CONTINUOUS
10
     -288.45
20
     -295.45
11
     -294.12
21
     -294.87
39
 0
62
 1
 0
LINE
8
default
6
CONTINUOUS
10
      294.12
20
     -294.87
11
      299.75
21
     -294.27
39
 0
62
 1
 0
LINE
8
default
6
CONTINUOUS
10
     -294.12
20
     -294.87
11
     -299.75
21
     -294.27
39
 0
62
 1
 0
LINE
8
default
6
CONTINUOUS
10
      299.75
20
     -294.27
11
      305.36
21
     -293.66
39
 0
62
 1
 0
LINE
8
default
6
CONTINUOUS
10
     -299.75
20
     -294.27
11
     -305.36
21
     -293.66
39
 0
62
 1
 0
LINE
8
default
6
CONTINUOUS
10
      305.36
20
     -293.66
11
      310.93
21
     -293.05
39
 0
62
 1
 0
LINE
8
default
6
CONTINUOUS
10
     -305.36
20
     -293.66
11
     -310.93
21
     -293.05
39
 0
62
 1
 0
LINE
8
default
6
CONTINUOUS
10
      310.93
20
     -293.05
11
      316.48
21
     -292.41
39
 0
62
 1
 0
LINE
8
default
6
CONTINUOUS
10
     -310.93
20
     -293.05
11
     -316.48
21
     -292.41
39
 0
62
 1
 0
LINE
8
default
6
CONTINUOUS
10
      316.48
20
     -292.41
11
      321.99
21
     -291.77
39
 0
62
 1
 0
LINE
8
default
6
CONTINUOUS
10
     -316.48
20
     -292.41
11
     -321.99
21
     -291.77
39
 0
62
 1
 0
LINE
8
default
6
CONTINUOUS
10
      321.99
20
     -291.77
11
      327.47
21
     -291.12
39
 0
62
 1
 0
LINE
8
default
6
CONTINUOUS
10
     -321.99
20
     -291.77
11
     -327.47
21
     -291.12
39
 0
62
 1
 0
LINE
8
default
6
CONTINUOUS
10
      327.47
20
     -291.12
11
      332.91
21
     -290.46
39
 0
62
 1
 0
LINE
8
default
6
CONTINUOUS
10
     -327.47
20
     -291.12
11
     -332.91
21
     -290.46
39
 0
62
 1
 0
LINE
8
default
6
CONTINUOUS
10
      332.91
20
     -290.46
11
      338.33
21
     -289.78
39
 0
62
 1
 0
LINE
8
default
6
CONTINUOUS
10
     -332.91
20
     -290.46
11
     -338.33
21
     -289.78
39
 0
62
 1
 0
LINE
8
default
6
CONTINUOUS
10
      338.33
20
     -289.78
11
      343.71
21
     -289.10
39
 0
62
 1
 0
LINE
8
default
6
CONTINUOUS
10
     -338.33
20
     -289.78
11
     -343.71
21
     -289.10
39
 0
62
 1
 0
LINE
8
default
6
CONTINUOUS
10
      343.71
20
     -289.10
11
      349.05
21
     -288.40
39
 0
62
 1
 0
LINE
8
default
6
CONTINUOUS
10
     -343.71
20
     -289.10
11
     -349.05
21
     -288.40
39
 0
62
 1
 0
LINE
8
default
6
CONTINUOUS
10
      349.05
20
     -288.40
11
      354.36
21
     -287.70
39
 0
62
 1
 0
LINE
8
default
6
CONTINUOUS
10
     -349.05
20
     -288.40
11
     -354.36
21
     -287.70
39
 0
62
 1
 0
LINE
8
default
6
CONTINUOUS
10
      354.36
20
     -287.70
11
      359.63
21
     -286.97
39
 0
62
 1
 0
LINE
8
default
6
CONTINUOUS
10
     -354.36
20
     -287.70
11
     -359.63
21
     -286.97
39
 0
62
 1
 0
LINE
8
default
6
CONTINUOUS
10
      359.63
20
     -286.97
11
      364.87
21
     -286.23
39
 0
62
 1
 0
LINE
8
default
6
CONTINUOUS
10
     -359.63
20
     -286.97
11
     -364.87
21
     -286.23
39
 0
62
 1
 0
LINE
8
default
6
CONTINUOUS
10
      364.87
20
     -286.23
11
      370.08
21
     -285.48
39
 0
62
 1
 0
LINE
8
default
6
CONTINUOUS
10
     -364.87
20
     -286.23
11
     -370.08
21
     -285.48
39
 0
62
 1
 0
LINE
8
default
6
CONTINUOUS
10
      370.08
20
     -285.48
11
      375.24
21
     -284.71
39
 0
62
 1
 0
LINE
8
default
6
CONTINUOUS
10
     -370.08
20
     -285.48
11
     -375.24
21
     -284.71
39
 0
62
 1
 0
LINE
8
default
6
CONTINUOUS
10
      375.24
20
     -284.71
11
      380.37
21
     -283.92
39
 0
62
 1
 0
LINE
8
default
6
CONTINUOUS
10
     -375.24
20
     -284.71
11
     -380.37
21
     -283.92
39
 0
62
 1
 0
LINE
8
default
6
CONTINUOUS
10
      380.37
20
     -283.92
11
      385.46
21
     -283.12
39
 0
62
 1
 0
LINE
8
default
6
CONTINUOUS
10
     -380.37
20
     -283.92
11
     -385.46
21
     -283.12
39
 0
62
 1
 0
LINE
8
default
6
CONTINUOUS
10
      385.46
20
     -283.12
11
      390.51
21
     -282.30
39
 0
62
 1
 0
LINE
8
default
6
CONTINUOUS
10
     -385.46
20
     -283.12
11
     -390.51
21
     -282.30
39
 0
62
 1
 0
LINE
8
default
6
CONTINUOUS
10
      390.51
20
     -282.30
11
      395.52
21
     -281.46
39
 0
62
 1
 0
LINE
8
default
6
CONTINUOUS
10
     -390.51
20
     -282.30
11
     -395.52
21
     -281.46
39
 0
62
 1
 0
LINE
8
default
6
CONTINUOUS
10
      395.52
20
     -281.46
11
      400.49
21
     -280.61
39
 0
62
 1
 0
LINE
8
default
6
CONTINUOUS
10
     -395.52
20
     -281.46
11
     -400.49
21
     -280.61
39
 0
62
 1
 0
LINE
8
default
6
CONTINUOUS
10
      400.49
20
     -280.61
11
      405.43
21
     -279.75
39
 0
62
 1
 0
LINE
8
default
6
CONTINUOUS
10
     -400.49
20
     -280.61
11
     -405.43
21
     -279.75
39
 0
62
 1
 0
LINE
8
default
6
CONTINUOUS
10
      405.43
20
     -279.75
11
      410.32
21
     -278.87
39
 0
62
 1
 0
LINE
8
default
6
CONTINUOUS
10
     -405.43
20
     -279.75
11
     -410.32
21
     -278.87
39
 0
62
 1
 0
LINE
8
default
6
CONTINUOUS
10
      410.32
20
     -278.87
11
      415.17
21
     -277.98
39
 0
62
 1
 0
LINE
8
default
6
CONTINUOUS
10
     -410.32
20
     -278.87
11
     -415.17
21
     -277.98
39
 0
62
 1
 0
LINE
8
default
6
CONTINUOUS
10
      415.17
20
     -277.98
11
      419.98
21
     -277.07
39
 0
62
 1
 0
LINE
8
default
6
CONTINUOUS
10
     -415.17
20
     -277.98
11
     -419.98
21
     -277.07
39
 0
62
 1
 0
LINE
8
default
6
CONTINUOUS
10
      419.98
20
     -277.07
11
      424.75
21
     -276.15
39
 0
62
 1
 0
LINE
8
default
6
CONTINUOUS
10
     -419.98
20
     -277.07
11
     -424.75
21
     -276.15
39
 0
62
 1
 0
LINE
8
default
6
CONTINUOUS
10
      424.75
20
     -276.15
11
      429.47
21
     -275.21
39
 0
62
 1
 0
LINE
8
default
6
CONTINUOUS
10
     -424.75
20
     -276.15
11
     -429.47
21
     -275.21
39
 0
62
 1
 0
LINE
8
default
6
CONTINUOUS
10
      429.47
20
     -275.21
11
      434.15
21
     -274.26
39
 0
62
 1
 0
LINE
8
default
6
CONTINUOUS
10
     -429.47
20
     -275.21
11
     -434.15
21
     -274.26
39
 0
62
 1
 0
LINE
8
default
6
CONTINUOUS
10
      434.15
20
     -274.26
11
      438.79
21
     -273.30
39
 0
62
 1
 0
LINE
8
default
6
CONTINUOUS
10
     -434.15
20
     -274.26
11
     -438.79
21
     -273.30
39
 0
62
 1
 0
LINE
8
default
6
CONTINUOUS
10
      438.79
20
     -273.30
11
      443.39
21
     -272.32
39
 0
62
 1
 0
LINE
8
default
6
CONTINUOUS
10
     -438.79
20
     -273.30
11
     -443.39
21
     -272.32
39
 0
62
 1
 0
LINE
8
default
6
CONTINUOUS
10
      443.39
20
     -272.32
11
      447.94
21
     -271.33
39
 0
62
 1
 0
LINE
8
default
6
CONTINUOUS
10
     -443.39
20
     -272.32
11
     -447.94
21
     -271.33
39
 0
62
 1
 0
LINE
8
default
6
CONTINUOUS
10
      447.94
20
     -271.33
11
      452.44
21
     -270.33
39
 0
62
 1
 0
LINE
8
default
6
CONTINUOUS
10
     -447.94
20
     -271.33
11
     -452.44
21
     -270.33
39
 0
62
 1
 0
LINE
8
default
6
CONTINUOUS
10
      452.44
20
     -270.33
11
      456.90
21
     -269.32
39
 0
62
 1
 0
LINE
8
default
6
CONTINUOUS
10
     -452.44
20
     -270.33
11
     -456.90
21
     -269.32
39
 0
62
 1
 0
LINE
8
default
6
CONTINUOUS
10
      456.90
20
     -269.32
11
      461.32
21
     -268.29
39
 0
62
 1
 0
LINE
8
default
6
CONTINUOUS
10
     -456.90
20
     -269.32
11
     -461.32
21
     -268.29
39
 0
62
 1
 0
LINE
8
default
6
CONTINUOUS
10
      461.32
20
     -268.29
11
      465.68
21
     -267.25
39
 0
62
 1
 0
LINE
8
default
6
CONTINUOUS
10
     -461.32
20
     -268.29
11
     -465.68
21
     -267.25
39
 0
62
 1
 0
LINE
8
default
6
CONTINUOUS
10
      465.68
20
     -267.25
11
      470.01
21
     -266.20
39
 0
62
 1
 0
LINE
8
default
6
CONTINUOUS
10
     -465.68
20
     -267.25
11
     -470.01
21
     -266.20
39
 0
62
 1
 0
LINE
8
default
6
CONTINUOUS
10
      470.01
20
     -266.20
11
      474.28
21
     -265.14
39
 0
62
 1
 0
LINE
8
default
6
CONTINUOUS
10
     -470.01
20
     -266.20
11
     -474.28
21
     -265.14
39
 0
62
 1
 0
LINE
8
default
6
CONTINUOUS
10
      474.28
20
     -265.14
11
      478.51
21
     -264.07
39
 0
62
 1
 0
LINE
8
default
6
CONTINUOUS
10
     -474.28
20
     -265.14
11
     -478.51
21
     -264.07
39
 0
62
 1
 0
LINE
8
default
6
CONTINUOUS
10
      478.51
20
     -264.07
11
      482.69
21
     -262.99
39
 0
62
 1
 0
LINE
8
default
6
CONTINUOUS
10
     -478.51
20
     -264.07
11
     -482.69
21
     -262.99
39
 0
62
 1
 0
LINE
8
default
6
CONTINUOUS
10
      482.69
20
     -262.99
11
      486.82
21
     -261.89
39
 0
62
 1
 0
LINE
8
default
6
CONTINUOUS
10
     -482.69
20
     -262.99
11
     -486.82
21
     -261.89
39
 0
62
 1
 0
LINE
8
default
6
CONTINUOUS
10
      486.82
20
     -261.89
11
      490.90
21
     -260.79
39
 0
62
 1
 0
LINE
8
default
6
CONTINUOUS
10
     -486.82
20
     -261.89
11
     -490.90
21
     -260.79
39
 0
62
 1
 0
LINE
8
default
6
CONTINUOUS
10
      490.90
20
     -260.79
11
      494.94
21
     -259.67
39
 0
62
 1
 0
LINE
8
default
6
CONTINUOUS
10
     -490.90
20
     -260.79
11
     -494.94
21
     -259.67
39
 0
62
 1
 0
LINE
8
default
6
CONTINUOUS
10
      494.94
20
     -259.67
11
      498.92
21
     -258.55
39
 0
62
 1
 0
LINE
8
default
6
CONTINUOUS
10
     -494.94
20
     -259.67
11
     -498.92
21
     -258.55
39
 0
62
 1
 0
LINE
8
default
6
CONTINUOUS
10
      498.92
20
     -258.55
11
      502.85
21
     -257.41
39
 0
62
 1
 0
LINE
8
default
6
CONTINUOUS
10
     -498.92
20
     -258.55
11
     -502.85
21
     -257.41
39
 0
62
 1
 0
LINE
8
default
6
CONTINUOUS
10
      502.85
20
     -257.41
11
      506.74
21
     -256.27
39
 0
62
 1
 0
LINE
8
default
6
CONTINUOUS
10
     -502.85
20
     -257.41
11
     -506.74
21
     -256.27
39
 0
62
 1
 0
LINE
8
default
6
CONTINUOUS
10
      506.74
20
     -256.27
11
      510.57
21
     -255.11
39
 0
62
 1
 0
LINE
8
default
6
CONTINUOUS
10
     -506.74
20
     -256.27
11
     -510.57
21
     -255.11
39
 0
62
 1
 0
LINE
8
default
6
CONTINUOUS
10
      510.57
20
     -255.11
11
      514.35
21
     -253.95
39
 0
62
 1
 0
LINE
8
default
6
CONTINUOUS
10
     -510.57
20
     -255.11
11
     -514.35
21
     -253.95
39
 0
62
 1
 0
LINE
8
default
6
CONTINUOUS
10
      514.35
20
     -253.95
11
      518.08
21
     -252.78
39
 0
62
 1
 0
LINE
8
default
6
CONTINUOUS
10
     -514.35
20
     -253.95
11
     -518.08
21
     -252.78
39
 0
62
 1
 0
LINE
8
default
6
CONTINUOUS
10
      518.08
20
     -252.78
11
      521.76
21
     -251.60
39
 0
62
 1
 0
LINE
8
default
6
CONTINUOUS
10
     -518.08
20
     -252.78
11
     -521.76
21
     -251.60
39
 0
62
 1
 0
LINE
8
default
6
CONTINUOUS
10
      521.76
20
     -251.60
11
      525.39
21
     -250.41
39
 0
62
 1
 0
LINE
8
default
6
CONTINUOUS
10
     -521.76
20
     -251.60
11
     -525.39
21
     -250.41
39
 0
62
 1
 0
LINE
8
default
6
CONTINUOUS
10
      525.39
20
     -250.41
11
      528.96
21
     -249.21
39
 0
62
 1
 0
LINE
8
default
6
CONTINUOUS
10
     -525.39
20
     -250.41
11
     -528.96
21
     -249.21
39
 0
62
 1
 0
LINE
8
default
6
CONTINUOUS
10
      528.96
20
     -249.21
11
      532.49
21
     -248.01
39
 0
62
 1
 0
LINE
8
default
6
CONTINUOUS
10
     -528.96
20
     -249.21
11
     -532.49
21
     -248.01
39
 0
62
 1
 0
LINE
8
default
6
CONTINUOUS
10
      532.49
20
     -248.01
11
      535.95
21
     -246.79
39
 0
62
 1
 0
LINE
8
default
6
CONTINUOUS
10
     -532.49
20
     -248.01
11
     -535.95
21
     -246.79
39
 0
62
 1
 0
LINE
8
default
6
CONTINUOUS
10
      535.95
20
     -246.79
11
      539.00
21
     -245.71
39
 0
62
 1
 0
LINE
8
default
6
CONTINUOUS
10
     -535.95
20
     -246.79
11
     -539.00
21
     -245.71
39
 0
62
 1
 0
LINE
8
default
6
CONTINUOUS
10
      539.00
20
     -159.09
11
      539.00
21
     -245.71
39
 0
62
 1
 0
LINE
8
default
6
CONTINUOUS
10
     -539.00
20
     -159.09
11
     -539.00
21
     -245.71
39
 0
62
 1
 0
LINE
8
default
6
CONTINUOUS
10
         .00
20
      640.90
11
        2.34
21
      640.90
39
 0
62
 3
 0
LINE
8
default
6
CONTINUOUS
10
         .00
20
      640.90
11
       -2.34
21
      640.90
39
 0
62
 1
 0
LINE
8
default
6
CONTINUOUS
10
        2.34
20
      640.90
11
        4.67
21
      640.88
39
 0
62
 3
 0
LINE
8
default
6
CONTINUOUS
10
       -2.34
20
      640.90
11
       -4.67
21
      640.88
39
 0
62
 1
 0
LINE
8
default
6
CONTINUOUS
10
        4.67
20
      640.88
11
        7.01
21
      640.86
39
 0
62
 3
 0
LINE
8
default
6
CONTINUOUS
10
       -4.67
20
      640.88
11
       -7.01
21
      640.86
39
 0
62
 1
 0
LINE
8
default
6
CONTINUOUS
10
        7.01
20
      640.86
11
        9.34
21
      640.83
39
 0
62
 3
 0
LINE
8
default
6
CONTINUOUS
10
       -7.01
20
      640.86
11
       -9.34
21
      640.83
39
 0
62
 1
 0
LINE
8
default
6
CONTINUOUS
10
        9.34
20
      640.83
11
       11.68
21
      640.80
39
 0
62
 3
 0
LINE
8
default
6
CONTINUOUS
10
       -9.34
20
      640.83
11
      -11.68
21
      640.80
39
 0
62
 1
 0
LINE
8
default
6
CONTINUOUS
10
       11.68
20
      640.80
11
       14.01
21
      640.75
39
 0
62
 3
 0
LINE
8
default
6
CONTINUOUS
10
      -11.68
20
      640.80
11
      -14.01
21
      640.75
39
 0
62
 1
 0
LINE
8
default
6
CONTINUOUS
10
       14.01
20
      640.75
11
       16.35
21
      640.69
39
 0
62
 3
 0
LINE
8
default
6
CONTINUOUS
10
      -14.01
20
      640.75
11
      -16.35
21
      640.69
39
 0
62
 1
 0
LINE
8
default
6
CONTINUOUS
10
       16.35
20
      640.69
11
       18.68
21
      640.63
39
 0
62
 3
 0
LINE
8
default
6
CONTINUOUS
10
      -16.35
20
      640.69
11
      -18.68
21
      640.63
39
 0
62
 1
 0
LINE
8
default
6
CONTINUOUS
10
       18.68
20
      640.63
11
       21.02
21
      640.56
39
 0
62
 3
 0
LINE
8
default
6
CONTINUOUS
10
      -18.68
20
      640.63
11
      -21.02
21
      640.56
39
 0
62
 1
 0
LINE
8
default
6
CONTINUOUS
10
       21.02
20
      640.56
11
       23.35
21
      640.48
39
 0
62
 3
 0
LINE
8
default
6
CONTINUOUS
10
      -21.02
20
      640.56
11
      -23.35
21
      640.48
39
 0
62
 1
 0
LINE
8
default
6
CONTINUOUS
10
       23.35
20
      640.48
11
       25.68
21
      640.39
39
 0
62
 3
 0
LINE
8
default
6
CONTINUOUS
10
      -23.35
20
      640.48
11
      -25.68
21
      640.39
39
 0
62
 1
 0
LINE
8
default
6
CONTINUOUS
10
       25.68
20
      640.39
11
       28.02
21
      640.30
39
 0
62
 3
 0
LINE
8
default
6
CONTINUOUS
10
      -25.68
20
      640.39
11
      -28.02
21
      640.30
39
 0
62
 1
 0
LINE
8
default
6
CONTINUOUS
10
       28.02
20
      640.30
11
       30.35
21
      640.19
39
 0
62
 3
 0
LINE
8
default
6
CONTINUOUS
10
      -28.02
20
      640.30
11
      -30.35
21
      640.19
39
 0
62
 1
 0
LINE
8
default
6
CONTINUOUS
10
       30.35
20
      640.19
11
       32.68
21
      640.08
39
 0
62
 3
 0
LINE
8
default
6
CONTINUOUS
10
      -30.35
20
      640.19
11
      -32.68
21
      640.08
39
 0
62
 1
 0
LINE
8
default
6
CONTINUOUS
10
       32.68
20
      640.08
11
       35.02
21
      639.96
39
 0
62
 3
 0
LINE
8
default
6
CONTINUOUS
10
      -32.68
20
      640.08
11
      -35.02
21
      639.96
39
 0
62
 1
 0
LINE
8
default
6
CONTINUOUS
10
       35.02
20
      639.96
11
       37.35
21
      639.83
39
 0
62
 3
 0
LINE
8
default
6
CONTINUOUS
10
      -35.02
20
      639.96
11
      -37.35
21
      639.83
39
 0
62
 1
 0
LINE
8
default
6
CONTINUOUS
10
       37.35
20
      639.83
11
       39.68
21
      639.69
39
 0
62
 3
 0
LINE
8
default
6
CONTINUOUS
10
      -37.35
20
      639.83
11
      -39.68
21
      639.69
39
 0
62
 1
 0
LINE
8
default
6
CONTINUOUS
10
       39.68
20
      639.69
11
       42.01
21
      639.54
39
 0
62
 3
 0
LINE
8
default
6
CONTINUOUS
10
      -39.68
20
      639.69
11
      -42.01
21
      639.54
39
 0
62
 1
 0
LINE
8
default
6
CONTINUOUS
10
       42.01
20
      639.54
11
       44.34
21
      639.39
39
 0
62
 3
 0
LINE
8
default
6
CONTINUOUS
10
      -42.01
20
      639.54
11
      -44.34
21
      639.39
39
 0
62
 1
 0
LINE
8
default
6
CONTINUOUS
10
       44.34
20
      639.39
11
       46.67
21
      639.22
39
 0
62
 3
 0
LINE
8
default
6
CONTINUOUS
10
      -44.34
20
      639.39
11
      -46.67
21
      639.22
39
 0
62
 1
 0
LINE
8
default
6
CONTINUOUS
10
       46.67
20
      639.22
11
       49.00
21
      639.05
39
 0
62
 3
 0
LINE
8
default
6
CONTINUOUS
10
      -46.67
20
      639.22
11
      -49.00
21
      639.05
39
 0
62
 1
 0
LINE
8
default
6
CONTINUOUS
10
       49.00
20
      639.05
11
       51.33
21
      638.87
39
 0
62
 3
 0
LINE
8
default
6
CONTINUOUS
10
      -49.00
20
      639.05
11
      -51.33
21
      638.87
39
 0
62
 1
 0
LINE
8
default
6
CONTINUOUS
10
       51.33
20
      638.87
11
       53.66
21
      638.68
39
 0
62
 3
 0
LINE
8
default
6
CONTINUOUS
10
      -51.33
20
      638.87
11
      -53.66
21
      638.68
39
 0
62
 1
 0
LINE
8
default
6
CONTINUOUS
10
       53.66
20
      638.68
11
       55.98
21
      638.49
39
 0
62
 3
 0
LINE
8
default
6
CONTINUOUS
10
      -53.66
20
      638.68
11
      -55.98
21
      638.49
39
 0
62
 1
 0
LINE
8
default
6
CONTINUOUS
10
       55.98
20
      638.49
11
       58.31
21
      638.28
39
 0
62
 3
 0
LINE
8
default
6
CONTINUOUS
10
      -55.98
20
      638.49
11
      -58.31
21
      638.28
39
 0
62
 1
 0
LINE
8
default
6
CONTINUOUS
10
       58.31
20
      638.28
11
       60.64
21
      638.07
39
 0
62
 3
 0
LINE
8
default
6
CONTINUOUS
10
      -58.31
20
      638.28
11
      -60.64
21
      638.07
39
 0
62
 1
 0
LINE
8
default
6
CONTINUOUS
10
       60.64
20
      638.07
11
       62.96
21
      637.85
39
 0
62
 3
 0
LINE
8
default
6
CONTINUOUS
10
      -60.64
20
      638.07
11
      -62.96
21
      637.85
39
 0
62
 1
 0
LINE
8
default
6
CONTINUOUS
10
       62.96
20
      637.85
11
       65.29
21
      637.62
39
 0
62
 3
 0
LINE
8
default
6
CONTINUOUS
10
      -62.96
20
      637.85
11
      -65.29
21
      637.62
39
 0
62
 1
 0
LINE
8
default
6
CONTINUOUS
10
       65.29
20
      637.62
11
       67.61
21
      637.38
39
 0
62
 3
 0
LINE
8
default
6
CONTINUOUS
10
      -65.29
20
      637.62
11
      -67.61
21
      637.38
39
 0
62
 1
 0
LINE
8
default
6
CONTINUOUS
10
       67.61
20
      637.38
11
       69.93
21
      637.13
39
 0
62
 3
 0
LINE
8
default
6
CONTINUOUS
10
      -67.61
20
      637.38
11
      -69.93
21
      637.13
39
 0
62
 1
 0
LINE
8
default
6
CONTINUOUS
10
       69.93
20
      637.13
11
       72.25
21
      636.88
39
 0
62
 3
 0
LINE
8
default
6
CONTINUOUS
10
      -69.93
20
      637.13
11
      -72.25
21
      636.88
39
 0
62
 1
 0
LINE
8
default
6
CONTINUOUS
10
       72.25
20
      636.88
11
       74.57
21
      636.61
39
 0
62
 3
 0
LINE
8
default
6
CONTINUOUS
10
      -72.25
20
      636.88
11
      -74.57
21
      636.61
39
 0
62
 1
 0
LINE
8
default
6
CONTINUOUS
10
       74.57
20
      636.61
11
       76.89
21
      636.34
39
 0
62
 3
 0
LINE
8
default
6
CONTINUOUS
10
      -74.57
20
      636.61
11
      -76.89
21
      636.34
39
 0
62
 1
 0
LINE
8
default
6
CONTINUOUS
10
       76.89
20
      636.34
11
       79.21
21
      636.06
39
 0
62
 3
 0
LINE
8
default
6
CONTINUOUS
10
      -76.89
20
      636.34
11
      -79.21
21
      636.06
39
 0
62
 1
 0
LINE
8
default
6
CONTINUOUS
10
       79.21
20
      636.06
11
       81.53
21
      635.77
39
 0
62
 3
 0
LINE
8
default
6
CONTINUOUS
10
      -79.21
20
      636.06
11
      -81.53
21
      635.77
39
 0
62
 1
 0
LINE
8
default
6
CONTINUOUS
10
       81.53
20
      635.77
11
       83.85
21
      635.48
39
 0
62
 3
 0
LINE
8
default
6
CONTINUOUS
10
      -81.53
20
      635.77
11
      -83.85
21
      635.48
39
 0
62
 1
 0
LINE
8
default
6
CONTINUOUS
10
       83.85
20
      635.48
11
       86.16
21
      635.17
39
 0
62
 3
 0
LINE
8
default
6
CONTINUOUS
10
      -83.85
20
      635.48
11
      -86.16
21
      635.17
39
 0
62
 1
 0
LINE
8
default
6
CONTINUOUS
10
       86.16
20
      635.17
11
       88.48
21
      634.86
39
 0
62
 3
 0
LINE
8
default
6
CONTINUOUS
10
      -86.16
20
      635.17
11
      -88.48
21
      634.86
39
 0
62
 1
 0
LINE
8
default
6
CONTINUOUS
10
       88.48
20
      634.86
11
       90.79
21
      634.54
39
 0
62
 3
 0
LINE
8
default
6
CONTINUOUS
10
      -88.48
20
      634.86
11
      -90.79
21
      634.54
39
 0
62
 1
 0
LINE
8
default
6
CONTINUOUS
10
       90.79
20
      634.54
11
       93.10
21
      634.21
39
 0
62
 3
 0
LINE
8
default
6
CONTINUOUS
10
      -90.79
20
      634.54
11
      -93.10
21
      634.21
39
 0
62
 1
 0
LINE
8
default
6
CONTINUOUS
10
       93.10
20
      634.21
11
       95.41
21
      633.87
39
 0
62
 3
 0
LINE
8
default
6
CONTINUOUS
10
      -93.10
20
      634.21
11
      -95.41
21
      633.87
39
 0
62
 1
 0
LINE
8
default
6
CONTINUOUS
10
       95.41
20
      633.87
11
       97.72
21
      633.52
39
 0
62
 3
 0
LINE
8
default
6
CONTINUOUS
10
      -95.41
20
      633.87
11
      -97.72
21
      633.52
39
 0
62
 1
 0
LINE
8
default
6
CONTINUOUS
10
       97.72
20
      633.52
11
      100.03
21
      633.17
39
 0
62
 3
 0
LINE
8
default
6
CONTINUOUS
10
      -97.72
20
      633.52
11
     -100.03
21
      633.17
39
 0
62
 1
 0
LINE
8
default
6
CONTINUOUS
10
      100.03
20
      633.17
11
      102.34
21
      632.81
39
 0
62
 3
 0
LINE
8
default
6
CONTINUOUS
10
     -100.03
20
      633.17
11
     -102.34
21
      632.81
39
 0
62
 1
 0
LINE
8
default
6
CONTINUOUS
10
      102.34
20
      632.81
11
      104.65
21
      632.43
39
 0
62
 3
 0
LINE
8
default
6
CONTINUOUS
10
     -102.34
20
      632.81
11
     -104.65
21
      632.43
39
 0
62
 1
 0
LINE
8
default
6
CONTINUOUS
10
      104.65
20
      632.43
11
      106.95
21
      632.05
39
 0
62
 3
 0
LINE
8
default
6
CONTINUOUS
10
     -104.65
20
      632.43
11
     -106.95
21
      632.05
39
 0
62
 1
 0
LINE
8
default
6
CONTINUOUS
10
      106.95
20
      632.05
11
      109.25
21
      631.67
39
 0
62
 3
 0
LINE
8
default
6
CONTINUOUS
10
     -106.95
20
      632.05
11
     -109.25
21
      631.67
39
 0
62
 1
 0
LINE
8
default
6
CONTINUOUS
10
      109.25
20
      631.67
11
      111.56
21
      631.27
39
 0
62
 3
 0
LINE
8
default
6
CONTINUOUS
10
     -109.25
20
      631.67
11
     -111.56
21
      631.27
39
 0
62
 1
 0
LINE
8
default
6
CONTINUOUS
10
      111.56
20
      631.27
11
      113.86
21
      630.87
39
 0
62
 3
 0
LINE
8
default
6
CONTINUOUS
10
     -111.56
20
      631.27
11
     -113.86
21
      630.87
39
 0
62
 1
 0
LINE
8
default
6
CONTINUOUS
10
      113.86
20
      630.87
11
      116.15
21
      630.45
39
 0
62
 3
 0
LINE
8
default
6
CONTINUOUS
10
     -113.86
20
      630.87
11
     -116.15
21
      630.45
39
 0
62
 1
 0
LINE
8
default
6
CONTINUOUS
10
      116.15
20
      630.45
11
      118.45
21
      630.03
39
 0
62
 3
 0
LINE
8
default
6
CONTINUOUS
10
     -116.15
20
      630.45
11
     -118.45
21
      630.03
39
 0
62
 1
 0
LINE
8
default
6
CONTINUOUS
10
      118.45
20
      630.03
11
      120.75
21
      629.60
39
 0
62
 3
 0
LINE
8
default
6
CONTINUOUS
10
     -118.45
20
      630.03
11
     -120.75
21
      629.60
39
 0
62
 1
 0
LINE
8
default
6
CONTINUOUS
10
      120.75
20
      629.60
11
      123.04
21
      629.17
39
 0
62
 3
 0
LINE
8
default
6
CONTINUOUS
10
     -120.75
20
      629.60
11
     -123.04
21
      629.17
39
 0
62
 1
 0
LINE
8
default
6
CONTINUOUS
10
      123.04
20
      629.17
11
      125.33
21
      628.72
39
 0
62
 3
 0
LINE
8
default
6
CONTINUOUS
10
     -123.04
20
      629.17
11
     -125.33
21
      628.72
39
 0
62
 1
 0
LINE
8
default
6
CONTINUOUS
10
      125.33
20
      628.72
11
      127.63
21
      628.27
39
 0
62
 3
 0
LINE
8
default
6
CONTINUOUS
10
     -125.33
20
      628.72
11
     -127.63
21
      628.27
39
 0
62
 1
 0
LINE
8
default
6
CONTINUOUS
10
      127.63
20
      628.27
11
      129.91
21
      627.81
39
 0
62
 3
 0
LINE
8
default
6
CONTINUOUS
10
     -127.63
20
      628.27
11
     -129.91
21
      627.81
39
 0
62
 1
 0
LINE
8
default
6
CONTINUOUS
10
      129.91
20
      627.81
11
      132.20
21
      627.34
39
 0
62
 3
 0
LINE
8
default
6
CONTINUOUS
10
     -129.91
20
      627.81
11
     -132.20
21
      627.34
39
 0
62
 1
 0
LINE
8
default
6
CONTINUOUS
10
      132.20
20
      627.34
11
      134.49
21
      626.86
39
 0
62
 3
 0
LINE
8
default
6
CONTINUOUS
10
     -132.20
20
      627.34
11
     -134.49
21
      626.86
39
 0
62
 1
 0
LINE
8
default
6
CONTINUOUS
10
      134.49
20
      626.86
11
      136.77
21
      626.37
39
 0
62
 3
 0
LINE
8
default
6
CONTINUOUS
10
     -134.49
20
      626.86
11
     -136.77
21
      626.37
39
 0
62
 1
 0
LINE
8
default
6
CONTINUOUS
10
      136.77
20
      626.37
11
      139.06
21
      625.88
39
 0
62
 3
 0
LINE
8
default
6
CONTINUOUS
10
     -136.77
20
      626.37
11
     -139.06
21
      625.88
39
 0
62
 1
 0
LINE
8
default
6
CONTINUOUS
10
      139.06
20
      625.88
11
      141.34
21
      625.37
39
 0
62
 3
 0
LINE
8
default
6
CONTINUOUS
10
     -139.06
20
      625.88
11
     -141.34
21
      625.37
39
 0
62
 1
 0
LINE
8
default
6
CONTINUOUS
10
      141.34
20
      625.37
11
      143.62
21
      624.86
39
 0
62
 3
 0
LINE
8
default
6
CONTINUOUS
10
     -141.34
20
      625.37
11
     -143.62
21
      624.86
39
 0
62
 1
 0
LINE
8
default
6
CONTINUOUS
10
      143.62
20
      624.86
11
      145.89
21
      624.34
39
 0
62
 3
 0
LINE
8
default
6
CONTINUOUS
10
     -143.62
20
      624.86
11
     -145.89
21
      624.34
39
 0
62
 1
 0
LINE
8
default
6
CONTINUOUS
10
      145.89
20
      624.34
11
      148.17
21
      623.81
39
 0
62
 3
 0
LINE
8
default
6
CONTINUOUS
10
     -145.89
20
      624.34
11
     -148.17
21
      623.81
39
 0
62
 1
 0
LINE
8
default
6
CONTINUOUS
10
      148.17
20
      623.81
11
      150.44
21
      623.28
39
 0
62
 3
 0
LINE
8
default
6
CONTINUOUS
10
     -148.17
20
      623.81
11
     -150.44
21
      623.28
39
 0
62
 1
 0
LINE
8
default
6
CONTINUOUS
10
      150.44
20
      623.28
11
      152.71
21
      622.74
39
 0
62
 3
 0
LINE
8
default
6
CONTINUOUS
10
     -150.44
20
      623.28
11
     -152.71
21
      622.74
39
 0
62
 1
 0
LINE
8
default
6
CONTINUOUS
10
      152.71
20
      622.74
11
      154.98
21
      622.18
39
 0
62
 3
 0
LINE
8
default
6
CONTINUOUS
10
     -152.71
20
      622.74
11
     -154.98
21
      622.18
39
 0
62
 1
 0
LINE
8
default
6
CONTINUOUS
10
      154.98
20
      622.18
11
      157.25
21
      621.62
39
 0
62
 3
 0
LINE
8
default
6
CONTINUOUS
10
     -154.98
20
      622.18
11
     -157.25
21
      621.62
39
 0
62
 1
 0
LINE
8
default
6
CONTINUOUS
10
      157.25
20
      621.62
11
      159.51
21
      621.05
39
 0
62
 3
 0
LINE
8
default
6
CONTINUOUS
10
     -157.25
20
      621.62
11
     -159.51
21
      621.05
39
 0
62
 1
 0
LINE
8
default
6
CONTINUOUS
10
      159.51
20
      621.05
11
      161.78
21
      620.48
39
 0
62
 3
 0
LINE
8
default
6
CONTINUOUS
10
     -159.51
20
      621.05
11
     -161.78
21
      620.48
39
 0
62
 1
 0
LINE
8
default
6
CONTINUOUS
10
      161.78
20
      620.48
11
      164.04
21
      619.89
39
 0
62
 3
 0
LINE
8
default
6
CONTINUOUS
10
     -161.78
20
      620.48
11
     -164.04
21
      619.89
39
 0
62
 1
 0
LINE
8
default
6
CONTINUOUS
10
      164.04
20
      619.89
11
      166.30
21
      619.30
39
 0
62
 3
 0
LINE
8
default
6
CONTINUOUS
10
     -164.04
20
      619.89
11
     -166.30
21
      619.30
39
 0
62
 1
 0
LINE
8
default
6
CONTINUOUS
10
      166.30
20
      619.30
11
      168.56
21
      618.70
39
 0
62
 3
 0
LINE
8
default
6
CONTINUOUS
10
     -166.30
20
      619.30
11
     -168.56
21
      618.70
39
 0
62
 1
 0
LINE
8
default
6
CONTINUOUS
10
      168.56
20
      618.70
11
      170.81
21
      618.09
39
 0
62
 3
 0
LINE
8
default
6
CONTINUOUS
10
     -168.56
20
      618.70
11
     -170.81
21
      618.09
39
 0
62
 1
 0
LINE
8
default
6
CONTINUOUS
10
      170.81
20
      618.09
11
      173.06
21
      617.48
39
 0
62
 3
 0
LINE
8
default
6
CONTINUOUS
10
     -170.81
20
      618.09
11
     -173.06
21
      617.48
39
 0
62
 1
 0
LINE
8
default
6
CONTINUOUS
10
      173.06
20
      617.48
11
      175.31
21
      616.85
39
 0
62
 3
 0
LINE
8
default
6
CONTINUOUS
10
     -173.06
20
      617.48
11
     -175.31
21
      616.85
39
 0
62
 1
 0
LINE
8
default
6
CONTINUOUS
10
      175.31
20
      616.85
11
      177.56
21
      616.22
39
 0
62
 3
 0
LINE
8
default
6
CONTINUOUS
10
     -175.31
20
      616.85
11
     -177.56
21
      616.22
39
 0
62
 1
 0
LINE
8
default
6
CONTINUOUS
10
      177.56
20
      616.22
11
      179.81
21
      615.58
39
 0
62
 3
 0
LINE
8
default
6
CONTINUOUS
10
     -177.56
20
      616.22
11
     -179.81
21
      615.58
39
 0
62
 1
 0
LINE
8
default
6
CONTINUOUS
10
      179.81
20
      615.58
11
      182.05
21
      614.93
39
 0
62
 3
 0
LINE
8
default
6
CONTINUOUS
10
     -179.81
20
      615.58
11
     -182.05
21
      614.93
39
 0
62
 1
 0
LINE
8
default
6
CONTINUOUS
10
      182.05
20
      614.93
11
      184.29
21
      614.27
39
 0
62
 3
 0
LINE
8
default
6
CONTINUOUS
10
     -182.05
20
      614.93
11
     -184.29
21
      614.27
39
 0
62
 1
 0
LINE
8
default
6
CONTINUOUS
10
      184.29
20
      614.27
11
      186.53
21
      613.60
39
 0
62
 3
 0
LINE
8
default
6
CONTINUOUS
10
     -184.29
20
      614.27
11
     -186.53
21
      613.60
39
 0
62
 1
 0
LINE
8
default
6
CONTINUOUS
10
      186.53
20
      613.60
11
      188.77
21
      612.93
39
 0
62
 3
 0
LINE
8
default
6
CONTINUOUS
10
     -186.53
20
      613.60
11
     -188.77
21
      612.93
39
 0
62
 1
 0
LINE
8
default
6
CONTINUOUS
10
      188.77
20
      612.93
11
      191.00
21
      612.25
39
 0
62
 3
 0
LINE
8
default
6
CONTINUOUS
10
     -188.77
20
      612.93
11
     -191.00
21
      612.25
39
 0
62
 1
 0
LINE
8
default
6
CONTINUOUS
10
      191.00
20
      612.25
11
      193.23
21
      611.56
39
 0
62
 3
 0
LINE
8
default
6
CONTINUOUS
10
     -191.00
20
      612.25
11
     -193.23
21
      611.56
39
 0
62
 1
 0
LINE
8
default
6
CONTINUOUS
10
      193.23
20
      611.56
11
      195.46
21
      610.86
39
 0
62
 3
 0
LINE
8
default
6
CONTINUOUS
10
     -193.23
20
      611.56
11
     -195.46
21
      610.86
39
 0
62
 1
 0
LINE
8
default
6
CONTINUOUS
10
      195.46
20
      610.86
11
      197.69
21
      610.16
39
 0
62
 3
 0
LINE
8
default
6
CONTINUOUS
10
     -195.46
20
      610.86
11
     -197.69
21
      610.16
39
 0
62
 1
 0
LINE
8
default
6
CONTINUOUS
10
      197.69
20
      610.16
11
      199.91
21
      609.45
39
 0
62
 3
 0
LINE
8
default
6
CONTINUOUS
10
     -197.69
20
      610.16
11
     -199.91
21
      609.45
39
 0
62
 1
 0
LINE
8
default
6
CONTINUOUS
10
      199.91
20
      609.45
11
      202.13
21
      608.72
39
 0
62
 3
 0
LINE
8
default
6
CONTINUOUS
10
     -199.91
20
      609.45
11
     -202.13
21
      608.72
39
 0
62
 1
 0
LINE
8
default
6
CONTINUOUS
10
      202.13
20
      608.72
11
      204.35
21
      608.00
39
 0
62
 3
 0
LINE
8
default
6
CONTINUOUS
10
     -202.13
20
      608.72
11
     -204.35
21
      608.00
39
 0
62
 1
 0
LINE
8
default
6
CONTINUOUS
10
      204.35
20
      608.00
11
      206.57
21
      607.26
39
 0
62
 3
 0
LINE
8
default
6
CONTINUOUS
10
     -204.35
20
      608.00
11
     -206.57
21
      607.26
39
 0
62
 1
 0
LINE
8
default
6
CONTINUOUS
10
      206.57
20
      607.26
11
      208.78
21
      606.51
39
 0
62
 3
 0
LINE
8
default
6
CONTINUOUS
10
     -206.57
20
      607.26
11
     -208.78
21
      606.51
39
 0
62
 1
 0
LINE
8
default
6
CONTINUOUS
10
      208.78
20
      606.51
11
      210.99
21
      605.76
39
 0
62
 3
 0
LINE
8
default
6
CONTINUOUS
10
     -208.78
20
      606.51
11
     -210.99
21
      605.76
39
 0
62
 1
 0
LINE
8
default
6
CONTINUOUS
10
      210.99
20
      605.76
11
      213.20
21
      605.00
39
 0
62
 3
 0
LINE
8
default
6
CONTINUOUS
10
     -210.99
20
      605.76
11
     -213.20
21
      605.00
39
 0
62
 1
 0
LINE
8
default
6
CONTINUOUS
10
      213.20
20
      605.00
11
      215.41
21
      604.23
39
 0
62
 3
 0
LINE
8
default
6
CONTINUOUS
10
     -213.20
20
      605.00
11
     -215.41
21
      604.23
39
 0
62
 1
 0
LINE
8
default
6
CONTINUOUS
10
      215.41
20
      604.23
11
      217.61
21
      603.45
39
 0
62
 3
 0
LINE
8
default
6
CONTINUOUS
10
     -215.41
20
      604.23
11
     -217.61
21
      603.45
39
 0
62
 1
 0
LINE
8
default
6
CONTINUOUS
10
      217.61
20
      603.45
11
      219.81
21
      602.67
39
 0
62
 3
 0
LINE
8
default
6
CONTINUOUS
10
     -217.61
20
      603.45
11
     -219.81
21
      602.67
39
 0
62
 1
 0
LINE
8
default
6
CONTINUOUS
10
      219.81
20
      602.67
11
      222.01
21
      601.88
39
 0
62
 3
 0
LINE
8
default
6
CONTINUOUS
10
     -219.81
20
      602.67
11
     -222.01
21
      601.88
39
 0
62
 1
 0
LINE
8
default
6
CONTINUOUS
10
      222.01
20
      601.88
11
      224.20
21
      601.08
39
 0
62
 3
 0
LINE
8
default
6
CONTINUOUS
10
     -222.01
20
      601.88
11
     -224.20
21
      601.08
39
 0
62
 1
 0
LINE
8
default
6
CONTINUOUS
10
      224.20
20
      601.08
11
      226.39
21
      600.27
39
 0
62
 3
 0
LINE
8
default
6
CONTINUOUS
10
     -224.20
20
      601.08
11
     -226.39
21
      600.27
39
 0
62
 1
 0
LINE
8
default
6
CONTINUOUS
10
      226.39
20
      600.27
11
      228.12
21
      599.62
39
 0
62
 3
 0
LINE
8
default
6
CONTINUOUS
10
     -226.39
20
      600.27
11
     -228.12
21
      599.62
39
 0
62
 1
 0
LINE
8
default
6
CONTINUOUS
10
      228.12
20
      599.62
11
      229.84
21
      598.98
39
 0
62
 3
 0
LINE
8
default
6
CONTINUOUS
10
     -228.12
20
      599.62
11
     -229.84
21
      598.98
39
 0
62
 1
 0
LINE
8
default
6
CONTINUOUS
10
      229.84
20
      598.98
11
      231.56
21
      598.32
39
 0
62
 3
 0
LINE
8
default
6
CONTINUOUS
10
     -229.84
20
      598.98
11
     -231.56
21
      598.32
39
 0
62
 1
 0
LINE
8
default
6
CONTINUOUS
10
      231.56
20
      598.32
11
      233.27
21
      597.66
39
 0
62
 3
 0
LINE
8
default
6
CONTINUOUS
10
     -231.56
20
      598.32
11
     -233.27
21
      597.66
39
 0
62
 1
 0
LINE
8
default
6
CONTINUOUS
10
      233.27
20
      597.66
11
      234.99
21
      596.99
39
 0
62
 3
 0
LINE
8
default
6
CONTINUOUS
10
     -233.27
20
      597.66
11
     -234.99
21
      596.99
39
 0
62
 1
 0
LINE
8
default
6
CONTINUOUS
10
      234.99
20
      596.99
11
      236.70
21
      596.31
39
 0
62
 3
 0
LINE
8
default
6
CONTINUOUS
10
     -234.99
20
      596.99
11
     -236.70
21
      596.31
39
 0
62
 1
 0
LINE
8
default
6
CONTINUOUS
10
      236.70
20
      596.31
11
      238.40
21
      595.63
39
 0
62
 3
 0
LINE
8
default
6
CONTINUOUS
10
     -236.70
20
      596.31
11
     -238.40
21
      595.63
39
 0
62
 1
 0
LINE
8
default
6
CONTINUOUS
10
      238.40
20
      595.63
11
      240.11
21
      594.94
39
 0
62
 3
 0
LINE
8
default
6
CONTINUOUS
10
     -238.40
20
      595.63
11
     -240.11
21
      594.94
39
 0
62
 1
 0
LINE
8
default
6
CONTINUOUS
10
      240.11
20
      594.94
11
      241.81
21
      594.25
39
 0
62
 3
 0
LINE
8
default
6
CONTINUOUS
10
     -240.11
20
      594.94
11
     -241.81
21
      594.25
39
 0
62
 1
 0
LINE
8
default
6
CONTINUOUS
10
      241.81
20
      594.25
11
      243.51
21
      593.55
39
 0
62
 3
 0
LINE
8
default
6
CONTINUOUS
10
     -241.81
20
      594.25
11
     -243.51
21
      593.55
39
 0
62
 1
 0
LINE
8
default
6
CONTINUOUS
10
      243.51
20
      593.55
11
      245.21
21
      592.84
39
 0
62
 3
 0
LINE
8
default
6
CONTINUOUS
10
     -243.51
20
      593.55
11
     -245.21
21
      592.84
39
 0
62
 1
 0
LINE
8
default
6
CONTINUOUS
10
      245.21
20
      592.84
11
      246.91
21
      592.13
39
 0
62
 3
 0
LINE
8
default
6
CONTINUOUS
10
     -245.21
20
      592.84
11
     -246.91
21
      592.13
39
 0
62
 1
 0
LINE
8
default
6
CONTINUOUS
10
      246.91
20
      592.13
11
      248.60
21
      591.41
39
 0
62
 3
 0
LINE
8
default
6
CONTINUOUS
10
     -246.91
20
      592.13
11
     -248.60
21
      591.41
39
 0
62
 1
 0
LINE
8
default
6
CONTINUOUS
10
      248.60
20
      591.41
11
      250.29
21
      590.68
39
 0
62
 3
 0
LINE
8
default
6
CONTINUOUS
10
     -248.60
20
      591.41
11
     -250.29
21
      590.68
39
 0
62
 1
 0
LINE
8
default
6
CONTINUOUS
10
      250.29
20
      590.68
11
      251.98
21
      589.95
39
 0
62
 3
 0
LINE
8
default
6
CONTINUOUS
10
     -250.29
20
      590.68
11
     -251.98
21
      589.95
39
 0
62
 1
 0
LINE
8
default
6
CONTINUOUS
10
      251.98
20
      589.95
11
      253.66
21
      589.21
39
 0
62
 3
 0
LINE
8
default
6
CONTINUOUS
10
     -251.98
20
      589.95
11
     -253.66
21
      589.21
39
 0
62
 1
 0
LINE
8
default
6
CONTINUOUS
10
      253.66
20
      589.21
11
      255.34
21
      588.46
39
 0
62
 3
 0
LINE
8
default
6
CONTINUOUS
10
     -253.66
20
      589.21
11
     -255.34
21
      588.46
39
 0
62
 1
 0
LINE
8
default
6
CONTINUOUS
10
      255.34
20
      588.46
11
      257.02
21
      587.71
39
 0
62
 3
 0
LINE
8
default
6
CONTINUOUS
10
     -255.34
20
      588.46
11
     -257.02
21
      587.71
39
 0
62
 1
 0
LINE
8
default
6
CONTINUOUS
10
      257.02
20
      587.71
11
      258.70
21
      586.95
39
 0
62
 3
 0
LINE
8
default
6
CONTINUOUS
10
     -257.02
20
      587.71
11
     -258.70
21
      586.95
39
 0
62
 1
 0
LINE
8
default
6
CONTINUOUS
10
      258.70
20
      586.95
11
      260.37
21
      586.19
39
 0
62
 3
 0
LINE
8
default
6
CONTINUOUS
10
     -258.70
20
      586.95
11
     -260.37
21
      586.19
39
 0
62
 1
 0
LINE
8
default
6
CONTINUOUS
10
      260.37
20
      586.19
11
      262.04
21
      585.42
39
 0
62
 3
 0
LINE
8
default
6
CONTINUOUS
10
     -260.37
20
      586.19
11
     -262.04
21
      585.42
39
 0
62
 1
 0
LINE
8
default
6
CONTINUOUS
10
      262.04
20
      585.42
11
      263.71
21
      584.64
39
 0
62
 3
 0
LINE
8
default
6
CONTINUOUS
10
     -262.04
20
      585.42
11
     -263.71
21
      584.64
39
 0
62
 1
 0
LINE
8
default
6
CONTINUOUS
10
      263.71
20
      584.64
11
      265.37
21
      583.86
39
 0
62
 3
 0
LINE
8
default
6
CONTINUOUS
10
     -263.71
20
      584.64
11
     -265.37
21
      583.86
39
 0
62
 1
 0
LINE
8
default
6
CONTINUOUS
10
      265.37
20
      583.86
11
      267.03
21
      583.07
39
 0
62
 3
 0
LINE
8
default
6
CONTINUOUS
10
     -265.37
20
      583.86
11
     -267.03
21
      583.07
39
 0
62
 1
 0
LINE
8
default
6
CONTINUOUS
10
      267.03
20
      583.07
11
      268.69
21
      582.27
39
 0
62
 3
 0
LINE
8
default
6
CONTINUOUS
10
     -267.03
20
      583.07
11
     -268.69
21
      582.27
39
 0
62
 1
 0
LINE
8
default
6
CONTINUOUS
10
      268.69
20
      582.27
11
      270.35
21
      581.47
39
 0
62
 3
 0
LINE
8
default
6
CONTINUOUS
10
     -268.69
20
      582.27
11
     -270.35
21
      581.47
39
 0
62
 1
 0
LINE
8
default
6
CONTINUOUS
10
      270.35
20
      581.47
11
      272.00
21
      580.66
39
 0
62
 3
 0
LINE
8
default
6
CONTINUOUS
10
     -270.35
20
      581.47
11
     -272.00
21
      580.66
39
 0
62
 1
 0
LINE
8
default
6
CONTINUOUS
10
      272.00
20
      580.66
11
      273.65
21
      579.85
39
 0
62
 3
 0
LINE
8
default
6
CONTINUOUS
10
     -272.00
20
      580.66
11
     -273.65
21
      579.85
39
 0
62
 1
 0
LINE
8
default
6
CONTINUOUS
10
      273.65
20
      579.85
11
      275.29
21
      579.02
39
 0
62
 3
 0
LINE
8
default
6
CONTINUOUS
10
     -273.65
20
      579.85
11
     -275.29
21
      579.02
39
 0
62
 1
 0
LINE
8
default
6
CONTINUOUS
10
      275.29
20
      579.02
11
      276.94
21
      578.20
39
 0
62
 3
 0
LINE
8
default
6
CONTINUOUS
10
     -275.29
20
      579.02
11
     -276.94
21
      578.20
39
 0
62
 1
 0
LINE
8
default
6
CONTINUOUS
10
      276.94
20
      578.20
11
      278.58
21
      577.36
39
 0
62
 3
 0
LINE
8
default
6
CONTINUOUS
10
     -276.94
20
      578.20
11
     -278.58
21
      577.36
39
 0
62
 1
 0
LINE
8
default
6
CONTINUOUS
10
      278.58
20
      577.36
11
      280.21
21
      576.53
39
 0
62
 3
 0
LINE
8
default
6
CONTINUOUS
10
     -278.58
20
      577.36
11
     -280.21
21
      576.53
39
 0
62
 1
 0
LINE
8
default
6
CONTINUOUS
10
      280.21
20
      576.53
11
      281.85
21
      575.68
39
 0
62
 3
 0
LINE
8
default
6
CONTINUOUS
10
     -280.21
20
      576.53
11
     -281.85
21
      575.68
39
 0
62
 1
 0
LINE
8
default
6
CONTINUOUS
10
      281.85
20
      575.68
11
      283.48
21
      574.83
39
 0
62
 3
 0
LINE
8
default
6
CONTINUOUS
10
     -281.85
20
      575.68
11
     -283.48
21
      574.83
39
 0
62
 1
 0
LINE
8
default
6
CONTINUOUS
10
      283.48
20
      574.83
11
      285.11
21
      573.97
39
 0
62
 3
 0
LINE
8
default
6
CONTINUOUS
10
     -283.48
20
      574.83
11
     -285.11
21
      573.97
39
 0
62
 1
 0
LINE
8
default
6
CONTINUOUS
10
      285.11
20
      573.97
11
      286.73
21
      573.11
39
 0
62
 3
 0
LINE
8
default
6
CONTINUOUS
10
     -285.11
20
      573.97
11
     -286.73
21
      573.11
39
 0
62
 1
 0
LINE
8
default
6
CONTINUOUS
10
      286.73
20
      573.11
11
      288.35
21
      572.24
39
 0
62
 3
 0
LINE
8
default
6
CONTINUOUS
10
     -286.73
20
      573.11
11
     -288.35
21
      572.24
39
 0
62
 1
 0
LINE
8
default
6
CONTINUOUS
10
      288.35
20
      572.24
11
      289.97
21
      571.36
39
 0
62
 3
 0
LINE
8
default
6
CONTINUOUS
10
     -288.35
20
      572.24
11
     -289.97
21
      571.36
39
 0
62
 1
 0
LINE
8
default
6
CONTINUOUS
10
      289.97
20
      571.36
11
      291.58
21
      570.48
39
 0
62
 3
 0
LINE
8
default
6
CONTINUOUS
10
     -289.97
20
      571.36
11
     -291.58
21
      570.48
39
 0
62
 1
 0
LINE
8
default
6
CONTINUOUS
10
      291.58
20
      570.48
11
      293.19
21
      569.59
39
 0
62
 3
 0
LINE
8
default
6
CONTINUOUS
10
     -291.58
20
      570.48
11
     -293.19
21
      569.59
39
 0
62
 1
 0
LINE
8
default
6
CONTINUOUS
10
      293.19
20
      569.59
11
      294.80
21
      568.70
39
 0
62
 3
 0
LINE
8
default
6
CONTINUOUS
10
     -293.19
20
      569.59
11
     -294.80
21
      568.70
39
 0
62
 1
 0
LINE
8
default
6
CONTINUOUS
10
      294.80
20
      568.70
11
      296.40
21
      567.80
39
 0
62
 3
 0
LINE
8
default
6
CONTINUOUS
10
     -294.80
20
      568.70
11
     -296.40
21
      567.80
39
 0
62
 1
 0
LINE
8
default
6
CONTINUOUS
10
      296.40
20
      567.80
11
      298.00
21
      566.89
39
 0
62
 3
 0
LINE
8
default
6
CONTINUOUS
10
     -296.40
20
      567.80
11
     -298.00
21
      566.89
39
 0
62
 1
 0
LINE
8
default
6
CONTINUOUS
10
      298.00
20
      566.89
11
      299.60
21
      565.98
39
 0
62
 3
 0
LINE
8
default
6
CONTINUOUS
10
     -298.00
20
      566.89
11
     -299.60
21
      565.98
39
 0
62
 1
 0
LINE
8
default
6
CONTINUOUS
10
      299.60
20
      565.98
11
      301.20
21
      565.06
39
 0
62
 3
 0
LINE
8
default
6
CONTINUOUS
10
     -299.60
20
      565.98
11
     -301.20
21
      565.06
39
 0
62
 1
 0
LINE
8
default
6
CONTINUOUS
10
      301.20
20
      565.06
11
      302.79
21
      564.13
39
 0
62
 3
 0
LINE
8
default
6
CONTINUOUS
10
     -301.20
20
      565.06
11
     -302.79
21
      564.13
39
 0
62
 1
 0
LINE
8
default
6
CONTINUOUS
10
      302.79
20
      564.13
11
      304.37
21
      563.20
39
 0
62
 3
 0
LINE
8
default
6
CONTINUOUS
10
     -302.79
20
      564.13
11
     -304.37
21
      563.20
39
 0
62
 1
 0
LINE
8
default
6
CONTINUOUS
10
      304.37
20
      563.20
11
      305.96
21
      562.27
39
 0
62
 3
 0
LINE
8
default
6
CONTINUOUS
10
     -304.37
20
      563.20
11
     -305.96
21
      562.27
39
 0
62
 1
 0
LINE
8
default
6
CONTINUOUS
10
      305.96
20
      562.27
11
      307.54
21
      561.32
39
 0
62
 3
 0
LINE
8
default
6
CONTINUOUS
10
     -305.96
20
      562.27
11
     -307.54
21
      561.32
39
 0
62
 1
 0
LINE
8
default
6
CONTINUOUS
10
      307.54
20
      561.32
11
      309.11
21
      560.38
39
 0
62
 3
 0
LINE
8
default
6
CONTINUOUS
10
     -307.54
20
      561.32
11
     -309.11
21
      560.38
39
 0
62
 1
 0
LINE
8
default
6
CONTINUOUS
10
      309.11
20
      560.38
11
      310.68
21
      559.42
39
 0
62
 3
 0
LINE
8
default
6
CONTINUOUS
10
     -309.11
20
      560.38
11
     -310.68
21
      559.42
39
 0
62
 1
 0
LINE
8
default
6
CONTINUOUS
10
      310.68
20
      559.42
11
      312.25
21
      558.46
39
 0
62
 3
 0
LINE
8
default
6
CONTINUOUS
10
     -310.68
20
      559.42
11
     -312.25
21
      558.46
39
 0
62
 1
 0
LINE
8
default
6
CONTINUOUS
10
      312.25
20
      558.46
11
      313.82
21
      557.50
39
 0
62
 3
 0
LINE
8
default
6
CONTINUOUS
10
     -312.25
20
      558.46
11
     -313.82
21
      557.50
39
 0
62
 1
 0
LINE
8
default
6
CONTINUOUS
10
      313.82
20
      557.50
11
      315.38
21
      556.52
39
 0
62
 3
 0
LINE
8
default
6
CONTINUOUS
10
     -313.82
20
      557.50
11
     -315.38
21
      556.52
39
 0
62
 1
 0
LINE
8
default
6
CONTINUOUS
10
      315.38
20
      556.52
11
      316.94
21
      555.55
39
 0
62
 3
 0
LINE
8
default
6
CONTINUOUS
10
     -315.38
20
      556.52
11
     -316.94
21
      555.55
39
 0
62
 1
 0
LINE
8
default
6
CONTINUOUS
10
      316.94
20
      555.55
11
      318.49
21
      554.56
39
 0
62
 3
 0
LINE
8
default
6
CONTINUOUS
10
     -316.94
20
      555.55
11
     -318.49
21
      554.56
39
 0
62
 1
 0
LINE
8
default
6
CONTINUOUS
10
      318.49
20
      554.56
11
      320.04
21
      553.57
39
 0
62
 3
 0
LINE
8
default
6
CONTINUOUS
10
     -318.49
20
      554.56
11
     -320.04
21
      553.57
39
 0
62
 1
 0
LINE
8
default
6
CONTINUOUS
10
      320.04
20
      553.57
11
      321.59
21
      552.58
39
 0
62
 3
 0
LINE
8
default
6
CONTINUOUS
10
     -320.04
20
      553.57
11
     -321.59
21
      552.58
39
 0
62
 1
 0
LINE
8
default
6
CONTINUOUS
10
      321.59
20
      552.58
11
      323.13
21
      551.58
39
 0
62
 3
 0
LINE
8
default
6
CONTINUOUS
10
     -321.59
20
      552.58
11
     -323.13
21
      551.58
39
 0
62
 1
 0
LINE
8
default
6
CONTINUOUS
10
      323.13
20
      551.58
11
      324.67
21
      550.57
39
 0
62
 3
 0
LINE
8
default
6
CONTINUOUS
10
     -323.13
20
      551.58
11
     -324.67
21
      550.57
39
 0
62
 1
 0
LINE
8
default
6
CONTINUOUS
10
      324.67
20
      550.57
11
      326.21
21
      549.56
39
 0
62
 3
 0
LINE
8
default
6
CONTINUOUS
10
     -324.67
20
      550.57
11
     -326.21
21
      549.56
39
 0
62
 1
 0
LINE
8
default
6
CONTINUOUS
10
      326.21
20
      549.56
11
      327.74
21
      548.54
39
 0
62
 3
 0
LINE
8
default
6
CONTINUOUS
10
     -326.21
20
      549.56
11
     -327.74
21
      548.54
39
 0
62
 1
 0
LINE
8
default
6
CONTINUOUS
10
      327.74
20
      548.54
11
      329.27
21
      547.51
39
 0
62
 3
 0
LINE
8
default
6
CONTINUOUS
10
     -327.74
20
      548.54
11
     -329.27
21
      547.51
39
 0
62
 1
 0
LINE
8
default
6
CONTINUOUS
10
      329.27
20
      547.51
11
      330.79
21
      546.48
39
 0
62
 3
 0
LINE
8
default
6
CONTINUOUS
10
     -329.27
20
      547.51
11
     -330.79
21
      546.48
39
 0
62
 1
 0
LINE
8
default
6
CONTINUOUS
10
      330.79
20
      546.48
11
      332.31
21
      545.45
39
 0
62
 3
 0
LINE
8
default
6
CONTINUOUS
10
     -330.79
20
      546.48
11
     -332.31
21
      545.45
39
 0
62
 1
 0
LINE
8
default
6
CONTINUOUS
10
      332.31
20
      545.45
11
      333.83
21
      544.41
39
 0
62
 3
 0
LINE
8
default
6
CONTINUOUS
10
     -332.31
20
      545.45
11
     -333.83
21
      544.41
39
 0
62
 1
 0
LINE
8
default
6
CONTINUOUS
10
      333.83
20
      544.41
11
      335.34
21
      543.36
39
 0
62
 3
 0
LINE
8
default
6
CONTINUOUS
10
     -333.83
20
      544.41
11
     -335.34
21
      543.36
39
 0
62
 1
 0
LINE
8
default
6
CONTINUOUS
10
      335.34
20
      543.36
11
      336.85
21
      542.31
39
 0
62
 3
 0
LINE
8
default
6
CONTINUOUS
10
     -335.34
20
      543.36
11
     -336.85
21
      542.31
39
 0
62
 1
 0
LINE
8
default
6
CONTINUOUS
10
      336.85
20
      542.31
11
      338.35
21
      541.25
39
 0
62
 3
 0
LINE
8
default
6
CONTINUOUS
10
     -336.85
20
      542.31
11
     -338.35
21
      541.25
39
 0
62
 1
 0
LINE
8
default
6
CONTINUOUS
10
      338.35
20
      541.25
11
      339.85
21
      540.18
39
 0
62
 3
 0
LINE
8
default
6
CONTINUOUS
10
     -338.35
20
      541.25
11
     -339.85
21
      540.18
39
 0
62
 1
 0
LINE
8
default
6
CONTINUOUS
10
      339.85
20
      540.18
11
      341.35
21
      539.11
39
 0
62
 3
 0
LINE
8
default
6
CONTINUOUS
10
     -339.85
20
      540.18
11
     -341.35
21
      539.11
39
 0
62
 1
 0
LINE
8
default
6
CONTINUOUS
10
      341.35
20
      539.11
11
      342.84
21
      538.04
39
 0
62
 3
 0
LINE
8
default
6
CONTINUOUS
10
     -341.35
20
      539.11
11
     -342.84
21
      538.04
39
 0
62
 1
 0
LINE
8
default
6
CONTINUOUS
10
      342.84
20
      538.04
11
      344.33
21
      536.96
39
 0
62
 3
 0
LINE
8
default
6
CONTINUOUS
10
     -342.84
20
      538.04
11
     -344.33
21
      536.96
39
 0
62
 1
 0
LINE
8
default
6
CONTINUOUS
10
      344.33
20
      536.96
11
      345.81
21
      535.87
39
 0
62
 3
 0
LINE
8
default
6
CONTINUOUS
10
     -344.33
20
      536.96
11
     -345.81
21
      535.87
39
 0
62
 1
 0
LINE
8
default
6
CONTINUOUS
10
      345.81
20
      535.87
11
      347.29
21
      534.78
39
 0
62
 3
 0
LINE
8
default
6
CONTINUOUS
10
     -345.81
20
      535.87
11
     -347.29
21
      534.78
39
 0
62
 1
 0
LINE
8
default
6
CONTINUOUS
10
      347.29
20
      534.78
11
      348.77
21
      533.68
39
 0
62
 3
 0
LINE
8
default
6
CONTINUOUS
10
     -347.29
20
      534.78
11
     -348.77
21
      533.68
39
 0
62
 1
 0
LINE
8
default
6
CONTINUOUS
10
      348.77
20
      533.68
11
      350.24
21
      532.58
39
 0
62
 3
 0
LINE
8
default
6
CONTINUOUS
10
     -348.77
20
      533.68
11
     -350.24
21
      532.58
39
 0
62
 1
 0
LINE
8
default
6
CONTINUOUS
10
      350.24
20
      532.58
11
      351.71
21
      531.47
39
 0
62
 3
 0
LINE
8
default
6
CONTINUOUS
10
     -350.24
20
      532.58
11
     -351.71
21
      531.47
39
 0
62
 1
 0
LINE
8
default
6
CONTINUOUS
10
      351.71
20
      531.47
11
      353.17
21
      530.35
39
 0
62
 3
 0
LINE
8
default
6
CONTINUOUS
10
     -351.71
20
      531.47
11
     -353.17
21
      530.35
39
 0
62
 1
 0
LINE
8
default
6
CONTINUOUS
10
      353.17
20
      530.35
11
      354.63
21
      529.23
39
 0
62
 3
 0
LINE
8
default
6
CONTINUOUS
10
     -353.17
20
      530.35
11
     -354.63
21
      529.23
39
 0
62
 1
 0
LINE
8
default
6
CONTINUOUS
10
      354.63
20
      529.23
11
      356.09
21
      528.11
39
 0
62
 3
 0
LINE
8
default
6
CONTINUOUS
10
     -354.63
20
      529.23
11
     -356.09
21
      528.11
39
 0
62
 1
 0
LINE
8
default
6
CONTINUOUS
10
      356.09
20
      528.11
11
      357.54
21
      526.98
39
 0
62
 3
 0
LINE
8
default
6
CONTINUOUS
10
     -356.09
20
      528.11
11
     -357.54
21
      526.98
39
 0
62
 1
 0
LINE
8
default
6
CONTINUOUS
10
      357.54
20
      526.98
11
      358.98
21
      525.84
39
 0
62
 3
 0
LINE
8
default
6
CONTINUOUS
10
     -357.54
20
      526.98
11
     -358.98
21
      525.84
39
 0
62
 1
 0
LINE
8
default
6
CONTINUOUS
10
      358.98
20
      525.84
11
      360.42
21
      524.70
39
 0
62
 3
 0
LINE
8
default
6
CONTINUOUS
10
     -358.98
20
      525.84
11
     -360.42
21
      524.70
39
 0
62
 1
 0
LINE
8
default
6
CONTINUOUS
10
      360.42
20
      524.70
11
      361.86
21
      523.55
39
 0
62
 3
 0
LINE
8
default
6
CONTINUOUS
10
     -360.42
20
      524.70
11
     -361.86
21
      523.55
39
 0
62
 1
 0
LINE
8
default
6
CONTINUOUS
10
      361.86
20
      523.55
11
      363.30
21
      522.40
39
 0
62
 3
 0
LINE
8
default
6
CONTINUOUS
10
     -361.86
20
      523.55
11
     -363.30
21
      522.40
39
 0
62
 1
 0
LINE
8
default
6
CONTINUOUS
10
      363.30
20
      522.40
11
      364.73
21
      521.24
39
 0
62
 3
 0
LINE
8
default
6
CONTINUOUS
10
     -363.30
20
      522.40
11
     -364.73
21
      521.24
39
 0
62
 1
 0
LINE
8
default
6
CONTINUOUS
10
      364.73
20
      521.24
11
      366.15
21
      520.08
39
 0
62
 3
 0
LINE
8
default
6
CONTINUOUS
10
     -364.73
20
      521.24
11
     -366.15
21
      520.08
39
 0
62
 1
 0
LINE
8
default
6
CONTINUOUS
10
      366.15
20
      520.08
11
      367.57
21
      518.91
39
 0
62
 3
 0
LINE
8
default
6
CONTINUOUS
10
     -366.15
20
      520.08
11
     -367.57
21
      518.91
39
 0
62
 1
 0
LINE
8
default
6
CONTINUOUS
10
      367.57
20
      518.91
11
      368.99
21
      517.73
39
 0
62
 3
 0
LINE
8
default
6
CONTINUOUS
10
     -367.57
20
      518.91
11
     -368.99
21
      517.73
39
 0
62
 1
 0
LINE
8
default
6
CONTINUOUS
10
      368.99
20
      517.73
11
      370.40
21
      516.55
39
 0
62
 3
 0
LINE
8
default
6
CONTINUOUS
10
     -368.99
20
      517.73
11
     -370.40
21
      516.55
39
 0
62
 1
 0
LINE
8
default
6
CONTINUOUS
10
      370.40
20
      516.55
11
      371.80
21
      515.37
39
 0
62
 3
 0
LINE
8
default
6
CONTINUOUS
10
     -370.40
20
      516.55
11
     -371.80
21
      515.37
39
 0
62
 1
 0
LINE
8
default
6
CONTINUOUS
10
      371.80
20
      515.37
11
      373.21
21
      514.18
39
 0
62
 3
 0
LINE
8
default
6
CONTINUOUS
10
     -371.80
20
      515.37
11
     -373.21
21
      514.18
39
 0
62
 1
 0
LINE
8
default
6
CONTINUOUS
10
      373.21
20
      514.18
11
      374.61
21
      512.98
39
 0
62
 3
 0
LINE
8
default
6
CONTINUOUS
10
     -373.21
20
      514.18
11
     -374.61
21
      512.98
39
 0
62
 1
 0
LINE
8
default
6
CONTINUOUS
10
      374.61
20
      512.98
11
      376.00
21
      511.78
39
 0
62
 3
 0
LINE
8
default
6
CONTINUOUS
10
     -374.61
20
      512.98
11
     -376.00
21
      511.78
39
 0
62
 1
 0
LINE
8
default
6
CONTINUOUS
10
      376.00
20
      511.78
11
      377.39
21
      510.58
39
 0
62
 3
 0
LINE
8
default
6
CONTINUOUS
10
     -376.00
20
      511.78
11
     -377.39
21
      510.58
39
 0
62
 1
 0
LINE
8
default
6
CONTINUOUS
10
      377.39
20
      510.58
11
      378.77
21
      509.37
39
 0
62
 3
 0
LINE
8
default
6
CONTINUOUS
10
     -377.39
20
      510.58
11
     -378.77
21
      509.37
39
 0
62
 1
 0
LINE
8
default
6
CONTINUOUS
10
      378.77
20
      509.37
11
      380.15
21
      508.15
39
 0
62
 3
 0
LINE
8
default
6
CONTINUOUS
10
     -378.77
20
      509.37
11
     -380.15
21
      508.15
39
 0
62
 1
 0
LINE
8
default
6
CONTINUOUS
10
      380.15
20
      508.15
11
      381.53
21
      506.93
39
 0
62
 3
 0
LINE
8
default
6
CONTINUOUS
10
     -380.15
20
      508.15
11
     -381.53
21
      506.93
39
 0
62
 1
 0
LINE
8
default
6
CONTINUOUS
10
      381.53
20
      506.93
11
      382.11
21
      506.41
39
 0
62
 3
 0
LINE
8
default
6
CONTINUOUS
10
     -381.53
20
      506.93
11
     -382.11
21
      506.41
39
 0
62
 1
 0
LINE
8
default
6
CONTINUOUS
10
      382.11
20
      506.41
11
      382.69
21
      505.89
39
 0
62
 3
 0
LINE
8
default
6
CONTINUOUS
10
     -382.11
20
      506.41
11
     -382.69
21
      505.89
39
 0
62
 1
 0
LINE
8
default
6
CONTINUOUS
10
      382.69
20
      505.89
11
      383.26
21
      505.37
39
 0
62
 3
 0
LINE
8
default
6
CONTINUOUS
10
     -382.69
20
      505.89
11
     -383.26
21
      505.37
39
 0
62
 1
 0
LINE
8
default
6
CONTINUOUS
10
      383.26
20
      505.37
11
      383.84
21
      504.84
39
 0
62
 3
 0
LINE
8
default
6
CONTINUOUS
10
     -383.26
20
      505.37
11
     -383.84
21
      504.84
39
 0
62
 1
 0
LINE
8
default
6
CONTINUOUS
10
      383.84
20
      504.84
11
      384.41
21
      504.32
39
 0
62
 3
 0
LINE
8
default
6
CONTINUOUS
10
     -383.84
20
      504.84
11
     -384.41
21
      504.32
39
 0
62
 1
 0
LINE
8
default
6
CONTINUOUS
10
      384.41
20
      504.32
11
      384.98
21
      503.79
39
 0
62
 3
 0
LINE
8
default
6
CONTINUOUS
10
     -384.41
20
      504.32
11
     -384.98
21
      503.79
39
 0
62
 1
 0
LINE
8
default
6
CONTINUOUS
10
      384.98
20
      503.79
11
      385.55
21
      503.26
39
 0
62
 3
 0
LINE
8
default
6
CONTINUOUS
10
     -384.98
20
      503.79
11
     -385.55
21
      503.26
39
 0
62
 1
 0
LINE
8
default
6
CONTINUOUS
10
      385.55
20
      503.26
11
      386.12
21
      502.72
39
 0
62
 3
 0
LINE
8
default
6
CONTINUOUS
10
     -385.55
20
      503.26
11
     -386.12
21
      502.72
39
 0
62
 1
 0
LINE
8
default
6
CONTINUOUS
10
      386.12
20
      502.72
11
      386.69
21
      502.19
39
 0
62
 3
 0
LINE
8
default
6
CONTINUOUS
10
     -386.12
20
      502.72
11
     -386.69
21
      502.19
39
 0
62
 1
 0
LINE
8
default
6
CONTINUOUS
10
      386.69
20
      502.19
11
      387.25
21
      501.65
39
 0
62
 3
 0
LINE
8
default
6
CONTINUOUS
10
     -386.69
20
      502.19
11
     -387.25
21
      501.65
39
 0
62
 1
 0
LINE
8
default
6
CONTINUOUS
10
      387.25
20
      501.65
11
      387.81
21
      501.12
39
 0
62
 3
 0
LINE
8
default
6
CONTINUOUS
10
     -387.25
20
      501.65
11
     -387.81
21
      501.12
39
 0
62
 1
 0
LINE
8
default
6
CONTINUOUS
10
      387.81
20
      501.12
11
      388.37
21
      500.58
39
 0
62
 3
 0
LINE
8
default
6
CONTINUOUS
10
     -387.81
20
      501.12
11
     -388.37
21
      500.58
39
 0
62
 1
 0
LINE
8
default
6
CONTINUOUS
10
      388.37
20
      500.58
11
      388.93
21
      500.04
39
 0
62
 3
 0
LINE
8
default
6
CONTINUOUS
10
     -388.37
20
      500.58
11
     -388.93
21
      500.04
39
 0
62
 1
 0
LINE
8
default
6
CONTINUOUS
10
      388.93
20
      500.04
11
      389.49
21
      499.49
39
 0
62
 3
 0
LINE
8
default
6
CONTINUOUS
10
     -388.93
20
      500.04
11
     -389.49
21
      499.49
39
 0
62
 1
 0
LINE
8
default
6
CONTINUOUS
10
      389.49
20
      499.49
11
      390.04
21
      498.95
39
 0
62
 3
 0
LINE
8
default
6
CONTINUOUS
10
     -389.49
20
      499.49
11
     -390.04
21
      498.95
39
 0
62
 1
 0
LINE
8
default
6
CONTINUOUS
10
      390.04
20
      498.95
11
      390.60
21
      498.40
39
 0
62
 3
 0
LINE
8
default
6
CONTINUOUS
10
     -390.04
20
      498.95
11
     -390.60
21
      498.40
39
 0
62
 1
 0
LINE
8
default
6
CONTINUOUS
10
      390.60
20
      498.40
11
      391.15
21
      497.85
39
 0
62
 3
 0
LINE
8
default
6
CONTINUOUS
10
     -390.60
20
      498.40
11
     -391.15
21
      497.85
39
 0
62
 1
 0
LINE
8
default
6
CONTINUOUS
10
      391.15
20
      497.85
11
      391.70
21
      497.30
39
 0
62
 3
 0
LINE
8
default
6
CONTINUOUS
10
     -391.15
20
      497.85
11
     -391.70
21
      497.30
39
 0
62
 1
 0
LINE
8
default
6
CONTINUOUS
10
      391.70
20
      497.30
11
      392.25
21
      496.75
39
 0
62
 3
 0
LINE
8
default
6
CONTINUOUS
10
     -391.70
20
      497.30
11
     -392.25
21
      496.75
39
 0
62
 1
 0
LINE
8
default
6
CONTINUOUS
10
      392.25
20
      496.75
11
      392.79
21
      496.19
39
 0
62
 3
 0
LINE
8
default
6
CONTINUOUS
10
     -392.25
20
      496.75
11
     -392.79
21
      496.19
39
 0
62
 1
 0
LINE
8
default
6
CONTINUOUS
10
      392.79
20
      496.19
11
      393.34
21
      495.64
39
 0
62
 3
 0
LINE
8
default
6
CONTINUOUS
10
     -392.79
20
      496.19
11
     -393.34
21
      495.64
39
 0
62
 1
 0
LINE
8
default
6
CONTINUOUS
10
      393.34
20
      495.64
11
      393.88
21
      495.08
39
 0
62
 3
 0
LINE
8
default
6
CONTINUOUS
10
     -393.34
20
      495.64
11
     -393.88
21
      495.08
39
 0
62
 1
 0
LINE
8
default
6
CONTINUOUS
10
      393.88
20
      495.08
11
      394.42
21
      494.52
39
 0
62
 3
 0
LINE
8
default
6
CONTINUOUS
10
     -393.88
20
      495.08
11
     -394.42
21
      494.52
39
 0
62
 1
 0
LINE
8
default
6
CONTINUOUS
10
      394.42
20
      494.52
11
      394.96
21
      493.96
39
 0
62
 3
 0
LINE
8
default
6
CONTINUOUS
10
     -394.42
20
      494.52
11
     -394.96
21
      493.96
39
 0
62
 1
 0
LINE
8
default
6
CONTINUOUS
10
      394.96
20
      493.96
11
      395.49
21
      493.39
39
 0
62
 3
 0
LINE
8
default
6
CONTINUOUS
10
     -394.96
20
      493.96
11
     -395.49
21
      493.39
39
 0
62
 1
 0
LINE
8
default
6
CONTINUOUS
10
      395.49
20
      493.39
11
      396.03
21
      492.83
39
 0
62
 3
 0
LINE
8
default
6
CONTINUOUS
10
     -395.49
20
      493.39
11
     -396.03
21
      492.83
39
 0
62
 1
 0
LINE
8
default
6
CONTINUOUS
10
      396.03
20
      492.83
11
      396.56
21
      492.26
39
 0
62
 3
 0
LINE
8
default
6
CONTINUOUS
10
     -396.03
20
      492.83
11
     -396.56
21
      492.26
39
 0
62
 1
 0
LINE
8
default
6
CONTINUOUS
10
      396.56
20
      492.26
11
      397.09
21
      491.69
39
 0
62
 3
 0
LINE
8
default
6
CONTINUOUS
10
     -396.56
20
      492.26
11
     -397.09
21
      491.69
39
 0
62
 1
 0
LINE
8
default
6
CONTINUOUS
10
      397.09
20
      491.69
11
      397.62
21
      491.12
39
 0
62
 3
 0
LINE
8
default
6
CONTINUOUS
10
     -397.09
20
      491.69
11
     -397.62
21
      491.12
39
 0
62
 1
 0
LINE
8
default
6
CONTINUOUS
10
      397.62
20
      491.12
11
      398.15
21
      490.55
39
 0
62
 3
 0
LINE
8
default
6
CONTINUOUS
10
     -397.62
20
      491.12
11
     -398.15
21
      490.55
39
 0
62
 1
 0
LINE
8
default
6
CONTINUOUS
10
      398.15
20
      490.55
11
      398.67
21
      489.97
39
 0
62
 3
 0
LINE
8
default
6
CONTINUOUS
10
     -398.15
20
      490.55
11
     -398.67
21
      489.97
39
 0
62
 1
 0
LINE
8
default
6
CONTINUOUS
10
      398.67
20
      489.97
11
      399.20
21
      489.40
39
 0
62
 3
 0
LINE
8
default
6
CONTINUOUS
10
     -398.67
20
      489.97
11
     -399.20
21
      489.40
39
 0
62
 1
 0
LINE
8
default
6
CONTINUOUS
10
      399.20
20
      489.40
11
      399.72
21
      488.82
39
 0
62
 3
 0
LINE
8
default
6
CONTINUOUS
10
     -399.20
20
      489.40
11
     -399.72
21
      488.82
39
 0
62
 1
 0
LINE
8
default
6
CONTINUOUS
10
      399.72
20
      488.82
11
      400.24
21
      488.24
39
 0
62
 3
 0
LINE
8
default
6
CONTINUOUS
10
     -399.72
20
      488.82
11
     -400.24
21
      488.24
39
 0
62
 1
 0
LINE
8
default
6
CONTINUOUS
10
      400.24
20
      488.24
11
      400.76
21
      487.66
39
 0
62
 3
 0
LINE
8
default
6
CONTINUOUS
10
     -400.24
20
      488.24
11
     -400.76
21
      487.66
39
 0
62
 1
 0
LINE
8
default
6
CONTINUOUS
10
      400.76
20
      487.66
11
      401.27
21
      487.08
39
 0
62
 3
 0
LINE
8
default
6
CONTINUOUS
10
     -400.76
20
      487.66
11
     -401.27
21
      487.08
39
 0
62
 1
 0
LINE
8
default
6
CONTINUOUS
10
      401.27
20
      487.08
11
      401.78
21
      486.49
39
 0
62
 3
 0
LINE
8
default
6
CONTINUOUS
10
     -401.27
20
      487.08
11
     -401.78
21
      486.49
39
 0
62
 1
 0
LINE
8
default
6
CONTINUOUS
10
      401.78
20
      486.49
11
      402.30
21
      485.91
39
 0
62
 3
 0
LINE
8
default
6
CONTINUOUS
10
     -401.78
20
      486.49
11
     -402.30
21
      485.91
39
 0
62
 1
 0
LINE
8
default
6
CONTINUOUS
10
      402.30
20
      485.91
11
      402.81
21
      485.32
39
 0
62
 3
 0
LINE
8
default
6
CONTINUOUS
10
     -402.30
20
      485.91
11
     -402.81
21
      485.32
39
 0
62
 1
 0
LINE
8
default
6
CONTINUOUS
10
      402.81
20
      485.32
11
      403.31
21
      484.73
39
 0
62
 3
 0
LINE
8
default
6
CONTINUOUS
10
     -402.81
20
      485.32
11
     -403.31
21
      484.73
39
 0
62
 1
 0
LINE
8
default
6
CONTINUOUS
10
      403.31
20
      484.73
11
      403.82
21
      484.14
39
 0
62
 3
 0
LINE
8
default
6
CONTINUOUS
10
     -403.31
20
      484.73
11
     -403.82
21
      484.14
39
 0
62
 1
 0
LINE
8
default
6
CONTINUOUS
10
      403.82
20
      484.14
11
      404.32
21
      483.54
39
 0
62
 3
 0
LINE
8
default
6
CONTINUOUS
10
     -403.82
20
      484.14
11
     -404.32
21
      483.54
39
 0
62
 1
 0
LINE
8
default
6
CONTINUOUS
10
      404.32
20
      483.54
11
      404.83
21
      482.95
39
 0
62
 3
 0
LINE
8
default
6
CONTINUOUS
10
     -404.32
20
      483.54
11
     -404.83
21
      482.95
39
 0
62
 1
 0
LINE
8
default
6
CONTINUOUS
10
      404.83
20
      482.95
11
      405.33
21
      482.35
39
 0
62
 3
 0
LINE
8
default
6
CONTINUOUS
10
     -404.83
20
      482.95
11
     -405.33
21
      482.35
39
 0
62
 1
 0
LINE
8
default
6
CONTINUOUS
10
      405.33
20
      482.35
11
      405.82
21
      481.75
39
 0
62
 3
 0
LINE
8
default
6
CONTINUOUS
10
     -405.33
20
      482.35
11
     -405.82
21
      481.75
39
 0
62
 1
 0
LINE
8
default
6
CONTINUOUS
10
      405.82
20
      481.75
11
      406.32
21
      481.15
39
 0
62
 3
 0
LINE
8
default
6
CONTINUOUS
10
     -405.82
20
      481.75
11
     -406.32
21
      481.15
39
 0
62
 1
 0
LINE
8
default
6
CONTINUOUS
10
      406.32
20
      481.15
11
      406.81
21
      480.55
39
 0
62
 3
 0
LINE
8
default
6
CONTINUOUS
10
     -406.32
20
      481.15
11
     -406.81
21
      480.55
39
 0
62
 1
 0
LINE
8
default
6
CONTINUOUS
10
      406.81
20
      480.55
11
      407.31
21
      479.95
39
 0
62
 3
 0
LINE
8
default
6
CONTINUOUS
10
     -406.81
20
      480.55
11
     -407.31
21
      479.95
39
 0
62
 1
 0
LINE
8
default
6
CONTINUOUS
10
      407.31
20
      479.95
11
      407.79
21
      479.35
39
 0
62
 3
 0
LINE
8
default
6
CONTINUOUS
10
     -407.31
20
      479.95
11
     -407.79
21
      479.35
39
 0
62
 1
 0
LINE
8
default
6
CONTINUOUS
10
      407.79
20
      479.35
11
      408.28
21
      478.74
39
 0
62
 3
 0
LINE
8
default
6
CONTINUOUS
10
     -407.79
20
      479.35
11
     -408.28
21
      478.74
39
 0
62
 1
 0
LINE
8
default
6
CONTINUOUS
10
      408.28
20
      478.74
11
      408.77
21
      478.13
39
 0
62
 3
 0
LINE
8
default
6
CONTINUOUS
10
     -408.28
20
      478.74
11
     -408.77
21
      478.13
39
 0
62
 1
 0
LINE
8
default
6
CONTINUOUS
10
      408.77
20
      478.13
11
      409.25
21
      477.52
39
 0
62
 3
 0
LINE
8
default
6
CONTINUOUS
10
     -408.77
20
      478.13
11
     -409.25
21
      477.52
39
 0
62
 1
 0
LINE
8
default
6
CONTINUOUS
10
      409.25
20
      477.52
11
      409.73
21
      476.91
39
 0
62
 3
 0
LINE
8
default
6
CONTINUOUS
10
     -409.25
20
      477.52
11
     -409.73
21
      476.91
39
 0
62
 1
 0
LINE
8
default
6
CONTINUOUS
10
      409.73
20
      476.91
11
      410.21
21
      476.30
39
 0
62
 3
 0
LINE
8
default
6
CONTINUOUS
10
     -409.73
20
      476.91
11
     -410.21
21
      476.30
39
 0
62
 1
 0
LINE
8
default
6
CONTINUOUS
10
      410.21
20
      476.30
11
      410.69
21
      475.68
39
 0
62
 3
 0
LINE
8
default
6
CONTINUOUS
10
     -410.21
20
      476.30
11
     -410.69
21
      475.68
39
 0
62
 1
 0
LINE
8
default
6
CONTINUOUS
10
      410.69
20
      475.68
11
      411.17
21
      475.07
39
 0
62
 3
 0
LINE
8
default
6
CONTINUOUS
10
     -410.69
20
      475.68
11
     -411.17
21
      475.07
39
 0
62
 1
 0
LINE
8
default
6
CONTINUOUS
10
      411.17
20
      475.07
11
      411.64
21
      474.45
39
 0
62
 3
 0
LINE
8
default
6
CONTINUOUS
10
     -411.17
20
      475.07
11
     -411.64
21
      474.45
39
 0
62
 1
 0
LINE
8
default
6
CONTINUOUS
10
      411.64
20
      474.45
11
      412.11
21
      473.83
39
 0
62
 3
 0
LINE
8
default
6
CONTINUOUS
10
     -411.64
20
      474.45
11
     -412.11
21
      473.83
39
 0
62
 1
 0
LINE
8
default
6
CONTINUOUS
10
      412.11
20
      473.83
11
      412.58
21
      473.21
39
 0
62
 3
 0
LINE
8
default
6
CONTINUOUS
10
     -412.11
20
      473.83
11
     -412.58
21
      473.21
39
 0
62
 1
 0
LINE
8
default
6
CONTINUOUS
10
      412.58
20
      473.21
11
      413.05
21
      472.59
39
 0
62
 3
 0
LINE
8
default
6
CONTINUOUS
10
     -412.58
20
      473.21
11
     -413.05
21
      472.59
39
 0
62
 1
 0
LINE
8
default
6
CONTINUOUS
10
      413.05
20
      472.59
11
      413.51
21
      471.96
39
 0
62
 3
 0
LINE
8
default
6
CONTINUOUS
10
     -413.05
20
      472.59
11
     -413.51
21
      471.96
39
 0
62
 1
 0
LINE
8
default
6
CONTINUOUS
10
      413.51
20
      471.96
11
      413.98
21
      471.34
39
 0
62
 3
 0
LINE
8
default
6
CONTINUOUS
10
     -413.51
20
      471.96
11
     -413.98
21
      471.34
39
 0
62
 1
 0
LINE
8
default
6
CONTINUOUS
10
      413.98
20
      471.34
11
      414.44
21
      470.71
39
 0
62
 3
 0
LINE
8
default
6
CONTINUOUS
10
     -413.98
20
      471.34
11
     -414.44
21
      470.71
39
 0
62
 1
 0
LINE
8
default
6
CONTINUOUS
10
      414.44
20
      470.71
11
      414.90
21
      470.08
39
 0
62
 3
 0
LINE
8
default
6
CONTINUOUS
10
     -414.44
20
      470.71
11
     -414.90
21
      470.08
39
 0
62
 1
 0
LINE
8
default
6
CONTINUOUS
10
      414.90
20
      470.08
11
      415.35
21
      469.45
39
 0
62
 3
 0
LINE
8
default
6
CONTINUOUS
10
     -414.90
20
      470.08
11
     -415.35
21
      469.45
39
 0
62
 1
 0
LINE
8
default
6
CONTINUOUS
10
      415.35
20
      469.45
11
      415.81
21
      468.82
39
 0
62
 3
 0
LINE
8
default
6
CONTINUOUS
10
     -415.35
20
      469.45
11
     -415.81
21
      468.82
39
 0
62
 1
 0
LINE
8
default
6
CONTINUOUS
10
      415.81
20
      468.82
11
      416.26
21
      468.19
39
 0
62
 3
 0
LINE
8
default
6
CONTINUOUS
10
     -415.81
20
      468.82
11
     -416.26
21
      468.19
39
 0
62
 1
 0
LINE
8
default
6
CONTINUOUS
10
      416.26
20
      468.19
11
      416.71
21
      467.55
39
 0
62
 3
 0
LINE
8
default
6
CONTINUOUS
10
     -416.26
20
      468.19
11
     -416.71
21
      467.55
39
 0
62
 1
 0
LINE
8
default
6
CONTINUOUS
10
      416.71
20
      467.55
11
      417.16
21
      466.92
39
 0
62
 3
 0
LINE
8
default
6
CONTINUOUS
10
     -416.71
20
      467.55
11
     -417.16
21
      466.92
39
 0
62
 1
 0
LINE
8
default
6
CONTINUOUS
10
      417.16
20
      466.92
11
      417.61
21
      466.28
39
 0
62
 3
 0
LINE
8
default
6
CONTINUOUS
10
     -417.16
20
      466.92
11
     -417.61
21
      466.28
39
 0
62
 1
 0
LINE
8
default
6
CONTINUOUS
10
      417.61
20
      466.28
11
      418.05
21
      465.64
39
 0
62
 3
 0
LINE
8
default
6
CONTINUOUS
10
     -417.61
20
      466.28
11
     -418.05
21
      465.64
39
 0
62
 1
 0
LINE
8
default
6
CONTINUOUS
10
      418.05
20
      465.64
11
      418.49
21
      465.00
39
 0
62
 3
 0
LINE
8
default
6
CONTINUOUS
10
     -418.05
20
      465.64
11
     -418.49
21
      465.00
39
 0
62
 1
 0
LINE
8
default
6
CONTINUOUS
10
      418.49
20
      465.00
11
      418.93
21
      464.36
39
 0
62
 3
 0
LINE
8
default
6
CONTINUOUS
10
     -418.49
20
      465.00
11
     -418.93
21
      464.36
39
 0
62
 1
 0
LINE
8
default
6
CONTINUOUS
10
      418.93
20
      464.36
11
      419.37
21
      463.72
39
 0
62
 3
 0
LINE
8
default
6
CONTINUOUS
10
     -418.93
20
      464.36
11
     -419.37
21
      463.72
39
 0
62
 1
 0
LINE
8
default
6
CONTINUOUS
10
      419.37
20
      463.72
11
      419.81
21
      463.07
39
 0
62
 3
 0
LINE
8
default
6
CONTINUOUS
10
     -419.37
20
      463.72
11
     -419.81
21
      463.07
39
 0
62
 1
 0
LINE
8
default
6
CONTINUOUS
10
      419.81
20
      463.07
11
      420.24
21
      462.43
39
 0
62
 3
 0
LINE
8
default
6
CONTINUOUS
10
     -419.81
20
      463.07
11
     -420.24
21
      462.43
39
 0
62
 1
 0
LINE
8
default
6
CONTINUOUS
10
      420.24
20
      462.43
11
      420.67
21
      461.78
39
 0
62
 3
 0
LINE
8
default
6
CONTINUOUS
10
     -420.24
20
      462.43
11
     -420.67
21
      461.78
39
 0
62
 1
 0
LINE
8
default
6
CONTINUOUS
10
      420.67
20
      461.78
11
      421.10
21
      461.13
39
 0
62
 3
 0
LINE
8
default
6
CONTINUOUS
10
     -420.67
20
      461.78
11
     -421.10
21
      461.13
39
 0
62
 1
 0
LINE
8
default
6
CONTINUOUS
10
      421.10
20
      461.13
11
      421.53
21
      460.48
39
 0
62
 3
 0
LINE
8
default
6
CONTINUOUS
10
     -421.10
20
      461.13
11
     -421.53
21
      460.48
39
 0
62
 1
 0
LINE
8
default
6
CONTINUOUS
10
      421.53
20
      460.48
11
      421.95
21
      459.83
39
 0
62
 3
 0
LINE
8
default
6
CONTINUOUS
10
     -421.53
20
      460.48
11
     -421.95
21
      459.83
39
 0
62
 1
 0
LINE
8
default
6
CONTINUOUS
10
      421.95
20
      459.83
11
      422.38
21
      459.17
39
 0
62
 3
 0
LINE
8
default
6
CONTINUOUS
10
     -421.95
20
      459.83
11
     -422.38
21
      459.17
39
 0
62
 1
 0
LINE
8
default
6
CONTINUOUS
10
      422.38
20
      459.17
11
      422.80
21
      458.52
39
 0
62
 3
 0
LINE
8
default
6
CONTINUOUS
10
     -422.38
20
      459.17
11
     -422.80
21
      458.52
39
 0
62
 1
 0
LINE
8
default
6
CONTINUOUS
10
      422.80
20
      458.52
11
      423.21
21
      457.86
39
 0
62
 3
 0
LINE
8
default
6
CONTINUOUS
10
     -422.80
20
      458.52
11
     -423.21
21
      457.86
39
 0
62
 1
 0
LINE
8
default
6
CONTINUOUS
10
      423.21
20
      457.86
11
      423.63
21
      457.20
39
 0
62
 3
 0
LINE
8
default
6
CONTINUOUS
10
     -423.21
20
      457.86
11
     -423.63
21
      457.20
39
 0
62
 1
 0
LINE
8
default
6
CONTINUOUS
10
      423.63
20
      457.20
11
      424.04
21
      456.54
39
 0
62
 3
 0
LINE
8
default
6
CONTINUOUS
10
     -423.63
20
      457.20
11
     -424.04
21
      456.54
39
 0
62
 1
 0
LINE
8
default
6
CONTINUOUS
10
      424.04
20
      456.54
11
      424.46
21
      455.88
39
 0
62
 3
 0
LINE
8
default
6
CONTINUOUS
10
     -424.04
20
      456.54
11
     -424.46
21
      455.88
39
 0
62
 1
 0
LINE
8
default
6
CONTINUOUS
10
      424.46
20
      455.88
11
      424.86
21
      455.22
39
 0
62
 3
 0
LINE
8
default
6
CONTINUOUS
10
     -424.46
20
      455.88
11
     -424.86
21
      455.22
39
 0
62
 1
 0
LINE
8
default
6
CONTINUOUS
10
      424.86
20
      455.22
11
      425.27
21
      454.56
39
 0
62
 3
 0
LINE
8
default
6
CONTINUOUS
10
     -424.86
20
      455.22
11
     -425.27
21
      454.56
39
 0
62
 1
 0
LINE
8
default
6
CONTINUOUS
10
      425.27
20
      454.56
11
      425.68
21
      453.89
39
 0
62
 3
 0
LINE
8
default
6
CONTINUOUS
10
     -425.27
20
      454.56
11
     -425.68
21
      453.89
39
 0
62
 1
 0
LINE
8
default
6
CONTINUOUS
10
      425.68
20
      453.89
11
      426.08
21
      453.23
39
 0
62
 3
 0
LINE
8
default
6
CONTINUOUS
10
     -425.68
20
      453.89
11
     -426.08
21
      453.23
39
 0
62
 1
 0
LINE
8
default
6
CONTINUOUS
10
      426.08
20
      453.23
11
      426.48
21
      452.56
39
 0
62
 3
 0
LINE
8
default
6
CONTINUOUS
10
     -426.08
20
      453.23
11
     -426.48
21
      452.56
39
 0
62
 1
 0
LINE
8
default
6
CONTINUOUS
10
      426.48
20
      452.56
11
      426.88
21
      451.89
39
 0
62
 3
 0
LINE
8
default
6
CONTINUOUS
10
     -426.48
20
      452.56
11
     -426.88
21
      451.89
39
 0
62
 1
 0
LINE
8
default
6
CONTINUOUS
10
      426.88
20
      451.89
11
      427.28
21
      451.22
39
 0
62
 3
 0
LINE
8
default
6
CONTINUOUS
10
     -426.88
20
      451.89
11
     -427.28
21
      451.22
39
 0
62
 1
 0
LINE
8
default
6
CONTINUOUS
10
      427.28
20
      451.22
11
      427.67
21
      450.55
39
 0
62
 3
 0
LINE
8
default
6
CONTINUOUS
10
     -427.28
20
      451.22
11
     -427.67
21
      450.55
39
 0
62
 1
 0
LINE
8
default
6
CONTINUOUS
10
      427.67
20
      450.55
11
      428.06
21
      449.88
39
 0
62
 3
 0
LINE
8
default
6
CONTINUOUS
10
     -427.67
20
      450.55
11
     -428.06
21
      449.88
39
 0
62
 1
 0
LINE
8
default
6
CONTINUOUS
10
      428.06
20
      449.88
11
      428.45
21
      449.21
39
 0
62
 3
 0
LINE
8
default
6
CONTINUOUS
10
     -428.06
20
      449.88
11
     -428.45
21
      449.21
39
 0
62
 1
 0
LINE
8
default
6
CONTINUOUS
10
      428.45
20
      449.21
11
      428.84
21
      448.53
39
 0
62
 3
 0
LINE
8
default
6
CONTINUOUS
10
     -428.45
20
      449.21
11
     -428.84
21
      448.53
39
 0
62
 1
 0
LINE
8
default
6
CONTINUOUS
10
      428.84
20
      448.53
11
      429.60
21
      447.18
39
 0
62
 3
 0
LINE
8
default
6
CONTINUOUS
10
     -428.84
20
      448.53
11
     -429.60
21
      447.18
39
 0
62
 1
 0
LINE
8
default
6
CONTINUOUS
10
      429.60
20
      447.18
11
      429.85
21
      446.74
39
 0
62
 3
 0
LINE
8
default
6
CONTINUOUS
10
     -429.60
20
      447.18
11
     -429.85
21
      446.74
39
 0
62
 1
 0
LINE
8
default
6
CONTINUOUS
10
      429.85
20
      446.74
11
      430.09
21
      446.30
39
 0
62
 3
 0
LINE
8
default
6
CONTINUOUS
10
     -429.85
20
      446.74
11
     -430.09
21
      446.30
39
 0
62
 1
 0
LINE
8
default
6
CONTINUOUS
10
      430.09
20
      446.30
11
      430.34
21
      445.85
39
 0
62
 3
 0
LINE
8
default
6
CONTINUOUS
10
     -430.09
20
      446.30
11
     -430.34
21
      445.85
39
 0
62
 1
 0
LINE
8
default
6
CONTINUOUS
10
      430.34
20
      445.85
11
      430.58
21
      445.41
39
 0
62
 3
 0
LINE
8
default
6
CONTINUOUS
10
     -430.34
20
      445.85
11
     -430.58
21
      445.41
39
 0
62
 1
 0
LINE
8
default
6
CONTINUOUS
10
      430.58
20
      445.41
11
      430.81
21
      444.97
39
 0
62
 3
 0
LINE
8
default
6
CONTINUOUS
10
     -430.58
20
      445.41
11
     -430.81
21
      444.97
39
 0
62
 1
 0
LINE
8
default
6
CONTINUOUS
10
      430.81
20
      444.97
11
      431.05
21
      444.52
39
 0
62
 3
 0
LINE
8
default
6
CONTINUOUS
10
     -430.81
20
      444.97
11
     -431.05
21
      444.52
39
 0
62
 1
 0
LINE
8
default
6
CONTINUOUS
10
      431.05
20
      444.52
11
      431.28
21
      444.07
39
 0
62
 3
 0
LINE
8
default
6
CONTINUOUS
10
     -431.05
20
      444.52
11
     -431.28
21
      444.07
39
 0
62
 1
 0
LINE
8
default
6
CONTINUOUS
10
      431.28
20
      444.07
11
      431.51
21
      443.62
39
 0
62
 3
 0
LINE
8
default
6
CONTINUOUS
10
     -431.28
20
      444.07
11
     -431.51
21
      443.62
39
 0
62
 1
 0
LINE
8
default
6
CONTINUOUS
10
      431.51
20
      443.62
11
      431.74
21
      443.17
39
 0
62
 3
 0
LINE
8
default
6
CONTINUOUS
10
     -431.51
20
      443.62
11
     -431.74
21
      443.17
39
 0
62
 1
 0
LINE
8
default
6
CONTINUOUS
10
      431.74
20
      443.17
11
      431.97
21
      442.72
39
 0
62
 3
 0
LINE
8
default
6
CONTINUOUS
10
     -431.74
20
      443.17
11
     -431.97
21
      442.72
39
 0
62
 1
 0
LINE
8
default
6
CONTINUOUS
10
      431.97
20
      442.72
11
      432.19
21
      442.27
39
 0
62
 3
 0
LINE
8
default
6
CONTINUOUS
10
     -431.97
20
      442.72
11
     -432.19
21
      442.27
39
 0
62
 1
 0
LINE
8
default
6
CONTINUOUS
10
      432.19
20
      442.27
11
      432.41
21
      441.82
39
 0
62
 3
 0
LINE
8
default
6
CONTINUOUS
10
     -432.19
20
      442.27
11
     -432.41
21
      441.82
39
 0
62
 1
 0
LINE
8
default
6
CONTINUOUS
10
      432.41
20
      441.82
11
      432.63
21
      441.36
39
 0
62
 3
 0
LINE
8
default
6
CONTINUOUS
10
     -432.41
20
      441.82
11
     -432.63
21
      441.36
39
 0
62
 1
 0
LINE
8
default
6
CONTINUOUS
10
      432.63
20
      441.36
11
      432.85
21
      440.91
39
 0
62
 3
 0
LINE
8
default
6
CONTINUOUS
10
     -432.63
20
      441.36
11
     -432.85
21
      440.91
39
 0
62
 1
 0
LINE
8
default
6
CONTINUOUS
10
      432.85
20
      440.91
11
      433.06
21
      440.45
39
 0
62
 3
 0
LINE
8
default
6
CONTINUOUS
10
     -432.85
20
      440.91
11
     -433.06
21
      440.45
39
 0
62
 1
 0
LINE
8
default
6
CONTINUOUS
10
      433.06
20
      440.45
11
      433.27
21
      440.00
39
 0
62
 3
 0
LINE
8
default
6
CONTINUOUS
10
     -433.06
20
      440.45
11
     -433.27
21
      440.00
39
 0
62
 1
 0
LINE
8
default
6
CONTINUOUS
10
      433.27
20
      440.00
11
      433.48
21
      439.54
39
 0
62
 3
 0
LINE
8
default
6
CONTINUOUS
10
     -433.27
20
      440.00
11
     -433.48
21
      439.54
39
 0
62
 1
 0
LINE
8
default
6
CONTINUOUS
10
      433.48
20
      439.54
11
      433.69
21
      439.08
39
 0
62
 3
 0
LINE
8
default
6
CONTINUOUS
10
     -433.48
20
      439.54
11
     -433.69
21
      439.08
39
 0
62
 1
 0
LINE
8
default
6
CONTINUOUS
10
      433.69
20
      439.08
11
      433.90
21
      438.62
39
 0
62
 3
 0
LINE
8
default
6
CONTINUOUS
10
     -433.69
20
      439.08
11
     -433.90
21
      438.62
39
 0
62
 1
 0
LINE
8
default
6
CONTINUOUS
10
      433.90
20
      438.62
11
      434.10
21
      438.16
39
 0
62
 3
 0
LINE
8
default
6
CONTINUOUS
10
     -433.90
20
      438.62
11
     -434.10
21
      438.16
39
 0
62
 1
 0
LINE
8
default
6
CONTINUOUS
10
      434.10
20
      438.16
11
      434.30
21
      437.69
39
 0
62
 3
 0
LINE
8
default
6
CONTINUOUS
10
     -434.10
20
      438.16
11
     -434.30
21
      437.69
39
 0
62
 1
 0
LINE
8
default
6
CONTINUOUS
10
      434.30
20
      437.69
11
      434.50
21
      437.23
39
 0
62
 3
 0
LINE
8
default
6
CONTINUOUS
10
     -434.30
20
      437.69
11
     -434.50
21
      437.23
39
 0
62
 1
 0
LINE
8
default
6
CONTINUOUS
10
      434.50
20
      437.23
11
      434.70
21
      436.77
39
 0
62
 3
 0
LINE
8
default
6
CONTINUOUS
10
     -434.50
20
      437.23
11
     -434.70
21
      436.77
39
 0
62
 1
 0
LINE
8
default
6
CONTINUOUS
10
      434.70
20
      436.77
11
      434.89
21
      436.30
39
 0
62
 3
 0
LINE
8
default
6
CONTINUOUS
10
     -434.70
20
      436.77
11
     -434.89
21
      436.30
39
 0
62
 1
 0
LINE
8
default
6
CONTINUOUS
10
      434.89
20
      436.30
11
      435.08
21
      435.83
39
 0
62
 3
 0
LINE
8
default
6
CONTINUOUS
10
     -434.89
20
      436.30
11
     -435.08
21
      435.83
39
 0
62
 1
 0
LINE
8
default
6
CONTINUOUS
10
      435.08
20
      435.83
11
      435.27
21
      435.37
39
 0
62
 3
 0
LINE
8
default
6
CONTINUOUS
10
     -435.08
20
      435.83
11
     -435.27
21
      435.37
39
 0
62
 1
 0
LINE
8
default
6
CONTINUOUS
10
      435.27
20
      435.37
11
      435.46
21
      434.90
39
 0
62
 3
 0
LINE
8
default
6
CONTINUOUS
10
     -435.27
20
      435.37
11
     -435.46
21
      434.90
39
 0
62
 1
 0
LINE
8
default
6
CONTINUOUS
10
      435.46
20
      434.90
11
      435.64
21
      434.43
39
 0
62
 3
 0
LINE
8
default
6
CONTINUOUS
10
     -435.46
20
      434.90
11
     -435.64
21
      434.43
39
 0
62
 1
 0
LINE
8
default
6
CONTINUOUS
10
      435.64
20
      434.43
11
      435.83
21
      433.96
39
 0
62
 3
 0
LINE
8
default
6
CONTINUOUS
10
     -435.64
20
      434.43
11
     -435.83
21
      433.96
39
 0
62
 1
 0
LINE
8
default
6
CONTINUOUS
10
      435.83
20
      433.96
11
      436.01
21
      433.49
39
 0
62
 3
 0
LINE
8
default
6
CONTINUOUS
10
     -435.83
20
      433.96
11
     -436.01
21
      433.49
39
 0
62
 1
 0
LINE
8
default
6
CONTINUOUS
10
      436.01
20
      433.49
11
      436.18
21
      433.02
39
 0
62
 3
 0
LINE
8
default
6
CONTINUOUS
10
     -436.01
20
      433.49
11
     -436.18
21
      433.02
39
 0
62
 1
 0
LINE
8
default
6
CONTINUOUS
10
      436.18
20
      433.02
11
      436.36
21
      432.54
39
 0
62
 3
 0
LINE
8
default
6
CONTINUOUS
10
     -436.18
20
      433.02
11
     -436.36
21
      432.54
39
 0
62
 1
 0
LINE
8
default
6
CONTINUOUS
10
      436.36
20
      432.54
11
      436.53
21
      432.07
39
 0
62
 3
 0
LINE
8
default
6
CONTINUOUS
10
     -436.36
20
      432.54
11
     -436.53
21
      432.07
39
 0
62
 1
 0
LINE
8
default
6
CONTINUOUS
10
      436.53
20
      432.07
11
      436.70
21
      431.60
39
 0
62
 3
 0
LINE
8
default
6
CONTINUOUS
10
     -436.53
20
      432.07
11
     -436.70
21
      431.60
39
 0
62
 1
 0
LINE
8
default
6
CONTINUOUS
10
      436.70
20
      431.60
11
      436.87
21
      431.12
39
 0
62
 3
 0
LINE
8
default
6
CONTINUOUS
10
     -436.70
20
      431.60
11
     -436.87
21
      431.12
39
 0
62
 1
 0
LINE
8
default
6
CONTINUOUS
10
      436.87
20
      431.12
11
      437.04
21
      430.64
39
 0
62
 3
 0
LINE
8
default
6
CONTINUOUS
10
     -436.87
20
      431.12
11
     -437.04
21
      430.64
39
 0
62
 1
 0
LINE
8
default
6
CONTINUOUS
10
      437.04
20
      430.64
11
      437.20
21
      430.17
39
 0
62
 3
 0
LINE
8
default
6
CONTINUOUS
10
     -437.04
20
      430.64
11
     -437.20
21
      430.17
39
 0
62
 1
 0
LINE
8
default
6
CONTINUOUS
10
      437.20
20
      430.17
11
      437.36
21
      429.69
39
 0
62
 3
 0
LINE
8
default
6
CONTINUOUS
10
     -437.20
20
      430.17
11
     -437.36
21
      429.69
39
 0
62
 1
 0
LINE
8
default
6
CONTINUOUS
10
      437.36
20
      429.69
11
      437.52
21
      429.21
39
 0
62
 3
 0
LINE
8
default
6
CONTINUOUS
10
     -437.36
20
      429.69
11
     -437.52
21
      429.21
39
 0
62
 1
 0
LINE
8
default
6
CONTINUOUS
10
      437.52
20
      429.21
11
      437.68
21
      428.73
39
 0
62
 3
 0
LINE
8
default
6
CONTINUOUS
10
     -437.52
20
      429.21
11
     -437.68
21
      428.73
39
 0
62
 1
 0
LINE
8
default
6
CONTINUOUS
10
      437.68
20
      428.73
11
      437.83
21
      428.25
39
 0
62
 3
 0
LINE
8
default
6
CONTINUOUS
10
     -437.68
20
      428.73
11
     -437.83
21
      428.25
39
 0
62
 1
 0
LINE
8
default
6
CONTINUOUS
10
      437.83
20
      428.25
11
      437.98
21
      427.77
39
 0
62
 3
 0
LINE
8
default
6
CONTINUOUS
10
     -437.83
20
      428.25
11
     -437.98
21
      427.77
39
 0
62
 1
 0
LINE
8
default
6
CONTINUOUS
10
      437.98
20
      427.77
11
      438.13
21
      427.29
39
 0
62
 3
 0
LINE
8
default
6
CONTINUOUS
10
     -437.98
20
      427.77
11
     -438.13
21
      427.29
39
 0
62
 1
 0
LINE
8
default
6
CONTINUOUS
10
      438.13
20
      427.29
11
      438.28
21
      426.81
39
 0
62
 3
 0
LINE
8
default
6
CONTINUOUS
10
     -438.13
20
      427.29
11
     -438.28
21
      426.81
39
 0
62
 1
 0
LINE
8
default
6
CONTINUOUS
10
      438.28
20
      426.81
11
      438.42
21
      426.32
39
 0
62
 3
 0
LINE
8
default
6
CONTINUOUS
10
     -438.28
20
      426.81
11
     -438.42
21
      426.32
39
 0
62
 1
 0
LINE
8
default
6
CONTINUOUS
10
      438.42
20
      426.32
11
      438.56
21
      425.84
39
 0
62
 3
 0
LINE
8
default
6
CONTINUOUS
10
     -438.42
20
      426.32
11
     -438.56
21
      425.84
39
 0
62
 1
 0
LINE
8
default
6
CONTINUOUS
10
      438.56
20
      425.84
11
      438.70
21
      425.36
39
 0
62
 3
 0
LINE
8
default
6
CONTINUOUS
10
     -438.56
20
      425.84
11
     -438.70
21
      425.36
39
 0
62
 1
 0
LINE
8
default
6
CONTINUOUS
10
      438.70
20
      425.36
11
      438.84
21
      424.87
39
 0
62
 3
 0
LINE
8
default
6
CONTINUOUS
10
     -438.70
20
      425.36
11
     -438.84
21
      424.87
39
 0
62
 1
 0
LINE
8
default
6
CONTINUOUS
10
      438.84
20
      424.87
11
      438.97
21
      424.38
39
 0
62
 3
 0
LINE
8
default
6
CONTINUOUS
10
     -438.84
20
      424.87
11
     -438.97
21
      424.38
39
 0
62
 1
 0
LINE
8
default
6
CONTINUOUS
10
      438.97
20
      424.38
11
      439.10
21
      423.90
39
 0
62
 3
 0
LINE
8
default
6
CONTINUOUS
10
     -438.97
20
      424.38
11
     -439.10
21
      423.90
39
 0
62
 1
 0
LINE
8
default
6
CONTINUOUS
10
      439.10
20
      423.90
11
      439.23
21
      423.41
39
 0
62
 3
 0
LINE
8
default
6
CONTINUOUS
10
     -439.10
20
      423.90
11
     -439.23
21
      423.41
39
 0
62
 1
 0
LINE
8
default
6
CONTINUOUS
10
      439.23
20
      423.41
11
      439.36
21
      422.92
39
 0
62
 3
 0
LINE
8
default
6
CONTINUOUS
10
     -439.23
20
      423.41
11
     -439.36
21
      422.92
39
 0
62
 1
 0
LINE
8
default
6
CONTINUOUS
10
      439.36
20
      422.92
11
      439.49
21
      422.43
39
 0
62
 3
 0
LINE
8
default
6
CONTINUOUS
10
     -439.36
20
      422.92
11
     -439.49
21
      422.43
39
 0
62
 1
 0
LINE
8
default
6
CONTINUOUS
10
      439.49
20
      422.43
11
      439.61
21
      421.95
39
 0
62
 3
 0
LINE
8
default
6
CONTINUOUS
10
     -439.49
20
      422.43
11
     -439.61
21
      421.95
39
 0
62
 1
 0
LINE
8
default
6
CONTINUOUS
10
      439.61
20
      421.95
11
      439.73
21
      421.46
39
 0
62
 3
 0
LINE
8
default
6
CONTINUOUS
10
     -439.61
20
      421.95
11
     -439.73
21
      421.46
39
 0
62
 1
 0
LINE
8
default
6
CONTINUOUS
10
      439.73
20
      421.46
11
      439.85
21
      420.96
39
 0
62
 3
 0
LINE
8
default
6
CONTINUOUS
10
     -439.73
20
      421.46
11
     -439.85
21
      420.96
39
 0
62
 1
 0
LINE
8
default
6
CONTINUOUS
10
      439.85
20
      420.96
11
      439.96
21
      420.47
39
 0
62
 3
 0
LINE
8
default
6
CONTINUOUS
10
     -439.85
20
      420.96
11
     -439.96
21
      420.47
39
 0
62
 1
 0
LINE
8
default
6
CONTINUOUS
10
      439.96
20
      420.47
11
      440.07
21
      419.98
39
 0
62
 3
 0
LINE
8
default
6
CONTINUOUS
10
     -439.96
20
      420.47
11
     -440.07
21
      419.98
39
 0
62
 1
 0
LINE
8
default
6
CONTINUOUS
10
      440.07
20
      419.98
11
      440.18
21
      419.49
39
 0
62
 3
 0
LINE
8
default
6
CONTINUOUS
10
     -440.07
20
      419.98
11
     -440.18
21
      419.49
39
 0
62
 1
 0
LINE
8
default
6
CONTINUOUS
10
      440.18
20
      419.49
11
      440.29
21
      419.00
39
 0
62
 3
 0
LINE
8
default
6
CONTINUOUS
10
     -440.18
20
      419.49
11
     -440.29
21
      419.00
39
 0
62
 1
 0
LINE
8
default
6
CONTINUOUS
10
      440.29
20
      419.00
11
      440.40
21
      418.50
39
 0
62
 3
 0
LINE
8
default
6
CONTINUOUS
10
     -440.29
20
      419.00
11
     -440.40
21
      418.50
39
 0
62
 1
 0
LINE
8
default
6
CONTINUOUS
10
      440.40
20
      418.50
11
      440.50
21
      418.01
39
 0
62
 3
 0
LINE
8
default
6
CONTINUOUS
10
     -440.40
20
      418.50
11
     -440.50
21
      418.01
39
 0
62
 1
 0
LINE
8
default
6
CONTINUOUS
10
      440.50
20
      418.01
11
      440.60
21
      417.52
39
 0
62
 3
 0
LINE
8
default
6
CONTINUOUS
10
     -440.50
20
      418.01
11
     -440.60
21
      417.52
39
 0
62
 1
 0
LINE
8
default
6
CONTINUOUS
10
      440.60
20
      417.52
11
      440.70
21
      417.02
39
 0
62
 3
 0
LINE
8
default
6
CONTINUOUS
10
     -440.60
20
      417.52
11
     -440.70
21
      417.02
39
 0
62
 1
 0
LINE
8
default
6
CONTINUOUS
10
      440.70
20
      417.02
11
      440.79
21
      416.53
39
 0
62
 3
 0
LINE
8
default
6
CONTINUOUS
10
     -440.70
20
      417.02
11
     -440.79
21
      416.53
39
 0
62
 1
 0
LINE
8
default
6
CONTINUOUS
10
      440.79
20
      416.53
11
      440.88
21
      416.03
39
 0
62
 3
 0
LINE
8
default
6
CONTINUOUS
10
     -440.79
20
      416.53
11
     -440.88
21
      416.03
39
 0
62
 1
 0
LINE
8
default
6
CONTINUOUS
10
      440.88
20
      416.03
11
      440.97
21
      415.54
39
 0
62
 3
 0
LINE
8
default
6
CONTINUOUS
10
     -440.88
20
      416.03
11
     -440.97
21
      415.54
39
 0
62
 1
 0
LINE
8
default
6
CONTINUOUS
10
      440.97
20
      415.54
11
      441.06
21
      415.04
39
 0
62
 3
 0
LINE
8
default
6
CONTINUOUS
10
     -440.97
20
      415.54
11
     -441.06
21
      415.04
39
 0
62
 1
 0
LINE
8
default
6
CONTINUOUS
10
      441.06
20
      415.04
11
      441.15
21
      414.54
39
 0
62
 3
 0
LINE
8
default
6
CONTINUOUS
10
     -441.06
20
      415.04
11
     -441.15
21
      414.54
39
 0
62
 1
 0
LINE
8
default
6
CONTINUOUS
10
      441.15
20
      414.54
11
      441.23
21
      414.05
39
 0
62
 3
 0
LINE
8
default
6
CONTINUOUS
10
     -441.15
20
      414.54
11
     -441.23
21
      414.05
39
 0
62
 1
 0
LINE
8
default
6
CONTINUOUS
10
      441.23
20
      414.05
11
      441.31
21
      413.55
39
 0
62
 3
 0
LINE
8
default
6
CONTINUOUS
10
     -441.23
20
      414.05
11
     -441.31
21
      413.55
39
 0
62
 1
 0
LINE
8
default
6
CONTINUOUS
10
      441.31
20
      413.55
11
      441.39
21
      413.05
39
 0
62
 3
 0
LINE
8
default
6
CONTINUOUS
10
     -441.31
20
      413.55
11
     -441.39
21
      413.05
39
 0
62
 1
 0
LINE
8
default
6
CONTINUOUS
10
      441.39
20
      413.05
11
      441.46
21
      412.55
39
 0
62
 3
 0
LINE
8
default
6
CONTINUOUS
10
     -441.39
20
      413.05
11
     -441.46
21
      412.55
39
 0
62
 1
 0
LINE
8
default
6
CONTINUOUS
10
      441.46
20
      412.55
11
      441.54
21
      412.05
39
 0
62
 3
 0
LINE
8
default
6
CONTINUOUS
10
     -441.46
20
      412.55
11
     -441.54
21
      412.05
39
 0
62
 1
 0
LINE
8
default
6
CONTINUOUS
10
      441.54
20
      412.05
11
      441.61
21
      411.55
39
 0
62
 3
 0
LINE
8
default
6
CONTINUOUS
10
     -441.54
20
      412.05
11
     -441.61
21
      411.55
39
 0
62
 1
 0
LINE
8
default
6
CONTINUOUS
10
      441.61
20
      411.55
11
      441.68
21
      411.05
39
 0
62
 3
 0
LINE
8
default
6
CONTINUOUS
10
     -441.61
20
      411.55
11
     -441.68
21
      411.05
39
 0
62
 1
 0
LINE
8
default
6
CONTINUOUS
10
      441.68
20
      411.05
11
      441.74
21
      410.55
39
 0
62
 3
 0
LINE
8
default
6
CONTINUOUS
10
     -441.68
20
      411.05
11
     -441.74
21
      410.55
39
 0
62
 1
 0
LINE
8
default
6
CONTINUOUS
10
      441.74
20
      410.55
11
      441.80
21
      410.05
39
 0
62
 3
 0
LINE
8
default
6
CONTINUOUS
10
     -441.74
20
      410.55
11
     -441.80
21
      410.05
39
 0
62
 1
 0
LINE
8
default
6
CONTINUOUS
10
      441.80
20
      410.05
11
      441.86
21
      409.55
39
 0
62
 3
 0
LINE
8
default
6
CONTINUOUS
10
     -441.80
20
      410.05
11
     -441.86
21
      409.55
39
 0
62
 1
 0
LINE
8
default
6
CONTINUOUS
10
      441.86
20
      409.55
11
      441.92
21
      409.05
39
 0
62
 3
 0
LINE
8
default
6
CONTINUOUS
10
     -441.86
20
      409.55
11
     -441.92
21
      409.05
39
 0
62
 1
 0
LINE
8
default
6
CONTINUOUS
10
      441.92
20
      409.05
11
      441.98
21
      408.55
39
 0
62
 3
 0
LINE
8
default
6
CONTINUOUS
10
     -441.92
20
      409.05
11
     -441.98
21
      408.55
39
 0
62
 1
 0
LINE
8
default
6
CONTINUOUS
10
      441.98
20
      408.55
11
      442.03
21
      408.05
39
 0
62
 3
 0
LINE
8
default
6
CONTINUOUS
10
     -441.98
20
      408.55
11
     -442.03
21
      408.05
39
 0
62
 1
 0
LINE
8
default
6
CONTINUOUS
10
      442.03
20
      408.05
11
      442.08
21
      407.55
39
 0
62
 3
 0
LINE
8
default
6
CONTINUOUS
10
     -442.03
20
      408.05
11
     -442.08
21
      407.55
39
 0
62
 1
 0
LINE
8
default
6
CONTINUOUS
10
      442.08
20
      407.55
11
      442.13
21
      407.05
39
 0
62
 3
 0
LINE
8
default
6
CONTINUOUS
10
     -442.08
20
      407.55
11
     -442.13
21
      407.05
39
 0
62
 1
 0
LINE
8
default
6
CONTINUOUS
10
      442.13
20
      407.05
11
      442.17
21
      406.54
39
 0
62
 3
 0
LINE
8
default
6
CONTINUOUS
10
     -442.13
20
      407.05
11
     -442.17
21
      406.54
39
 0
62
 1
 0
LINE
8
default
6
CONTINUOUS
10
      442.17
20
      406.54
11
      442.22
21
      406.04
39
 0
62
 3
 0
LINE
8
default
6
CONTINUOUS
10
     -442.17
20
      406.54
11
     -442.22
21
      406.04
39
 0
62
 1
 0
LINE
8
default
6
CONTINUOUS
10
      442.22
20
      406.04
11
      442.26
21
      405.54
39
 0
62
 3
 0
LINE
8
default
6
CONTINUOUS
10
     -442.22
20
      406.04
11
     -442.26
21
      405.54
39
 0
62
 1
 0
LINE
8
default
6
CONTINUOUS
10
      442.26
20
      405.54
11
      442.29
21
      405.04
39
 0
62
 3
 0
LINE
8
default
6
CONTINUOUS
10
     -442.26
20
      405.54
11
     -442.29
21
      405.04
39
 0
62
 1
 0
LINE
8
default
6
CONTINUOUS
10
      442.29
20
      405.04
11
      442.33
21
      404.53
39
 0
62
 3
 0
LINE
8
default
6
CONTINUOUS
10
     -442.29
20
      405.04
11
     -442.33
21
      404.53
39
 0
62
 1
 0
LINE
8
default
6
CONTINUOUS
10
      442.33
20
      404.53
11
      442.36
21
      404.03
39
 0
62
 3
 0
LINE
8
default
6
CONTINUOUS
10
     -442.33
20
      404.53
11
     -442.36
21
      404.03
39
 0
62
 1
 0
LINE
8
default
6
CONTINUOUS
10
      442.36
20
      404.03
11
      442.39
21
      403.53
39
 0
62
 3
 0
LINE
8
default
6
CONTINUOUS
10
     -442.36
20
      404.03
11
     -442.39
21
      403.53
39
 0
62
 1
 0
LINE
8
default
6
CONTINUOUS
10
      442.39
20
      403.53
11
      442.42
21
      403.02
39
 0
62
 3
 0
LINE
8
default
6
CONTINUOUS
10
     -442.39
20
      403.53
11
     -442.42
21
      403.02
39
 0
62
 1
 0
LINE
8
default
6
CONTINUOUS
10
      442.42
20
      403.02
11
      442.45
21
      402.52
39
 0
62
 3
 0
LINE
8
default
6
CONTINUOUS
10
     -442.42
20
      403.02
11
     -442.45
21
      402.52
39
 0
62
 1
 0
LINE
8
default
6
CONTINUOUS
10
      442.45
20
      402.52
11
      442.47
21
      402.02
39
 0
62
 3
 0
LINE
8
default
6
CONTINUOUS
10
     -442.45
20
      402.52
11
     -442.47
21
      402.02
39
 0
62
 1
 0
LINE
8
default
6
CONTINUOUS
10
      442.47
20
      402.02
11
      442.49
21
      401.51
39
 0
62
 3
 0
LINE
8
default
6
CONTINUOUS
10
     -442.47
20
      402.02
11
     -442.49
21
      401.51
39
 0
62
 1
 0
LINE
8
default
6
CONTINUOUS
10
      442.49
20
      401.51
11
      442.51
21
      401.01
39
 0
62
 3
 0
LINE
8
default
6
CONTINUOUS
10
     -442.49
20
      401.51
11
     -442.51
21
      401.01
39
 0
62
 1
 0
LINE
8
default
6
CONTINUOUS
10
      442.51
20
      401.01
11
      442.52
21
      400.50
39
 0
62
 3
 0
LINE
8
default
6
CONTINUOUS
10
     -442.51
20
      401.01
11
     -442.52
21
      400.50
39
 0
62
 1
 0
LINE
8
default
6
CONTINUOUS
10
      442.52
20
      400.50
11
      442.53
21
      400.00
39
 0
62
 3
 0
LINE
8
default
6
CONTINUOUS
10
     -442.52
20
      400.50
11
     -442.53
21
      400.00
39
 0
62
 1
 0
LINE
8
default
6
CONTINUOUS
10
       24.37
20
        -.18
11
       24.37
21
     -309.24
39
 0
62
 3
 0
LINE
8
default
6
CONTINUOUS
10
      -24.37
20
        -.18
11
      -24.37
21
     -309.24
39
 0
62
 1
 0
LINE
8
default
6
CONTINUOUS
10
       72.86
20
       -1.60
11
       72.86
21
     -308.49
39
 0
62
 3
 0
LINE
8
default
6
CONTINUOUS
10
      -72.86
20
       -1.60
11
      -72.86
21
     -308.49
39
 0
62
 1
 0
LINE
8
default
6
CONTINUOUS
10
      120.88
20
       -4.44
11
      120.88
21
     -307.00
39
 0
62
 3
 0
LINE
8
default
6
CONTINUOUS
10
     -120.88
20
       -4.44
11
     -120.88
21
     -307.00
39
 0
62
 1
 0
LINE
8
default
6
CONTINUOUS
10
      168.18
20
       -8.68
11
      168.18
21
     -304.79
39
 0
62
 3
 0
LINE
8
default
6
CONTINUOUS
10
     -168.18
20
       -8.68
11
     -168.18
21
     -304.79
39
 0
62
 1
 0
LINE
8
default
6
CONTINUOUS
10
      214.54
20
      -14.30
11
      214.54
21
     -301.85
39
 0
62
 3
 0
LINE
8
default
6
CONTINUOUS
10
     -214.54
20
      -14.30
11
     -214.54
21
     -301.85
39
 0
62
 1
 0
LINE
8
default
6
CONTINUOUS
10
      259.72
20
      -21.30
11
      259.72
21
     -298.21
39
 0
62
 3
 0
LINE
8
default
6
CONTINUOUS
10
     -259.72
20
      -21.30
11
     -259.72
21
     -298.21
39
 0
62
 1
 0
LINE
8
default
6
CONTINUOUS
10
      303.49
20
      -29.76
11
      303.49
21
     -293.87
39
 0
62
 3
 0
LINE
8
default
6
CONTINUOUS
10
     -303.49
20
      -29.76
11
     -303.49
21
     -293.87
39
 0
62
 1
 0
LINE
8
default
6
CONTINUOUS
10
      345.43
20
      -41.25
11
      345.43
21
     -288.87
39
 0
62
 3
 0
LINE
8
default
6
CONTINUOUS
10
     -345.43
20
      -41.25
11
     -345.43
21
     -288.87
39
 0
62
 1
 0
LINE
8
default
6
CONTINUOUS
10
      385.13
20
      -55.99
11
      385.13
21
     -283.17
39
 0
62
 3
 0
LINE
8
default
6
CONTINUOUS
10
     -385.13
20
      -55.99
11
     -385.13
21
     -283.17
39
 0
62
 1
 0
LINE
8
default
6
CONTINUOUS
10
      422.18
20
      -73.44
11
      422.18
21
     -276.64
39
 0
62
 3
 0
LINE
8
default
6
CONTINUOUS
10
     -422.18
20
      -73.44
11
     -422.18
21
     -276.64
39
 0
62
 1
 0
LINE
8
default
6
CONTINUOUS
10
      456.29
20
      -93.03
11
      456.29
21
     -269.46
39
 0
62
 3
 0
LINE
8
default
6
CONTINUOUS
10
     -456.29
20
      -93.03
11
     -456.29
21
     -269.46
39
 0
62
 1
 0
LINE
8
default
6
CONTINUOUS
10
      487.22
20
     -114.19
11
      487.22
21
     -261.78
39
 0
62
 3
 0
LINE
8
default
6
CONTINUOUS
10
     -487.22
20
     -114.19
11
     -487.22
21
     -261.78
39
 0
62
 1
 0
LINE
8
default
6
CONTINUOUS
10
      514.81
20
     -136.37
11
      514.81
21
     -253.81
39
 0
62
 3
 0
LINE
8
default
6
CONTINUOUS
10
     -514.81
20
     -136.37
11
     -514.81
21
     -253.81
39
 0
62
 1
 0
LINE
8
default
6
CONTINUOUS
10
      539.00
20
     -159.09
11
      539.00
21
     -245.71
39
 0
62
 3
 0
LINE
8
default
6
CONTINUOUS
10
     -539.00
20
     -159.09
11
     -539.00
21
     -245.71
39
 0
62
 1
 0
LINE
8
default
6
CONTINUOUS
10
       24.36
20
      640.44
11
       24.36
21
      690.44
39
 0
62
 1
 0
LINE
8
default
6
CONTINUOUS
10
       24.36
20
      640.44
11
       26.25
21
      690.41
39
 0
62
 2
 0
LINE
8
default
6
CONTINUOUS
10
       72.71
20
      636.83
11
       72.71
21
      686.83
39
 0
62
 1
 0
LINE
8
default
6
CONTINUOUS
10
       72.71
20
      636.83
11
       78.35
21
      686.51
39
 0
62
 2
 0
LINE
8
default
6
CONTINUOUS
10
      120.19
20
      629.71
11
      120.19
21
      679.71
39
 0
62
 1
 0
LINE
8
default
6
CONTINUOUS
10
      120.19
20
      629.71
11
      129.37
21
      678.86
39
 0
62
 2
 0
LINE
8
default
6
CONTINUOUS
10
      166.32
20
      619.30
11
      166.32
21
      669.30
39
 0
62
 1
 0
LINE
8
default
6
CONTINUOUS
10
      166.32
20
      619.30
11
      179.18
21
      667.61
39
 0
62
 2
 0
LINE
8
default
6
CONTINUOUS
10
      210.68
20
      605.87
11
      210.68
21
      655.87
39
 0
62
 1
 0
LINE
8
default
6
CONTINUOUS
10
      210.68
20
      605.87
11
      226.80
21
      653.20
39
 0
62
 2
 0
LINE
8
default
6
CONTINUOUS
10
      252.81
20
      589.58
11
      252.81
21
      639.58
39
 0
62
 1
 0
LINE
8
default
6
CONTINUOUS
10
      252.81
20
      589.58
11
      272.90
21
      635.37
39
 0
62
 2
 0
LINE
8
default
6
CONTINUOUS
10
      292.04
20
      570.22
11
      292.04
21
      620.22
39
 0
62
 1
 0
LINE
8
default
6
CONTINUOUS
10
      292.04
20
      570.22
11
      316.19
21
      614.01
39
 0
62
 2
 0
LINE
8
default
6
CONTINUOUS
10
      327.88
20
      548.45
11
      327.88
21
      598.45
39
 0
62
 1
 0
LINE
8
default
6
CONTINUOUS
10
      327.88
20
      548.45
11
      355.72
21
      589.98
39
 0
62
 2
 0
LINE
8
default
6
CONTINUOUS
10
      359.95
20
      525.08
11
      359.95
21
      575.08
39
 0
62
 1
 0
LINE
8
default
6
CONTINUOUS
10
      359.95
20
      525.08
11
      390.98
21
      564.28
39
 0
62
 2
 0
LINE
8
default
6
CONTINUOUS
10
      388.02
20
      500.91
11
      388.02
21
      550.91
39
 0
62
 1
 0
LINE
8
default
6
CONTINUOUS
10
      388.02
20
      500.91
11
      422.70
21
      536.93
39
 0
62
 2
 0
LINE
8
default
6
CONTINUOUS
10
      410.79
20
      475.56
11
      410.79
21
      525.56
39
 0
62
 1
 0
LINE
8
default
6
CONTINUOUS
10
      410.79
20
      475.56
11
      450.36
21
      506.12
39
 0
62
 2
 0
LINE
8
default
6
CONTINUOUS
10
      428.04
20
      449.91
11
      428.04
21
      499.91
39
 0
62
 1
 0
LINE
8
default
6
CONTINUOUS
10
      428.04
20
      449.91
11
      471.25
21
      475.08
39
 0
62
 2
 0
LINE
8
default
6
CONTINUOUS
10
      438.90
20
      424.64
11
      438.90
21
      474.64
39
 0
62
 1
 0
LINE
8
default
6
CONTINUOUS
10
      438.90
20
      424.64
11
      487.09
21
      437.97
39
 0
62
 2
 0
LINE
8
default
6
CONTINUOUS
10
      442.53
20
      400.00
11
      442.53
21
      450.00
39
 0
62
 1
 0
LINE
8
default
6
CONTINUOUS
10
      442.53
20
      400.00
11
      492.51
21
      401.51
39
 0
62
 2
 0
ENDSEC
0
EOF
