0
SECTION
2
HEADER
9
$EXTMAX
10
    -900.000
20
      90.000
9
$EXTMIN
10
    5000.000
20
   -3000.000
0
ENDSEC
0
SECTION
2
ENTITIES
0
LINE
8
default
6
CONTINUOUS
10
        0.00
20
       -0.00
11
        7.10
21
       -0.01
39
 0
62
 1
 0
LINE
8
default
6
CONTINUOUS
10
        0.00
20
       -0.00
11
       -7.10
21
       -0.01
39
 0
62
 1
 0
LINE
8
default
6
CONTINUOUS
10
        7.10
20
       -0.01
11
       14.20
21
       -0.05
39
 0
62
 1
 0
LINE
8
default
6
CONTINUOUS
10
       -7.10
20
       -0.01
11
      -14.20
21
       -0.05
39
 0
62
 1
 0
LINE
8
default
6
CONTINUOUS
10
       14.20
20
       -0.05
11
       21.30
21
       -0.11
39
 0
62
 1
 0
LINE
8
default
6
CONTINUOUS
10
      -14.20
20
       -0.05
11
      -21.30
21
       -0.11
39
 0
62
 1
 0
LINE
8
default
6
CONTINUOUS
10
       21.30
20
       -0.11
11
       28.40
21
       -0.19
39
 0
62
 1
 0
LINE
8
default
6
CONTINUOUS
10
      -21.30
20
       -0.11
11
      -28.40
21
       -0.19
39
 0
62
 1
 0
LINE
8
default
6
CONTINUOUS
10
       28.40
20
       -0.19
11
       35.50
21
       -0.30
39
 0
62
 1
 0
LINE
8
default
6
CONTINUOUS
10
      -28.40
20
       -0.19
11
      -35.50
21
       -0.30
39
 0
62
 1
 0
LINE
8
default
6
CONTINUOUS
10
       35.50
20
       -0.30
11
       42.59
21
       -0.44
39
 0
62
 1
 0
LINE
8
default
6
CONTINUOUS
10
      -35.50
20
       -0.30
11
      -42.59
21
       -0.44
39
 0
62
 1
 0
LINE
8
default
6
CONTINUOUS
10
       42.59
20
       -0.44
11
       49.67
21
       -0.60
39
 0
62
 1
 0
LINE
8
default
6
CONTINUOUS
10
      -42.59
20
       -0.44
11
      -49.67
21
       -0.60
39
 0
62
 1
 0
LINE
8
default
6
CONTINUOUS
10
       49.67
20
       -0.60
11
       56.76
21
       -0.78
39
 0
62
 1
 0
LINE
8
default
6
CONTINUOUS
10
      -49.67
20
       -0.60
11
      -56.76
21
       -0.78
39
 0
62
 1
 0
LINE
8
default
6
CONTINUOUS
10
       56.76
20
       -0.78
11
       63.83
21
       -0.98
39
 0
62
 1
 0
LINE
8
default
6
CONTINUOUS
10
      -56.76
20
       -0.78
11
      -63.83
21
       -0.98
39
 0
62
 1
 0
LINE
8
default
6
CONTINUOUS
10
       63.83
20
       -0.98
11
       70.90
21
       -1.21
39
 0
62
 1
 0
LINE
8
default
6
CONTINUOUS
10
      -63.83
20
       -0.98
11
      -70.90
21
       -1.21
39
 0
62
 1
 0
LINE
8
default
6
CONTINUOUS
10
       70.90
20
       -1.21
11
       77.97
21
       -1.47
39
 0
62
 1
 0
LINE
8
default
6
CONTINUOUS
10
      -70.90
20
       -1.21
11
      -77.97
21
       -1.47
39
 0
62
 1
 0
LINE
8
default
6
CONTINUOUS
10
       77.97
20
       -1.47
11
       85.02
21
       -1.75
39
 0
62
 1
 0
LINE
8
default
6
CONTINUOUS
10
      -77.97
20
       -1.47
11
      -85.02
21
       -1.75
39
 0
62
 1
 0
LINE
8
default
6
CONTINUOUS
10
       85.02
20
       -1.75
11
       92.07
21
       -2.05
39
 0
62
 1
 0
LINE
8
default
6
CONTINUOUS
10
      -85.02
20
       -1.75
11
      -92.07
21
       -2.05
39
 0
62
 1
 0
LINE
8
default
6
CONTINUOUS
10
       92.07
20
       -2.05
11
       99.10
21
       -2.38
39
 0
62
 1
 0
LINE
8
default
6
CONTINUOUS
10
      -92.07
20
       -2.05
11
      -99.10
21
       -2.38
39
 0
62
 1
 0
LINE
8
default
6
CONTINUOUS
10
       99.10
20
       -2.38
11
      106.13
21
       -2.73
39
 0
62
 1
 0
LINE
8
default
6
CONTINUOUS
10
      -99.10
20
       -2.38
11
     -106.13
21
       -2.73
39
 0
62
 1
 0
LINE
8
default
6
CONTINUOUS
10
      106.13
20
       -2.73
11
      113.15
21
       -3.11
39
 0
62
 1
 0
LINE
8
default
6
CONTINUOUS
10
     -106.13
20
       -2.73
11
     -113.15
21
       -3.11
39
 0
62
 1
 0
LINE
8
default
6
CONTINUOUS
10
      113.15
20
       -3.11
11
      120.15
21
       -3.50
39
 0
62
 1
 0
LINE
8
default
6
CONTINUOUS
10
     -113.15
20
       -3.11
11
     -120.15
21
       -3.50
39
 0
62
 1
 0
LINE
8
default
6
CONTINUOUS
10
      120.15
20
       -3.50
11
      127.15
21
       -3.93
39
 0
62
 1
 0
LINE
8
default
6
CONTINUOUS
10
     -120.15
20
       -3.50
11
     -127.15
21
       -3.93
39
 0
62
 1
 0
LINE
8
default
6
CONTINUOUS
10
      127.15
20
       -3.93
11
      134.13
21
       -4.37
39
 0
62
 1
 0
LINE
8
default
6
CONTINUOUS
10
     -127.15
20
       -3.93
11
     -134.13
21
       -4.37
39
 0
62
 1
 0
LINE
8
default
6
CONTINUOUS
10
      134.13
20
       -4.37
11
      141.10
21
       -4.85
39
 0
62
 1
 0
LINE
8
default
6
CONTINUOUS
10
     -134.13
20
       -4.37
11
     -141.10
21
       -4.85
39
 0
62
 1
 0
LINE
8
default
6
CONTINUOUS
10
      141.10
20
       -4.85
11
      148.05
21
       -5.34
39
 0
62
 1
 0
LINE
8
default
6
CONTINUOUS
10
     -141.10
20
       -4.85
11
     -148.05
21
       -5.34
39
 0
62
 1
 0
LINE
8
default
6
CONTINUOUS
10
      148.05
20
       -5.34
11
      154.99
21
       -5.86
39
 0
62
 1
 0
LINE
8
default
6
CONTINUOUS
10
     -148.05
20
       -5.34
11
     -154.99
21
       -5.86
39
 0
62
 1
 0
LINE
8
default
6
CONTINUOUS
10
      154.99
20
       -5.86
11
      161.91
21
       -6.40
39
 0
62
 1
 0
LINE
8
default
6
CONTINUOUS
10
     -154.99
20
       -5.86
11
     -161.91
21
       -6.40
39
 0
62
 1
 0
LINE
8
default
6
CONTINUOUS
10
      161.91
20
       -6.40
11
      168.82
21
       -6.97
39
 0
62
 1
 0
LINE
8
default
6
CONTINUOUS
10
     -161.91
20
       -6.40
11
     -168.82
21
       -6.97
39
 0
62
 1
 0
LINE
8
default
6
CONTINUOUS
10
      168.82
20
       -6.97
11
      175.71
21
       -7.56
39
 0
62
 1
 0
LINE
8
default
6
CONTINUOUS
10
     -168.82
20
       -6.97
11
     -175.71
21
       -7.56
39
 0
62
 1
 0
LINE
8
default
6
CONTINUOUS
10
      175.71
20
       -7.56
11
      182.58
21
       -8.17
39
 0
62
 1
 0
LINE
8
default
6
CONTINUOUS
10
     -175.71
20
       -7.56
11
     -182.58
21
       -8.17
39
 0
62
 1
 0
LINE
8
default
6
CONTINUOUS
10
      182.58
20
       -8.17
11
      189.44
21
       -8.81
39
 0
62
 1
 0
LINE
8
default
6
CONTINUOUS
10
     -182.58
20
       -8.17
11
     -189.44
21
       -8.81
39
 0
62
 1
 0
LINE
8
default
6
CONTINUOUS
10
      189.44
20
       -8.81
11
      196.27
21
       -9.47
39
 0
62
 1
 0
LINE
8
default
6
CONTINUOUS
10
     -189.44
20
       -8.81
11
     -196.27
21
       -9.47
39
 0
62
 1
 0
LINE
8
default
6
CONTINUOUS
10
      196.27
20
       -9.47
11
      203.09
21
      -10.15
39
 0
62
 1
 0
LINE
8
default
6
CONTINUOUS
10
     -196.27
20
       -9.47
11
     -203.09
21
      -10.15
39
 0
62
 1
 0
LINE
8
default
6
CONTINUOUS
10
      203.09
20
      -10.15
11
      209.88
21
      -10.86
39
 0
62
 1
 0
LINE
8
default
6
CONTINUOUS
10
     -203.09
20
      -10.15
11
     -209.88
21
      -10.86
39
 0
62
 1
 0
LINE
8
default
6
CONTINUOUS
10
      209.88
20
      -10.86
11
      216.66
21
      -11.59
39
 0
62
 1
 0
LINE
8
default
6
CONTINUOUS
10
     -209.88
20
      -10.86
11
     -216.66
21
      -11.59
39
 0
62
 1
 0
LINE
8
default
6
CONTINUOUS
10
      216.66
20
      -11.59
11
      223.41
21
      -12.34
39
 0
62
 1
 0
LINE
8
default
6
CONTINUOUS
10
     -216.66
20
      -11.59
11
     -223.41
21
      -12.34
39
 0
62
 1
 0
LINE
8
default
6
CONTINUOUS
10
      223.41
20
      -12.34
11
      230.14
21
      -13.12
39
 0
62
 1
 0
LINE
8
default
6
CONTINUOUS
10
     -223.41
20
      -12.34
11
     -230.14
21
      -13.12
39
 0
62
 1
 0
LINE
8
default
6
CONTINUOUS
10
      230.14
20
      -13.12
11
      236.85
21
      -13.92
39
 0
62
 1
 0
LINE
8
default
6
CONTINUOUS
10
     -230.14
20
      -13.12
11
     -236.85
21
      -13.92
39
 0
62
 1
 0
LINE
8
default
6
CONTINUOUS
10
      236.85
20
      -13.92
11
      243.53
21
      -14.74
39
 0
62
 1
 0
LINE
8
default
6
CONTINUOUS
10
     -236.85
20
      -13.92
11
     -243.53
21
      -14.74
39
 0
62
 1
 0
LINE
8
default
6
CONTINUOUS
10
      243.53
20
      -14.74
11
      250.19
21
      -15.58
39
 0
62
 1
 0
LINE
8
default
6
CONTINUOUS
10
     -243.53
20
      -14.74
11
     -250.19
21
      -15.58
39
 0
62
 1
 0
LINE
8
default
6
CONTINUOUS
10
      250.19
20
      -15.58
11
      256.82
21
      -16.45
39
 0
62
 1
 0
LINE
8
default
6
CONTINUOUS
10
     -250.19
20
      -15.58
11
     -256.82
21
      -16.45
39
 0
62
 1
 0
LINE
8
default
6
CONTINUOUS
10
      256.82
20
      -16.45
11
      263.43
21
      -17.34
39
 0
62
 1
 0
LINE
8
default
6
CONTINUOUS
10
     -256.82
20
      -16.45
11
     -263.43
21
      -17.34
39
 0
62
 1
 0
LINE
8
default
6
CONTINUOUS
10
      263.43
20
      -17.34
11
      270.01
21
      -18.26
39
 0
62
 1
 0
LINE
8
default
6
CONTINUOUS
10
     -263.43
20
      -17.34
11
     -270.01
21
      -18.26
39
 0
62
 1
 0
LINE
8
default
6
CONTINUOUS
10
      270.01
20
      -18.26
11
      276.57
21
      -19.19
39
 0
62
 1
 0
LINE
8
default
6
CONTINUOUS
10
     -270.01
20
      -18.26
11
     -276.57
21
      -19.19
39
 0
62
 1
 0
LINE
8
default
6
CONTINUOUS
10
      276.57
20
      -19.19
11
      283.10
21
      -20.15
39
 0
62
 1
 0
LINE
8
default
6
CONTINUOUS
10
     -276.57
20
      -19.19
11
     -283.10
21
      -20.15
39
 0
62
 1
 0
LINE
8
default
6
CONTINUOUS
10
      283.10
20
      -20.15
11
      289.60
21
      -21.13
39
 0
62
 1
 0
LINE
8
default
6
CONTINUOUS
10
     -283.10
20
      -20.15
11
     -289.60
21
      -21.13
39
 0
62
 1
 0
LINE
8
default
6
CONTINUOUS
10
      289.60
20
      -21.13
11
      296.07
21
      -22.13
39
 0
62
 1
 0
LINE
8
default
6
CONTINUOUS
10
     -289.60
20
      -21.13
11
     -296.07
21
      -22.13
39
 0
62
 1
 0
LINE
8
default
6
CONTINUOUS
10
      296.07
20
      -22.13
11
      302.51
21
      -23.16
39
 0
62
 1
 0
LINE
8
default
6
CONTINUOUS
10
     -296.07
20
      -22.13
11
     -302.51
21
      -23.16
39
 0
62
 1
 0
LINE
8
default
6
CONTINUOUS
10
      302.51
20
      -23.16
11
      308.92
21
      -24.20
39
 0
62
 1
 0
LINE
8
default
6
CONTINUOUS
10
     -302.51
20
      -23.16
11
     -308.92
21
      -24.20
39
 0
62
 1
 0
LINE
8
default
6
CONTINUOUS
10
      308.92
20
      -24.20
11
      315.30
21
      -25.27
39
 0
62
 1
 0
LINE
8
default
6
CONTINUOUS
10
     -308.92
20
      -24.20
11
     -315.30
21
      -25.27
39
 0
62
 1
 0
LINE
8
default
6
CONTINUOUS
10
      315.30
20
      -25.27
11
      321.64
21
      -26.36
39
 0
62
 1
 0
LINE
8
default
6
CONTINUOUS
10
     -315.30
20
      -25.27
11
     -321.64
21
      -26.36
39
 0
62
 1
 0
LINE
8
default
6
CONTINUOUS
10
      321.64
20
      -26.36
11
      327.96
21
      -27.47
39
 0
62
 1
 0
LINE
8
default
6
CONTINUOUS
10
     -321.64
20
      -26.36
11
     -327.96
21
      -27.47
39
 0
62
 1
 0
LINE
8
default
6
CONTINUOUS
10
      327.96
20
      -27.47
11
      334.24
21
      -28.61
39
 0
62
 1
 0
LINE
8
default
6
CONTINUOUS
10
     -327.96
20
      -27.47
11
     -334.24
21
      -28.61
39
 0
62
 1
 0
LINE
8
default
6
CONTINUOUS
10
      334.24
20
      -28.61
11
      340.49
21
      -29.76
39
 0
62
 1
 0
LINE
8
default
6
CONTINUOUS
10
     -334.24
20
      -28.61
11
     -340.49
21
      -29.76
39
 0
62
 1
 0
LINE
8
default
6
CONTINUOUS
10
      340.49
20
      -29.76
11
      346.71
21
      -30.94
39
 0
62
 1
 0
LINE
8
default
6
CONTINUOUS
10
     -340.49
20
      -29.76
11
     -346.71
21
      -30.94
39
 0
62
 1
 0
LINE
8
default
6
CONTINUOUS
10
      346.71
20
      -30.94
11
      352.89
21
      -32.13
39
 0
62
 1
 0
LINE
8
default
6
CONTINUOUS
10
     -346.71
20
      -30.94
11
     -352.89
21
      -32.13
39
 0
62
 1
 0
LINE
8
default
6
CONTINUOUS
10
      352.89
20
      -32.13
11
      359.03
21
      -33.35
39
 0
62
 1
 0
LINE
8
default
6
CONTINUOUS
10
     -352.89
20
      -32.13
11
     -359.03
21
      -33.35
39
 0
62
 1
 0
LINE
8
default
6
CONTINUOUS
10
      359.03
20
      -33.35
11
      365.14
21
      -34.59
39
 0
62
 1
 0
LINE
8
default
6
CONTINUOUS
10
     -359.03
20
      -33.35
11
     -365.14
21
      -34.59
39
 0
62
 1
 0
LINE
8
default
6
CONTINUOUS
10
      365.14
20
      -34.59
11
      371.22
21
      -35.85
39
 0
62
 1
 0
LINE
8
default
6
CONTINUOUS
10
     -365.14
20
      -34.59
11
     -371.22
21
      -35.85
39
 0
62
 1
 0
LINE
8
default
6
CONTINUOUS
10
      371.22
20
      -35.85
11
      377.25
21
      -37.13
39
 0
62
 1
 0
LINE
8
default
6
CONTINUOUS
10
     -371.22
20
      -35.85
11
     -377.25
21
      -37.13
39
 0
62
 1
 0
LINE
8
default
6
CONTINUOUS
10
      377.25
20
      -37.14
11
      383.25
21
      -38.52
39
 0
62
 1
 0
LINE
8
default
6
CONTINUOUS
10
     -377.25
20
      -37.14
11
     -383.25
21
      -38.52
39
 0
62
 1
 0
LINE
8
default
6
CONTINUOUS
10
      383.25
20
      -38.52
11
      389.21
21
      -40.00
39
 0
62
 1
 0
LINE
8
default
6
CONTINUOUS
10
     -383.25
20
      -38.52
11
     -389.21
21
      -40.00
39
 0
62
 1
 0
LINE
8
default
6
CONTINUOUS
10
      389.21
20
      -40.00
11
      395.13
21
      -41.59
39
 0
62
 1
 0
LINE
8
default
6
CONTINUOUS
10
     -389.21
20
      -40.00
11
     -395.13
21
      -41.59
39
 0
62
 1
 0
LINE
8
default
6
CONTINUOUS
10
      395.13
20
      -41.59
11
      401.01
21
      -43.28
39
 0
62
 1
 0
LINE
8
default
6
CONTINUOUS
10
     -395.13
20
      -41.59
11
     -401.01
21
      -43.28
39
 0
62
 1
 0
LINE
8
default
6
CONTINUOUS
10
      401.01
20
      -43.28
11
      406.86
21
      -45.06
39
 0
62
 1
 0
LINE
8
default
6
CONTINUOUS
10
     -401.01
20
      -43.28
11
     -406.86
21
      -45.06
39
 0
62
 1
 0
LINE
8
default
6
CONTINUOUS
10
      406.86
20
      -45.06
11
      412.66
21
      -46.95
39
 0
62
 1
 0
LINE
8
default
6
CONTINUOUS
10
     -406.86
20
      -45.06
11
     -412.66
21
      -46.95
39
 0
62
 1
 0
LINE
8
default
6
CONTINUOUS
10
      412.66
20
      -46.95
11
      418.42
21
      -48.94
39
 0
62
 1
 0
LINE
8
default
6
CONTINUOUS
10
     -412.66
20
      -46.95
11
     -418.42
21
      -48.94
39
 0
62
 1
 0
LINE
8
default
6
CONTINUOUS
10
      418.42
20
      -48.94
11
      424.13
21
      -51.01
39
 0
62
 1
 0
LINE
8
default
6
CONTINUOUS
10
     -418.42
20
      -48.94
11
     -424.13
21
      -51.01
39
 0
62
 1
 0
LINE
8
default
6
CONTINUOUS
10
      424.13
20
      -51.01
11
      429.81
21
      -53.18
39
 0
62
 1
 0
LINE
8
default
6
CONTINUOUS
10
     -424.13
20
      -51.01
11
     -429.81
21
      -53.18
39
 0
62
 1
 0
LINE
8
default
6
CONTINUOUS
10
      429.81
20
      -53.18
11
      435.44
21
      -55.44
39
 0
62
 1
 0
LINE
8
default
6
CONTINUOUS
10
     -429.81
20
      -53.18
11
     -435.44
21
      -55.44
39
 0
62
 1
 0
LINE
8
default
6
CONTINUOUS
10
      435.44
20
      -55.44
11
      441.03
21
      -57.79
39
 0
62
 1
 0
LINE
8
default
6
CONTINUOUS
10
     -435.44
20
      -55.44
11
     -441.03
21
      -57.79
39
 0
62
 1
 0
LINE
8
default
6
CONTINUOUS
10
      441.03
20
      -57.79
11
      446.57
21
      -60.23
39
 0
62
 1
 0
LINE
8
default
6
CONTINUOUS
10
     -441.03
20
      -57.79
11
     -446.57
21
      -60.23
39
 0
62
 1
 0
LINE
8
default
6
CONTINUOUS
10
      446.57
20
      -60.23
11
      452.07
21
      -62.75
39
 0
62
 1
 0
LINE
8
default
6
CONTINUOUS
10
     -446.57
20
      -60.23
11
     -452.07
21
      -62.75
39
 0
62
 1
 0
LINE
8
default
6
CONTINUOUS
10
      452.07
20
      -62.75
11
      457.53
21
      -65.35
39
 0
62
 1
 0
LINE
8
default
6
CONTINUOUS
10
     -452.07
20
      -62.75
11
     -457.53
21
      -65.35
39
 0
62
 1
 0
LINE
8
default
6
CONTINUOUS
10
      457.53
20
      -65.35
11
      462.94
21
      -68.04
39
 0
62
 1
 0
LINE
8
default
6
CONTINUOUS
10
     -457.53
20
      -65.35
11
     -462.94
21
      -68.04
39
 0
62
 1
 0
LINE
8
default
6
CONTINUOUS
10
      462.94
20
      -68.04
11
      468.30
21
      -70.80
39
 0
62
 1
 0
LINE
8
default
6
CONTINUOUS
10
     -462.94
20
      -68.04
11
     -468.30
21
      -70.80
39
 0
62
 1
 0
LINE
8
default
6
CONTINUOUS
10
      468.30
20
      -70.80
11
      473.62
21
      -73.64
39
 0
62
 1
 0
LINE
8
default
6
CONTINUOUS
10
     -468.30
20
      -70.80
11
     -473.62
21
      -73.64
39
 0
62
 1
 0
LINE
8
default
6
CONTINUOUS
10
      473.62
20
      -73.64
11
      478.89
21
      -76.55
39
 0
62
 1
 0
LINE
8
default
6
CONTINUOUS
10
     -473.62
20
      -73.64
11
     -478.89
21
      -76.55
39
 0
62
 1
 0
LINE
8
default
6
CONTINUOUS
10
      478.89
20
      -76.55
11
      484.11
21
      -79.53
39
 0
62
 1
 0
LINE
8
default
6
CONTINUOUS
10
     -478.89
20
      -76.55
11
     -484.11
21
      -79.53
39
 0
62
 1
 0
LINE
8
default
6
CONTINUOUS
10
      484.11
20
      -79.53
11
      489.28
21
      -82.59
39
 0
62
 1
 0
LINE
8
default
6
CONTINUOUS
10
     -484.11
20
      -79.53
11
     -489.28
21
      -82.59
39
 0
62
 1
 0
LINE
8
default
6
CONTINUOUS
10
      489.28
20
      -82.59
11
      494.40
21
      -85.71
39
 0
62
 1
 0
LINE
8
default
6
CONTINUOUS
10
     -489.28
20
      -82.59
11
     -494.40
21
      -85.71
39
 0
62
 1
 0
LINE
8
default
6
CONTINUOUS
10
      494.40
20
      -85.71
11
      499.48
21
      -88.90
39
 0
62
 1
 0
LINE
8
default
6
CONTINUOUS
10
     -494.40
20
      -85.71
11
     -499.48
21
      -88.90
39
 0
62
 1
 0
LINE
8
default
6
CONTINUOUS
10
      499.48
20
      -88.90
11
      504.50
21
      -92.15
39
 0
62
 1
 0
LINE
8
default
6
CONTINUOUS
10
     -499.48
20
      -88.90
11
     -504.50
21
      -92.15
39
 0
62
 1
 0
LINE
8
default
6
CONTINUOUS
10
      504.50
20
      -92.15
11
      509.47
21
      -95.46
39
 0
62
 1
 0
LINE
8
default
6
CONTINUOUS
10
     -504.50
20
      -92.15
11
     -509.47
21
      -95.46
39
 0
62
 1
 0
LINE
8
default
6
CONTINUOUS
10
      509.47
20
      -95.46
11
      514.40
21
      -98.83
39
 0
62
 1
 0
LINE
8
default
6
CONTINUOUS
10
     -509.47
20
      -95.46
11
     -514.40
21
      -98.83
39
 0
62
 1
 0
LINE
8
default
6
CONTINUOUS
10
      514.40
20
      -98.83
11
      519.27
21
     -102.26
39
 0
62
 1
 0
LINE
8
default
6
CONTINUOUS
10
     -514.40
20
      -98.83
11
     -519.27
21
     -102.26
39
 0
62
 1
 0
LINE
8
default
6
CONTINUOUS
10
      519.27
20
     -102.26
11
      524.09
21
     -105.75
39
 0
62
 1
 0
LINE
8
default
6
CONTINUOUS
10
     -519.27
20
     -102.26
11
     -524.09
21
     -105.75
39
 0
62
 1
 0
LINE
8
default
6
CONTINUOUS
10
      524.09
20
     -105.75
11
      528.85
21
     -109.28
39
 0
62
 1
 0
LINE
8
default
6
CONTINUOUS
10
     -524.09
20
     -105.75
11
     -528.85
21
     -109.28
39
 0
62
 1
 0
LINE
8
default
6
CONTINUOUS
10
      528.85
20
     -109.28
11
      533.57
21
     -112.87
39
 0
62
 1
 0
LINE
8
default
6
CONTINUOUS
10
     -528.85
20
     -109.28
11
     -533.57
21
     -112.87
39
 0
62
 1
 0
LINE
8
default
6
CONTINUOUS
10
      533.57
20
     -112.87
11
      538.23
21
     -116.51
39
 0
62
 1
 0
LINE
8
default
6
CONTINUOUS
10
     -533.57
20
     -112.87
11
     -538.23
21
     -116.51
39
 0
62
 1
 0
LINE
8
default
6
CONTINUOUS
10
      538.23
20
     -116.51
11
      542.83
21
     -120.19
39
 0
62
 1
 0
LINE
8
default
6
CONTINUOUS
10
     -538.23
20
     -116.51
11
     -542.83
21
     -120.19
39
 0
62
 1
 0
LINE
8
default
6
CONTINUOUS
10
      542.83
20
     -120.19
11
      547.39
21
     -123.92
39
 0
62
 1
 0
LINE
8
default
6
CONTINUOUS
10
     -542.83
20
     -120.19
11
     -547.39
21
     -123.92
39
 0
62
 1
 0
LINE
8
default
6
CONTINUOUS
10
      547.39
20
     -123.92
11
      551.88
21
     -127.69
39
 0
62
 1
 0
LINE
8
default
6
CONTINUOUS
10
     -547.39
20
     -123.92
11
     -551.88
21
     -127.69
39
 0
62
 1
 0
LINE
8
default
6
CONTINUOUS
10
      551.88
20
     -127.69
11
      556.33
21
     -131.49
39
 0
62
 1
 0
LINE
8
default
6
CONTINUOUS
10
     -551.88
20
     -127.69
11
     -556.33
21
     -131.49
39
 0
62
 1
 0
LINE
8
default
6
CONTINUOUS
10
      556.33
20
     -131.49
11
      560.71
21
     -135.34
39
 0
62
 1
 0
LINE
8
default
6
CONTINUOUS
10
     -556.33
20
     -131.49
11
     -560.71
21
     -135.34
39
 0
62
 1
 0
LINE
8
default
6
CONTINUOUS
10
      560.71
20
     -135.34
11
      565.04
21
     -139.22
39
 0
62
 1
 0
LINE
8
default
6
CONTINUOUS
10
     -560.71
20
     -135.34
11
     -565.04
21
     -139.22
39
 0
62
 1
 0
LINE
8
default
6
CONTINUOUS
10
      565.04
20
     -139.22
11
      569.32
21
     -143.14
39
 0
62
 1
 0
LINE
8
default
6
CONTINUOUS
10
     -565.04
20
     -139.22
11
     -569.32
21
     -143.14
39
 0
62
 1
 0
LINE
8
default
6
CONTINUOUS
10
      569.32
20
     -143.14
11
      573.54
21
     -147.08
39
 0
62
 1
 0
LINE
8
default
6
CONTINUOUS
10
     -569.32
20
     -143.14
11
     -573.54
21
     -147.08
39
 0
62
 1
 0
LINE
8
default
6
CONTINUOUS
10
      573.54
20
     -147.08
11
      575.50
21
     -148.95
39
 0
62
 1
 0
LINE
8
default
6
CONTINUOUS
10
     -573.54
20
     -147.08
11
     -575.50
21
     -148.95
39
 0
62
 1
 0
LINE
8
default
6
CONTINUOUS
10
        0.00
20
     -271.02
11
        9.03
21
     -271.01
39
 0
62
 1
 0
LINE
8
default
6
CONTINUOUS
10
        0.00
20
     -271.02
11
       -9.03
21
     -271.01
39
 0
62
 1
 0
LINE
8
default
6
CONTINUOUS
10
        9.03
20
     -271.01
11
       18.06
21
     -270.97
39
 0
62
 1
 0
LINE
8
default
6
CONTINUOUS
10
       -9.03
20
     -271.01
11
      -18.06
21
     -270.97
39
 0
62
 1
 0
LINE
8
default
6
CONTINUOUS
10
       18.06
20
     -270.97
11
       27.09
21
     -270.91
39
 0
62
 1
 0
LINE
8
default
6
CONTINUOUS
10
      -18.06
20
     -270.97
11
      -27.09
21
     -270.91
39
 0
62
 1
 0
LINE
8
default
6
CONTINUOUS
10
       27.09
20
     -270.91
11
       36.11
21
     -270.83
39
 0
62
 1
 0
LINE
8
default
6
CONTINUOUS
10
      -27.09
20
     -270.91
11
      -36.11
21
     -270.83
39
 0
62
 1
 0
LINE
8
default
6
CONTINUOUS
10
       36.11
20
     -270.83
11
       45.13
21
     -270.72
39
 0
62
 1
 0
LINE
8
default
6
CONTINUOUS
10
      -36.11
20
     -270.83
11
      -45.13
21
     -270.72
39
 0
62
 1
 0
LINE
8
default
6
CONTINUOUS
10
       45.13
20
     -270.72
11
       54.15
21
     -270.58
39
 0
62
 1
 0
LINE
8
default
6
CONTINUOUS
10
      -45.13
20
     -270.72
11
      -54.15
21
     -270.58
39
 0
62
 1
 0
LINE
8
default
6
CONTINUOUS
10
       54.15
20
     -270.58
11
       63.16
21
     -270.42
39
 0
62
 1
 0
LINE
8
default
6
CONTINUOUS
10
      -54.15
20
     -270.58
11
      -63.16
21
     -270.42
39
 0
62
 1
 0
LINE
8
default
6
CONTINUOUS
10
       63.16
20
     -270.42
11
       72.16
21
     -270.24
39
 0
62
 1
 0
LINE
8
default
6
CONTINUOUS
10
      -63.16
20
     -270.42
11
      -72.16
21
     -270.24
39
 0
62
 1
 0
LINE
8
default
6
CONTINUOUS
10
       72.16
20
     -270.24
11
       81.16
21
     -270.04
39
 0
62
 1
 0
LINE
8
default
6
CONTINUOUS
10
      -72.16
20
     -270.24
11
      -81.16
21
     -270.04
39
 0
62
 1
 0
LINE
8
default
6
CONTINUOUS
10
       81.16
20
     -270.04
11
       90.15
21
     -269.81
39
 0
62
 1
 0
LINE
8
default
6
CONTINUOUS
10
      -81.16
20
     -270.04
11
      -90.15
21
     -269.81
39
 0
62
 1
 0
LINE
8
default
6
CONTINUOUS
10
       90.15
20
     -269.81
11
       99.13
21
     -269.55
39
 0
62
 1
 0
LINE
8
default
6
CONTINUOUS
10
      -90.15
20
     -269.81
11
      -99.13
21
     -269.55
39
 0
62
 1
 0
LINE
8
default
6
CONTINUOUS
10
       99.13
20
     -269.55
11
      108.10
21
     -269.27
39
 0
62
 1
 0
LINE
8
default
6
CONTINUOUS
10
      -99.13
20
     -269.55
11
     -108.10
21
     -269.27
39
 0
62
 1
 0
LINE
8
default
6
CONTINUOUS
10
      108.10
20
     -269.27
11
      117.06
21
     -268.97
39
 0
62
 1
 0
LINE
8
default
6
CONTINUOUS
10
     -108.10
20
     -269.27
11
     -117.06
21
     -268.97
39
 0
62
 1
 0
LINE
8
default
6
CONTINUOUS
10
      117.06
20
     -268.97
11
      126.01
21
     -268.64
39
 0
62
 1
 0
LINE
8
default
6
CONTINUOUS
10
     -117.06
20
     -268.97
11
     -126.01
21
     -268.64
39
 0
62
 1
 0
LINE
8
default
6
CONTINUOUS
10
      126.01
20
     -268.64
11
      134.94
21
     -268.29
39
 0
62
 1
 0
LINE
8
default
6
CONTINUOUS
10
     -126.01
20
     -268.64
11
     -134.94
21
     -268.29
39
 0
62
 1
 0
LINE
8
default
6
CONTINUOUS
10
      134.94
20
     -268.29
11
      143.87
21
     -267.91
39
 0
62
 1
 0
LINE
8
default
6
CONTINUOUS
10
     -134.94
20
     -268.29
11
     -143.87
21
     -267.91
39
 0
62
 1
 0
LINE
8
default
6
CONTINUOUS
10
      143.87
20
     -267.91
11
      152.77
21
     -267.52
39
 0
62
 1
 0
LINE
8
default
6
CONTINUOUS
10
     -143.87
20
     -267.91
11
     -152.77
21
     -267.52
39
 0
62
 1
 0
LINE
8
default
6
CONTINUOUS
10
      152.77
20
     -267.52
11
      161.67
21
     -267.09
39
 0
62
 1
 0
LINE
8
default
6
CONTINUOUS
10
     -152.77
20
     -267.52
11
     -161.67
21
     -267.09
39
 0
62
 1
 0
LINE
8
default
6
CONTINUOUS
10
      161.67
20
     -267.09
11
      170.54
21
     -266.65
39
 0
62
 1
 0
LINE
8
default
6
CONTINUOUS
10
     -161.67
20
     -267.09
11
     -170.54
21
     -266.65
39
 0
62
 1
 0
LINE
8
default
6
CONTINUOUS
10
      170.54
20
     -266.65
11
      179.40
21
     -266.17
39
 0
62
 1
 0
LINE
8
default
6
CONTINUOUS
10
     -170.54
20
     -266.65
11
     -179.40
21
     -266.17
39
 0
62
 1
 0
LINE
8
default
6
CONTINUOUS
10
      179.40
20
     -266.17
11
      188.24
21
     -265.68
39
 0
62
 1
 0
LINE
8
default
6
CONTINUOUS
10
     -179.40
20
     -266.17
11
     -188.24
21
     -265.68
39
 0
62
 1
 0
LINE
8
default
6
CONTINUOUS
10
      188.24
20
     -265.68
11
      197.06
21
     -265.16
39
 0
62
 1
 0
LINE
8
default
6
CONTINUOUS
10
     -188.24
20
     -265.68
11
     -197.06
21
     -265.16
39
 0
62
 1
 0
LINE
8
default
6
CONTINUOUS
10
      197.06
20
     -265.16
11
      205.87
21
     -264.62
39
 0
62
 1
 0
LINE
8
default
6
CONTINUOUS
10
     -197.06
20
     -265.16
11
     -205.87
21
     -264.62
39
 0
62
 1
 0
LINE
8
default
6
CONTINUOUS
10
      205.87
20
     -264.62
11
      214.65
21
     -264.05
39
 0
62
 1
 0
LINE
8
default
6
CONTINUOUS
10
     -205.87
20
     -264.62
11
     -214.65
21
     -264.05
39
 0
62
 1
 0
LINE
8
default
6
CONTINUOUS
10
      214.65
20
     -264.05
11
      223.41
21
     -263.46
39
 0
62
 1
 0
LINE
8
default
6
CONTINUOUS
10
     -214.65
20
     -264.05
11
     -223.41
21
     -263.46
39
 0
62
 1
 0
LINE
8
default
6
CONTINUOUS
10
      223.41
20
     -263.46
11
      232.15
21
     -262.85
39
 0
62
 1
 0
LINE
8
default
6
CONTINUOUS
10
     -223.41
20
     -263.46
11
     -232.15
21
     -262.85
39
 0
62
 1
 0
LINE
8
default
6
CONTINUOUS
10
      232.15
20
     -262.85
11
      240.86
21
     -262.21
39
 0
62
 1
 0
LINE
8
default
6
CONTINUOUS
10
     -232.15
20
     -262.85
11
     -240.86
21
     -262.21
39
 0
62
 1
 0
LINE
8
default
6
CONTINUOUS
10
      240.86
20
     -262.21
11
      249.55
21
     -261.55
39
 0
62
 1
 0
LINE
8
default
6
CONTINUOUS
10
     -240.86
20
     -262.21
11
     -249.55
21
     -261.55
39
 0
62
 1
 0
LINE
8
default
6
CONTINUOUS
10
      249.55
20
     -261.55
11
      258.22
21
     -260.87
39
 0
62
 1
 0
LINE
8
default
6
CONTINUOUS
10
     -249.55
20
     -261.55
11
     -258.22
21
     -260.87
39
 0
62
 1
 0
LINE
8
default
6
CONTINUOUS
10
      258.22
20
     -260.87
11
      266.86
21
     -260.16
39
 0
62
 1
 0
LINE
8
default
6
CONTINUOUS
10
     -258.22
20
     -260.87
11
     -266.86
21
     -260.16
39
 0
62
 1
 0
LINE
8
default
6
CONTINUOUS
10
      266.86
20
     -260.16
11
      275.47
21
     -259.43
39
 0
62
 1
 0
LINE
8
default
6
CONTINUOUS
10
     -266.86
20
     -260.16
11
     -275.47
21
     -259.43
39
 0
62
 1
 0
LINE
8
default
6
CONTINUOUS
10
      275.47
20
     -259.43
11
      284.06
21
     -258.68
39
 0
62
 1
 0
LINE
8
default
6
CONTINUOUS
10
     -275.47
20
     -259.43
11
     -284.06
21
     -258.68
39
 0
62
 1
 0
LINE
8
default
6
CONTINUOUS
10
      284.06
20
     -258.68
11
      292.61
21
     -257.90
39
 0
62
 1
 0
LINE
8
default
6
CONTINUOUS
10
     -284.06
20
     -258.68
11
     -292.61
21
     -257.90
39
 0
62
 1
 0
LINE
8
default
6
CONTINUOUS
10
      292.61
20
     -257.90
11
      301.14
21
     -257.10
39
 0
62
 1
 0
LINE
8
default
6
CONTINUOUS
10
     -292.61
20
     -257.90
11
     -301.14
21
     -257.10
39
 0
62
 1
 0
LINE
8
default
6
CONTINUOUS
10
      301.14
20
     -257.10
11
      309.64
21
     -256.28
39
 0
62
 1
 0
LINE
8
default
6
CONTINUOUS
10
     -301.14
20
     -257.10
11
     -309.64
21
     -256.28
39
 0
62
 1
 0
LINE
8
default
6
CONTINUOUS
10
      309.64
20
     -256.28
11
      318.11
21
     -255.44
39
 0
62
 1
 0
LINE
8
default
6
CONTINUOUS
10
     -309.64
20
     -256.28
11
     -318.11
21
     -255.44
39
 0
62
 1
 0
LINE
8
default
6
CONTINUOUS
10
      318.11
20
     -255.44
11
      326.54
21
     -254.57
39
 0
62
 1
 0
LINE
8
default
6
CONTINUOUS
10
     -318.11
20
     -255.44
11
     -326.54
21
     -254.57
39
 0
62
 1
 0
LINE
8
default
6
CONTINUOUS
10
      326.54
20
     -254.57
11
      334.94
21
     -253.68
39
 0
62
 1
 0
LINE
8
default
6
CONTINUOUS
10
     -326.54
20
     -254.57
11
     -334.94
21
     -253.68
39
 0
62
 1
 0
LINE
8
default
6
CONTINUOUS
10
      334.94
20
     -253.68
11
      343.31
21
     -252.76
39
 0
62
 1
 0
LINE
8
default
6
CONTINUOUS
10
     -334.94
20
     -253.68
11
     -343.31
21
     -252.76
39
 0
62
 1
 0
LINE
8
default
6
CONTINUOUS
10
      343.31
20
     -252.76
11
      351.65
21
     -251.83
39
 0
62
 1
 0
LINE
8
default
6
CONTINUOUS
10
     -343.31
20
     -252.76
11
     -351.65
21
     -251.83
39
 0
62
 1
 0
LINE
8
default
6
CONTINUOUS
10
      351.65
20
     -251.83
11
      359.95
21
     -250.87
39
 0
62
 1
 0
LINE
8
default
6
CONTINUOUS
10
     -351.65
20
     -251.83
11
     -359.95
21
     -250.87
39
 0
62
 1
 0
LINE
8
default
6
CONTINUOUS
10
      359.95
20
     -250.87
11
      368.21
21
     -249.89
39
 0
62
 1
 0
LINE
8
default
6
CONTINUOUS
10
     -359.95
20
     -250.87
11
     -368.21
21
     -249.89
39
 0
62
 1
 0
LINE
8
default
6
CONTINUOUS
10
      368.21
20
     -249.89
11
      376.44
21
     -248.89
39
 0
62
 1
 0
LINE
8
default
6
CONTINUOUS
10
     -368.21
20
     -249.89
11
     -376.44
21
     -248.89
39
 0
62
 1
 0
LINE
8
default
6
CONTINUOUS
10
      376.44
20
     -248.89
11
      384.63
21
     -247.86
39
 0
62
 1
 0
LINE
8
default
6
CONTINUOUS
10
     -376.44
20
     -248.89
11
     -384.63
21
     -247.86
39
 0
62
 1
 0
LINE
8
default
6
CONTINUOUS
10
      384.63
20
     -247.86
11
      392.78
21
     -246.79
39
 0
62
 1
 0
LINE
8
default
6
CONTINUOUS
10
     -384.63
20
     -247.86
11
     -392.78
21
     -246.79
39
 0
62
 1
 0
LINE
8
default
6
CONTINUOUS
10
      392.78
20
     -246.79
11
      400.89
21
     -245.70
39
 0
62
 1
 0
LINE
8
default
6
CONTINUOUS
10
     -392.78
20
     -246.79
11
     -400.89
21
     -245.70
39
 0
62
 1
 0
LINE
8
default
6
CONTINUOUS
10
      400.89
20
     -245.70
11
      408.96
21
     -244.58
39
 0
62
 1
 0
LINE
8
default
6
CONTINUOUS
10
     -400.89
20
     -245.70
11
     -408.96
21
     -244.58
39
 0
62
 1
 0
LINE
8
default
6
CONTINUOUS
10
      408.96
20
     -244.58
11
      416.99
21
     -243.43
39
 0
62
 1
 0
LINE
8
default
6
CONTINUOUS
10
     -408.96
20
     -244.58
11
     -416.99
21
     -243.43
39
 0
62
 1
 0
LINE
8
default
6
CONTINUOUS
10
      416.99
20
     -243.43
11
      424.98
21
     -242.25
39
 0
62
 1
 0
LINE
8
default
6
CONTINUOUS
10
     -416.99
20
     -243.43
11
     -424.98
21
     -242.25
39
 0
62
 1
 0
LINE
8
default
6
CONTINUOUS
10
      424.98
20
     -242.25
11
      432.93
21
     -241.04
39
 0
62
 1
 0
LINE
8
default
6
CONTINUOUS
10
     -424.98
20
     -242.25
11
     -432.93
21
     -241.04
39
 0
62
 1
 0
LINE
8
default
6
CONTINUOUS
10
      432.93
20
     -241.04
11
      440.83
21
     -239.81
39
 0
62
 1
 0
LINE
8
default
6
CONTINUOUS
10
     -432.93
20
     -241.04
11
     -440.83
21
     -239.81
39
 0
62
 1
 0
LINE
8
default
6
CONTINUOUS
10
      440.83
20
     -239.81
11
      448.69
21
     -238.54
39
 0
62
 1
 0
LINE
8
default
6
CONTINUOUS
10
     -440.83
20
     -239.81
11
     -448.69
21
     -238.54
39
 0
62
 1
 0
LINE
8
default
6
CONTINUOUS
10
      448.69
20
     -238.54
11
      456.50
21
     -237.25
39
 0
62
 1
 0
LINE
8
default
6
CONTINUOUS
10
     -448.69
20
     -238.54
11
     -456.50
21
     -237.25
39
 0
62
 1
 0
LINE
8
default
6
CONTINUOUS
10
      456.50
20
     -237.25
11
      464.27
21
     -235.93
39
 0
62
 1
 0
LINE
8
default
6
CONTINUOUS
10
     -456.50
20
     -237.25
11
     -464.27
21
     -235.93
39
 0
62
 1
 0
LINE
8
default
6
CONTINUOUS
10
      464.27
20
     -235.93
11
      471.99
21
     -234.58
39
 0
62
 1
 0
LINE
8
default
6
CONTINUOUS
10
     -464.27
20
     -235.93
11
     -471.99
21
     -234.58
39
 0
62
 1
 0
LINE
8
default
6
CONTINUOUS
10
      471.99
20
     -234.58
11
      479.67
21
     -233.20
39
 0
62
 1
 0
LINE
8
default
6
CONTINUOUS
10
     -471.99
20
     -234.58
11
     -479.67
21
     -233.20
39
 0
62
 1
 0
LINE
8
default
6
CONTINUOUS
10
      479.67
20
     -233.20
11
      487.29
21
     -231.80
39
 0
62
 1
 0
LINE
8
default
6
CONTINUOUS
10
     -479.67
20
     -233.20
11
     -487.29
21
     -231.80
39
 0
62
 1
 0
LINE
8
default
6
CONTINUOUS
10
      487.29
20
     -231.80
11
      494.87
21
     -230.37
39
 0
62
 1
 0
LINE
8
default
6
CONTINUOUS
10
     -487.29
20
     -231.80
11
     -494.87
21
     -230.37
39
 0
62
 1
 0
LINE
8
default
6
CONTINUOUS
10
      494.87
20
     -230.37
11
      502.40
21
     -228.92
39
 0
62
 1
 0
LINE
8
default
6
CONTINUOUS
10
     -494.87
20
     -230.37
11
     -502.40
21
     -228.92
39
 0
62
 1
 0
LINE
8
default
6
CONTINUOUS
10
      502.40
20
     -228.92
11
      509.88
21
     -227.44
39
 0
62
 1
 0
LINE
8
default
6
CONTINUOUS
10
     -502.40
20
     -228.92
11
     -509.88
21
     -227.44
39
 0
62
 1
 0
LINE
8
default
6
CONTINUOUS
10
      509.88
20
     -227.44
11
      517.30
21
     -225.93
39
 0
62
 1
 0
LINE
8
default
6
CONTINUOUS
10
     -509.88
20
     -227.44
11
     -517.30
21
     -225.93
39
 0
62
 1
 0
LINE
8
default
6
CONTINUOUS
10
      517.30
20
     -225.93
11
      524.68
21
     -224.40
39
 0
62
 1
 0
LINE
8
default
6
CONTINUOUS
10
     -517.30
20
     -225.93
11
     -524.68
21
     -224.40
39
 0
62
 1
 0
LINE
8
default
6
CONTINUOUS
10
      524.68
20
     -224.40
11
      532.00
21
     -222.84
39
 0
62
 1
 0
LINE
8
default
6
CONTINUOUS
10
     -524.68
20
     -224.40
11
     -532.00
21
     -222.84
39
 0
62
 1
 0
LINE
8
default
6
CONTINUOUS
10
      532.00
20
     -222.84
11
      539.27
21
     -221.25
39
 0
62
 1
 0
LINE
8
default
6
CONTINUOUS
10
     -532.00
20
     -222.84
11
     -539.27
21
     -221.25
39
 0
62
 1
 0
LINE
8
default
6
CONTINUOUS
10
      539.27
20
     -221.25
11
      546.49
21
     -219.65
39
 0
62
 1
 0
LINE
8
default
6
CONTINUOUS
10
     -539.27
20
     -221.25
11
     -546.49
21
     -219.65
39
 0
62
 1
 0
LINE
8
default
6
CONTINUOUS
10
      546.49
20
     -219.65
11
      553.65
21
     -218.01
39
 0
62
 1
 0
LINE
8
default
6
CONTINUOUS
10
     -546.49
20
     -219.65
11
     -553.65
21
     -218.01
39
 0
62
 1
 0
LINE
8
default
6
CONTINUOUS
10
      553.65
20
     -218.01
11
      560.76
21
     -216.36
39
 0
62
 1
 0
LINE
8
default
6
CONTINUOUS
10
     -553.65
20
     -218.01
11
     -560.76
21
     -216.36
39
 0
62
 1
 0
LINE
8
default
6
CONTINUOUS
10
      560.76
20
     -216.36
11
      567.81
21
     -214.68
39
 0
62
 1
 0
LINE
8
default
6
CONTINUOUS
10
     -560.76
20
     -216.36
11
     -567.81
21
     -214.68
39
 0
62
 1
 0
LINE
8
default
6
CONTINUOUS
10
      567.81
20
     -214.68
11
      574.80
21
     -212.97
39
 0
62
 1
 0
LINE
8
default
6
CONTINUOUS
10
     -567.81
20
     -214.68
11
     -574.80
21
     -212.97
39
 0
62
 1
 0
LINE
8
default
6
CONTINUOUS
10
      574.80
20
     -212.97
11
      575.50
21
     -212.80
39
 0
62
 1
 0
LINE
8
default
6
CONTINUOUS
10
     -574.80
20
     -212.97
11
     -575.50
21
     -212.80
39
 0
62
 1
 0
LINE
8
default
6
CONTINUOUS
10
      575.50
20
     -148.95
11
      575.50
21
     -212.80
39
 0
62
 1
 0
LINE
8
default
6
CONTINUOUS
10
     -575.50
20
     -148.95
11
     -575.50
21
     -212.80
39
 0
62
 1
 0
LINE
8
default
6
CONTINUOUS
10
        0.00
20
      654.25
11
        2.03
21
      654.25
39
 0
62
 3
 0
LINE
8
default
6
CONTINUOUS
10
        0.00
20
      654.25
11
       -2.03
21
      654.25
39
 0
62
 1
 0
LINE
8
default
6
CONTINUOUS
10
        2.03
20
      654.25
11
        4.06
21
      654.24
39
 0
62
 3
 0
LINE
8
default
6
CONTINUOUS
10
       -2.03
20
      654.25
11
       -4.06
21
      654.24
39
 0
62
 1
 0
LINE
8
default
6
CONTINUOUS
10
        4.06
20
      654.24
11
        6.09
21
      654.23
39
 0
62
 3
 0
LINE
8
default
6
CONTINUOUS
10
       -4.06
20
      654.24
11
       -6.09
21
      654.23
39
 0
62
 1
 0
LINE
8
default
6
CONTINUOUS
10
        6.09
20
      654.23
11
        8.12
21
      654.21
39
 0
62
 3
 0
LINE
8
default
6
CONTINUOUS
10
       -6.09
20
      654.23
11
       -8.12
21
      654.21
39
 0
62
 1
 0
LINE
8
default
6
CONTINUOUS
10
        8.12
20
      654.21
11
       10.15
21
      654.18
39
 0
62
 3
 0
LINE
8
default
6
CONTINUOUS
10
       -8.12
20
      654.21
11
      -10.15
21
      654.18
39
 0
62
 1
 0
LINE
8
default
6
CONTINUOUS
10
       10.15
20
      654.18
11
       12.18
21
      654.15
39
 0
62
 3
 0
LINE
8
default
6
CONTINUOUS
10
      -10.15
20
      654.18
11
      -12.18
21
      654.15
39
 0
62
 1
 0
LINE
8
default
6
CONTINUOUS
10
       12.18
20
      654.15
11
       14.21
21
      654.12
39
 0
62
 3
 0
LINE
8
default
6
CONTINUOUS
10
      -12.18
20
      654.15
11
      -14.21
21
      654.12
39
 0
62
 1
 0
LINE
8
default
6
CONTINUOUS
10
       14.21
20
      654.12
11
       16.24
21
      654.08
39
 0
62
 3
 0
LINE
8
default
6
CONTINUOUS
10
      -14.21
20
      654.12
11
      -16.24
21
      654.08
39
 0
62
 1
 0
LINE
8
default
6
CONTINUOUS
10
       16.24
20
      654.08
11
       18.26
21
      654.03
39
 0
62
 3
 0
LINE
8
default
6
CONTINUOUS
10
      -16.24
20
      654.08
11
      -18.26
21
      654.03
39
 0
62
 1
 0
LINE
8
default
6
CONTINUOUS
10
       18.26
20
      654.03
11
       20.29
21
      653.98
39
 0
62
 3
 0
LINE
8
default
6
CONTINUOUS
10
      -18.26
20
      654.03
11
      -20.29
21
      653.98
39
 0
62
 1
 0
LINE
8
default
6
CONTINUOUS
10
       20.29
20
      653.98
11
       22.32
21
      653.92
39
 0
62
 3
 0
LINE
8
default
6
CONTINUOUS
10
      -20.29
20
      653.98
11
      -22.32
21
      653.92
39
 0
62
 1
 0
LINE
8
default
6
CONTINUOUS
10
       22.32
20
      653.92
11
       24.35
21
      653.86
39
 0
62
 3
 0
LINE
8
default
6
CONTINUOUS
10
      -22.32
20
      653.92
11
      -24.35
21
      653.86
39
 0
62
 1
 0
LINE
8
default
6
CONTINUOUS
10
       24.35
20
      653.86
11
       26.38
21
      653.79
39
 0
62
 3
 0
LINE
8
default
6
CONTINUOUS
10
      -24.35
20
      653.86
11
      -26.38
21
      653.79
39
 0
62
 1
 0
LINE
8
default
6
CONTINUOUS
10
       26.38
20
      653.79
11
       28.41
21
      653.71
39
 0
62
 3
 0
LINE
8
default
6
CONTINUOUS
10
      -26.38
20
      653.79
11
      -28.41
21
      653.71
39
 0
62
 1
 0
LINE
8
default
6
CONTINUOUS
10
       28.41
20
      653.71
11
       30.43
21
      653.63
39
 0
62
 3
 0
LINE
8
default
6
CONTINUOUS
10
      -28.41
20
      653.71
11
      -30.43
21
      653.63
39
 0
62
 1
 0
LINE
8
default
6
CONTINUOUS
10
       30.43
20
      653.63
11
       32.46
21
      653.55
39
 0
62
 3
 0
LINE
8
default
6
CONTINUOUS
10
      -30.43
20
      653.63
11
      -32.46
21
      653.55
39
 0
62
 1
 0
LINE
8
default
6
CONTINUOUS
10
       32.46
20
      653.55
11
       34.49
21
      653.46
39
 0
62
 3
 0
LINE
8
default
6
CONTINUOUS
10
      -32.46
20
      653.55
11
      -34.49
21
      653.46
39
 0
62
 1
 0
LINE
8
default
6
CONTINUOUS
10
       34.49
20
      653.46
11
       36.52
21
      653.36
39
 0
62
 3
 0
LINE
8
default
6
CONTINUOUS
10
      -34.49
20
      653.46
11
      -36.52
21
      653.36
39
 0
62
 1
 0
LINE
8
default
6
CONTINUOUS
10
       36.52
20
      653.36
11
       38.54
21
      653.26
39
 0
62
 3
 0
LINE
8
default
6
CONTINUOUS
10
      -36.52
20
      653.36
11
      -38.54
21
      653.26
39
 0
62
 1
 0
LINE
8
default
6
CONTINUOUS
10
       38.54
20
      653.26
11
       40.57
21
      653.15
39
 0
62
 3
 0
LINE
8
default
6
CONTINUOUS
10
      -38.54
20
      653.26
11
      -40.57
21
      653.15
39
 0
62
 1
 0
LINE
8
default
6
CONTINUOUS
10
       40.57
20
      653.15
11
       42.60
21
      653.04
39
 0
62
 3
 0
LINE
8
default
6
CONTINUOUS
10
      -40.57
20
      653.15
11
      -42.60
21
      653.04
39
 0
62
 1
 0
LINE
8
default
6
CONTINUOUS
10
       42.60
20
      653.04
11
       44.62
21
      652.92
39
 0
62
 3
 0
LINE
8
default
6
CONTINUOUS
10
      -42.60
20
      653.04
11
      -44.62
21
      652.92
39
 0
62
 1
 0
LINE
8
default
6
CONTINUOUS
10
       44.62
20
      652.92
11
       46.65
21
      652.80
39
 0
62
 3
 0
LINE
8
default
6
CONTINUOUS
10
      -44.62
20
      652.92
11
      -46.65
21
      652.80
39
 0
62
 1
 0
LINE
8
default
6
CONTINUOUS
10
       46.65
20
      652.80
11
       48.67
21
      652.67
39
 0
62
 3
 0
LINE
8
default
6
CONTINUOUS
10
      -46.65
20
      652.80
11
      -48.67
21
      652.67
39
 0
62
 1
 0
LINE
8
default
6
CONTINUOUS
10
       48.67
20
      652.67
11
       50.70
21
      652.54
39
 0
62
 3
 0
LINE
8
default
6
CONTINUOUS
10
      -48.67
20
      652.67
11
      -50.70
21
      652.54
39
 0
62
 1
 0
LINE
8
default
6
CONTINUOUS
10
       50.70
20
      652.54
11
       52.72
21
      652.40
39
 0
62
 3
 0
LINE
8
default
6
CONTINUOUS
10
      -50.70
20
      652.54
11
      -52.72
21
      652.40
39
 0
62
 1
 0
LINE
8
default
6
CONTINUOUS
10
       52.72
20
      652.40
11
       54.75
21
      652.25
39
 0
62
 3
 0
LINE
8
default
6
CONTINUOUS
10
      -52.72
20
      652.40
11
      -54.75
21
      652.25
39
 0
62
 1
 0
LINE
8
default
6
CONTINUOUS
10
       54.75
20
      652.25
11
       56.77
21
      652.10
39
 0
62
 3
 0
LINE
8
default
6
CONTINUOUS
10
      -54.75
20
      652.25
11
      -56.77
21
      652.10
39
 0
62
 1
 0
LINE
8
default
6
CONTINUOUS
10
       56.77
20
      652.10
11
       58.80
21
      651.95
39
 0
62
 3
 0
LINE
8
default
6
CONTINUOUS
10
      -56.77
20
      652.10
11
      -58.80
21
      651.95
39
 0
62
 1
 0
LINE
8
default
6
CONTINUOUS
10
       58.80
20
      651.95
11
       60.82
21
      651.78
39
 0
62
 3
 0
LINE
8
default
6
CONTINUOUS
10
      -58.80
20
      651.95
11
      -60.82
21
      651.78
39
 0
62
 1
 0
LINE
8
default
6
CONTINUOUS
10
       60.82
20
      651.78
11
       62.84
21
      651.62
39
 0
62
 3
 0
LINE
8
default
6
CONTINUOUS
10
      -60.82
20
      651.78
11
      -62.84
21
      651.62
39
 0
62
 1
 0
LINE
8
default
6
CONTINUOUS
10
       62.84
20
      651.62
11
       64.86
21
      651.44
39
 0
62
 3
 0
LINE
8
default
6
CONTINUOUS
10
      -62.84
20
      651.62
11
      -64.86
21
      651.44
39
 0
62
 1
 0
LINE
8
default
6
CONTINUOUS
10
       64.86
20
      651.44
11
       66.89
21
      651.27
39
 0
62
 3
 0
LINE
8
default
6
CONTINUOUS
10
      -64.86
20
      651.44
11
      -66.89
21
      651.27
39
 0
62
 1
 0
LINE
8
default
6
CONTINUOUS
10
       66.89
20
      651.27
11
       68.91
21
      651.08
39
 0
62
 3
 0
LINE
8
default
6
CONTINUOUS
10
      -66.89
20
      651.27
11
      -68.91
21
      651.08
39
 0
62
 1
 0
LINE
8
default
6
CONTINUOUS
10
       68.91
20
      651.08
11
       70.93
21
      650.89
39
 0
62
 3
 0
LINE
8
default
6
CONTINUOUS
10
      -68.91
20
      651.08
11
      -70.93
21
      650.89
39
 0
62
 1
 0
LINE
8
default
6
CONTINUOUS
10
       70.93
20
      650.89
11
       72.95
21
      650.70
39
 0
62
 3
 0
LINE
8
default
6
CONTINUOUS
10
      -70.93
20
      650.89
11
      -72.95
21
      650.70
39
 0
62
 1
 0
LINE
8
default
6
CONTINUOUS
10
       72.95
20
      650.70
11
       74.97
21
      650.50
39
 0
62
 3
 0
LINE
8
default
6
CONTINUOUS
10
      -72.95
20
      650.70
11
      -74.97
21
      650.50
39
 0
62
 1
 0
LINE
8
default
6
CONTINUOUS
10
       74.97
20
      650.50
11
       76.99
21
      650.29
39
 0
62
 3
 0
LINE
8
default
6
CONTINUOUS
10
      -74.97
20
      650.50
11
      -76.99
21
      650.29
39
 0
62
 1
 0
LINE
8
default
6
CONTINUOUS
10
       76.99
20
      650.29
11
       79.01
21
      650.08
39
 0
62
 3
 0
LINE
8
default
6
CONTINUOUS
10
      -76.99
20
      650.29
11
      -79.01
21
      650.08
39
 0
62
 1
 0
LINE
8
default
6
CONTINUOUS
10
       79.01
20
      650.08
11
       81.02
21
      649.87
39
 0
62
 3
 0
LINE
8
default
6
CONTINUOUS
10
      -79.01
20
      650.08
11
      -81.02
21
      649.87
39
 0
62
 1
 0
LINE
8
default
6
CONTINUOUS
10
       81.02
20
      649.87
11
       83.04
21
      649.65
39
 0
62
 3
 0
LINE
8
default
6
CONTINUOUS
10
      -81.02
20
      649.87
11
      -83.04
21
      649.65
39
 0
62
 1
 0
LINE
8
default
6
CONTINUOUS
10
       83.04
20
      649.65
11
       85.06
21
      649.42
39
 0
62
 3
 0
LINE
8
default
6
CONTINUOUS
10
      -83.04
20
      649.65
11
      -85.06
21
      649.42
39
 0
62
 1
 0
LINE
8
default
6
CONTINUOUS
10
       85.06
20
      649.42
11
       87.07
21
      649.19
39
 0
62
 3
 0
LINE
8
default
6
CONTINUOUS
10
      -85.06
20
      649.42
11
      -87.07
21
      649.19
39
 0
62
 1
 0
LINE
8
default
6
CONTINUOUS
10
       87.07
20
      649.19
11
       89.09
21
      648.95
39
 0
62
 3
 0
LINE
8
default
6
CONTINUOUS
10
      -87.07
20
      649.19
11
      -89.09
21
      648.95
39
 0
62
 1
 0
LINE
8
default
6
CONTINUOUS
10
       89.09
20
      648.95
11
       91.10
21
      648.70
39
 0
62
 3
 0
LINE
8
default
6
CONTINUOUS
10
      -89.09
20
      648.95
11
      -91.10
21
      648.70
39
 0
62
 1
 0
LINE
8
default
6
CONTINUOUS
10
       91.10
20
      648.70
11
       93.12
21
      648.46
39
 0
62
 3
 0
LINE
8
default
6
CONTINUOUS
10
      -91.10
20
      648.70
11
      -93.12
21
      648.46
39
 0
62
 1
 0
LINE
8
default
6
CONTINUOUS
10
       93.12
20
      648.46
11
       95.13
21
      648.20
39
 0
62
 3
 0
LINE
8
default
6
CONTINUOUS
10
      -93.12
20
      648.46
11
      -95.13
21
      648.20
39
 0
62
 1
 0
LINE
8
default
6
CONTINUOUS
10
       95.13
20
      648.20
11
       97.14
21
      647.94
39
 0
62
 3
 0
LINE
8
default
6
CONTINUOUS
10
      -95.13
20
      648.20
11
      -97.14
21
      647.94
39
 0
62
 1
 0
LINE
8
default
6
CONTINUOUS
10
       97.14
20
      647.94
11
       99.16
21
      647.68
39
 0
62
 3
 0
LINE
8
default
6
CONTINUOUS
10
      -97.14
20
      647.94
11
      -99.16
21
      647.68
39
 0
62
 1
 0
LINE
8
default
6
CONTINUOUS
10
       99.16
20
      647.68
11
      101.17
21
      647.41
39
 0
62
 3
 0
LINE
8
default
6
CONTINUOUS
10
      -99.16
20
      647.68
11
     -101.17
21
      647.41
39
 0
62
 1
 0
LINE
8
default
6
CONTINUOUS
10
      101.17
20
      647.41
11
      103.18
21
      647.13
39
 0
62
 3
 0
LINE
8
default
6
CONTINUOUS
10
     -101.17
20
      647.41
11
     -103.18
21
      647.13
39
 0
62
 1
 0
LINE
8
default
6
CONTINUOUS
10
      103.18
20
      647.13
11
      105.19
21
      646.85
39
 0
62
 3
 0
LINE
8
default
6
CONTINUOUS
10
     -103.18
20
      647.13
11
     -105.19
21
      646.85
39
 0
62
 1
 0
LINE
8
default
6
CONTINUOUS
10
      105.19
20
      646.85
11
      107.20
21
      646.56
39
 0
62
 3
 0
LINE
8
default
6
CONTINUOUS
10
     -105.19
20
      646.85
11
     -107.20
21
      646.56
39
 0
62
 1
 0
LINE
8
default
6
CONTINUOUS
10
      107.20
20
      646.56
11
      109.21
21
      646.27
39
 0
62
 3
 0
LINE
8
default
6
CONTINUOUS
10
     -107.20
20
      646.56
11
     -109.21
21
      646.27
39
 0
62
 1
 0
LINE
8
default
6
CONTINUOUS
10
      109.21
20
      646.27
11
      111.21
21
      645.97
39
 0
62
 3
 0
LINE
8
default
6
CONTINUOUS
10
     -109.21
20
      646.27
11
     -111.21
21
      645.97
39
 0
62
 1
 0
LINE
8
default
6
CONTINUOUS
10
      111.21
20
      645.97
11
      113.22
21
      645.67
39
 0
62
 3
 0
LINE
8
default
6
CONTINUOUS
10
     -111.21
20
      645.97
11
     -113.22
21
      645.67
39
 0
62
 1
 0
LINE
8
default
6
CONTINUOUS
10
      113.22
20
      645.67
11
      115.23
21
      645.36
39
 0
62
 3
 0
LINE
8
default
6
CONTINUOUS
10
     -113.22
20
      645.67
11
     -115.23
21
      645.36
39
 0
62
 1
 0
LINE
8
default
6
CONTINUOUS
10
      115.23
20
      645.36
11
      117.23
21
      645.04
39
 0
62
 3
 0
LINE
8
default
6
CONTINUOUS
10
     -115.23
20
      645.36
11
     -117.23
21
      645.04
39
 0
62
 1
 0
LINE
8
default
6
CONTINUOUS
10
      117.23
20
      645.04
11
      119.24
21
      644.72
39
 0
62
 3
 0
LINE
8
default
6
CONTINUOUS
10
     -117.23
20
      645.04
11
     -119.24
21
      644.72
39
 0
62
 1
 0
LINE
8
default
6
CONTINUOUS
10
      119.24
20
      644.72
11
      121.24
21
      644.40
39
 0
62
 3
 0
LINE
8
default
6
CONTINUOUS
10
     -119.24
20
      644.72
11
     -121.24
21
      644.40
39
 0
62
 1
 0
LINE
8
default
6
CONTINUOUS
10
      121.24
20
      644.40
11
      123.24
21
      644.07
39
 0
62
 3
 0
LINE
8
default
6
CONTINUOUS
10
     -121.24
20
      644.40
11
     -123.24
21
      644.07
39
 0
62
 1
 0
LINE
8
default
6
CONTINUOUS
10
      123.24
20
      644.07
11
      125.24
21
      643.73
39
 0
62
 3
 0
LINE
8
default
6
CONTINUOUS
10
     -123.24
20
      644.07
11
     -125.24
21
      643.73
39
 0
62
 1
 0
LINE
8
default
6
CONTINUOUS
10
      125.24
20
      643.73
11
      127.24
21
      643.39
39
 0
62
 3
 0
LINE
8
default
6
CONTINUOUS
10
     -125.24
20
      643.73
11
     -127.24
21
      643.39
39
 0
62
 1
 0
LINE
8
default
6
CONTINUOUS
10
      127.24
20
      643.39
11
      129.24
21
      643.05
39
 0
62
 3
 0
LINE
8
default
6
CONTINUOUS
10
     -127.24
20
      643.39
11
     -129.24
21
      643.05
39
 0
62
 1
 0
LINE
8
default
6
CONTINUOUS
10
      129.24
20
      643.05
11
      131.24
21
      642.69
39
 0
62
 3
 0
LINE
8
default
6
CONTINUOUS
10
     -129.24
20
      643.05
11
     -131.24
21
      642.69
39
 0
62
 1
 0
LINE
8
default
6
CONTINUOUS
10
      131.24
20
      642.69
11
      133.24
21
      642.34
39
 0
62
 3
 0
LINE
8
default
6
CONTINUOUS
10
     -131.24
20
      642.69
11
     -133.24
21
      642.34
39
 0
62
 1
 0
LINE
8
default
6
CONTINUOUS
10
      133.24
20
      642.34
11
      135.24
21
      641.97
39
 0
62
 3
 0
LINE
8
default
6
CONTINUOUS
10
     -133.24
20
      642.34
11
     -135.24
21
      641.97
39
 0
62
 1
 0
LINE
8
default
6
CONTINUOUS
10
      135.24
20
      641.97
11
      137.23
21
      641.61
39
 0
62
 3
 0
LINE
8
default
6
CONTINUOUS
10
     -135.24
20
      641.97
11
     -137.23
21
      641.61
39
 0
62
 1
 0
LINE
8
default
6
CONTINUOUS
10
      137.23
20
      641.61
11
      139.23
21
      641.23
39
 0
62
 3
 0
LINE
8
default
6
CONTINUOUS
10
     -137.23
20
      641.61
11
     -139.23
21
      641.23
39
 0
62
 1
 0
LINE
8
default
6
CONTINUOUS
10
      139.23
20
      641.23
11
      141.22
21
      640.85
39
 0
62
 3
 0
LINE
8
default
6
CONTINUOUS
10
     -139.23
20
      641.23
11
     -141.22
21
      640.85
39
 0
62
 1
 0
LINE
8
default
6
CONTINUOUS
10
      141.22
20
      640.85
11
      143.21
21
      640.47
39
 0
62
 3
 0
LINE
8
default
6
CONTINUOUS
10
     -141.22
20
      640.85
11
     -143.21
21
      640.47
39
 0
62
 1
 0
LINE
8
default
6
CONTINUOUS
10
      143.21
20
      640.47
11
      145.21
21
      640.08
39
 0
62
 3
 0
LINE
8
default
6
CONTINUOUS
10
     -143.21
20
      640.47
11
     -145.21
21
      640.08
39
 0
62
 1
 0
LINE
8
default
6
CONTINUOUS
10
      145.21
20
      640.08
11
      147.20
21
      639.68
39
 0
62
 3
 0
LINE
8
default
6
CONTINUOUS
10
     -145.21
20
      640.08
11
     -147.20
21
      639.68
39
 0
62
 1
 0
LINE
8
default
6
CONTINUOUS
10
      147.20
20
      639.68
11
      149.19
21
      639.28
39
 0
62
 3
 0
LINE
8
default
6
CONTINUOUS
10
     -147.20
20
      639.68
11
     -149.19
21
      639.28
39
 0
62
 1
 0
LINE
8
default
6
CONTINUOUS
10
      149.19
20
      639.28
11
      151.17
21
      638.88
39
 0
62
 3
 0
LINE
8
default
6
CONTINUOUS
10
     -149.19
20
      639.28
11
     -151.17
21
      638.88
39
 0
62
 1
 0
LINE
8
default
6
CONTINUOUS
10
      151.17
20
      638.88
11
      153.16
21
      638.47
39
 0
62
 3
 0
LINE
8
default
6
CONTINUOUS
10
     -151.17
20
      638.88
11
     -153.16
21
      638.47
39
 0
62
 1
 0
LINE
8
default
6
CONTINUOUS
10
      153.16
20
      638.47
11
      155.15
21
      638.05
39
 0
62
 3
 0
LINE
8
default
6
CONTINUOUS
10
     -153.16
20
      638.47
11
     -155.15
21
      638.05
39
 0
62
 1
 0
LINE
8
default
6
CONTINUOUS
10
      155.15
20
      638.05
11
      157.13
21
      637.63
39
 0
62
 3
 0
LINE
8
default
6
CONTINUOUS
10
     -155.15
20
      638.05
11
     -157.13
21
      637.63
39
 0
62
 1
 0
LINE
8
default
6
CONTINUOUS
10
      157.13
20
      637.63
11
      159.12
21
      637.20
39
 0
62
 3
 0
LINE
8
default
6
CONTINUOUS
10
     -157.13
20
      637.63
11
     -159.12
21
      637.20
39
 0
62
 1
 0
LINE
8
default
6
CONTINUOUS
10
      159.12
20
      637.20
11
      161.10
21
      636.77
39
 0
62
 3
 0
LINE
8
default
6
CONTINUOUS
10
     -159.12
20
      637.20
11
     -161.10
21
      636.77
39
 0
62
 1
 0
LINE
8
default
6
CONTINUOUS
10
      161.10
20
      636.77
11
      163.08
21
      636.33
39
 0
62
 3
 0
LINE
8
default
6
CONTINUOUS
10
     -161.10
20
      636.77
11
     -163.08
21
      636.33
39
 0
62
 1
 0
LINE
8
default
6
CONTINUOUS
10
      163.08
20
      636.33
11
      165.06
21
      635.89
39
 0
62
 3
 0
LINE
8
default
6
CONTINUOUS
10
     -163.08
20
      636.33
11
     -165.06
21
      635.89
39
 0
62
 1
 0
LINE
8
default
6
CONTINUOUS
10
      165.06
20
      635.89
11
      167.04
21
      635.44
39
 0
62
 3
 0
LINE
8
default
6
CONTINUOUS
10
     -165.06
20
      635.89
11
     -167.04
21
      635.44
39
 0
62
 1
 0
LINE
8
default
6
CONTINUOUS
10
      167.04
20
      635.44
11
      169.02
21
      634.98
39
 0
62
 3
 0
LINE
8
default
6
CONTINUOUS
10
     -167.04
20
      635.44
11
     -169.02
21
      634.98
39
 0
62
 1
 0
LINE
8
default
6
CONTINUOUS
10
      169.02
20
      634.98
11
      171.00
21
      634.52
39
 0
62
 3
 0
LINE
8
default
6
CONTINUOUS
10
     -169.02
20
      634.98
11
     -171.00
21
      634.52
39
 0
62
 1
 0
LINE
8
default
6
CONTINUOUS
10
      171.00
20
      634.52
11
      172.97
21
      634.06
39
 0
62
 3
 0
LINE
8
default
6
CONTINUOUS
10
     -171.00
20
      634.52
11
     -172.97
21
      634.06
39
 0
62
 1
 0
LINE
8
default
6
CONTINUOUS
10
      172.97
20
      634.06
11
      174.95
21
      633.59
39
 0
62
 3
 0
LINE
8
default
6
CONTINUOUS
10
     -172.97
20
      634.06
11
     -174.95
21
      633.59
39
 0
62
 1
 0
LINE
8
default
6
CONTINUOUS
10
      174.95
20
      633.59
11
      176.92
21
      633.11
39
 0
62
 3
 0
LINE
8
default
6
CONTINUOUS
10
     -174.95
20
      633.59
11
     -176.92
21
      633.11
39
 0
62
 1
 0
LINE
8
default
6
CONTINUOUS
10
      176.92
20
      633.11
11
      178.89
21
      632.63
39
 0
62
 3
 0
LINE
8
default
6
CONTINUOUS
10
     -176.92
20
      633.11
11
     -178.89
21
      632.63
39
 0
62
 1
 0
LINE
8
default
6
CONTINUOUS
10
      178.89
20
      632.63
11
      180.86
21
      632.15
39
 0
62
 3
 0
LINE
8
default
6
CONTINUOUS
10
     -178.89
20
      632.63
11
     -180.86
21
      632.15
39
 0
62
 1
 0
LINE
8
default
6
CONTINUOUS
10
      180.86
20
      632.15
11
      182.83
21
      631.65
39
 0
62
 3
 0
LINE
8
default
6
CONTINUOUS
10
     -180.86
20
      632.15
11
     -182.83
21
      631.65
39
 0
62
 1
 0
LINE
8
default
6
CONTINUOUS
10
      182.83
20
      631.65
11
      184.80
21
      631.16
39
 0
62
 3
 0
LINE
8
default
6
CONTINUOUS
10
     -182.83
20
      631.65
11
     -184.80
21
      631.16
39
 0
62
 1
 0
LINE
8
default
6
CONTINUOUS
10
      184.80
20
      631.16
11
      186.77
21
      630.66
39
 0
62
 3
 0
LINE
8
default
6
CONTINUOUS
10
     -184.80
20
      631.16
11
     -186.77
21
      630.66
39
 0
62
 1
 0
LINE
8
default
6
CONTINUOUS
10
      186.77
20
      630.66
11
      188.73
21
      630.15
39
 0
62
 3
 0
LINE
8
default
6
CONTINUOUS
10
     -186.77
20
      630.66
11
     -188.73
21
      630.15
39
 0
62
 1
 0
LINE
8
default
6
CONTINUOUS
10
      188.73
20
      630.15
11
      190.69
21
      629.64
39
 0
62
 3
 0
LINE
8
default
6
CONTINUOUS
10
     -188.73
20
      630.15
11
     -190.69
21
      629.64
39
 0
62
 1
 0
LINE
8
default
6
CONTINUOUS
10
      190.69
20
      629.64
11
      192.66
21
      629.12
39
 0
62
 3
 0
LINE
8
default
6
CONTINUOUS
10
     -190.69
20
      629.64
11
     -192.66
21
      629.12
39
 0
62
 1
 0
LINE
8
default
6
CONTINUOUS
10
      192.66
20
      629.12
11
      194.62
21
      628.59
39
 0
62
 3
 0
LINE
8
default
6
CONTINUOUS
10
     -192.66
20
      629.12
11
     -194.62
21
      628.59
39
 0
62
 1
 0
LINE
8
default
6
CONTINUOUS
10
      194.62
20
      628.59
11
      196.58
21
      628.07
39
 0
62
 3
 0
LINE
8
default
6
CONTINUOUS
10
     -194.62
20
      628.59
11
     -196.58
21
      628.07
39
 0
62
 1
 0
LINE
8
default
6
CONTINUOUS
10
      196.58
20
      628.07
11
      198.54
21
      627.53
39
 0
62
 3
 0
LINE
8
default
6
CONTINUOUS
10
     -196.58
20
      628.07
11
     -198.54
21
      627.53
39
 0
62
 1
 0
LINE
8
default
6
CONTINUOUS
10
      198.54
20
      627.53
11
      200.38
21
      627.02
39
 0
62
 3
 0
LINE
8
default
6
CONTINUOUS
10
     -198.54
20
      627.53
11
     -200.38
21
      627.02
39
 0
62
 1
 0
LINE
8
default
6
CONTINUOUS
10
      200.38
20
      627.02
11
      202.22
21
      626.51
39
 0
62
 3
 0
LINE
8
default
6
CONTINUOUS
10
     -200.38
20
      627.02
11
     -202.22
21
      626.51
39
 0
62
 1
 0
LINE
8
default
6
CONTINUOUS
10
      202.22
20
      626.51
11
      204.06
21
      625.98
39
 0
62
 3
 0
LINE
8
default
6
CONTINUOUS
10
     -202.22
20
      626.51
11
     -204.06
21
      625.98
39
 0
62
 1
 0
LINE
8
default
6
CONTINUOUS
10
      204.06
20
      625.98
11
      205.90
21
      625.46
39
 0
62
 3
 0
LINE
8
default
6
CONTINUOUS
10
     -204.06
20
      625.98
11
     -205.90
21
      625.46
39
 0
62
 1
 0
LINE
8
default
6
CONTINUOUS
10
      205.90
20
      625.46
11
      207.74
21
      624.92
39
 0
62
 3
 0
LINE
8
default
6
CONTINUOUS
10
     -205.90
20
      625.46
11
     -207.74
21
      624.92
39
 0
62
 1
 0
LINE
8
default
6
CONTINUOUS
10
      207.74
20
      624.92
11
      209.57
21
      624.38
39
 0
62
 3
 0
LINE
8
default
6
CONTINUOUS
10
     -207.74
20
      624.92
11
     -209.57
21
      624.38
39
 0
62
 1
 0
LINE
8
default
6
CONTINUOUS
10
      209.57
20
      624.38
11
      211.40
21
      623.83
39
 0
62
 3
 0
LINE
8
default
6
CONTINUOUS
10
     -209.57
20
      624.38
11
     -211.40
21
      623.83
39
 0
62
 1
 0
LINE
8
default
6
CONTINUOUS
10
      211.40
20
      623.83
11
      213.24
21
      623.27
39
 0
62
 3
 0
LINE
8
default
6
CONTINUOUS
10
     -211.40
20
      623.83
11
     -213.24
21
      623.27
39
 0
62
 1
 0
LINE
8
default
6
CONTINUOUS
10
      213.24
20
      623.27
11
      215.06
21
      622.71
39
 0
62
 3
 0
LINE
8
default
6
CONTINUOUS
10
     -213.24
20
      623.27
11
     -215.06
21
      622.71
39
 0
62
 1
 0
LINE
8
default
6
CONTINUOUS
10
      215.06
20
      622.71
11
      216.89
21
      622.14
39
 0
62
 3
 0
LINE
8
default
6
CONTINUOUS
10
     -215.06
20
      622.71
11
     -216.89
21
      622.14
39
 0
62
 1
 0
LINE
8
default
6
CONTINUOUS
10
      216.89
20
      622.14
11
      218.71
21
      621.57
39
 0
62
 3
 0
LINE
8
default
6
CONTINUOUS
10
     -216.89
20
      622.14
11
     -218.71
21
      621.57
39
 0
62
 1
 0
LINE
8
default
6
CONTINUOUS
10
      218.71
20
      621.57
11
      220.54
21
      620.99
39
 0
62
 3
 0
LINE
8
default
6
CONTINUOUS
10
     -218.71
20
      621.57
11
     -220.54
21
      620.99
39
 0
62
 1
 0
LINE
8
default
6
CONTINUOUS
10
      220.54
20
      620.99
11
      222.36
21
      620.40
39
 0
62
 3
 0
LINE
8
default
6
CONTINUOUS
10
     -220.54
20
      620.99
11
     -222.36
21
      620.40
39
 0
62
 1
 0
LINE
8
default
6
CONTINUOUS
10
      222.36
20
      620.40
11
      224.18
21
      619.80
39
 0
62
 3
 0
LINE
8
default
6
CONTINUOUS
10
     -222.36
20
      620.40
11
     -224.18
21
      619.80
39
 0
62
 1
 0
LINE
8
default
6
CONTINUOUS
10
      224.18
20
      619.80
11
      225.99
21
      619.20
39
 0
62
 3
 0
LINE
8
default
6
CONTINUOUS
10
     -224.18
20
      619.80
11
     -225.99
21
      619.20
39
 0
62
 1
 0
LINE
8
default
6
CONTINUOUS
10
      225.99
20
      619.20
11
      227.81
21
      618.59
39
 0
62
 3
 0
LINE
8
default
6
CONTINUOUS
10
     -225.99
20
      619.20
11
     -227.81
21
      618.59
39
 0
62
 1
 0
LINE
8
default
6
CONTINUOUS
10
      227.81
20
      618.59
11
      229.62
21
      617.98
39
 0
62
 3
 0
LINE
8
default
6
CONTINUOUS
10
     -227.81
20
      618.59
11
     -229.62
21
      617.98
39
 0
62
 1
 0
LINE
8
default
6
CONTINUOUS
10
      229.62
20
      617.98
11
      231.43
21
      617.36
39
 0
62
 3
 0
LINE
8
default
6
CONTINUOUS
10
     -229.62
20
      617.98
11
     -231.43
21
      617.36
39
 0
62
 1
 0
LINE
8
default
6
CONTINUOUS
10
      231.43
20
      617.36
11
      233.23
21
      616.73
39
 0
62
 3
 0
LINE
8
default
6
CONTINUOUS
10
     -231.43
20
      617.36
11
     -233.23
21
      616.73
39
 0
62
 1
 0
LINE
8
default
6
CONTINUOUS
10
      233.23
20
      616.73
11
      235.04
21
      616.10
39
 0
62
 3
 0
LINE
8
default
6
CONTINUOUS
10
     -233.23
20
      616.73
11
     -235.04
21
      616.10
39
 0
62
 1
 0
LINE
8
default
6
CONTINUOUS
10
      235.04
20
      616.10
11
      236.84
21
      615.45
39
 0
62
 3
 0
LINE
8
default
6
CONTINUOUS
10
     -235.04
20
      616.10
11
     -236.84
21
      615.45
39
 0
62
 1
 0
LINE
8
default
6
CONTINUOUS
10
      236.84
20
      615.45
11
      238.64
21
      614.81
39
 0
62
 3
 0
LINE
8
default
6
CONTINUOUS
10
     -236.84
20
      615.45
11
     -238.64
21
      614.81
39
 0
62
 1
 0
LINE
8
default
6
CONTINUOUS
10
      238.64
20
      614.81
11
      240.44
21
      614.15
39
 0
62
 3
 0
LINE
8
default
6
CONTINUOUS
10
     -238.64
20
      614.81
11
     -240.44
21
      614.15
39
 0
62
 1
 0
LINE
8
default
6
CONTINUOUS
10
      240.44
20
      614.15
11
      242.24
21
      613.49
39
 0
62
 3
 0
LINE
8
default
6
CONTINUOUS
10
     -240.44
20
      614.15
11
     -242.24
21
      613.49
39
 0
62
 1
 0
LINE
8
default
6
CONTINUOUS
10
      242.24
20
      613.49
11
      244.03
21
      612.83
39
 0
62
 3
 0
LINE
8
default
6
CONTINUOUS
10
     -242.24
20
      613.49
11
     -244.03
21
      612.83
39
 0
62
 1
 0
LINE
8
default
6
CONTINUOUS
10
      244.03
20
      612.83
11
      245.82
21
      612.15
39
 0
62
 3
 0
LINE
8
default
6
CONTINUOUS
10
     -244.03
20
      612.83
11
     -245.82
21
      612.15
39
 0
62
 1
 0
LINE
8
default
6
CONTINUOUS
10
      245.82
20
      612.15
11
      247.61
21
      611.48
39
 0
62
 3
 0
LINE
8
default
6
CONTINUOUS
10
     -245.82
20
      612.15
11
     -247.61
21
      611.48
39
 0
62
 1
 0
LINE
8
default
6
CONTINUOUS
10
      247.61
20
      611.48
11
      249.39
21
      610.79
39
 0
62
 3
 0
LINE
8
default
6
CONTINUOUS
10
     -247.61
20
      611.48
11
     -249.39
21
      610.79
39
 0
62
 1
 0
LINE
8
default
6
CONTINUOUS
10
      249.39
20
      610.79
11
      251.18
21
      610.10
39
 0
62
 3
 0
LINE
8
default
6
CONTINUOUS
10
     -249.39
20
      610.79
11
     -251.18
21
      610.10
39
 0
62
 1
 0
LINE
8
default
6
CONTINUOUS
10
      251.18
20
      610.10
11
      252.96
21
      609.40
39
 0
62
 3
 0
LINE
8
default
6
CONTINUOUS
10
     -251.18
20
      610.10
11
     -252.96
21
      609.40
39
 0
62
 1
 0
LINE
8
default
6
CONTINUOUS
10
      252.96
20
      609.40
11
      254.74
21
      608.69
39
 0
62
 3
 0
LINE
8
default
6
CONTINUOUS
10
     -252.96
20
      609.40
11
     -254.74
21
      608.69
39
 0
62
 1
 0
LINE
8
default
6
CONTINUOUS
10
      254.74
20
      608.69
11
      256.51
21
      607.98
39
 0
62
 3
 0
LINE
8
default
6
CONTINUOUS
10
     -254.74
20
      608.69
11
     -256.51
21
      607.98
39
 0
62
 1
 0
LINE
8
default
6
CONTINUOUS
10
      256.51
20
      607.98
11
      258.29
21
      607.26
39
 0
62
 3
 0
LINE
8
default
6
CONTINUOUS
10
     -256.51
20
      607.98
11
     -258.29
21
      607.26
39
 0
62
 1
 0
LINE
8
default
6
CONTINUOUS
10
      258.29
20
      607.26
11
      260.06
21
      606.54
39
 0
62
 3
 0
LINE
8
default
6
CONTINUOUS
10
     -258.29
20
      607.26
11
     -260.06
21
      606.54
39
 0
62
 1
 0
LINE
8
default
6
CONTINUOUS
10
      260.06
20
      606.54
11
      261.83
21
      605.81
39
 0
62
 3
 0
LINE
8
default
6
CONTINUOUS
10
     -260.06
20
      606.54
11
     -261.83
21
      605.81
39
 0
62
 1
 0
LINE
8
default
6
CONTINUOUS
10
      261.83
20
      605.81
11
      263.59
21
      605.07
39
 0
62
 3
 0
LINE
8
default
6
CONTINUOUS
10
     -261.83
20
      605.81
11
     -263.59
21
      605.07
39
 0
62
 1
 0
LINE
8
default
6
CONTINUOUS
10
      263.59
20
      605.07
11
      265.35
21
      604.33
39
 0
62
 3
 0
LINE
8
default
6
CONTINUOUS
10
     -263.59
20
      605.07
11
     -265.35
21
      604.33
39
 0
62
 1
 0
LINE
8
default
6
CONTINUOUS
10
      265.35
20
      604.33
11
      267.11
21
      603.58
39
 0
62
 3
 0
LINE
8
default
6
CONTINUOUS
10
     -265.35
20
      604.33
11
     -267.11
21
      603.58
39
 0
62
 1
 0
LINE
8
default
6
CONTINUOUS
10
      267.11
20
      603.58
11
      268.87
21
      602.82
39
 0
62
 3
 0
LINE
8
default
6
CONTINUOUS
10
     -267.11
20
      603.58
11
     -268.87
21
      602.82
39
 0
62
 1
 0
LINE
8
default
6
CONTINUOUS
10
      268.87
20
      602.82
11
      270.63
21
      602.06
39
 0
62
 3
 0
LINE
8
default
6
CONTINUOUS
10
     -268.87
20
      602.82
11
     -270.63
21
      602.06
39
 0
62
 1
 0
LINE
8
default
6
CONTINUOUS
10
      270.63
20
      602.06
11
      272.38
21
      601.29
39
 0
62
 3
 0
LINE
8
default
6
CONTINUOUS
10
     -270.63
20
      602.06
11
     -272.38
21
      601.29
39
 0
62
 1
 0
LINE
8
default
6
CONTINUOUS
10
      272.38
20
      601.29
11
      274.13
21
      600.52
39
 0
62
 3
 0
LINE
8
default
6
CONTINUOUS
10
     -272.38
20
      601.29
11
     -274.13
21
      600.52
39
 0
62
 1
 0
LINE
8
default
6
CONTINUOUS
10
      274.13
20
      600.52
11
      275.87
21
      599.74
39
 0
62
 3
 0
LINE
8
default
6
CONTINUOUS
10
     -274.13
20
      600.52
11
     -275.87
21
      599.74
39
 0
62
 1
 0
LINE
8
default
6
CONTINUOUS
10
      275.87
20
      599.74
11
      277.62
21
      598.95
39
 0
62
 3
 0
LINE
8
default
6
CONTINUOUS
10
     -275.87
20
      599.74
11
     -277.62
21
      598.95
39
 0
62
 1
 0
LINE
8
default
6
CONTINUOUS
10
      277.62
20
      598.95
11
      279.36
21
      598.15
39
 0
62
 3
 0
LINE
8
default
6
CONTINUOUS
10
     -277.62
20
      598.95
11
     -279.36
21
      598.15
39
 0
62
 1
 0
LINE
8
default
6
CONTINUOUS
10
      279.36
20
      598.15
11
      281.09
21
      597.35
39
 0
62
 3
 0
LINE
8
default
6
CONTINUOUS
10
     -279.36
20
      598.15
11
     -281.09
21
      597.35
39
 0
62
 1
 0
LINE
8
default
6
CONTINUOUS
10
      281.09
20
      597.35
11
      282.83
21
      596.55
39
 0
62
 3
 0
LINE
8
default
6
CONTINUOUS
10
     -281.09
20
      597.35
11
     -282.83
21
      596.55
39
 0
62
 1
 0
LINE
8
default
6
CONTINUOUS
10
      282.83
20
      596.55
11
      284.56
21
      595.73
39
 0
62
 3
 0
LINE
8
default
6
CONTINUOUS
10
     -282.83
20
      596.55
11
     -284.56
21
      595.73
39
 0
62
 1
 0
LINE
8
default
6
CONTINUOUS
10
      284.56
20
      595.73
11
      286.29
21
      594.92
39
 0
62
 3
 0
LINE
8
default
6
CONTINUOUS
10
     -284.56
20
      595.73
11
     -286.29
21
      594.92
39
 0
62
 1
 0
LINE
8
default
6
CONTINUOUS
10
      286.29
20
      594.92
11
      288.02
21
      594.09
39
 0
62
 3
 0
LINE
8
default
6
CONTINUOUS
10
     -286.29
20
      594.92
11
     -288.02
21
      594.09
39
 0
62
 1
 0
LINE
8
default
6
CONTINUOUS
10
      288.02
20
      594.09
11
      289.74
21
      593.26
39
 0
62
 3
 0
LINE
8
default
6
CONTINUOUS
10
     -288.02
20
      594.09
11
     -289.74
21
      593.26
39
 0
62
 1
 0
LINE
8
default
6
CONTINUOUS
10
      289.74
20
      593.26
11
      291.46
21
      592.42
39
 0
62
 3
 0
LINE
8
default
6
CONTINUOUS
10
     -289.74
20
      593.26
11
     -291.46
21
      592.42
39
 0
62
 1
 0
LINE
8
default
6
CONTINUOUS
10
      291.46
20
      592.42
11
      293.18
21
      591.58
39
 0
62
 3
 0
LINE
8
default
6
CONTINUOUS
10
     -291.46
20
      592.42
11
     -293.18
21
      591.58
39
 0
62
 1
 0
LINE
8
default
6
CONTINUOUS
10
      293.18
20
      591.58
11
      294.89
21
      590.73
39
 0
62
 3
 0
LINE
8
default
6
CONTINUOUS
10
     -293.18
20
      591.58
11
     -294.89
21
      590.73
39
 0
62
 1
 0
LINE
8
default
6
CONTINUOUS
10
      294.89
20
      590.73
11
      296.60
21
      589.87
39
 0
62
 3
 0
LINE
8
default
6
CONTINUOUS
10
     -294.89
20
      590.73
11
     -296.60
21
      589.87
39
 0
62
 1
 0
LINE
8
default
6
CONTINUOUS
10
      296.60
20
      589.87
11
      298.31
21
      589.01
39
 0
62
 3
 0
LINE
8
default
6
CONTINUOUS
10
     -296.60
20
      589.87
11
     -298.31
21
      589.01
39
 0
62
 1
 0
LINE
8
default
6
CONTINUOUS
10
      298.31
20
      589.01
11
      300.01
21
      588.14
39
 0
62
 3
 0
LINE
8
default
6
CONTINUOUS
10
     -298.31
20
      589.01
11
     -300.01
21
      588.14
39
 0
62
 1
 0
LINE
8
default
6
CONTINUOUS
10
      300.01
20
      588.14
11
      301.71
21
      587.27
39
 0
62
 3
 0
LINE
8
default
6
CONTINUOUS
10
     -300.01
20
      588.14
11
     -301.71
21
      587.27
39
 0
62
 1
 0
LINE
8
default
6
CONTINUOUS
10
      301.71
20
      587.27
11
      303.41
21
      586.39
39
 0
62
 3
 0
LINE
8
default
6
CONTINUOUS
10
     -301.71
20
      587.27
11
     -303.41
21
      586.39
39
 0
62
 1
 0
LINE
8
default
6
CONTINUOUS
10
      303.41
20
      586.39
11
      305.11
21
      585.50
39
 0
62
 3
 0
LINE
8
default
6
CONTINUOUS
10
     -303.41
20
      586.39
11
     -305.11
21
      585.50
39
 0
62
 1
 0
LINE
8
default
6
CONTINUOUS
10
      305.11
20
      585.50
11
      306.80
21
      584.61
39
 0
62
 3
 0
LINE
8
default
6
CONTINUOUS
10
     -305.11
20
      585.50
11
     -306.80
21
      584.61
39
 0
62
 1
 0
LINE
8
default
6
CONTINUOUS
10
      306.80
20
      584.61
11
      308.49
21
      583.71
39
 0
62
 3
 0
LINE
8
default
6
CONTINUOUS
10
     -306.80
20
      584.61
11
     -308.49
21
      583.71
39
 0
62
 1
 0
LINE
8
default
6
CONTINUOUS
10
      308.49
20
      583.71
11
      310.17
21
      582.80
39
 0
62
 3
 0
LINE
8
default
6
CONTINUOUS
10
     -308.49
20
      583.71
11
     -310.17
21
      582.80
39
 0
62
 1
 0
LINE
8
default
6
CONTINUOUS
10
      310.17
20
      582.80
11
      311.86
21
      581.89
39
 0
62
 3
 0
LINE
8
default
6
CONTINUOUS
10
     -310.17
20
      582.80
11
     -311.86
21
      581.89
39
 0
62
 1
 0
LINE
8
default
6
CONTINUOUS
10
      311.86
20
      581.89
11
      313.54
21
      580.97
39
 0
62
 3
 0
LINE
8
default
6
CONTINUOUS
10
     -311.86
20
      581.89
11
     -313.54
21
      580.97
39
 0
62
 1
 0
LINE
8
default
6
CONTINUOUS
10
      313.54
20
      580.97
11
      315.21
21
      580.05
39
 0
62
 3
 0
LINE
8
default
6
CONTINUOUS
10
     -313.54
20
      580.97
11
     -315.21
21
      580.05
39
 0
62
 1
 0
LINE
8
default
6
CONTINUOUS
10
      315.21
20
      580.05
11
      316.88
21
      579.12
39
 0
62
 3
 0
LINE
8
default
6
CONTINUOUS
10
     -315.21
20
      580.05
11
     -316.88
21
      579.12
39
 0
62
 1
 0
LINE
8
default
6
CONTINUOUS
10
      316.88
20
      579.12
11
      318.55
21
      578.19
39
 0
62
 3
 0
LINE
8
default
6
CONTINUOUS
10
     -316.88
20
      579.12
11
     -318.55
21
      578.19
39
 0
62
 1
 0
LINE
8
default
6
CONTINUOUS
10
      318.55
20
      578.19
11
      320.22
21
      577.25
39
 0
62
 3
 0
LINE
8
default
6
CONTINUOUS
10
     -318.55
20
      578.19
11
     -320.22
21
      577.25
39
 0
62
 1
 0
LINE
8
default
6
CONTINUOUS
10
      320.22
20
      577.25
11
      321.88
21
      576.30
39
 0
62
 3
 0
LINE
8
default
6
CONTINUOUS
10
     -320.22
20
      577.25
11
     -321.88
21
      576.30
39
 0
62
 1
 0
LINE
8
default
6
CONTINUOUS
10
      321.88
20
      576.30
11
      323.54
21
      575.35
39
 0
62
 3
 0
LINE
8
default
6
CONTINUOUS
10
     -321.88
20
      576.30
11
     -323.54
21
      575.35
39
 0
62
 1
 0
LINE
8
default
6
CONTINUOUS
10
      323.54
20
      575.35
11
      325.19
21
      574.39
39
 0
62
 3
 0
LINE
8
default
6
CONTINUOUS
10
     -323.54
20
      575.35
11
     -325.19
21
      574.39
39
 0
62
 1
 0
LINE
8
default
6
CONTINUOUS
10
      325.19
20
      574.39
11
      326.85
21
      573.42
39
 0
62
 3
 0
LINE
8
default
6
CONTINUOUS
10
     -325.19
20
      574.39
11
     -326.85
21
      573.42
39
 0
62
 1
 0
LINE
8
default
6
CONTINUOUS
10
      326.85
20
      573.42
11
      328.49
21
      572.45
39
 0
62
 3
 0
LINE
8
default
6
CONTINUOUS
10
     -326.85
20
      573.42
11
     -328.49
21
      572.45
39
 0
62
 1
 0
LINE
8
default
6
CONTINUOUS
10
      328.49
20
      572.45
11
      330.14
21
      571.47
39
 0
62
 3
 0
LINE
8
default
6
CONTINUOUS
10
     -328.49
20
      572.45
11
     -330.14
21
      571.47
39
 0
62
 1
 0
LINE
8
default
6
CONTINUOUS
10
      330.14
20
      571.47
11
      331.78
21
      570.49
39
 0
62
 3
 0
LINE
8
default
6
CONTINUOUS
10
     -330.14
20
      571.47
11
     -331.78
21
      570.49
39
 0
62
 1
 0
LINE
8
default
6
CONTINUOUS
10
      331.78
20
      570.49
11
      333.42
21
      569.50
39
 0
62
 3
 0
LINE
8
default
6
CONTINUOUS
10
     -331.78
20
      570.49
11
     -333.42
21
      569.50
39
 0
62
 1
 0
LINE
8
default
6
CONTINUOUS
10
      333.42
20
      569.50
11
      335.05
21
      568.51
39
 0
62
 3
 0
LINE
8
default
6
CONTINUOUS
10
     -333.42
20
      569.50
11
     -335.05
21
      568.51
39
 0
62
 1
 0
LINE
8
default
6
CONTINUOUS
10
      335.05
20
      568.51
11
      336.68
21
      567.51
39
 0
62
 3
 0
LINE
8
default
6
CONTINUOUS
10
     -335.05
20
      568.51
11
     -336.68
21
      567.51
39
 0
62
 1
 0
LINE
8
default
6
CONTINUOUS
10
      336.68
20
      567.51
11
      338.31
21
      566.50
39
 0
62
 3
 0
LINE
8
default
6
CONTINUOUS
10
     -336.68
20
      567.51
11
     -338.31
21
      566.50
39
 0
62
 1
 0
LINE
8
default
6
CONTINUOUS
10
      338.31
20
      566.50
11
      339.93
21
      565.49
39
 0
62
 3
 0
LINE
8
default
6
CONTINUOUS
10
     -338.31
20
      566.50
11
     -339.93
21
      565.49
39
 0
62
 1
 0
LINE
8
default
6
CONTINUOUS
10
      339.93
20
      565.49
11
      341.55
21
      564.47
39
 0
62
 3
 0
LINE
8
default
6
CONTINUOUS
10
     -339.93
20
      565.49
11
     -341.55
21
      564.47
39
 0
62
 1
 0
LINE
8
default
6
CONTINUOUS
10
      341.55
20
      564.47
11
      343.17
21
      563.44
39
 0
62
 3
 0
LINE
8
default
6
CONTINUOUS
10
     -341.55
20
      564.47
11
     -343.17
21
      563.44
39
 0
62
 1
 0
LINE
8
default
6
CONTINUOUS
10
      343.17
20
      563.44
11
      344.78
21
      562.41
39
 0
62
 3
 0
LINE
8
default
6
CONTINUOUS
10
     -343.17
20
      563.44
11
     -344.78
21
      562.41
39
 0
62
 1
 0
LINE
8
default
6
CONTINUOUS
10
      344.78
20
      562.41
11
      346.39
21
      561.38
39
 0
62
 3
 0
LINE
8
default
6
CONTINUOUS
10
     -344.78
20
      562.41
11
     -346.39
21
      561.38
39
 0
62
 1
 0
LINE
8
default
6
CONTINUOUS
10
      346.39
20
      561.38
11
      347.99
21
      560.34
39
 0
62
 3
 0
LINE
8
default
6
CONTINUOUS
10
     -346.39
20
      561.38
11
     -347.99
21
      560.34
39
 0
62
 1
 0
LINE
8
default
6
CONTINUOUS
10
      347.99
20
      560.34
11
      349.59
21
      559.29
39
 0
62
 3
 0
LINE
8
default
6
CONTINUOUS
10
     -347.99
20
      560.34
11
     -349.59
21
      559.29
39
 0
62
 1
 0
LINE
8
default
6
CONTINUOUS
10
      349.59
20
      559.29
11
      351.19
21
      558.24
39
 0
62
 3
 0
LINE
8
default
6
CONTINUOUS
10
     -349.59
20
      559.29
11
     -351.19
21
      558.24
39
 0
62
 1
 0
LINE
8
default
6
CONTINUOUS
10
      351.19
20
      558.24
11
      352.79
21
      557.18
39
 0
62
 3
 0
LINE
8
default
6
CONTINUOUS
10
     -351.19
20
      558.24
11
     -352.79
21
      557.18
39
 0
62
 1
 0
LINE
8
default
6
CONTINUOUS
10
      352.79
20
      557.18
11
      354.37
21
      556.11
39
 0
62
 3
 0
LINE
8
default
6
CONTINUOUS
10
     -352.79
20
      557.18
11
     -354.37
21
      556.11
39
 0
62
 1
 0
LINE
8
default
6
CONTINUOUS
10
      354.37
20
      556.11
11
      355.96
21
      555.04
39
 0
62
 3
 0
LINE
8
default
6
CONTINUOUS
10
     -354.37
20
      556.11
11
     -355.96
21
      555.04
39
 0
62
 1
 0
LINE
8
default
6
CONTINUOUS
10
      355.96
20
      555.04
11
      357.54
21
      553.97
39
 0
62
 3
 0
LINE
8
default
6
CONTINUOUS
10
     -355.96
20
      555.04
11
     -357.54
21
      553.97
39
 0
62
 1
 0
LINE
8
default
6
CONTINUOUS
10
      357.54
20
      553.97
11
      359.12
21
      552.89
39
 0
62
 3
 0
LINE
8
default
6
CONTINUOUS
10
     -357.54
20
      553.97
11
     -359.12
21
      552.89
39
 0
62
 1
 0
LINE
8
default
6
CONTINUOUS
10
      359.12
20
      552.89
11
      360.69
21
      551.80
39
 0
62
 3
 0
LINE
8
default
6
CONTINUOUS
10
     -359.12
20
      552.89
11
     -360.69
21
      551.80
39
 0
62
 1
 0
LINE
8
default
6
CONTINUOUS
10
      360.69
20
      551.80
11
      362.26
21
      550.71
39
 0
62
 3
 0
LINE
8
default
6
CONTINUOUS
10
     -360.69
20
      551.80
11
     -362.26
21
      550.71
39
 0
62
 1
 0
LINE
8
default
6
CONTINUOUS
10
      362.26
20
      550.71
11
      363.83
21
      549.61
39
 0
62
 3
 0
LINE
8
default
6
CONTINUOUS
10
     -362.26
20
      550.71
11
     -363.83
21
      549.61
39
 0
62
 1
 0
LINE
8
default
6
CONTINUOUS
10
      363.83
20
      549.61
11
      365.39
21
      548.50
39
 0
62
 3
 0
LINE
8
default
6
CONTINUOUS
10
     -363.83
20
      549.61
11
     -365.39
21
      548.50
39
 0
62
 1
 0
LINE
8
default
6
CONTINUOUS
10
      365.39
20
      548.50
11
      366.95
21
      547.39
39
 0
62
 3
 0
LINE
8
default
6
CONTINUOUS
10
     -365.39
20
      548.50
11
     -366.95
21
      547.39
39
 0
62
 1
 0
LINE
8
default
6
CONTINUOUS
10
      366.95
20
      547.39
11
      368.51
21
      546.28
39
 0
62
 3
 0
LINE
8
default
6
CONTINUOUS
10
     -366.95
20
      547.39
11
     -368.51
21
      546.28
39
 0
62
 1
 0
LINE
8
default
6
CONTINUOUS
10
      368.51
20
      546.28
11
      369.50
21
      545.56
39
 0
62
 3
 0
LINE
8
default
6
CONTINUOUS
10
     -368.51
20
      546.28
11
     -369.50
21
      545.56
39
 0
62
 1
 0
LINE
8
default
6
CONTINUOUS
10
      369.50
20
      545.56
11
      370.50
21
      544.83
39
 0
62
 3
 0
LINE
8
default
6
CONTINUOUS
10
     -369.50
20
      545.56
11
     -370.50
21
      544.83
39
 0
62
 1
 0
LINE
8
default
6
CONTINUOUS
10
      370.50
20
      544.83
11
      371.50
21
      544.10
39
 0
62
 3
 0
LINE
8
default
6
CONTINUOUS
10
     -370.50
20
      544.83
11
     -371.50
21
      544.10
39
 0
62
 1
 0
LINE
8
default
6
CONTINUOUS
10
      371.50
20
      544.10
11
      372.49
21
      543.37
39
 0
62
 3
 0
LINE
8
default
6
CONTINUOUS
10
     -371.50
20
      544.10
11
     -372.49
21
      543.37
39
 0
62
 1
 0
LINE
8
default
6
CONTINUOUS
10
      372.49
20
      543.37
11
      373.48
21
      542.63
39
 0
62
 3
 0
LINE
8
default
6
CONTINUOUS
10
     -372.49
20
      543.37
11
     -373.48
21
      542.63
39
 0
62
 1
 0
LINE
8
default
6
CONTINUOUS
10
      373.48
20
      542.63
11
      374.46
21
      541.90
39
 0
62
 3
 0
LINE
8
default
6
CONTINUOUS
10
     -373.48
20
      542.63
11
     -374.46
21
      541.90
39
 0
62
 1
 0
LINE
8
default
6
CONTINUOUS
10
      374.46
20
      541.90
11
      375.45
21
      541.15
39
 0
62
 3
 0
LINE
8
default
6
CONTINUOUS
10
     -374.46
20
      541.90
11
     -375.45
21
      541.15
39
 0
62
 1
 0
LINE
8
default
6
CONTINUOUS
10
      375.45
20
      541.15
11
      376.43
21
      540.41
39
 0
62
 3
 0
LINE
8
default
6
CONTINUOUS
10
     -375.45
20
      541.15
11
     -376.43
21
      540.41
39
 0
62
 1
 0
LINE
8
default
6
CONTINUOUS
10
      376.43
20
      540.41
11
      377.41
21
      539.66
39
 0
62
 3
 0
LINE
8
default
6
CONTINUOUS
10
     -376.43
20
      540.41
11
     -377.41
21
      539.66
39
 0
62
 1
 0
LINE
8
default
6
CONTINUOUS
10
      377.41
20
      539.66
11
      378.39
21
      538.91
39
 0
62
 3
 0
LINE
8
default
6
CONTINUOUS
10
     -377.41
20
      539.66
11
     -378.39
21
      538.91
39
 0
62
 1
 0
LINE
8
default
6
CONTINUOUS
10
      378.39
20
      538.91
11
      379.36
21
      538.15
39
 0
62
 3
 0
LINE
8
default
6
CONTINUOUS
10
     -378.39
20
      538.91
11
     -379.36
21
      538.15
39
 0
62
 1
 0
LINE
8
default
6
CONTINUOUS
10
      379.36
20
      538.15
11
      380.33
21
      537.40
39
 0
62
 3
 0
LINE
8
default
6
CONTINUOUS
10
     -379.36
20
      538.15
11
     -380.33
21
      537.40
39
 0
62
 1
 0
LINE
8
default
6
CONTINUOUS
10
      380.33
20
      537.40
11
      381.30
21
      536.64
39
 0
62
 3
 0
LINE
8
default
6
CONTINUOUS
10
     -380.33
20
      537.40
11
     -381.30
21
      536.64
39
 0
62
 1
 0
LINE
8
default
6
CONTINUOUS
10
      381.30
20
      536.64
11
      382.27
21
      535.87
39
 0
62
 3
 0
LINE
8
default
6
CONTINUOUS
10
     -381.30
20
      536.64
11
     -382.27
21
      535.87
39
 0
62
 1
 0
LINE
8
default
6
CONTINUOUS
10
      382.27
20
      535.87
11
      383.24
21
      535.10
39
 0
62
 3
 0
LINE
8
default
6
CONTINUOUS
10
     -382.27
20
      535.87
11
     -383.24
21
      535.10
39
 0
62
 1
 0
LINE
8
default
6
CONTINUOUS
10
      383.24
20
      535.10
11
      384.20
21
      534.33
39
 0
62
 3
 0
LINE
8
default
6
CONTINUOUS
10
     -383.24
20
      535.10
11
     -384.20
21
      534.33
39
 0
62
 1
 0
LINE
8
default
6
CONTINUOUS
10
      384.20
20
      534.33
11
      385.16
21
      533.56
39
 0
62
 3
 0
LINE
8
default
6
CONTINUOUS
10
     -384.20
20
      534.33
11
     -385.16
21
      533.56
39
 0
62
 1
 0
LINE
8
default
6
CONTINUOUS
10
      385.16
20
      533.56
11
      386.11
21
      532.78
39
 0
62
 3
 0
LINE
8
default
6
CONTINUOUS
10
     -385.16
20
      533.56
11
     -386.11
21
      532.78
39
 0
62
 1
 0
LINE
8
default
6
CONTINUOUS
10
      386.11
20
      532.78
11
      387.07
21
      532.00
39
 0
62
 3
 0
LINE
8
default
6
CONTINUOUS
10
     -386.11
20
      532.78
11
     -387.07
21
      532.00
39
 0
62
 1
 0
LINE
8
default
6
CONTINUOUS
10
      387.07
20
      532.00
11
      388.02
21
      531.22
39
 0
62
 3
 0
LINE
8
default
6
CONTINUOUS
10
     -387.07
20
      532.00
11
     -388.02
21
      531.22
39
 0
62
 1
 0
LINE
8
default
6
CONTINUOUS
10
      388.02
20
      531.22
11
      388.97
21
      530.43
39
 0
62
 3
 0
LINE
8
default
6
CONTINUOUS
10
     -388.02
20
      531.22
11
     -388.97
21
      530.43
39
 0
62
 1
 0
LINE
8
default
6
CONTINUOUS
10
      388.97
20
      530.43
11
      389.92
21
      529.65
39
 0
62
 3
 0
LINE
8
default
6
CONTINUOUS
10
     -388.97
20
      530.43
11
     -389.92
21
      529.65
39
 0
62
 1
 0
LINE
8
default
6
CONTINUOUS
10
      389.92
20
      529.65
11
      390.86
21
      528.85
39
 0
62
 3
 0
LINE
8
default
6
CONTINUOUS
10
     -389.92
20
      529.65
11
     -390.86
21
      528.85
39
 0
62
 1
 0
LINE
8
default
6
CONTINUOUS
10
      390.86
20
      528.85
11
      391.80
21
      528.06
39
 0
62
 3
 0
LINE
8
default
6
CONTINUOUS
10
     -390.86
20
      528.85
11
     -391.80
21
      528.06
39
 0
62
 1
 0
LINE
8
default
6
CONTINUOUS
10
      391.80
20
      528.06
11
      392.74
21
      527.26
39
 0
62
 3
 0
LINE
8
default
6
CONTINUOUS
10
     -391.80
20
      528.06
11
     -392.74
21
      527.26
39
 0
62
 1
 0
LINE
8
default
6
CONTINUOUS
10
      392.74
20
      527.26
11
      393.68
21
      526.46
39
 0
62
 3
 0
LINE
8
default
6
CONTINUOUS
10
     -392.74
20
      527.26
11
     -393.68
21
      526.46
39
 0
62
 1
 0
LINE
8
default
6
CONTINUOUS
10
      393.68
20
      526.46
11
      394.61
21
      525.65
39
 0
62
 3
 0
LINE
8
default
6
CONTINUOUS
10
     -393.68
20
      526.46
11
     -394.61
21
      525.65
39
 0
62
 1
 0
LINE
8
default
6
CONTINUOUS
10
      394.61
20
      525.65
11
      395.54
21
      524.84
39
 0
62
 3
 0
LINE
8
default
6
CONTINUOUS
10
     -394.61
20
      525.65
11
     -395.54
21
      524.84
39
 0
62
 1
 0
LINE
8
default
6
CONTINUOUS
10
      395.54
20
      524.84
11
      396.47
21
      524.03
39
 0
62
 3
 0
LINE
8
default
6
CONTINUOUS
10
     -395.54
20
      524.84
11
     -396.47
21
      524.03
39
 0
62
 1
 0
LINE
8
default
6
CONTINUOUS
10
      396.47
20
      524.03
11
      397.40
21
      523.22
39
 0
62
 3
 0
LINE
8
default
6
CONTINUOUS
10
     -396.47
20
      524.03
11
     -397.40
21
      523.22
39
 0
62
 1
 0
LINE
8
default
6
CONTINUOUS
10
      397.40
20
      523.22
11
      398.32
21
      522.40
39
 0
62
 3
 0
LINE
8
default
6
CONTINUOUS
10
     -397.40
20
      523.22
11
     -398.32
21
      522.40
39
 0
62
 1
 0
LINE
8
default
6
CONTINUOUS
10
      398.32
20
      522.40
11
      399.24
21
      521.58
39
 0
62
 3
 0
LINE
8
default
6
CONTINUOUS
10
     -398.32
20
      522.40
11
     -399.24
21
      521.58
39
 0
62
 1
 0
LINE
8
default
6
CONTINUOUS
10
      399.24
20
      521.58
11
      400.16
21
      520.76
39
 0
62
 3
 0
LINE
8
default
6
CONTINUOUS
10
     -399.24
20
      521.58
11
     -400.16
21
      520.76
39
 0
62
 1
 0
LINE
8
default
6
CONTINUOUS
10
      400.16
20
      520.76
11
      401.07
21
      519.93
39
 0
62
 3
 0
LINE
8
default
6
CONTINUOUS
10
     -400.16
20
      520.76
11
     -401.07
21
      519.93
39
 0
62
 1
 0
LINE
8
default
6
CONTINUOUS
10
      401.07
20
      519.93
11
      401.99
21
      519.11
39
 0
62
 3
 0
LINE
8
default
6
CONTINUOUS
10
     -401.07
20
      519.93
11
     -401.99
21
      519.11
39
 0
62
 1
 0
LINE
8
default
6
CONTINUOUS
10
      401.99
20
      519.11
11
      402.90
21
      518.27
39
 0
62
 3
 0
LINE
8
default
6
CONTINUOUS
10
     -401.99
20
      519.11
11
     -402.90
21
      518.27
39
 0
62
 1
 0
LINE
8
default
6
CONTINUOUS
10
      402.90
20
      518.27
11
      403.80
21
      517.44
39
 0
62
 3
 0
LINE
8
default
6
CONTINUOUS
10
     -402.90
20
      518.27
11
     -403.80
21
      517.44
39
 0
62
 1
 0
LINE
8
default
6
CONTINUOUS
10
      403.80
20
      517.44
11
      404.71
21
      516.60
39
 0
62
 3
 0
LINE
8
default
6
CONTINUOUS
10
     -403.80
20
      517.44
11
     -404.71
21
      516.60
39
 0
62
 1
 0
LINE
8
default
6
CONTINUOUS
10
      404.71
20
      516.60
11
      405.61
21
      515.76
39
 0
62
 3
 0
LINE
8
default
6
CONTINUOUS
10
     -404.71
20
      516.60
11
     -405.61
21
      515.76
39
 0
62
 1
 0
LINE
8
default
6
CONTINUOUS
10
      405.61
20
      515.76
11
      406.51
21
      514.92
39
 0
62
 3
 0
LINE
8
default
6
CONTINUOUS
10
     -405.61
20
      515.76
11
     -406.51
21
      514.92
39
 0
62
 1
 0
LINE
8
default
6
CONTINUOUS
10
      406.51
20
      514.92
11
      407.40
21
      514.07
39
 0
62
 3
 0
LINE
8
default
6
CONTINUOUS
10
     -406.51
20
      514.92
11
     -407.40
21
      514.07
39
 0
62
 1
 0
LINE
8
default
6
CONTINUOUS
10
      407.40
20
      514.07
11
      408.30
21
      513.22
39
 0
62
 3
 0
LINE
8
default
6
CONTINUOUS
10
     -407.40
20
      514.07
11
     -408.30
21
      513.22
39
 0
62
 1
 0
LINE
8
default
6
CONTINUOUS
10
      408.30
20
      513.22
11
      409.19
21
      512.37
39
 0
62
 3
 0
LINE
8
default
6
CONTINUOUS
10
     -408.30
20
      513.22
11
     -409.19
21
      512.37
39
 0
62
 1
 0
LINE
8
default
6
CONTINUOUS
10
      409.19
20
      512.37
11
      410.07
21
      511.51
39
 0
62
 3
 0
LINE
8
default
6
CONTINUOUS
10
     -409.19
20
      512.37
11
     -410.07
21
      511.51
39
 0
62
 1
 0
LINE
8
default
6
CONTINUOUS
10
      410.07
20
      511.51
11
      410.96
21
      510.65
39
 0
62
 3
 0
LINE
8
default
6
CONTINUOUS
10
     -410.07
20
      511.51
11
     -410.96
21
      510.65
39
 0
62
 1
 0
LINE
8
default
6
CONTINUOUS
10
      410.96
20
      510.65
11
      411.84
21
      509.79
39
 0
62
 3
 0
LINE
8
default
6
CONTINUOUS
10
     -410.96
20
      510.65
11
     -411.84
21
      509.79
39
 0
62
 1
 0
LINE
8
default
6
CONTINUOUS
10
      411.84
20
      509.79
11
      412.72
21
      508.93
39
 0
62
 3
 0
LINE
8
default
6
CONTINUOUS
10
     -411.84
20
      509.79
11
     -412.72
21
      508.93
39
 0
62
 1
 0
LINE
8
default
6
CONTINUOUS
10
      412.72
20
      508.93
11
      413.60
21
      508.06
39
 0
62
 3
 0
LINE
8
default
6
CONTINUOUS
10
     -412.72
20
      508.93
11
     -413.60
21
      508.06
39
 0
62
 1
 0
LINE
8
default
6
CONTINUOUS
10
      413.60
20
      508.06
11
      414.47
21
      507.19
39
 0
62
 3
 0
LINE
8
default
6
CONTINUOUS
10
     -413.60
20
      508.06
11
     -414.47
21
      507.19
39
 0
62
 1
 0
LINE
8
default
6
CONTINUOUS
10
      414.47
20
      507.19
11
      415.34
21
      506.32
39
 0
62
 3
 0
LINE
8
default
6
CONTINUOUS
10
     -414.47
20
      507.19
11
     -415.34
21
      506.32
39
 0
62
 1
 0
LINE
8
default
6
CONTINUOUS
10
      415.34
20
      506.32
11
      416.21
21
      505.44
39
 0
62
 3
 0
LINE
8
default
6
CONTINUOUS
10
     -415.34
20
      506.32
11
     -416.21
21
      505.44
39
 0
62
 1
 0
LINE
8
default
6
CONTINUOUS
10
      416.21
20
      505.44
11
      417.07
21
      504.56
39
 0
62
 3
 0
LINE
8
default
6
CONTINUOUS
10
     -416.21
20
      505.44
11
     -417.07
21
      504.56
39
 0
62
 1
 0
LINE
8
default
6
CONTINUOUS
10
      417.07
20
      504.56
11
      417.93
21
      503.68
39
 0
62
 3
 0
LINE
8
default
6
CONTINUOUS
10
     -417.07
20
      504.56
11
     -417.93
21
      503.68
39
 0
62
 1
 0
LINE
8
default
6
CONTINUOUS
10
      417.93
20
      503.68
11
      418.79
21
      502.80
39
 0
62
 3
 0
LINE
8
default
6
CONTINUOUS
10
     -417.93
20
      503.68
11
     -418.79
21
      502.80
39
 0
62
 1
 0
LINE
8
default
6
CONTINUOUS
10
      418.79
20
      502.80
11
      419.65
21
      501.91
39
 0
62
 3
 0
LINE
8
default
6
CONTINUOUS
10
     -418.79
20
      502.80
11
     -419.65
21
      501.91
39
 0
62
 1
 0
LINE
8
default
6
CONTINUOUS
10
      419.65
20
      501.91
11
      420.50
21
      501.02
39
 0
62
 3
 0
LINE
8
default
6
CONTINUOUS
10
     -419.65
20
      501.91
11
     -420.50
21
      501.02
39
 0
62
 1
 0
LINE
8
default
6
CONTINUOUS
10
      420.50
20
      501.02
11
      421.35
21
      500.13
39
 0
62
 3
 0
LINE
8
default
6
CONTINUOUS
10
     -420.50
20
      501.02
11
     -421.35
21
      500.13
39
 0
62
 1
 0
LINE
8
default
6
CONTINUOUS
10
      421.35
20
      500.13
11
      422.20
21
      499.23
39
 0
62
 3
 0
LINE
8
default
6
CONTINUOUS
10
     -421.35
20
      500.13
11
     -422.20
21
      499.23
39
 0
62
 1
 0
LINE
8
default
6
CONTINUOUS
10
      422.20
20
      499.23
11
      423.04
21
      498.33
39
 0
62
 3
 0
LINE
8
default
6
CONTINUOUS
10
     -422.20
20
      499.23
11
     -423.04
21
      498.33
39
 0
62
 1
 0
LINE
8
default
6
CONTINUOUS
10
      423.04
20
      498.33
11
      423.88
21
      497.43
39
 0
62
 3
 0
LINE
8
default
6
CONTINUOUS
10
     -423.04
20
      498.33
11
     -423.88
21
      497.43
39
 0
62
 1
 0
LINE
8
default
6
CONTINUOUS
10
      423.88
20
      497.43
11
      424.72
21
      496.53
39
 0
62
 3
 0
LINE
8
default
6
CONTINUOUS
10
     -423.88
20
      497.43
11
     -424.72
21
      496.53
39
 0
62
 1
 0
LINE
8
default
6
CONTINUOUS
10
      424.72
20
      496.53
11
      425.56
21
      495.62
39
 0
62
 3
 0
LINE
8
default
6
CONTINUOUS
10
     -424.72
20
      496.53
11
     -425.56
21
      495.62
39
 0
62
 1
 0
LINE
8
default
6
CONTINUOUS
10
      425.56
20
      495.62
11
      426.39
21
      494.71
39
 0
62
 3
 0
LINE
8
default
6
CONTINUOUS
10
     -425.56
20
      495.62
11
     -426.39
21
      494.71
39
 0
62
 1
 0
LINE
8
default
6
CONTINUOUS
10
      426.39
20
      494.71
11
      427.22
21
      493.80
39
 0
62
 3
 0
LINE
8
default
6
CONTINUOUS
10
     -426.39
20
      494.71
11
     -427.22
21
      493.80
39
 0
62
 1
 0
LINE
8
default
6
CONTINUOUS
10
      427.22
20
      493.80
11
      428.05
21
      492.89
39
 0
62
 3
 0
LINE
8
default
6
CONTINUOUS
10
     -427.22
20
      493.80
11
     -428.05
21
      492.89
39
 0
62
 1
 0
LINE
8
default
6
CONTINUOUS
10
      428.05
20
      492.89
11
      428.87
21
      491.97
39
 0
62
 3
 0
LINE
8
default
6
CONTINUOUS
10
     -428.05
20
      492.89
11
     -428.87
21
      491.97
39
 0
62
 1
 0
LINE
8
default
6
CONTINUOUS
10
      428.87
20
      491.97
11
      429.69
21
      491.05
39
 0
62
 3
 0
LINE
8
default
6
CONTINUOUS
10
     -428.87
20
      491.97
11
     -429.69
21
      491.05
39
 0
62
 1
 0
LINE
8
default
6
CONTINUOUS
10
      429.69
20
      491.05
11
      430.51
21
      490.13
39
 0
62
 3
 0
LINE
8
default
6
CONTINUOUS
10
     -429.69
20
      491.05
11
     -430.51
21
      490.13
39
 0
62
 1
 0
LINE
8
default
6
CONTINUOUS
10
      430.51
20
      490.13
11
      431.32
21
      489.20
39
 0
62
 3
 0
LINE
8
default
6
CONTINUOUS
10
     -430.51
20
      490.13
11
     -431.32
21
      489.20
39
 0
62
 1
 0
LINE
8
default
6
CONTINUOUS
10
      431.32
20
      489.20
11
      432.13
21
      488.27
39
 0
62
 3
 0
LINE
8
default
6
CONTINUOUS
10
     -431.32
20
      489.20
11
     -432.13
21
      488.27
39
 0
62
 1
 0
LINE
8
default
6
CONTINUOUS
10
      432.13
20
      488.27
11
      432.94
21
      487.34
39
 0
62
 3
 0
LINE
8
default
6
CONTINUOUS
10
     -432.13
20
      488.27
11
     -432.94
21
      487.34
39
 0
62
 1
 0
LINE
8
default
6
CONTINUOUS
10
      432.94
20
      487.34
11
      433.75
21
      486.41
39
 0
62
 3
 0
LINE
8
default
6
CONTINUOUS
10
     -432.94
20
      487.34
11
     -433.75
21
      486.41
39
 0
62
 1
 0
LINE
8
default
6
CONTINUOUS
10
      433.75
20
      486.41
11
      434.55
21
      485.47
39
 0
62
 3
 0
LINE
8
default
6
CONTINUOUS
10
     -433.75
20
      486.41
11
     -434.55
21
      485.47
39
 0
62
 1
 0
LINE
8
default
6
CONTINUOUS
10
      434.55
20
      485.47
11
      435.35
21
      484.54
39
 0
62
 3
 0
LINE
8
default
6
CONTINUOUS
10
     -434.55
20
      485.47
11
     -435.35
21
      484.54
39
 0
62
 1
 0
LINE
8
default
6
CONTINUOUS
10
      435.35
20
      484.54
11
      436.14
21
      483.59
39
 0
62
 3
 0
LINE
8
default
6
CONTINUOUS
10
     -435.35
20
      484.54
11
     -436.14
21
      483.59
39
 0
62
 1
 0
LINE
8
default
6
CONTINUOUS
10
      436.14
20
      483.59
11
      436.94
21
      482.65
39
 0
62
 3
 0
LINE
8
default
6
CONTINUOUS
10
     -436.14
20
      483.59
11
     -436.94
21
      482.65
39
 0
62
 1
 0
LINE
8
default
6
CONTINUOUS
10
      436.94
20
      482.65
11
      437.73
21
      481.70
39
 0
62
 3
 0
LINE
8
default
6
CONTINUOUS
10
     -436.94
20
      482.65
11
     -437.73
21
      481.70
39
 0
62
 1
 0
LINE
8
default
6
CONTINUOUS
10
      437.73
20
      481.70
11
      438.51
21
      480.75
39
 0
62
 3
 0
LINE
8
default
6
CONTINUOUS
10
     -437.73
20
      481.70
11
     -438.51
21
      480.75
39
 0
62
 1
 0
LINE
8
default
6
CONTINUOUS
10
      438.51
20
      480.75
11
      439.30
21
      479.80
39
 0
62
 3
 0
LINE
8
default
6
CONTINUOUS
10
     -438.51
20
      480.75
11
     -439.30
21
      479.80
39
 0
62
 1
 0
LINE
8
default
6
CONTINUOUS
10
      439.30
20
      479.80
11
      440.08
21
      478.85
39
 0
62
 3
 0
LINE
8
default
6
CONTINUOUS
10
     -439.30
20
      479.80
11
     -440.08
21
      478.85
39
 0
62
 1
 0
LINE
8
default
6
CONTINUOUS
10
      440.08
20
      478.85
11
      440.85
21
      477.89
39
 0
62
 3
 0
LINE
8
default
6
CONTINUOUS
10
     -440.08
20
      478.85
11
     -440.85
21
      477.89
39
 0
62
 1
 0
LINE
8
default
6
CONTINUOUS
10
      440.85
20
      477.89
11
      441.63
21
      476.93
39
 0
62
 3
 0
LINE
8
default
6
CONTINUOUS
10
     -440.85
20
      477.89
11
     -441.63
21
      476.93
39
 0
62
 1
 0
LINE
8
default
6
CONTINUOUS
10
      441.63
20
      476.93
11
      442.40
21
      475.97
39
 0
62
 3
 0
LINE
8
default
6
CONTINUOUS
10
     -441.63
20
      476.93
11
     -442.40
21
      475.97
39
 0
62
 1
 0
LINE
8
default
6
CONTINUOUS
10
      442.40
20
      475.97
11
      443.17
21
      475.01
39
 0
62
 3
 0
LINE
8
default
6
CONTINUOUS
10
     -442.40
20
      475.97
11
     -443.17
21
      475.01
39
 0
62
 1
 0
LINE
8
default
6
CONTINUOUS
10
      443.17
20
      475.01
11
      443.93
21
      474.04
39
 0
62
 3
 0
LINE
8
default
6
CONTINUOUS
10
     -443.17
20
      475.01
11
     -443.93
21
      474.04
39
 0
62
 1
 0
LINE
8
default
6
CONTINUOUS
10
      443.93
20
      474.04
11
      444.69
21
      473.07
39
 0
62
 3
 0
LINE
8
default
6
CONTINUOUS
10
     -443.93
20
      474.04
11
     -444.69
21
      473.07
39
 0
62
 1
 0
LINE
8
default
6
CONTINUOUS
10
      444.69
20
      473.07
11
      445.45
21
      472.10
39
 0
62
 3
 0
LINE
8
default
6
CONTINUOUS
10
     -444.69
20
      473.07
11
     -445.45
21
      472.10
39
 0
62
 1
 0
LINE
8
default
6
CONTINUOUS
10
      445.45
20
      472.10
11
      446.21
21
      471.12
39
 0
62
 3
 0
LINE
8
default
6
CONTINUOUS
10
     -445.45
20
      472.10
11
     -446.21
21
      471.12
39
 0
62
 1
 0
LINE
8
default
6
CONTINUOUS
10
      446.21
20
      471.12
11
      446.96
21
      470.15
39
 0
62
 3
 0
LINE
8
default
6
CONTINUOUS
10
     -446.21
20
      471.12
11
     -446.96
21
      470.15
39
 0
62
 1
 0
LINE
8
default
6
CONTINUOUS
10
      446.96
20
      470.15
11
      447.71
21
      469.17
39
 0
62
 3
 0
LINE
8
default
6
CONTINUOUS
10
     -446.96
20
      470.15
11
     -447.71
21
      469.17
39
 0
62
 1
 0
LINE
8
default
6
CONTINUOUS
10
      447.71
20
      469.17
11
      448.45
21
      468.19
39
 0
62
 3
 0
LINE
8
default
6
CONTINUOUS
10
     -447.71
20
      469.17
11
     -448.45
21
      468.19
39
 0
62
 1
 0
LINE
8
default
6
CONTINUOUS
10
      448.45
20
      468.19
11
      449.19
21
      467.20
39
 0
62
 3
 0
LINE
8
default
6
CONTINUOUS
10
     -448.45
20
      468.19
11
     -449.19
21
      467.20
39
 0
62
 1
 0
LINE
8
default
6
CONTINUOUS
10
      449.19
20
      467.20
11
      449.93
21
      466.22
39
 0
62
 3
 0
LINE
8
default
6
CONTINUOUS
10
     -449.19
20
      467.20
11
     -449.93
21
      466.22
39
 0
62
 1
 0
LINE
8
default
6
CONTINUOUS
10
      449.93
20
      466.22
11
      450.67
21
      465.23
39
 0
62
 3
 0
LINE
8
default
6
CONTINUOUS
10
     -449.93
20
      466.22
11
     -450.67
21
      465.23
39
 0
62
 1
 0
LINE
8
default
6
CONTINUOUS
10
      450.67
20
      465.23
11
      451.40
21
      464.24
39
 0
62
 3
 0
LINE
8
default
6
CONTINUOUS
10
     -450.67
20
      465.23
11
     -451.40
21
      464.24
39
 0
62
 1
 0
LINE
8
default
6
CONTINUOUS
10
      451.40
20
      464.24
11
      452.13
21
      463.24
39
 0
62
 3
 0
LINE
8
default
6
CONTINUOUS
10
     -451.40
20
      464.24
11
     -452.13
21
      463.24
39
 0
62
 1
 0
LINE
8
default
6
CONTINUOUS
10
      452.13
20
      463.24
11
      452.86
21
      462.25
39
 0
62
 3
 0
LINE
8
default
6
CONTINUOUS
10
     -452.13
20
      463.24
11
     -452.86
21
      462.25
39
 0
62
 1
 0
LINE
8
default
6
CONTINUOUS
10
      452.86
20
      462.25
11
      454.30
21
      460.24
39
 0
62
 3
 0
LINE
8
default
6
CONTINUOUS
10
     -452.86
20
      462.25
11
     -454.30
21
      460.24
39
 0
62
 1
 0
LINE
8
default
6
CONTINUOUS
10
      454.30
20
      460.24
11
      454.68
21
      459.71
39
 0
62
 3
 0
LINE
8
default
6
CONTINUOUS
10
     -454.30
20
      460.24
11
     -454.68
21
      459.71
39
 0
62
 1
 0
LINE
8
default
6
CONTINUOUS
10
      454.68
20
      459.71
11
      455.06
21
      459.17
39
 0
62
 3
 0
LINE
8
default
6
CONTINUOUS
10
     -454.68
20
      459.71
11
     -455.06
21
      459.17
39
 0
62
 1
 0
LINE
8
default
6
CONTINUOUS
10
      455.06
20
      459.17
11
      455.43
21
      458.63
39
 0
62
 3
 0
LINE
8
default
6
CONTINUOUS
10
     -455.06
20
      459.17
11
     -455.43
21
      458.63
39
 0
62
 1
 0
LINE
8
default
6
CONTINUOUS
10
      455.43
20
      458.63
11
      455.80
21
      458.09
39
 0
62
 3
 0
LINE
8
default
6
CONTINUOUS
10
     -455.43
20
      458.63
11
     -455.80
21
      458.09
39
 0
62
 1
 0
LINE
8
default
6
CONTINUOUS
10
      455.80
20
      458.09
11
      456.17
21
      457.55
39
 0
62
 3
 0
LINE
8
default
6
CONTINUOUS
10
     -455.80
20
      458.09
11
     -456.17
21
      457.55
39
 0
62
 1
 0
LINE
8
default
6
CONTINUOUS
10
      456.17
20
      457.55
11
      456.53
21
      457.00
39
 0
62
 3
 0
LINE
8
default
6
CONTINUOUS
10
     -456.17
20
      457.55
11
     -456.53
21
      457.00
39
 0
62
 1
 0
LINE
8
default
6
CONTINUOUS
10
      456.53
20
      457.00
11
      456.89
21
      456.45
39
 0
62
 3
 0
LINE
8
default
6
CONTINUOUS
10
     -456.53
20
      457.00
11
     -456.89
21
      456.45
39
 0
62
 1
 0
LINE
8
default
6
CONTINUOUS
10
      456.89
20
      456.45
11
      457.25
21
      455.90
39
 0
62
 3
 0
LINE
8
default
6
CONTINUOUS
10
     -456.89
20
      456.45
11
     -457.25
21
      455.90
39
 0
62
 1
 0
LINE
8
default
6
CONTINUOUS
10
      457.25
20
      455.90
11
      457.60
21
      455.34
39
 0
62
 3
 0
LINE
8
default
6
CONTINUOUS
10
     -457.25
20
      455.90
11
     -457.60
21
      455.34
39
 0
62
 1
 0
LINE
8
default
6
CONTINUOUS
10
      457.60
20
      455.34
11
      457.95
21
      454.79
39
 0
62
 3
 0
LINE
8
default
6
CONTINUOUS
10
     -457.60
20
      455.34
11
     -457.95
21
      454.79
39
 0
62
 1
 0
LINE
8
default
6
CONTINUOUS
10
      457.95
20
      454.79
11
      458.30
21
      454.23
39
 0
62
 3
 0
LINE
8
default
6
CONTINUOUS
10
     -457.95
20
      454.79
11
     -458.30
21
      454.23
39
 0
62
 1
 0
LINE
8
default
6
CONTINUOUS
10
      458.30
20
      454.23
11
      458.64
21
      453.67
39
 0
62
 3
 0
LINE
8
default
6
CONTINUOUS
10
     -458.30
20
      454.23
11
     -458.64
21
      453.67
39
 0
62
 1
 0
LINE
8
default
6
CONTINUOUS
10
      458.64
20
      453.67
11
      458.98
21
      453.11
39
 0
62
 3
 0
LINE
8
default
6
CONTINUOUS
10
     -458.64
20
      453.67
11
     -458.98
21
      453.11
39
 0
62
 1
 0
LINE
8
default
6
CONTINUOUS
10
      458.98
20
      453.11
11
      459.32
21
      452.54
39
 0
62
 3
 0
LINE
8
default
6
CONTINUOUS
10
     -458.98
20
      453.11
11
     -459.32
21
      452.54
39
 0
62
 1
 0
LINE
8
default
6
CONTINUOUS
10
      459.32
20
      452.54
11
      459.65
21
      451.98
39
 0
62
 3
 0
LINE
8
default
6
CONTINUOUS
10
     -459.32
20
      452.54
11
     -459.65
21
      451.98
39
 0
62
 1
 0
LINE
8
default
6
CONTINUOUS
10
      459.65
20
      451.98
11
      459.98
21
      451.41
39
 0
62
 3
 0
LINE
8
default
6
CONTINUOUS
10
     -459.65
20
      451.98
11
     -459.98
21
      451.41
39
 0
62
 1
 0
LINE
8
default
6
CONTINUOUS
10
      459.98
20
      451.41
11
      460.31
21
      450.84
39
 0
62
 3
 0
LINE
8
default
6
CONTINUOUS
10
     -459.98
20
      451.41
11
     -460.31
21
      450.84
39
 0
62
 1
 0
LINE
8
default
6
CONTINUOUS
10
      460.31
20
      450.84
11
      460.63
21
      450.27
39
 0
62
 3
 0
LINE
8
default
6
CONTINUOUS
10
     -460.31
20
      450.84
11
     -460.63
21
      450.27
39
 0
62
 1
 0
LINE
8
default
6
CONTINUOUS
10
      460.63
20
      450.27
11
      460.95
21
      449.69
39
 0
62
 3
 0
LINE
8
default
6
CONTINUOUS
10
     -460.63
20
      450.27
11
     -460.95
21
      449.69
39
 0
62
 1
 0
LINE
8
default
6
CONTINUOUS
10
      460.95
20
      449.69
11
      461.26
21
      449.11
39
 0
62
 3
 0
LINE
8
default
6
CONTINUOUS
10
     -460.95
20
      449.69
11
     -461.26
21
      449.11
39
 0
62
 1
 0
LINE
8
default
6
CONTINUOUS
10
      461.26
20
      449.11
11
      461.57
21
      448.54
39
 0
62
 3
 0
LINE
8
default
6
CONTINUOUS
10
     -461.26
20
      449.11
11
     -461.57
21
      448.54
39
 0
62
 1
 0
LINE
8
default
6
CONTINUOUS
10
      461.57
20
      448.54
11
      461.88
21
      447.96
39
 0
62
 3
 0
LINE
8
default
6
CONTINUOUS
10
     -461.57
20
      448.54
11
     -461.88
21
      447.96
39
 0
62
 1
 0
LINE
8
default
6
CONTINUOUS
10
      461.88
20
      447.96
11
      462.19
21
      447.37
39
 0
62
 3
 0
LINE
8
default
6
CONTINUOUS
10
     -461.88
20
      447.96
11
     -462.19
21
      447.37
39
 0
62
 1
 0
LINE
8
default
6
CONTINUOUS
10
      462.19
20
      447.37
11
      462.49
21
      446.79
39
 0
62
 3
 0
LINE
8
default
6
CONTINUOUS
10
     -462.19
20
      447.37
11
     -462.49
21
      446.79
39
 0
62
 1
 0
LINE
8
default
6
CONTINUOUS
10
      462.49
20
      446.79
11
      462.78
21
      446.20
39
 0
62
 3
 0
LINE
8
default
6
CONTINUOUS
10
     -462.49
20
      446.79
11
     -462.78
21
      446.20
39
 0
62
 1
 0
LINE
8
default
6
CONTINUOUS
10
      462.78
20
      446.20
11
      463.08
21
      445.62
39
 0
62
 3
 0
LINE
8
default
6
CONTINUOUS
10
     -462.78
20
      446.20
11
     -463.08
21
      445.62
39
 0
62
 1
 0
LINE
8
default
6
CONTINUOUS
10
      463.08
20
      445.62
11
      463.37
21
      445.03
39
 0
62
 3
 0
LINE
8
default
6
CONTINUOUS
10
     -463.08
20
      445.62
11
     -463.37
21
      445.03
39
 0
62
 1
 0
LINE
8
default
6
CONTINUOUS
10
      463.37
20
      445.03
11
      463.65
21
      444.43
39
 0
62
 3
 0
LINE
8
default
6
CONTINUOUS
10
     -463.37
20
      445.03
11
     -463.65
21
      444.43
39
 0
62
 1
 0
LINE
8
default
6
CONTINUOUS
10
      463.65
20
      444.43
11
      463.93
21
      443.84
39
 0
62
 3
 0
LINE
8
default
6
CONTINUOUS
10
     -463.65
20
      444.43
11
     -463.93
21
      443.84
39
 0
62
 1
 0
LINE
8
default
6
CONTINUOUS
10
      463.93
20
      443.84
11
      464.21
21
      443.25
39
 0
62
 3
 0
LINE
8
default
6
CONTINUOUS
10
     -463.93
20
      443.84
11
     -464.21
21
      443.25
39
 0
62
 1
 0
LINE
8
default
6
CONTINUOUS
10
      464.21
20
      443.25
11
      464.49
21
      442.65
39
 0
62
 3
 0
LINE
8
default
6
CONTINUOUS
10
     -464.21
20
      443.25
11
     -464.49
21
      442.65
39
 0
62
 1
 0
LINE
8
default
6
CONTINUOUS
10
      464.49
20
      442.65
11
      464.76
21
      442.05
39
 0
62
 3
 0
LINE
8
default
6
CONTINUOUS
10
     -464.49
20
      442.65
11
     -464.76
21
      442.05
39
 0
62
 1
 0
LINE
8
default
6
CONTINUOUS
10
      464.76
20
      442.05
11
      465.02
21
      441.45
39
 0
62
 3
 0
LINE
8
default
6
CONTINUOUS
10
     -464.76
20
      442.05
11
     -465.02
21
      441.45
39
 0
62
 1
 0
LINE
8
default
6
CONTINUOUS
10
      465.02
20
      441.45
11
      465.29
21
      440.85
39
 0
62
 3
 0
LINE
8
default
6
CONTINUOUS
10
     -465.02
20
      441.45
11
     -465.29
21
      440.85
39
 0
62
 1
 0
LINE
8
default
6
CONTINUOUS
10
      465.29
20
      440.85
11
      465.55
21
      440.24
39
 0
62
 3
 0
LINE
8
default
6
CONTINUOUS
10
     -465.29
20
      440.85
11
     -465.55
21
      440.24
39
 0
62
 1
 0
LINE
8
default
6
CONTINUOUS
10
      465.55
20
      440.24
11
      465.80
21
      439.64
39
 0
62
 3
 0
LINE
8
default
6
CONTINUOUS
10
     -465.55
20
      440.24
11
     -465.80
21
      439.64
39
 0
62
 1
 0
LINE
8
default
6
CONTINUOUS
10
      465.80
20
      439.64
11
      466.06
21
      439.03
39
 0
62
 3
 0
LINE
8
default
6
CONTINUOUS
10
     -465.80
20
      439.64
11
     -466.06
21
      439.03
39
 0
62
 1
 0
LINE
8
default
6
CONTINUOUS
10
      466.06
20
      439.03
11
      466.30
21
      438.43
39
 0
62
 3
 0
LINE
8
default
6
CONTINUOUS
10
     -466.06
20
      439.03
11
     -466.30
21
      438.43
39
 0
62
 1
 0
LINE
8
default
6
CONTINUOUS
10
      466.30
20
      438.43
11
      466.55
21
      437.82
39
 0
62
 3
 0
LINE
8
default
6
CONTINUOUS
10
     -466.30
20
      438.43
11
     -466.55
21
      437.82
39
 0
62
 1
 0
LINE
8
default
6
CONTINUOUS
10
      466.55
20
      437.82
11
      466.79
21
      437.20
39
 0
62
 3
 0
LINE
8
default
6
CONTINUOUS
10
     -466.55
20
      437.82
11
     -466.79
21
      437.20
39
 0
62
 1
 0
LINE
8
default
6
CONTINUOUS
10
      466.79
20
      437.20
11
      467.03
21
      436.59
39
 0
62
 3
 0
LINE
8
default
6
CONTINUOUS
10
     -466.79
20
      437.20
11
     -467.03
21
      436.59
39
 0
62
 1
 0
LINE
8
default
6
CONTINUOUS
10
      467.03
20
      436.59
11
      467.26
21
      435.98
39
 0
62
 3
 0
LINE
8
default
6
CONTINUOUS
10
     -467.03
20
      436.59
11
     -467.26
21
      435.98
39
 0
62
 1
 0
LINE
8
default
6
CONTINUOUS
10
      467.26
20
      435.98
11
      467.49
21
      435.36
39
 0
62
 3
 0
LINE
8
default
6
CONTINUOUS
10
     -467.26
20
      435.98
11
     -467.49
21
      435.36
39
 0
62
 1
 0
LINE
8
default
6
CONTINUOUS
10
      467.49
20
      435.36
11
      467.71
21
      434.74
39
 0
62
 3
 0
LINE
8
default
6
CONTINUOUS
10
     -467.49
20
      435.36
11
     -467.71
21
      434.74
39
 0
62
 1
 0
LINE
8
default
6
CONTINUOUS
10
      467.71
20
      434.74
11
      467.94
21
      434.13
39
 0
62
 3
 0
LINE
8
default
6
CONTINUOUS
10
     -467.71
20
      434.74
11
     -467.94
21
      434.13
39
 0
62
 1
 0
LINE
8
default
6
CONTINUOUS
10
      467.94
20
      434.13
11
      468.15
21
      433.51
39
 0
62
 3
 0
LINE
8
default
6
CONTINUOUS
10
     -467.94
20
      434.13
11
     -468.15
21
      433.51
39
 0
62
 1
 0
LINE
8
default
6
CONTINUOUS
10
      468.15
20
      433.51
11
      468.37
21
      432.89
39
 0
62
 3
 0
LINE
8
default
6
CONTINUOUS
10
     -468.15
20
      433.51
11
     -468.37
21
      432.89
39
 0
62
 1
 0
LINE
8
default
6
CONTINUOUS
10
      468.37
20
      432.89
11
      468.58
21
      432.26
39
 0
62
 3
 0
LINE
8
default
6
CONTINUOUS
10
     -468.37
20
      432.89
11
     -468.58
21
      432.26
39
 0
62
 1
 0
LINE
8
default
6
CONTINUOUS
10
      468.58
20
      432.26
11
      468.78
21
      431.64
39
 0
62
 3
 0
LINE
8
default
6
CONTINUOUS
10
     -468.58
20
      432.26
11
     -468.78
21
      431.64
39
 0
62
 1
 0
LINE
8
default
6
CONTINUOUS
10
      468.78
20
      431.64
11
      468.98
21
      431.01
39
 0
62
 3
 0
LINE
8
default
6
CONTINUOUS
10
     -468.78
20
      431.64
11
     -468.98
21
      431.01
39
 0
62
 1
 0
LINE
8
default
6
CONTINUOUS
10
      468.98
20
      431.01
11
      469.18
21
      430.39
39
 0
62
 3
 0
LINE
8
default
6
CONTINUOUS
10
     -468.98
20
      431.01
11
     -469.18
21
      430.39
39
 0
62
 1
 0
LINE
8
default
6
CONTINUOUS
10
      469.18
20
      430.39
11
      469.38
21
      429.76
39
 0
62
 3
 0
LINE
8
default
6
CONTINUOUS
10
     -469.18
20
      430.39
11
     -469.38
21
      429.76
39
 0
62
 1
 0
LINE
8
default
6
CONTINUOUS
10
      469.38
20
      429.76
11
      469.57
21
      429.13
39
 0
62
 3
 0
LINE
8
default
6
CONTINUOUS
10
     -469.38
20
      429.76
11
     -469.57
21
      429.13
39
 0
62
 1
 0
LINE
8
default
6
CONTINUOUS
10
      469.57
20
      429.13
11
      469.75
21
      428.50
39
 0
62
 3
 0
LINE
8
default
6
CONTINUOUS
10
     -469.57
20
      429.13
11
     -469.75
21
      428.50
39
 0
62
 1
 0
LINE
8
default
6
CONTINUOUS
10
      469.75
20
      428.50
11
      469.94
21
      427.87
39
 0
62
 3
 0
LINE
8
default
6
CONTINUOUS
10
     -469.75
20
      428.50
11
     -469.94
21
      427.87
39
 0
62
 1
 0
LINE
8
default
6
CONTINUOUS
10
      469.94
20
      427.87
11
      470.12
21
      427.24
39
 0
62
 3
 0
LINE
8
default
6
CONTINUOUS
10
     -469.94
20
      427.87
11
     -470.12
21
      427.24
39
 0
62
 1
 0
LINE
8
default
6
CONTINUOUS
10
      470.12
20
      427.24
11
      470.29
21
      426.60
39
 0
62
 3
 0
LINE
8
default
6
CONTINUOUS
10
     -470.12
20
      427.24
11
     -470.29
21
      426.60
39
 0
62
 1
 0
LINE
8
default
6
CONTINUOUS
10
      470.29
20
      426.60
11
      470.46
21
      425.97
39
 0
62
 3
 0
LINE
8
default
6
CONTINUOUS
10
     -470.29
20
      426.60
11
     -470.46
21
      425.97
39
 0
62
 1
 0
LINE
8
default
6
CONTINUOUS
10
      470.46
20
      425.97
11
      470.63
21
      425.34
39
 0
62
 3
 0
LINE
8
default
6
CONTINUOUS
10
     -470.46
20
      425.97
11
     -470.63
21
      425.34
39
 0
62
 1
 0
LINE
8
default
6
CONTINUOUS
10
      470.63
20
      425.34
11
      470.79
21
      424.70
39
 0
62
 3
 0
LINE
8
default
6
CONTINUOUS
10
     -470.63
20
      425.34
11
     -470.79
21
      424.70
39
 0
62
 1
 0
LINE
8
default
6
CONTINUOUS
10
      470.79
20
      424.70
11
      470.95
21
      424.06
39
 0
62
 3
 0
LINE
8
default
6
CONTINUOUS
10
     -470.79
20
      424.70
11
     -470.95
21
      424.06
39
 0
62
 1
 0
LINE
8
default
6
CONTINUOUS
10
      470.95
20
      424.06
11
      471.10
21
      423.42
39
 0
62
 3
 0
LINE
8
default
6
CONTINUOUS
10
     -470.95
20
      424.06
11
     -471.10
21
      423.42
39
 0
62
 1
 0
LINE
8
default
6
CONTINUOUS
10
      471.10
20
      423.42
11
      471.25
21
      422.78
39
 0
62
 3
 0
LINE
8
default
6
CONTINUOUS
10
     -471.10
20
      423.42
11
     -471.25
21
      422.78
39
 0
62
 1
 0
LINE
8
default
6
CONTINUOUS
10
      471.25
20
      422.78
11
      471.40
21
      422.14
39
 0
62
 3
 0
LINE
8
default
6
CONTINUOUS
10
     -471.25
20
      422.78
11
     -471.40
21
      422.14
39
 0
62
 1
 0
LINE
8
default
6
CONTINUOUS
10
      471.40
20
      422.14
11
      471.54
21
      421.50
39
 0
62
 3
 0
LINE
8
default
6
CONTINUOUS
10
     -471.40
20
      422.14
11
     -471.54
21
      421.50
39
 0
62
 1
 0
LINE
8
default
6
CONTINUOUS
10
      471.54
20
      421.50
11
      471.68
21
      420.86
39
 0
62
 3
 0
LINE
8
default
6
CONTINUOUS
10
     -471.54
20
      421.50
11
     -471.68
21
      420.86
39
 0
62
 1
 0
LINE
8
default
6
CONTINUOUS
10
      471.68
20
      420.86
11
      471.82
21
      420.22
39
 0
62
 3
 0
LINE
8
default
6
CONTINUOUS
10
     -471.68
20
      420.86
11
     -471.82
21
      420.22
39
 0
62
 1
 0
LINE
8
default
6
CONTINUOUS
10
      471.82
20
      420.22
11
      471.95
21
      419.57
39
 0
62
 3
 0
LINE
8
default
6
CONTINUOUS
10
     -471.82
20
      420.22
11
     -471.95
21
      419.57
39
 0
62
 1
 0
LINE
8
default
6
CONTINUOUS
10
      471.95
20
      419.57
11
      472.08
21
      418.93
39
 0
62
 3
 0
LINE
8
default
6
CONTINUOUS
10
     -471.95
20
      419.57
11
     -472.08
21
      418.93
39
 0
62
 1
 0
LINE
8
default
6
CONTINUOUS
10
      472.08
20
      418.93
11
      472.20
21
      418.28
39
 0
62
 3
 0
LINE
8
default
6
CONTINUOUS
10
     -472.08
20
      418.93
11
     -472.20
21
      418.28
39
 0
62
 1
 0
LINE
8
default
6
CONTINUOUS
10
      472.20
20
      418.28
11
      472.32
21
      417.64
39
 0
62
 3
 0
LINE
8
default
6
CONTINUOUS
10
     -472.20
20
      418.28
11
     -472.32
21
      417.64
39
 0
62
 1
 0
LINE
8
default
6
CONTINUOUS
10
      472.32
20
      417.64
11
      472.43
21
      416.99
39
 0
62
 3
 0
LINE
8
default
6
CONTINUOUS
10
     -472.32
20
      417.64
11
     -472.43
21
      416.99
39
 0
62
 1
 0
LINE
8
default
6
CONTINUOUS
10
      472.43
20
      416.99
11
      472.54
21
      416.34
39
 0
62
 3
 0
LINE
8
default
6
CONTINUOUS
10
     -472.43
20
      416.99
11
     -472.54
21
      416.34
39
 0
62
 1
 0
LINE
8
default
6
CONTINUOUS
10
      472.54
20
      416.34
11
      472.65
21
      415.69
39
 0
62
 3
 0
LINE
8
default
6
CONTINUOUS
10
     -472.54
20
      416.34
11
     -472.65
21
      415.69
39
 0
62
 1
 0
LINE
8
default
6
CONTINUOUS
10
      472.65
20
      415.69
11
      472.75
21
      415.05
39
 0
62
 3
 0
LINE
8
default
6
CONTINUOUS
10
     -472.65
20
      415.69
11
     -472.75
21
      415.05
39
 0
62
 1
 0
LINE
8
default
6
CONTINUOUS
10
      472.75
20
      415.05
11
      472.85
21
      414.40
39
 0
62
 3
 0
LINE
8
default
6
CONTINUOUS
10
     -472.75
20
      415.05
11
     -472.85
21
      414.40
39
 0
62
 1
 0
LINE
8
default
6
CONTINUOUS
10
      472.85
20
      414.40
11
      472.94
21
      413.75
39
 0
62
 3
 0
LINE
8
default
6
CONTINUOUS
10
     -472.85
20
      414.40
11
     -472.94
21
      413.75
39
 0
62
 1
 0
LINE
8
default
6
CONTINUOUS
10
      472.94
20
      413.75
11
      473.04
21
      413.10
39
 0
62
 3
 0
LINE
8
default
6
CONTINUOUS
10
     -472.94
20
      413.75
11
     -473.04
21
      413.10
39
 0
62
 1
 0
LINE
8
default
6
CONTINUOUS
10
      473.04
20
      413.10
11
      473.12
21
      412.44
39
 0
62
 3
 0
LINE
8
default
6
CONTINUOUS
10
     -473.04
20
      413.10
11
     -473.12
21
      412.44
39
 0
62
 1
 0
LINE
8
default
6
CONTINUOUS
10
      473.12
20
      412.44
11
      473.20
21
      411.79
39
 0
62
 3
 0
LINE
8
default
6
CONTINUOUS
10
     -473.12
20
      412.44
11
     -473.20
21
      411.79
39
 0
62
 1
 0
LINE
8
default
6
CONTINUOUS
10
      473.20
20
      411.79
11
      473.28
21
      411.14
39
 0
62
 3
 0
LINE
8
default
6
CONTINUOUS
10
     -473.20
20
      411.79
11
     -473.28
21
      411.14
39
 0
62
 1
 0
LINE
8
default
6
CONTINUOUS
10
      473.28
20
      411.14
11
      473.36
21
      410.49
39
 0
62
 3
 0
LINE
8
default
6
CONTINUOUS
10
     -473.28
20
      411.14
11
     -473.36
21
      410.49
39
 0
62
 1
 0
LINE
8
default
6
CONTINUOUS
10
      473.36
20
      410.49
11
      473.43
21
      409.83
39
 0
62
 3
 0
LINE
8
default
6
CONTINUOUS
10
     -473.36
20
      410.49
11
     -473.43
21
      409.83
39
 0
62
 1
 0
LINE
8
default
6
CONTINUOUS
10
      473.43
20
      409.83
11
      473.49
21
      409.18
39
 0
62
 3
 0
LINE
8
default
6
CONTINUOUS
10
     -473.43
20
      409.83
11
     -473.49
21
      409.18
39
 0
62
 1
 0
LINE
8
default
6
CONTINUOUS
10
      473.49
20
      409.18
11
      473.55
21
      408.53
39
 0
62
 3
 0
LINE
8
default
6
CONTINUOUS
10
     -473.49
20
      409.18
11
     -473.55
21
      408.53
39
 0
62
 1
 0
LINE
8
default
6
CONTINUOUS
10
      473.55
20
      408.53
11
      473.61
21
      407.87
39
 0
62
 3
 0
LINE
8
default
6
CONTINUOUS
10
     -473.55
20
      408.53
11
     -473.61
21
      407.87
39
 0
62
 1
 0
LINE
8
default
6
CONTINUOUS
10
      473.61
20
      407.87
11
      473.67
21
      407.22
39
 0
62
 3
 0
LINE
8
default
6
CONTINUOUS
10
     -473.61
20
      407.87
11
     -473.67
21
      407.22
39
 0
62
 1
 0
LINE
8
default
6
CONTINUOUS
10
      473.67
20
      407.22
11
      473.72
21
      406.56
39
 0
62
 3
 0
LINE
8
default
6
CONTINUOUS
10
     -473.67
20
      407.22
11
     -473.72
21
      406.56
39
 0
62
 1
 0
LINE
8
default
6
CONTINUOUS
10
      473.72
20
      406.56
11
      473.76
21
      405.91
39
 0
62
 3
 0
LINE
8
default
6
CONTINUOUS
10
     -473.72
20
      406.56
11
     -473.76
21
      405.91
39
 0
62
 1
 0
LINE
8
default
6
CONTINUOUS
10
      473.76
20
      405.91
11
      473.80
21
      405.25
39
 0
62
 3
 0
LINE
8
default
6
CONTINUOUS
10
     -473.76
20
      405.91
11
     -473.80
21
      405.25
39
 0
62
 1
 0
LINE
8
default
6
CONTINUOUS
10
      473.80
20
      405.25
11
      473.84
21
      404.60
39
 0
62
 3
 0
LINE
8
default
6
CONTINUOUS
10
     -473.80
20
      405.25
11
     -473.84
21
      404.60
39
 0
62
 1
 0
LINE
8
default
6
CONTINUOUS
10
      473.84
20
      404.60
11
      473.87
21
      403.94
39
 0
62
 3
 0
LINE
8
default
6
CONTINUOUS
10
     -473.84
20
      404.60
11
     -473.87
21
      403.94
39
 0
62
 1
 0
LINE
8
default
6
CONTINUOUS
10
      473.87
20
      403.94
11
      473.90
21
      403.28
39
 0
62
 3
 0
LINE
8
default
6
CONTINUOUS
10
     -473.87
20
      403.94
11
     -473.90
21
      403.28
39
 0
62
 1
 0
LINE
8
default
6
CONTINUOUS
10
      473.90
20
      403.28
11
      473.93
21
      402.63
39
 0
62
 3
 0
LINE
8
default
6
CONTINUOUS
10
     -473.90
20
      403.28
11
     -473.93
21
      402.63
39
 0
62
 1
 0
LINE
8
default
6
CONTINUOUS
10
      473.93
20
      402.63
11
      473.95
21
      401.97
39
 0
62
 3
 0
LINE
8
default
6
CONTINUOUS
10
     -473.93
20
      402.63
11
     -473.95
21
      401.97
39
 0
62
 1
 0
LINE
8
default
6
CONTINUOUS
10
      473.95
20
      401.97
11
      473.97
21
      401.31
39
 0
62
 3
 0
LINE
8
default
6
CONTINUOUS
10
     -473.95
20
      401.97
11
     -473.97
21
      401.31
39
 0
62
 1
 0
LINE
8
default
6
CONTINUOUS
10
      473.97
20
      401.31
11
      473.98
21
      400.66
39
 0
62
 3
 0
LINE
8
default
6
CONTINUOUS
10
     -473.97
20
      401.31
11
     -473.98
21
      400.66
39
 0
62
 1
 0
LINE
8
default
6
CONTINUOUS
10
      473.98
20
      400.66
11
      473.99
21
      400.00
39
 0
62
 3
 0
LINE
8
default
6
CONTINUOUS
10
     -473.98
20
      400.66
11
     -473.99
21
      400.00
39
 0
62
 1
 0
LINE
8
default
6
CONTINUOUS
10
        0.00
20
       -0.00
11
        0.00
21
     -271.02
39
 0
62
 3
 0
LINE
8
default
6
CONTINUOUS
10
        0.00
20
       -0.00
11
        0.00
21
     -271.02
39
 0
62
 1
 0
LINE
8
default
6
CONTINUOUS
10
       24.71
20
       -0.15
11
       24.71
21
     -270.93
39
 0
62
 3
 0
LINE
8
default
6
CONTINUOUS
10
      -24.71
20
       -0.15
11
      -24.71
21
     -270.93
39
 0
62
 1
 0
LINE
8
default
6
CONTINUOUS
10
       49.41
20
       -0.59
11
       49.41
21
     -270.65
39
 0
62
 3
 0
LINE
8
default
6
CONTINUOUS
10
      -49.41
20
       -0.59
11
      -49.41
21
     -270.65
39
 0
62
 1
 0
LINE
8
default
6
CONTINUOUS
10
       74.07
20
       -1.33
11
       74.07
21
     -270.20
39
 0
62
 3
 0
LINE
8
default
6
CONTINUOUS
10
      -74.07
20
       -1.33
11
      -74.07
21
     -270.20
39
 0
62
 1
 0
LINE
8
default
6
CONTINUOUS
10
       98.68
20
       -2.36
11
       98.68
21
     -269.56
39
 0
62
 3
 0
LINE
8
default
6
CONTINUOUS
10
      -98.68
20
       -2.36
11
      -98.68
21
     -269.56
39
 0
62
 1
 0
LINE
8
default
6
CONTINUOUS
10
      123.24
20
       -3.69
11
      123.24
21
     -268.74
39
 0
62
 3
 0
LINE
8
default
6
CONTINUOUS
10
     -123.24
20
       -3.69
11
     -123.24
21
     -268.74
39
 0
62
 1
 0
LINE
8
default
6
CONTINUOUS
10
      147.73
20
       -5.32
11
      147.73
21
     -267.74
39
 0
62
 3
 0
LINE
8
default
6
CONTINUOUS
10
     -147.73
20
       -5.32
11
     -147.73
21
     -267.74
39
 0
62
 1
 0
LINE
8
default
6
CONTINUOUS
10
      172.13
20
       -7.25
11
      172.13
21
     -266.56
39
 0
62
 3
 0
LINE
8
default
6
CONTINUOUS
10
     -172.13
20
       -7.25
11
     -172.13
21
     -266.56
39
 0
62
 1
 0
LINE
8
default
6
CONTINUOUS
10
      196.43
20
       -9.48
11
      196.43
21
     -265.20
39
 0
62
 3
 0
LINE
8
default
6
CONTINUOUS
10
     -196.43
20
       -9.48
11
     -196.43
21
     -265.20
39
 0
62
 1
 0
LINE
8
default
6
CONTINUOUS
10
      220.62
20
      -12.03
11
      220.62
21
     -263.65
39
 0
62
 3
 0
LINE
8
default
6
CONTINUOUS
10
     -220.62
20
      -12.03
11
     -220.62
21
     -263.65
39
 0
62
 1
 0
LINE
8
default
6
CONTINUOUS
10
      244.68
20
      -14.89
11
      244.68
21
     -261.92
39
 0
62
 3
 0
LINE
8
default
6
CONTINUOUS
10
     -244.68
20
      -14.89
11
     -244.68
21
     -261.92
39
 0
62
 1
 0
LINE
8
default
6
CONTINUOUS
10
      268.61
20
      -18.06
11
      268.61
21
     -260.01
39
 0
62
 3
 0
LINE
8
default
6
CONTINUOUS
10
     -268.61
20
      -18.06
11
     -268.61
21
     -260.01
39
 0
62
 1
 0
LINE
8
default
6
CONTINUOUS
10
      292.38
20
      -21.56
11
      292.38
21
     -257.92
39
 0
62
 3
 0
LINE
8
default
6
CONTINUOUS
10
     -292.38
20
      -21.56
11
     -292.38
21
     -257.92
39
 0
62
 1
 0
LINE
8
default
6
CONTINUOUS
10
      315.98
20
      -25.39
11
      315.98
21
     -255.65
39
 0
62
 3
 0
LINE
8
default
6
CONTINUOUS
10
     -315.98
20
      -25.39
11
     -315.98
21
     -255.65
39
 0
62
 1
 0
LINE
8
default
6
CONTINUOUS
10
      339.41
20
      -29.56
11
      339.41
21
     -253.19
39
 0
62
 3
 0
LINE
8
default
6
CONTINUOUS
10
     -339.41
20
      -29.56
11
     -339.41
21
     -253.19
39
 0
62
 1
 0
LINE
8
default
6
CONTINUOUS
10
      362.63
20
      -34.08
11
      362.63
21
     -250.55
39
 0
62
 3
 0
LINE
8
default
6
CONTINUOUS
10
     -362.63
20
      -34.08
11
     -362.63
21
     -250.55
39
 0
62
 1
 0
LINE
8
default
6
CONTINUOUS
10
      385.65
20
      -39.11
11
      385.65
21
     -247.72
39
 0
62
 3
 0
LINE
8
default
6
CONTINUOUS
10
     -385.65
20
      -39.11
11
     -385.65
21
     -247.72
39
 0
62
 1
 0
LINE
8
default
6
CONTINUOUS
10
      408.40
20
      -45.57
11
      408.40
21
     -244.66
39
 0
62
 3
 0
LINE
8
default
6
CONTINUOUS
10
     -408.40
20
      -45.57
11
     -408.40
21
     -244.66
39
 0
62
 1
 0
LINE
8
default
6
CONTINUOUS
10
      430.84
20
      -53.60
11
      430.84
21
     -241.36
39
 0
62
 3
 0
LINE
8
default
6
CONTINUOUS
10
     -430.84
20
      -53.60
11
     -430.84
21
     -241.36
39
 0
62
 1
 0
LINE
8
default
6
CONTINUOUS
10
      452.92
20
      -63.16
11
      452.92
21
     -237.84
39
 0
62
 3
 0
LINE
8
default
6
CONTINUOUS
10
     -452.92
20
      -63.16
11
     -452.92
21
     -237.84
39
 0
62
 1
 0
LINE
8
default
6
CONTINUOUS
10
      474.61
20
      -74.18
11
      474.61
21
     -234.11
39
 0
62
 3
 0
LINE
8
default
6
CONTINUOUS
10
     -474.61
20
      -74.18
11
     -474.61
21
     -234.11
39
 0
62
 1
 0
LINE
8
default
6
CONTINUOUS
10
      495.84
20
      -86.61
11
      495.84
21
     -230.19
39
 0
62
 3
 0
LINE
8
default
6
CONTINUOUS
10
     -495.84
20
      -86.61
11
     -495.84
21
     -230.19
39
 0
62
 1
 0
LINE
8
default
6
CONTINUOUS
10
      516.58
20
     -100.37
11
      516.58
21
     -226.07
39
 0
62
 3
 0
LINE
8
default
6
CONTINUOUS
10
     -516.58
20
     -100.37
11
     -516.58
21
     -226.07
39
 0
62
 1
 0
LINE
8
default
6
CONTINUOUS
10
      536.80
20
     -115.39
11
      536.80
21
     -221.79
39
 0
62
 3
 0
LINE
8
default
6
CONTINUOUS
10
     -536.80
20
     -115.39
11
     -536.80
21
     -221.79
39
 0
62
 1
 0
LINE
8
default
6
CONTINUOUS
10
      556.45
20
     -131.60
11
      556.45
21
     -217.36
39
 0
62
 3
 0
LINE
8
default
6
CONTINUOUS
10
     -556.45
20
     -131.60
11
     -556.45
21
     -217.36
39
 0
62
 1
 0
LINE
8
default
6
CONTINUOUS
10
      575.50
20
     -148.95
11
      575.50
21
     -212.80
39
 0
62
 3
 0
LINE
8
default
6
CONTINUOUS
10
     -575.50
20
     -148.95
11
     -575.50
21
     -212.80
39
 0
62
 1
 0
LINE
8
default
6
CONTINUOUS
10
        0.00
20
      654.25
11
        0.00
21
      704.25
39
 0
62
 1
 0
LINE
8
default
6
CONTINUOUS
10
        0.00
20
      654.25
11
        0.00
21
      704.25
39
 0
62
 2
 0
LINE
8
default
6
CONTINUOUS
10
       24.71
20
      653.84
11
       24.71
21
      703.84
39
 0
62
 1
 0
LINE
8
default
6
CONTINUOUS
10
       24.71
20
      653.84
11
       26.40
21
      703.82
39
 0
62
 2
 0
LINE
8
default
6
CONTINUOUS
10
       49.37
20
      652.63
11
       49.37
21
      702.63
39
 0
62
 1
 0
LINE
8
default
6
CONTINUOUS
10
       49.37
20
      652.63
11
       52.68
21
      702.52
39
 0
62
 2
 0
LINE
8
default
6
CONTINUOUS
10
       73.95
20
      650.60
11
       73.95
21
      700.60
39
 0
62
 1
 0
LINE
8
default
6
CONTINUOUS
10
       73.95
20
      650.60
11
       78.87
21
      700.36
39
 0
62
 2
 0
LINE
8
default
6
CONTINUOUS
10
       98.40
20
      647.78
11
       98.40
21
      697.78
39
 0
62
 1
 0
LINE
8
default
6
CONTINUOUS
10
       98.40
20
      647.78
11
      104.94
21
      697.35
39
 0
62
 2
 0
LINE
8
default
6
CONTINUOUS
10
      122.69
20
      644.16
11
      122.69
21
      694.16
39
 0
62
 1
 0
LINE
8
default
6
CONTINUOUS
10
      122.69
20
      644.16
11
      130.83
21
      693.49
39
 0
62
 2
 0
LINE
8
default
6
CONTINUOUS
10
      146.78
20
      639.77
11
      146.78
21
      689.77
39
 0
62
 1
 0
LINE
8
default
6
CONTINUOUS
10
      146.78
20
      639.77
11
      156.51
21
      688.81
39
 0
62
 2
 0
LINE
8
default
6
CONTINUOUS
10
      170.62
20
      634.61
11
      170.62
21
      684.61
39
 0
62
 1
 0
LINE
8
default
6
CONTINUOUS
10
      170.62
20
      634.61
11
      181.94
21
      683.31
39
 0
62
 2
 0
LINE
8
default
6
CONTINUOUS
10
      194.20
20
      628.71
11
      194.20
21
      678.71
39
 0
62
 1
 0
LINE
8
default
6
CONTINUOUS
10
      194.20
20
      628.71
11
      207.09
21
      677.02
39
 0
62
 2
 0
LINE
8
default
6
CONTINUOUS
10
      217.43
20
      621.97
11
      217.43
21
      671.97
39
 0
62
 1
 0
LINE
8
default
6
CONTINUOUS
10
      217.43
20
      621.97
11
      232.46
21
      669.66
39
 0
62
 2
 0
LINE
8
default
6
CONTINUOUS
10
      240.21
20
      614.24
11
      240.21
21
      664.24
39
 0
62
 1
 0
LINE
8
default
6
CONTINUOUS
10
      240.21
20
      614.24
11
      257.29
21
      661.23
39
 0
62
 2
 0
LINE
8
default
6
CONTINUOUS
10
      262.49
20
      605.53
11
      262.49
21
      655.53
39
 0
62
 1
 0
LINE
8
default
6
CONTINUOUS
10
      262.49
20
      605.53
11
      281.76
21
      651.67
39
 0
62
 2
 0
LINE
8
default
6
CONTINUOUS
10
      284.22
20
      595.89
11
      284.22
21
      645.89
39
 0
62
 1
 0
LINE
8
default
6
CONTINUOUS
10
      284.22
20
      595.89
11
      305.46
21
      641.16
39
 0
62
 2
 0
LINE
8
default
6
CONTINUOUS
10
      305.35
20
      585.37
11
      305.35
21
      635.37
39
 0
62
 1
 0
LINE
8
default
6
CONTINUOUS
10
      305.35
20
      585.37
11
      328.69
21
      629.59
39
 0
62
 2
 0
LINE
8
default
6
CONTINUOUS
10
      325.83
20
      574.01
11
      325.83
21
      624.01
39
 0
62
 1
 0
LINE
8
default
6
CONTINUOUS
10
      325.83
20
      574.01
11
      351.06
21
      617.18
39
 0
62
 2
 0
LINE
8
default
6
CONTINUOUS
10
      345.63
20
      561.87
11
      345.63
21
      611.87
39
 0
62
 1
 0
LINE
8
default
6
CONTINUOUS
10
      345.63
20
      561.87
11
      372.70
21
      603.91
39
 0
62
 2
 0
LINE
8
default
6
CONTINUOUS
10
      364.70
20
      548.99
11
      364.70
21
      598.99
39
 0
62
 1
 0
LINE
8
default
6
CONTINUOUS
10
      364.70
20
      548.99
11
      393.56
21
      589.82
39
 0
62
 2
 0
LINE
8
default
6
CONTINUOUS
10
      382.91
20
      535.36
11
      382.91
21
      585.36
39
 0
62
 1
 0
LINE
8
default
6
CONTINUOUS
10
      382.91
20
      535.36
11
      414.04
21
      574.49
39
 0
62
 2
 0
LINE
8
default
6
CONTINUOUS
10
      400.04
20
      520.87
11
      400.04
21
      570.87
39
 0
62
 1
 0
LINE
8
default
6
CONTINUOUS
10
      400.04
20
      520.87
11
      433.42
21
      558.09
39
 0
62
 2
 0
LINE
8
default
6
CONTINUOUS
10
      416.02
20
      505.63
11
      416.02
21
      555.63
39
 0
62
 1
 0
LINE
8
default
6
CONTINUOUS
10
      416.02
20
      505.63
11
      451.54
21
      540.82
39
 0
62
 2
 0
LINE
8
default
6
CONTINUOUS
10
      430.81
20
      489.78
11
      430.81
21
      539.78
39
 0
62
 1
 0
LINE
8
default
6
CONTINUOUS
10
      430.81
20
      489.78
11
      468.35
21
      522.81
39
 0
62
 2
 0
LINE
8
default
6
CONTINUOUS
10
      444.39
20
      473.46
11
      444.39
21
      523.46
39
 0
62
 1
 0
LINE
8
default
6
CONTINUOUS
10
      444.39
20
      473.46
11
      483.71
21
      504.34
39
 0
62
 2
 0
LINE
8
default
6
CONTINUOUS
10
      456.69
20
      456.76
11
      456.69
21
      506.76
39
 0
62
 1
 0
LINE
8
default
6
CONTINUOUS
10
      456.69
20
      456.76
11
      498.49
21
      484.20
39
 0
62
 2
 0
LINE
8
default
6
CONTINUOUS
10
      466.11
20
      438.91
11
      466.11
21
      488.91
39
 0
62
 1
 0
LINE
8
default
6
CONTINUOUS
10
      466.11
20
      438.91
11
      512.40
21
      457.81
39
 0
62
 2
 0
LINE
8
default
6
CONTINUOUS
10
      471.83
20
      420.14
11
      471.83
21
      470.14
39
 0
62
 1
 0
LINE
8
default
6
CONTINUOUS
10
      471.83
20
      420.14
11
      520.83
21
      430.10
39
 0
62
 2
 0
LINE
8
default
6
CONTINUOUS
10
      473.99
20
      400.00
11
      473.99
21
      450.00
39
 0
62
 1
 0
LINE
8
default
6
CONTINUOUS
10
      473.99
20
      400.00
11
      523.98
21
      400.98
39
 0
62
 2
 0
ENDSEC
0
EOF
